<?xml version="1.0" encoding="utf-8"?>
<!-- Generator: Adobe Illustrator 27.0.1, SVG Export Plug-In . SVG Version: 6.00 Build 0)  -->
<svg version="1.1" id="Layer_1" xmlns="http://www.w3.org/2000/svg" xmlns:xlink="http://www.w3.org/1999/xlink" x="0px" y="0px"
	 viewBox="0 0 848 607" style="enable-background:new 0 0 848 607;" xml:space="preserve">
<style type="text/css">
	.st0{fill:none;stroke:#022F40;stroke-miterlimit:10;}
	.st1{fill:#1F4656;}
</style>
<path class="st0" d="M1798.5-104.5"/>
<g>
	<g>
		<g>
			<g>
				<g>
					<g>
						<path class="st1" d="M454.3,499.3c3.6,0.1,6.7,0.7,5.4,0.7c3.7,0.1,5.6,0.5,6.7,0.6c1.1,0.1,1.4,0.1,1.9-0.1
							c2.4,0.3,4.9,1,6.1,1.6c1.1,0.5,1,0.6-1.7-0.1c2.3,0.6,4.6,1.4,6.8,2.7c2.2,1.2,4.3,3,5.8,5.4c-1.7-2.9-4.2-5-6.9-6.4
							c0.6,0.1,1.7,0.7,3,1.6c1.3,0.9,2.7,2.4,3.8,4.1c1.1,1.7,1.8,3.7,2.2,5.3c0.2,0.8,0.3,1.6,0.4,2.2c0.1,0.6,0.2,1.2,0.3,1.5
							c0-1.4-0.2-2.9-0.5-4.4c-0.4-1.5-0.9-2.9-1.7-4.3c-1.6-2.7-4-4.7-6.4-6.1l0.8,0.3c-1.7-1-4.3-2.1-6.7-2.9
							c-2.4-0.8-4.6-1.3-5.8-1.5c0.4,0,0.2-0.3,2.9,0.3c-2.3-0.6-4.1-0.8-5.5-1c-1.4-0.2-2.4-0.2-3.2-0.3c-1.5-0.1-2.1,0.1-2.5,0.2
							c-0.4,0.1-0.8,0.2-1.9,0.3c-1.1,0.1-3.1,0-6.8,0C451.6,499.2,452.7,499.2,454.3,499.3z"/>
						<path class="st1" d="M439.2,497.8l-6.1,1l-10.3,0.3c-0.1,0.3-7.5,0.9-2.5,0.8c1-0.1,2.9-0.3,4.5-0.3c-1.1,0.6-13.6,1-10.5,1.5
							c8.1-0.6,9.3-0.6,14.3-1.3c7.4-0.3,12.9-0.3,16.4-0.2c2.2-0.1,2.5-0.5,5.4-0.5c-0.6,0-1.2,0-1.9,0l-0.3-0.9
							c-2.4,0.2-4.6,0.1-7.2,0.2c4-0.4,8.1-0.8,12.2-1c-2-0.5-6-0.6-10-0.5c-4.1,0-8.2,0.2-10.6,0.2
							C438.3,497.6,427.8,497.6,439.2,497.8z"/>
						<path class="st1" d="M450.3,499.2c0.1,0,0.2,0,0.3,0C450.5,499.2,450.4,499.2,450.3,499.2z"/>
						<path class="st1" d="M184.3,88.9c2.2-1.4,2.7-2,3-2.3c-4.1,2.6-8,5.5-11.9,8.3c-3.9,2.9-7.7,5.8-11.4,8.9
							c0.8-0.4,7.5-5.3,3.2-1.8c1.1-0.7,3-2.2,4.8-3.7c1.8-1.4,3.5-2.8,3.8-3.3l-1.5,1.5c2.5-2.2,4.8-3.7,6.1-4.4
							c1.3-0.7,1.5-0.5-0.2,0.9l0.4-0.3c2.3-2.1,4.7-3.9,7.2-5.9c1.2-1,2.5-1.8,3.8-2.8l3.8-2.7c-3,1.7-4.1,2.4-5.3,3.3
							C189,85.6,187.7,86.7,184.3,88.9z"/>
						<path class="st1" d="M765.7,85.1c-3.7-0.4-4.1-0.4-3.7-0.3C763.3,84.9,764.6,85,765.7,85.1z"/>
						<path class="st1" d="M199.3,79.1c1.7-1,3.3-2.1,5.1-3C202.2,77.1,200.5,78.3,199.3,79.1z"/>
						<path class="st1" d="M170.8,107.7c0,0,0,0.1,0.1,0l1.8-1.8c0,0,0,0-0.1,0C172,106.7,171.4,107.2,170.8,107.7z"/>
						<path class="st1" d="M326.5,48.9c0.6-0.1,1.1-0.1,1.9-0.2C327.7,48.8,327.1,48.8,326.5,48.9z"/>
						<path class="st1" d="M119.8,164c2.4-3.4,4.8-6.7,7.3-10c-0.9,1.4,2.9-3.2,1.4-1c0.3-0.4,1.1-1.4,1.8-2.3
							c0.7-0.8,1.2-1.5,0.7-1.1c-0.6,0.6-1.1,1.3-1.6,1.9c1.9-2.7,2.1-3.3,2.7-4.4c0.6-1.1,1.6-2.5,5.1-6.7
							c-4.9,4.7-6.6,7.2-8.6,10.2c-0.8,1-1.4,1.8-2,2.6c-1,1.4-1.9,2.9-2.9,4.3c-1,1.4-1.9,2.9-2.8,4.4L119.8,164z"/>
						<path class="st1" d="M589.3,66.2l-0.1,0C589.3,66.3,589.4,66.3,589.3,66.2z"/>
						<path class="st1" d="M588.6,66.4l0.6-0.2C588.5,66.3,585.9,66.2,588.6,66.4z"/>
						<path class="st1" d="M197.6,80.4c0.1-0.2,0.7-0.7,1.7-1.4l-3.7,2.3C196.1,81.1,196.8,80.8,197.6,80.4z"/>
						<path class="st1" d="M189.7,86.6c-3,2-6.1,4-8.9,6.1l-3,2.6c1.6-1.3,3.4-2.6,5.3-4.1C185.1,89.8,187.3,88.3,189.7,86.6z"/>
						<path class="st1" d="M309.5,49.9c2.8-0.3,4.8-0.5,6.2-0.6c1.4-0.1,2.2-0.1,2.5-0.1c0.7,0-0.4,0.2-1.8,0.5
							c-2.9,0.5-7.2,1.2-2.1,0.8c6.2-0.6,8.3-1.2,12.2-1.6c-8.8,0.9-8.3,0.5-7.7,0.1c0.3-0.2,0.5-0.4-0.4-0.4c-0.9-0.1-3,0-7.5,0.5
							c2.5-1,12.8-1.9,18.9-2.1c6.9,0.2-6,0.9-7.5,1.7c7.2-0.7,5.9-0.7,8.9-1.3c11.3-0.6,23.3-2.1,30-1.4c8.1-0.4,7.6-0.7,12.3-1.1
							c0.9-0.7-12.1-0.1-15.2-0.5c0.6,0,1.9,0.1,1.5,0.2l-7.1,0.1c6.7,0-0.9,0.7-4.5,1c-2.6,0.1-7.8,0.4-7.1,0.2l3.9-0.4
							c-2.5,0-5.3,0.3-8.2,0.6c-2.8,0.3-5.7,0.6-8.4,0.5c-0.3-0.1,1.7-0.4,2-0.5c-3,0.4-5.9,0.8-9.2,1.1c-1.7,0.2-3.4,0.4-5.3,0.6
							c-1.9,0.2-3.9,0.5-6.1,0.8l5.1-1.2c-1.8,0.4-4.1,0.7-6.8,1.1c-2.7,0.3-5.7,0.7-8.8,1.1c-6.3,0.7-13.1,1.4-18.7,2.1
							c1.3-0.1,3.5-0.3,2.2,0c-6.5,1.2-11.5,1.5-8.5,0.6c-1.6,0.4-3.9,0.8-6.6,1.3c-2.7,0.5-5.8,1-9,1.6c-6.4,1.1-13,2.7-17.2,4.1
							c-12.9,4.6-25.5,10-37.4,16.7c1.4-0.7,2.8-1.4,4.4-2.1c1.8-0.5,3.2-0.8,3.4-0.7c0.1,0-0.1,0.2-0.7,0.5c-0.6,0.3-1.6,0.8-3,1.6
							c1.4-0.7,2.3-1.2,3.1-1.6c0.7-0.4,1.2-0.7,1.8-1c0.6-0.3,1.3-0.7,2.4-1.2c0.6-0.2,1.2-0.5,2-0.9c0.8-0.3,1.7-0.6,2.9-1
							c-3.4,1.5-4,2.5,4.6-0.4c21.4-7.5,35.9-12.1,56.7-16.3c0.4,0.1,4.7-0.3,10-1c2.6-0.4,5.4-0.6,8.1-0.9c2.7-0.3,5.2-0.6,7.2-0.7
							c-1.5,0.4-3.7,0.8-6.4,1.2c-2.6,0.4-5.6,0.8-8.7,1.3c1.9-0.3,4.6-0.5,7.3-0.8c2.8-0.3,5.7-0.6,8.1-0.9L309.5,49.9z"/>
						<path class="st1" d="M257.7,59.2c0.6-0.1,1.1-0.2,1.7-0.3C259.1,59,258.6,59.1,257.7,59.2z"/>
						<path class="st1" d="M290.2,53.1C290.1,53.1,290.1,53.1,290.2,53.1c0.6,0,1.2-0.1,1.9-0.2C291.4,52.9,290.7,53,290.2,53.1z"/>
						<path class="st1" d="M202.8,79c-1.2,0.7-2,1.2-3.2,1.9c0.7-0.4,1.6-0.9,2.5-1.4C203,79.1,203.4,78.8,202.8,79z"/>
						<path class="st1" d="M198.4,80.3l0.6-0.5c-0.5,0.2-0.9,0.4-1.4,0.6C197.5,80.6,197.7,80.6,198.4,80.3z"/>
						<path class="st1" d="M394.8,50.6l2.1-0.1C395.6,50.5,395.1,50.6,394.8,50.6z"/>
						<path class="st1" d="M334.4,48.8c-3.9,0.3-4.1,0.5-4.7,0.7c-0.6,0.2-1.6,0.4-7.1,0.9l3.2-0.2c-7.8,0.9-21.7,2-31,3.2
							c1-0.4-5.7,0.4-4.7-0.2c-6.4,0.9-12.6,2-15.8,3c-2,0.2-4.4,0.8-7,1.3c-1.3,0.3-2.6,0.5-3.9,0.8c-1.3,0.3-2.6,0.5-3.9,0.7
							c2.1-0.1-6.9,2.3,5.1-0.4c-1,0.2-0.3,0.2-1.3,0.4c3.9-0.5,6.7-1.1,9.2-1.7c2.6-0.6,5-1.1,8.4-1.6c4.1-0.4-6.5,1.5-2.7,1
							c4.2-0.8,10.8-1.6,16.3-2.4c5.5-0.6,9.9-1.3,9.5-1.7c6.2-0.7,7-0.5,8.9-0.5c2.4-0.5,5.9-0.9,9.7-1.2c3.8-0.4,8.1-0.6,12-0.8
							c7.8-0.4,14.4-0.6,14.4-1.3c-3.6,0.3-9.4,0.4-14.6,1.1L334.4,48.8z"/>
						<path class="st1" d="M214.8,73.8c0.4-0.2,1-0.4,1.4-0.5C215.8,73.5,215.3,73.7,214.8,73.8z"/>
						<path class="st1" d="M132.8,128.1c0.5-1,1.1-2,1.7-3c6.5-6.7,11.2-11.1,15.8-15.1c4.6-4,9-7.7,15.5-12.8
							c1.1-0.7-0.5,0.6-1.2,1.3c4.5-3.6,10.2-7.9,15.8-11.9c5.8-4,11.5-7.4,15.3-9.5c0.8-0.4,2-1,3.3-1.6c0.6-0.3,1.3-0.6,1.9-0.9
							c0.6-0.3,1.3-0.5,1.8-0.7c2.3-0.9,3.7-1.4,2.1-0.5c0.8-0.4,1.7-0.8,2.6-1.3c0.9-0.4,1.9-0.9,2.8-1.2c0.3,0.1-0.8,0.5-1.9,1
							c-1.1,0.5-2.4,1.1-2.4,1.2c1.5-0.6,2.1-0.9,2.4-1.1c-1.2,0.7-0.5,0.7-0.9,1.1c-0.2,0.2-0.7,0.6-1.9,1.2
							c-0.6,0.3-1.4,0.7-2.3,1.1c-0.5,0.2-1,0.5-1.6,0.8c-0.6,0.3-1.3,0.6-2,1c-2.4,0.8-0.4-0.2,1.8-1.4c2.3-1,4.8-2.2,3.2-2
							c-3.9,1.7-3.3,1.8-3.6,2.1c-4.9,2.4-4.9,2.2-4.7,1.9c-0.4,0.3-1.2,0.7-2,1.1c-0.9,0.5-1.9,1.1-2.9,1.6
							c-2.1,1.2-4.2,2.4-5.3,3.4c-9,6,0.1-0.9-5.7,3.1l-2.7,3c-1.6,1.1-3.1,2.2-4.6,3.3c-1.5,1.1-3.1,2.2-4.6,3.4
							c-6.4,5.2-5.6,5.2-5.2,5.3c0.2,0.1,0.4,0.2-0.3,1c-0.7,0.9-2.5,2.4-6,5.6c1.6-1.9-4.7,2.3-11.2,8.2c1.9-1.8,4.6-4.4,7.4-7.1
							c2.9-2.6,6-5.4,8.7-7.4c-3.9,2.8-1.4,0.7,1.6-1.8c3-2.4,6.5-5.2,4.3-4c-3.5,3.2-9.6,8.2-14.3,12l1.5-1.4
							c-5,4.2-8.1,8.1-14.8,14.1c-3.2,3.1-2.7,2.4-2.3,1.7C135.2,125.7,132.9,128.2,132.8,128.1z M139.6,121
							c1.5-1.4,2.9-2.8,4.4-4.1C142.8,117.8,141.2,119.4,139.6,121z"/>
						<path class="st1" d="M357.5,499.9c0.6,0.1,1.2,0.1,1.7,0.2C358.9,500.1,358.2,500,357.5,499.9z"/>
						<path class="st1" d="M93.2,317.6c0.8,0.6,1.7,1.1,2.6,1.7C94.7,318.7,93.9,318.1,93.2,317.6z"/>
						<path class="st1" d="M161.4,314.1l4.4-2C164.1,312.8,162.7,313.5,161.4,314.1z"/>
						<path class="st1" d="M319.7,491l-0.1-0.1c-0.2-0.1-0.4-0.2-0.7-0.3L319.7,491z"/>
						<path class="st1" d="M306.7,261.2c0.9,0.3,1.8,0.6,3.2,1.1C309.7,262.2,308.5,261.7,306.7,261.2z"/>
						<path class="st1" d="M160.6,314.4c0.1,0,0.2-0.1,0.3-0.1c0.2-0.1,0.4-0.2,0.5-0.3L160.6,314.4z"/>
						<path class="st1" d="M78.5,292c-0.2-0.6-0.4-1.2-0.6-1.9C78.1,291,78.3,291.5,78.5,292z"/>
						<path class="st1" d="M77.6,296.9c-0.3-0.7-0.5-1.3-0.7-1.8L77.6,296.9z"/>
						<path class="st1" d="M100.8,189.3c0.7-1.3,1.4-2.6,2.2-3.9C101.8,187.3,101.2,188.4,100.8,189.3z"/>
						<path class="st1" d="M75.1,285.8c-0.1-0.2-0.2-0.5-0.2-0.6C75,285.8,75.1,286.1,75.1,285.8z"/>
						<path class="st1" d="M386.3,503c-0.1,0-0.2,0-0.3,0l-0.1,0.1L386.3,503z"/>
						<path class="st1" d="M397.4,501.3c1.3-0.1,2.7-0.2,4-0.3C399.9,501.2,398.4,501.2,397.4,501.3z"/>
						<path class="st1" d="M324.3,325.2c-0.3,1.2-1,4-0.9,2.6C323.1,330.2,323.5,330.1,324.3,325.2z"/>
						<path class="st1" d="M363.8,508.2c0.7-0.1,1.7-0.1,2.6-0.2C364.7,508,363.2,508.1,363.8,508.2z"/>
						<path class="st1" d="M366.4,508c0.9,0,1.8-0.1,2.5-0.1C368.1,507.9,367.2,507.9,366.4,508z"/>
						<path class="st1" d="M320,294c0-0.3,0.1-0.7,0-1.3C319.9,292.9,319.9,293.3,320,294z"/>
						<path class="st1" d="M404.6,501.1c0.7-0.2,18.1-1.7,3.5-0.9c0.5-0.7,9.4-0.8,13.3-1.2c-2.9,0,1.4-0.5,0.5-0.7
							c-1.9,0.2-4.3,0.5-7.5,0.6c-1.5-0.2,3.4-0.7,7.2-0.8c-4.7-0.1,5.9-0.8-0.7-0.7c-14.2,1-24.1,1.9-34,3c8-0.4,17-1,23.7-1.2
							l-2.8,0.7c-7.5-0.1-12.1,0.5-19.4,0.7c5.5-0.1,11-0.2,16.5-0.4c7.8,0,2.6,0.4-3.5,0.8C402.9,501,404.2,501,404.6,501.1z"/>
						<path class="st1" d="M393.7,506.3l0.3,0c0.2,0,0.5-0.1,0.7-0.1L393.7,506.3z"/>
						<path class="st1" d="M90.8,184.5l0.6-1.4C90.9,184.2,90.7,184.6,90.8,184.5z"/>
						<path class="st1" d="M383.7,504L383.7,504C383.6,504,383.5,504,383.7,504z"/>
						<path class="st1" d="M75,217.1c0-0.1,0-0.1,0-0.2C75,217,75,217,75,217.1z"/>
						<path class="st1" d="M82.9,229.9c0-0.1,0.1-0.1,0.1-0.2C83.2,229,83.1,229.3,82.9,229.9z"/>
						<path class="st1" d="M75.1,217.1C75,217.1,75,217.1,75.1,217.1C75,217.1,75,217.2,75.1,217.1z"/>
						<path class="st1" d="M151.5,328.2c0,0-0.6,0.1-1.4,0.2C149.8,328.6,150.1,328.6,151.5,328.2z"/>
						<path class="st1" d="M116.9,332.5c-0.2,0-0.4-0.1-0.6-0.1C116.5,332.4,116.7,332.4,116.9,332.5z"/>
						<path class="st1" d="M328,317.4c0.3-1.7,0.4-3,0.5-4.1C328.4,314.6,328.2,316,328,317.4z"/>
						<path class="st1" d="M75,216.9c0.1-0.4,0.2-0.9,0.5-1.7C75.2,216.1,75.1,216.6,75,216.9z"/>
						<path class="st1" d="M198.6,305.6c-0.3,0.2-0.6,0.3-0.9,0.5l0.6-0.2L198.6,305.6z"/>
						<path class="st1" d="M214.7,298.1c-0.5,0.3-0.7,0.5-1,0.7c5.6-3,16.1-8,17.1-9.1c-1.9,1-12.1,5.6-10.5,4.5
							c-3.9,2.1-9.9,4.7-12,5.8c6.6-2.9,0.9,0.1-3.4,2.4c-4.1,1.8,0.5-0.8-2.9,0.8l-9.3,4.5l8.1-3.8l-2.2,1.7
							c0.3-0.2,0.5-0.3,0.8-0.4C212.9,298.2,200.9,305.4,214.7,298.1z"/>
						<path class="st1" d="M213.7,298.8c-0.8,0.5-1.6,0.9-2.1,1.2C212.9,299.4,213.3,299.1,213.7,298.8z"/>
						<path class="st1" d="M270.2,273.7c0.7-0.3,1.5-0.6,2.5-1C272.2,272.9,271.2,273.3,270.2,273.7z"/>
						<path class="st1" d="M171.6,99.9c-0.3,0-7.5,5.3-7.1,5.5c2-1.7,4.2-3.2,6.3-4.9L171.6,99.9z"/>
						<path class="st1" d="M303.9,388c0.3-0.9,0.6-1.9,1-2.8c0-0.2,0.1-0.4,0.1-0.6C304.7,385.2,304.2,387,303.9,388z"/>
						<path class="st1" d="M222.6,292.8c-1.4,0.8-2,1.2-2.4,1.4C221.2,293.7,222.1,293.2,222.6,292.8z"/>
						<path class="st1" d="M302.8,388.2c-0.5,1.1-1.3,2.8-1.5,3c-0.8,2.4-1.2,4.2-2,6.7C300.1,395.1,301.3,391.9,302.8,388.2z"/>
						<path class="st1" d="M299.2,398.1c0-0.1,0-0.1,0.1-0.2C299.2,398,299.2,398.1,299.2,398.1z"/>
						<path class="st1" d="M175.9,96.8c0.6-0.5,1.2-1,1.8-1.5l-0.9,0.8c1.6-1.2,3.3-2.3,5-3.5c0.6-0.5,1.2-0.9,2-1.5
							c-0.3,0.2-0.5,0.5-0.7,0.6c0.5-0.4,1.1-0.7,1.6-1.1c1-0.8,2.3-1.8,3.8-2.9c0.4-0.3,0.8-0.6,1.2-0.9c0.4-0.3,0.8-0.5,1.3-0.8
							c0.9-0.5,1.7-1.1,2.6-1.6c0.9-0.5,1.7-1.1,2.6-1.6c0.8-0.5,1.7-0.9,2.4-1.3c1.5-0.8,2.7-1.5,3.5-2c4.1-2.2,9.3-4.5,12.7-5.7
							c-1.5,0.6-3.3,1.3-4.6,1.9c-1.2,0.6-1.9,1-1.2,0.8c6.3-2.3,9.5-2.9,20.3-7c-2.2,0.6-4.3,1.4-6.4,2.1l3.5-1.5
							c1.2-0.5,2.4-0.9,3.6-1.3l3.6-1.3l1.8-0.7l1.8-0.6c2.6-0.5,0.8,0.1-1.9,1c-2.7,0.9-6.3,2.1-7.2,2.6c2.8-1,5.5-1.8,8.1-2.5
							c2.6-0.7,5-1.2,7.3-1.7c4.5-1,8.3-1.7,10.9-2.7c0.9,0.3,2.3,0.8,9.9-0.7c-2.8,0.3-1.7,0-0.4-0.4c1.2-0.3,2.6-0.7,0.3-0.6
							c2.6-0.7,8.5-1.4,8.9-1.8l-0.7,0.3c13.2-1.4,17.3-3,22.9-4.2c3.9-0.5,7.3-0.9,10.4-1.3c3.1-0.3,5.9-0.5,8.6-0.8
							c2.7-0.3,5.3-0.4,8-0.6c2.7-0.2,5.6-0.4,8.8-0.6c0.5,0.3,4.1,0.9,9.3,0.6c1.2-0.3,4.7-0.6,8.1-1c3.4-0.4,6.6-0.6,7.2-0.9
							c-4.6,0-6.5,0.3-7.9,0.5c-1.4,0.2-2.4,0.5-5.1,0.7c-4.6-0.3-0.5-0.6-6.8-0.6c2.5-0.1,8.3-0.4,14.1-0.7
							c5.8-0.3,11.7-0.5,14.5-0.3l-2,0.1c8.9,0.1,10.6,1.4,25.4,0.4l7.1-0.4c-0.3,0.1-0.4,0.1-0.6,0.2c5.8,0,7.9,0.2,10.1,0.4
							c2.3,0.1,4.7,0.1,11,0c-1,0-0.4,0.1-1.4,0.1c7.3,0.4,14.6,0,20.1,0c3.3,0.6-0.8,0.4-2.9,0.7c12.8,0.5,26.6,0.3,34.6,0.2
							l8.2,0.7c-4.9-0.1-10.9,0.1-9.4,0.5c4.5,0.1,3.7-0.1,10.1,0.3c-1.1,0.2-3.8,0.4-6.8,0.6c13.2,1.2,3-0.9,12.2,0.5
							c4.2,0.2,6.6-0.1,7.1-0.4l7.5,1c0.9-0.4,10.2,0.2,16.3,0.6c0.8-0.1-4.9-0.8-7.2-0.8c0.5-0.3,7-0.1,11.1,0.3
							c1.5,1.1,27.3,2,22.3,2.8c18.7,1.3,45,3.8,57.3,4.7c4,0.7,12.3,1.6,7.3,1.5c15,1.7,22.9,1.6,37.7,3.6c1.2,0.3-6.7-0.8-6.2-0.4
							c9.8,0.8,17.7,2.6,32.8,4.2c-2.5-0.3-3.3-0.2-3.7-0.1c-0.2-0.2,6.2,0.5,10.1,0.8c2.2,0.4-2.9-0.3-1.7,0
							c29.1,4.3,51.4,6.1,80.3,10.3c-8.3-1.2-11.5-1-11.6-0.8l8.1,1.2c3.2,0.1,9.2,1,14.4,1.5c0.6,0.2,3.1,0.7,0.5,0.5
							c7.9,1.5,14.2,2.1,21,2.6c3.4,0.3,6.8,0.6,10.7,0.9c3.9,0.4,8.1,0.8,12.9,1.2c-3.9,0-7.9-0.3-11.9-0.5c-4-0.3-8-0.6-12-0.9
							l5.8,1.2l-10.5-0.8c6.2,1.2,11.7,1.1,12.4,1.7c-1.3,0-4.5-0.5-4.6-0.2c6,1,6.5,0.7,11,1.1c-12-0.4-35.3-3.8-47.8-5.3
							c-2-0.2,1.7,0,2.1,0c-5.1-0.7-8.1-1.4-14.6-2.2c-4-0.2,3,0.7,6.2,1.2c-0.5,0.3-2.1,0.1-5.6-0.4c-0.7-0.6-19.3-2.9-23.8-4.1
							c-18.9-2.5,2.8,1.7-15.5-1.1l-5.4-1.3c-10.7-1-24.6-2.5-36.7-4.1l2.6,0.3c1.7,0-1.1-0.5-2.3-0.8c-9.1-1.4-17.4-1.7-22.9-2.9
							c-10.5-0.7-27.9-2.2-39.9-3.2c-3.1-1.1,15.6,1.1,20.7,1.2l-10.9-1.2c6.7,0.7,9.4,0.8,13.5,0.8c-9.5-1.2-12.7-0.9-21.8-1.7
							c0.7-0.1-0.5-0.4-4.6-0.8l-1.2,0.4c-0.1,0-0.5-0.1-1.8-0.3l-16.1-1.3c3.4,0.5,3.5,1,7.7,1.4c-1.5-0.4,2.1-0.1,6.2,0.3
							c-3.7-0.1,4,0.7,3.9,1c-8.3-0.9-18.6-1.9-24-2.3l-1.7-0.6c-7.9-0.9-16.3-1.4-21.7-2l1.7-0.1c-9.5-1-18.9-1.5-27.4-2.5
							c-8.6-0.1-19.3-0.5-26.3-0.4c-1.9,0.2-8.1-0.4-15.1-0.9c-7-0.5-14.7-1-19.5-0.8c-0.6-0.1,6.6-0.2,9.9-0.2
							c-6.4-0.4-11.5,0.1-13.5-0.6c14.3,0.8-0.7-0.5,5.7-0.4c-6.7-0.3-13.8-0.4-17.1-0.3c10.9,0.4-3.9,0.7,7.1,0.8
							c-8.5,0.2-20.2,0-30.3-0.3c0.1-0.3-1.1-0.4-4.9-0.6l-3.1,0.3c-4.8-0.1,9.2-0.4-0.4-0.6c-2.5,0.1-5.5,0.2-8.9,0.2
							c-3.3,0-6.8,0-10.2,0c-6.7,0-12.7,0.2-14.9,0.8c-7.5-0.4,14.3-0.7,2.9-1.1c6.6-0.6,15.7-0.1,17.8-0.7
							c-6.5,0.2-2.4-0.5-6.5-0.5c-2.4,0.1-4.8,0.3-7.2,0.4l1.6,0c-12.1,0.6-31.2,0.9-46.6,2c-3.2,0.4-6.2,0.7-9.1,1.1
							c-2.9,0.4-5.7,0.8-8.6,1.2c-2.9,0.4-5.9,0.8-9.1,1.2c-3.2,0.4-6.7,0.8-10.5,1.2c2.3-0.4-1-0.2-3.5,0c-2.6,0.2-4.5,0.3,0.3-0.7
							c-7.2,0.6-14.2,2-14.3,2.3c6.3-0.9,2.2-0.2,7.5-0.9c-3.5,0.7-11.7,2-15.1,2.4c1.6-0.2,1-0.2,1.3-0.3c-7.5,1.1-3.5,0.9-8.9,2
							c-0.9-0.1-3.9,0.5-7.2,1.2c-1.7,0.4-3.5,0.7-5.1,1.1c-1.6,0.4-3.2,0.7-4.4,0.9c-2.3,0.8-4.6,1.5-6.8,2.4
							c1.9-0.7,0.2-0.3-2.1,0.3c-1.1,0.3-2.4,0.6-3.5,0.9c-1.1,0.3-1.9,0.5-2.2,0.5c-2.4,0.9-4.6,1.8-7.2,2.7
							c-1.2,0.5-2.6,1-4.1,1.6c-1.5,0.6-3.1,1.1-4.9,1.8c2.9-1.4-6.7,2.3-7,2c-6.2,2.5-11.1,5.1-15.6,8c-1.1,0.7-2.3,1.4-3.4,2.2
							c-1.1,0.7-2.2,1.6-3.3,2.3c-1.1,0.8-2.3,1.5-3.5,2.4c-1.2,0.9-2.5,1.7-3.8,2.6c0.3-0.3,2.2-2-0.9,0.1
							c-2.3,1.8-6.4,4.9-8.9,6.9l0.1-0.1c0,0-0.1,0.1-0.1,0.1c-1.2,1-1.9,1.6-1.9,1.7c-3.9,3.7-5.8,5.7-13.5,13
							c0.5-0.1,2.3-1.6,4.4-3.5c2.1-1.8,4.5-4,5.9-5.2l2.3-2.5c2.9-1.4,7.4-6,9.5-7.2c-1.1,1.1-2.9,2.6-5,4.4
							c-1.1,0.9-2.2,1.9-3.4,2.9c-1.2,1-2.4,2.1-3.7,3.2c-5.1,4.4-10.5,9.2-14.3,13.2c5.3-4.1,16.1-13.6,26.2-21.2
							c-1.5,1-3.1,2.1-4.6,3.2l2.6-2l2.6-2c-1.8,1.1-3.6,2.3-5.4,3.5c5-3.8,9.3-7.1,13.9-10.3c-5.4,3.8-7.9,4.8-4.7,2.7
							c1.6-1,2.7-1.8,3.7-2.5c0.9-0.7,1.6-1.2,2.3-1.7c0.6-0.5,1.3-1,2-1.6c0.7-0.5,1.5-1.2,2.8-1.9c-0.3,0.2-0.7,0.4-1,0.6
							c-0.3,0.2-0.7,0.4-1,0.6c-0.6,0.4-1.2,0.8-1.7,1.1c-0.9,0.5-1.2,0.7-0.2-0.1c1.2-0.7,2.2-1.3,3.2-1.9c1-0.5,1.9-1,2.8-1.5
							c1.7-0.9,3.2-1.8,4.7-2.5c1.5-0.7,3-1.4,4.6-2.2c1.7-0.8,3.6-1.5,5.9-2.3c-1.5-0.4,11.5-4.8,12.8-5.7c-1.5,0.5-3,0.9-4.4,1.5
							c3-1.3,6.1-2.5,9.2-3.7c9-2-7.6,3,5.9-0.6c12.4-3.4,11.9-4.1,21.8-6.4c-3.2,1.2-10.9,3.4-18.8,5.5l4.8-1.1
							c-1.2,0.5-4.6,1.3-8.2,2.5c-1.8,0.6-3.8,1.1-5.6,1.7c-1.8,0.6-3.4,1.2-4.8,1.6c4.3-1.8,3.2-1.5,0.6-0.6c-1.3,0.5-3,1-4.6,1.6
							c-1.6,0.6-3.2,1.1-4.2,1.4c-0.5,0.7,4.9-1.5-1.4,1.4c3-1.2,4.8-1.9,6.7-2.6c2-0.7,4.2-1.4,8.2-2.7c-2.1,0.7-4,1.3-5.6,1.9
							c-1.6,0.6-3,1.1-4.2,1.7c-2.4,1.1-4.1,2-5.8,2.8c-3.2,1.9-6.3,3.5-13.2,6.8c3.1-1.7,2.5-1.6,1-1c-1.6,0.5-3.8,1.7-4.3,1.8
							c-1.4,0.9-3.6,2.1-5.6,3.5c-2,1.4-3.9,2.7-5.1,3.6c0.8-0.3,1.7-0.7,2.5-0.9c-3.6,2.7-6.4,4.4-9.1,6.2
							c-2.8,1.8-5.6,3.8-9.6,7.4c-0.9,1.1,7.4-5.7,6-4.5c-2.8,2.3-5.2,4.2-7.3,6c-2.2,1.7-4.1,3.2-6,4.6c-3.8,2.9-7.4,5.6-12.3,9.9
							c-0.4,0.7,0,0.9-3,4.3c0.7-1.3-1.8,0.9,1.6-2.9c-1.6,1.4-3.3,3.1-4.9,4.8c-1.6,1.7-3.1,3.4-4.3,4.8c6.4-6.3-2.2,3-3.1,4.5
							c-3.2,3.4,0.6-1.4,2.5-3.5c-1.3,1.3-2.9,2.7-4.2,4c-1.3,1.3-2.4,2.5-2.9,3.5c-0.5-0.2,6.2-8.6,11-13.6
							c-1.1,1.1-2.3,2.2-3.3,3.3c2.1-2.5,2.6-2.9,5.9-6.1c-3.5,3-3.4,2.4-2.9,1.5c0.5-0.4-0.2,0.3,0.3-0.1c2.7-2.6,4.8-4.7,4-4.2
							c2-2.8-4,3.4-6,5c-1.3,1.4-2.7,2.8-3.9,4.2c-4.1,5.2-8,10.4-11.6,15.8c-1.3,1.6-2.4,3-3.4,4.3c-1,1.2-2,2.4-2.8,3.4
							c-0.9,1.1-1.8,2.1-2.6,3.1c-0.9,1.1-1.8,2.1-2.8,3.4l-0.6,1.7c-1.1,1.5-2.1,2.9-3,4.2c-0.9,1.3-1.7,2.4-2.3,3.2
							c-1.2,1.6-1.7,2-0.7-0.1c0.3-0.1,0.8-0.9,1.7-2.2c0.1-0.2,0.2-0.5,0.4-0.9c0.1-0.1,0.1-0.2,0.1-0.3c-2.1,3.3-3.8,5.9-5,7.8
							c-1.2,1.9-1.8,3-1.9,3.2c6.5-11.5-0.4-1,0-3.4c-1.2,1.9-2.3,3.9-3.4,5.8c-1.1,1.9-2.2,3.9-3.2,5.9c4.3-6.9,0.4,0.1-0.8,2.7
							c-0.9,0.4-5,9.5-7,13.7l0.1-0.4c-2,3.8-4.9,10.8-6.6,16c0.2-0.2-1.3,6.6-1.8,9.9c1.5-4.3,1.8-5.2,1.9-5c0.1,0.1-0.2,1.3,0.1,1
							c-0.3,0.9-0.8,2.5-0.8,2.7c-0.3,1.3,0.7-1.6,0.9-1.8c2.7-9.3,6.7-18.5,7.8-22.4c-1.6,2.6-1.8,4.8-3.3,7.8
							c1.5-4.6,4.1-10.3,7.9-17.5c0.5-0.7,1.1-1.5,1.6-2.2l1.9-3.6l2-3.6c-1.5,3.1-0.2,1.5-4.2,9c0.8-0.8,4-7.5,6.8-11.9l0.9-2.6
							c-0.3,1,5.8-8.4,1.8-1.5c-1.1,1.9-2.1,3.8-3.2,5.6c-1,1.9-2.1,3.8-3.1,5.7c0.7-1,1.4-2,2.1-2.9c-0.9,1.6-1.8,3.2-2.6,4.8
							c-0.9,1.6-1.7,3.2-2.5,4.8l0.9-2.4c-1,2-1.8,3.5-2.4,4.7c-0.6,1.2-1.1,2.1-1.5,2.8c-0.8,1.4-1.2,1.9-1.5,2.5
							c-0.7,1.1-1.6,2.2-4.7,10.4c-0.4,1.3-0.8,2.7-1.2,4.1c-0.5,1.4-0.9,2.9-1.5,4.6c-1.1,3.3-2.4,7.3-3.9,12.4
							c1.9-7.5-0.2-0.9,0.2-3.8c-0.3,0.9-0.6,1.8-0.8,2.6c-0.2,0.8-0.4,1.6-0.6,2.2c-0.3,1.4-0.6,2.6-0.8,3.6c-0.2,1.1-0.3,2-0.4,3
							c-0.1,0.9-0.2,1.9-0.3,2.9c-0.4,0.9-0.7,1.8-0.7,1.5c-0.1-0.3,0.1-1.7,0.9-5.1c-0.3-0.5-0.7,1.8-1.2,4.2
							c-0.4,2.5-0.8,5.1-1.2,5.4c-0.8,5.8-0.8,9.8-0.7,13c0.1,3.2,0.5,5.6,0.9,8.1c0.2,1.2,0.5,2.5,0.7,3.9c0.1,0.7,0.3,1.4,0.4,2.2
							c0.1,0.8,0.3,1.6,0.5,2.4c0.8,3.4,1.7,7.8,4.1,13.5c-0.2-0.2-0.5-0.5-0.7-0.7c3.4,7.1,7.4,11.7,11.9,15.3
							c2.3,1.8,4.8,3.3,7.5,4.6c2.8,1.3,5.9,2.4,9.5,3.1c1.9,0.5,3.7,1,5.7,1.3c1,0.2,1.9,0.3,2.9,0.5c1,0.1,1.9,0.2,2.9,0.3
							c-1.3,0.1-3.7,0.1-5.4,0.1c-1.7,0-2.7,0.1-1.1,0.5c-2.9-0.7-5.8-1.5-8.6-2.4c-2.9-0.9-5.6-2.1-8.2-3.7c-0.3-0.1,0,0.2,0.6,0.6
							c0.6,0.3,1.3,0.8,1.8,1.1c-3.3-1.6-4.7-2.7-8.6-5.5c0,0.1,1.1,1,1.7,1.6c0.3,0.3,0.5,0.5,0.5,0.5c-0.1,0-0.4-0.2-1.2-0.8
							l-1.2-1.1l-1.1-1.2c-0.8-0.7-1.5-1.6-2.2-2.4c-1.5-1.5-2.5-2.5-3.1-3.2c-0.7-0.7-1.2-1.1-1.6-1.6c-0.4-0.5-0.9-1-1.6-2
							c-0.3-0.5-0.7-1.1-1.2-1.9c-0.4-0.8-0.9-1.8-1.4-3c1.2,1.6,3.5,4.9,6,7.9c-1.4-1.9-0.4-0.7,0.7,0.5c1,1.2,2.2,2.3,0.9,0.7
							c-2.3-2.3-3.7-4.5-5.1-6.9c-1.3-2.5-2.6-5.3-4.1-9.7c0.4,1,0.6,1.3,1.4,3.4c-1.4-4.2-2.4-8.6-2.9-13.1
							c0.1,1.7-0.5-1.1-0.9-4.2c-0.2-1.6-0.3-3.2-0.5-4.4c-0.1-1.2-0.2-1.9-0.4-1.5c0,3.7,0.2,6.3,0.4,8.2c0.1,1,0.2,1.8,0.3,2.5
							c0.1,0.8,0.2,1.5,0.3,2.1c0.3,1.4,0.5,2.9,1.1,4.9c0.5,2.1,1.2,4.8,2.8,8.6c-0.2-0.5-0.5-1.1-0.8-1.6
							c-0.3-0.6-0.5-1.1-0.7-1.7c-0.5-1.1-1-2.4-1.4-3.5c-0.5-1.1-0.8-2.3-1.2-3.3c-0.4-1-0.6-1.9-0.9-2.6c0-0.1,0-0.4-0.1-0.9
							c-0.9-2.5-0.7,0.2-1.6,0.3c1,3.9,1.9,7,3,10.3c1.1,3.2,2.5,6.6,5.1,10.4c0.3,0.3,0.4,0.1,0.2-0.3c-0.2-0.5-0.5-1.2-1-2.1
							c-0.5-0.9-1-2.1-1.5-3.2c-0.5-1.2-1-2.3-1.5-3.4c1.1,2.4,2.3,4.8,3.7,7c-0.3-0.4-0.7-0.8-1-1.2c3.1,5.9,7.4,11.1,12.8,15
							c-0.8-0.6-1.4-1-2-1.4c-0.6-0.4-1-0.7-1.4-1c-0.4-0.3-0.8-0.6-1.2-0.8c-0.4-0.3-0.7-0.6-1.1-0.9c1.8,1.9,3.7,3.6,5.9,5.3
							c-0.2-0.7,0.3-0.8,2.4,0.6c5.5,3.3,10.4,4.9,14.4,6c2,0.5,3.7,0.9,5.3,1.2c1.6,0.3,2.9,0.6,4.1,0.8c0.5,0,1.1,0,1.6,0
							c-1.1-0.3,1.3-0.4,4.4-0.8c3.1-0.4,7.1-1.2,9.1-1.8c-0.1,0.3,1.7,0.1,3.9-0.4c2.2-0.4,4.9-1.1,6.9-1.5
							c1.9-1.2-1.1-1.1-5.8-0.5c-4.4,1.3-5.6,1.6-6.2,1.9c-0.6,0.3-0.7,0.5-2.7,1.2c-4.8,0.8-9.5,1.2-14.2,0.8c0.5,0,1.1,0,1.6-0.1
							c0.5,0,1-0.1,1.6-0.1c-0.9,0-1.7-0.2-2.6-0.2c-0.9-0.1-1.7-0.2-2.5-0.3c-0.8-0.1-1.6-0.2-2.3-0.3c-0.7-0.1-1.4-0.2-2-0.3
							c-1.2-0.3-2.2-0.5-2.9-0.7c-0.6-0.2-0.9-0.4-0.8-0.5c1.8,0.3,4.2,0.8,6.7,1.2c1.2,0.2,2.5,0.3,3.6,0.4c1.1,0.1,2.2,0.1,3.1,0
							c-1.5-0.1-3-0.4-4.5-0.6c2,0.1,3.3,0.2,4.2,0.2c0.9,0.1,1.5,0.2,2.1,0.2c0.6,0.1,1.3,0.2,2.5,0.2c1.1,0,2.8-0.1,5.3-0.5
							c-3.7-0.2,0.9,0,5.1-1.2c-0.9,0.1-2.4,0.3-4.2,0.5c-1.8,0.2-3.7,0.4-5.5,0.5c-3.5,0.2-6.2-0.2-4.7-0.5
							c2.5-0.1,6.7,0.1,11.3-0.4c4.6-0.4,9.4-1.5,12.7-2.9l-0.3,0.2c5.1-1.3,8.4-2.6,11-3.6c2.6-1.1,4.3-1.9,6.1-2.8
							c4.3-1.3,10-4.1,14.5-6.2l0,0.3c2.1-1,4.2-2,6.4-3c-2.8,1.8-7.5,3.4-13,5.8l0.9,0.2c-6.6,2.1-10.6,4.6-15.5,6.7
							c3.6-1.4,8.7-3.4,13.1-5.2c4.4-1.8,8.1-3.6,8.7-4.4l4.6-1.5l2-1.1c3.4-1.2,0.3,0.9-6,3.9c-1.2,0.4-1.8,0.6-1.5,0.3
							c-2.9,1.5-5.5,3.1-12.9,5.8l3.8-1.8c-9.1,3.7-17.4,6.5-20.5,7.8c13.5-3.7,26.4-9.1,38.5-14.7c3.1-2.7,7.1-5.2,8.4-7
							c8-4,18.9-9.7,26.1-12.8l-0.6,0.5c3.5-1.6,6.6-3.2,9.2-4.7c3.8-1.6-2.3,1.7,0.4,0.6c3.8-2,7.7-4,11.6-6
							c-0.5,0.8-10.4,5.5-15.1,7.9c0.9-0.5,2.6-1.4,2-1.2c-5.5,2.5-15.2,8.2-17.9,8.8c-2.6,1.4,5.1-3.1-3.8,1.3
							c-6.1,2.7-7.7,4.2-8.3,4.7c0,0.3,9.5-4.2,6.4-2.4c4.6-2.3,6.3-3.5,12.3-6.3c-4.6,2.3-10.6,5.9-13.2,6.7
							c-8.9,4.9-7,5.3-2.7,3.3c-1.2,0.2,16.4-8.6,4.2-3.2c5.1-3.1,14.9-8,21.8-11.7l-0.3,0.2l8.7-4.4c-1.2,0.7-3.8,2.1-3.7,2.4
							c3.9-2.2,7.9-4.4,11.9-6.5c-6.7,3.7,4.4-1.7,7.7-3c1.2-1,5.9-3.4,1.1-1.5c-5.4,2.1-3,1.6-7.7,3.8c2.1-1.2,4.3-2.5,6.5-3.7
							l0.6-0.2l3.9-2.3c4.7-2,3.8-1.3,3.2-0.8c-0.6,0.5-0.9,0.8,5-1.9l-1.8,0c7-2.8,15.3-5.6,23.6-7.3c4.1-0.9,8.3-1.4,12.3-1.6
							c3.9-0.2,7.7,0.1,10.9,0.8c-0.9-0.1-1.7-0.1-2.2-0.1c-0.6,0-1,0.1-1.1,0.2c-0.2,0.2,0.5,0.5,2.8,1.2
							c-2.6-0.7-6.6-1.1-10.6-0.9c-4,0.2-8.1,0.9-11.4,1.7c-0.6,0.1,1.4-0.6,4.6-1.4c3.2-0.7,7.7-1.3,11.8-1c-1-0.3-2.8-0.5-4.8-0.4
							c-2.1,0.1-4.4,0.4-6.6,0.9c-4.4,0.9-8.1,2.1-8.7,1.6c-4.6,1.1-7.6,2.2-9.9,3c-2.3,0.9-3.7,1.6-5.1,2.2
							c-2.8,1.3-5.2,2.5-12.4,5.2c0,0.6-3.9,2-4.4,2.8c2.2-0.5,6.9-2.6,12.3-4.9c5.4-2.3,11.5-4.6,16.5-5.9c-1,0.3-2.8,1-3.2,1.2
							c3.5-1,6-1.7,8.2-2.3c2.2-0.6,4.2-1.1,6.8-1.6l-0.7,0.1c4.5-1,6-0.9,7-0.8c1,0.2,1.5,0.4,4.3,0.6c1.1,0,3.6,0.2,5.7,0.6
							c2.1,0.4,3.8,1,3.2,0.6c3.4,1.3,6.7,3.4,9.1,6.1c0-0.3,0-0.5,0-0.8c2.3,2.2,3.3,3.9,4.2,5.5c0.9,1.6,1.6,3.1,2.7,5.5l0.6,0.1
							c-0.8-2.3-1.8-4.7-3.2-6.9c-1.4-2.2-3.2-4.3-5.3-6c0.8,0.6,1.4,1.2,1.9,1.6c0.5,0.4,0.8,0.8,1.1,1c0.5,0.5,0.8,0.7,1,1
							c0.3,0.2,0.6,0.5,1.1,1.1c0.5,0.7,1.3,1.7,2.3,3.7c-0.6-1.1-1.1-1.7-1.4-2.1c-0.3-0.4-0.4-0.5-0.4-0.4c0,0.2,0.7,1.2,1.3,2.6
							c0.7,1.4,1.3,3.1,1.8,4.5c0.4,1.4,0.7,2.5,0.6,2.8c0.6,1.9,1.1,3.8,1.5,5.7l-0.4-1.4c0.1,1.1,0.2,2,0.3,2.8
							c0.1,0.8,0.2,1.5,0.3,2.2c0.2,1.4,0.4,2.9,0.4,5.5c0.1-3,0.1-5.6-0.2-8.4c-0.3-2.8-0.8-5.8-2.4-9.8c1.3,2.9,2.4,7.2,2.9,11.1
							c0.6,3.9,0.7,7.4,0.7,8.8c0.2,5.9-0.6,9.9-1.2,15.2c0.5-5.1-0.1-4.3-0.3-4.7c-0.1-0.2-0.2-0.7-0.2-2.5c0-1.8,0.3-4.7,0.3-10
							c0.1,0.4,0.1,2.1,0,2.7c0.4-1.4,0.3-4.6-0.1-8c-0.4-3.4-1.3-7.1-2.1-9.3c0,0.6-0.4-0.2-0.5-0.2c-0.1,0,0,0.2,0.1,0.9
							c0.1,0.7,0.4,2,0.7,4c0-0.7,0.1-0.6,0.2,0c0.2,0.6,0.5,1.8,0.7,3.3c0.5,3,0.8,7.3,0.5,11.1l-0.8-1.3
							c-0.1,3.7-0.4,7.3-0.7,10.9l0.1-1c-0.9,4-1.3,11.5-3,18.6c-0.3,2.6-1.7,8.9-2.7,13.5c-1,4.5-1.6,7.4-0.1,3.3
							c-2.1,6.3-3,12-4.9,18.9c0.9-2.8,1.9-5.7,2.8-8.5c-2.3,10.4-1.8,7.3-3.4,15.7c-0.5,0.8-1.2,2.5-0.9,0.8
							c-2.1,6.8-4.9,14.9-7.4,22.5c-2.6,7.4-4.5,14-5.3,18c-1.3,4.7-2.2,7.3-3.1,10.5c-0.4,1.6-0.9,3.3-1.3,5.4
							c-0.4,2.1-0.8,4.7-1.1,8.1c-0.1,1.4,0.2,0.9,0.3,1.1c0.1,0.2,0.1,1.2-0.3,5.5c-0.1,0.6-0.1-8.5-0.6,1.3
							c0.2,3.5,0.2,7.5,0.7,11.7c0.4,4.2,1.4,8.6,3.2,12.5c0.7,2.1,2.1,4.9,3.3,6.8c1.2,2,2.1,3.2,1.4,2.7
							c-2.1-2.9-4.2-6.7-5.5-10.1c-1.4-3.4-2-6.3-2.3-7.1c0.5,0.9-0.7-5.2,0.6,0.1c-0.9-5.5-1-7.3-1.2-9c-0.1-1.7-0.5-3.2-0.2-8.3
							c-0.2-0.7-0.7,5.3-0.3,7.5c-0.4,0.1-0.7-5-0.5-9c0.1-4,0.3-6.8-0.5-2.2c-0.4,5.6,0,9.2,0.5,12.5c0.5,3.3,1.1,6.4,1.9,11
							c-0.7-1.8-1.2-4.1-1.6-6.6c-0.4-2.5-0.7-5.2-1.1-7.7c0,2.6,0.1,5.3,0.4,7.9c0.5,1.9,0.9,3.7,1.6,5.5l-0.2-0.3
							c1.4,6.7,3.1,9.5,4.7,11.9c1.7,2.4,3.4,4.5,7.7,8.6c-1.1-1.3-1.5-1.9-1.6-2.2c-0.1-0.3,0.2-0.2,0.5-0.1
							c0.6,0.3,1.3,0.7-0.2-1.3c2.5,2.8,5,4.9,6.9,6.4c1.9,1.5,3,2.4,2.9,2.7c-3.2-1.8-4.7-3-5.6-3.5c-0.8-0.5-0.9-0.5-1-0.5
							c-0.1,0-0.2,0.1-0.9-0.3c-0.7-0.5-2.1-1.5-4.4-4c0.6,0.9-0.1,0.5-0.3,0.6c-0.2,0.1-0.1,0.8,2.9,3.8c1.8,1.5,2.7,2.1,3,2.2
							c0.3,0.1,0.1-0.1-0.2-0.4c-0.2-0.3-0.5-0.5-0.2-0.4c0.3,0.2,1.1,0.8,3,2.1c0.4,0.4,0.9,0.7,0.5,0.6c1.9,1,3,1.7,4.2,2.4
							c1.2,0.7,2.5,1.4,5.1,2.3c-0.4-0.1-0.8-0.2-1.2-0.4c2.9,1.6,4.7,2,6.3,2.5c1.7,0.4,3.2,0.8,5.9,1.8c-2.1-1.1,3.8,0.6,7.4,0.9
							c-2.8-0.6-5-1.4-7.7-2.3c-2.7-1-6.2-2.1-11.2-4.4c-1.4-0.2-0.8,0.4-4.9-1.6c2.1,1.2,4.3,2.2,6.5,3.1c-1.5-0.6-2.6-0.9-3.9-1.5
							c-2-1.1-4-2.3-5.9-3.6c1.8,1.1,3.1,1.8,3.9,2.1c0.8,0.4,1.3,0.5,1.6,0.5c0.6,0.1,0.6-0.1,2.4,0.5c3.6,1.7,5.2,2.2,6.4,2.6
							c1.2,0.4,2.1,0.7,4.5,1.4c-0.3,0.2,3.4,1.6,8.5,2.8c5.1,1.2,11.7,2.2,16.5,2.7c-1.5-0.1-3.4-0.3-4.5-0.4
							c-3.5-0.2-2.3,0.1-0.2,0.4c2.1,0.3,5.2,0.6,5.3,0.7c1.7,0,3.5,0,5.2,0c-1,0-2.3,0.1-0.1,0.3c7,0.2,6.6-0.4,13.6-0.5
							c0.5,0.3-5.4,0.8-1,1c1.5,0.3,6.3,1.1,15.7,0.5c0.7-0.2,3.1-0.3,5.9-0.5c-0.4,0-0.9,0.1-1.1,0.1l6.3,0.1
							c-5.3,0.8-10.8,0.2-16.1,0.9L386,503c-4.2,0.1-9.8,0.4-12.4,0.6c6.4,0.1,7.7,0,14.8-0.3c1,0.3-4,0.7-4.7,0.7l1.1-0.3
							c-4.2-0.1-7.4,0-10.8,0.2c-3.4,0.1-7.1,0.3-12.4,0c-1.6-0.1-0.6-0.1-0.3-0.2c-8.6,0-16.8-1.6-25.1-2.8
							c0.9,0.1,1.8,0.2,2.7,0.3c-2.8-0.5-6.9-1.2-11.6-2.5c-4.7-1.3-10-3.2-14.9-6l-0.2,0.1c1,0.8-2.6-1.5-4.3-3l0,0
							c-4.7-3.3-8.5-7.4-11.1-11.1c0.7,1.3,1.7,2.9,3,4.6c0.6,0.6,2.7,3,4.8,4.7c2,1.8,3.9,3,3.5,2.4c1.8,1.6,4.5,3.3,7.2,4.7
							c2.7,1.4,5.3,2.4,6.9,3.2c-2.9-1.4-1.8-1.1,0.1-0.4c1.9,0.7,4.8,1.5,5.4,1.5c1,0.5,3.2,1.2,5.1,1.7c1.9,0.5,3.5,0.9,3,1
							c1.2,0.4-3-1-5.6-1.5c-3.3-0.8-0.4,0.3,2.4,1.1c2.7,0.8,5.3,1.4,1.2,0.7c5.2,1.1,11.3,2.1,17.4,2.7c6.1,0.6,12.3,0.8,17.7,0.8
							c-2-0.1-4-0.2-6-0.4c2.4,0.2,6.4,0.3,10,0.3c3.5,0,6.6,0,7,0.2c-3.6,0.1-7.7,0.1-12.3,0c-0.1,0.3,2.6,0.3,5.5,0.3
							c2.8,0,5.8-0.1,6,0.1c4.4-0.3,8.8-0.7,13.2-1.2l-5.8,0.2c3.6-0.4,15.8-0.5,24.7-1c-5.1,1-13.5,0.8-23,1.4
							c-6.9,0.5,4.3,0.6-2.2,0.9c1.7,0.1,5.9,0,8-0.3l2.6,0c-5.8,0.9-18.8,1.2-27.6,1.5c0.8-0.1,1.4-0.1,1.7-0.2
							c-6.7-0.4-13.5-0.7-20.1-1.3c3.5,0.6,4.8,0.5,6.8,0.6c0.2,0.2-6-0.2-8.3-0.4c6.1,0.9,1.1,0.5,5,1c-4-0.2-7.3-0.6-12.1-1.5
							c-2.5-0.7,2.1,0,1.7-0.4c-2.5-0.3-4.3-0.8-6.4-1.3c-2.1-0.6-4.4-1.2-8.1-2.1c2.4,0.7,3.4,1,3.5,1.1c0.1,0.1-0.6,0-1.7-0.2
							c-2.3-0.4-6.2-1.5-7.9-2l1.6,0.6c-3.1-0.7-5.7-1.8-7.6-3.1c3.8,1.7,7.6,3,6.6,2.3c-2.6-0.9-5.1-2-7.9-3.3
							c0.9,0.4,1.8,0.7,2.7,1c-4.1-1.9-8.1-4.1-11.8-6.9c-2-1-5.1-3.2-6.8-4.3c-2.2-2.7-5.2-6.4-6.9-9.2c0.3,0.4,0.6,0.8,0.9,1.2
							c-0.8-1.4-1.7-3.2-2.7-5.2c-0.9-2-1.8-4.2-2.5-6.3c-1.4-4.2-2.1-7.8-2.4-8.3c-0.1-1.1,0.2,0.3,0.9,2.4c0.6,2.1,1.6,5,2.6,7.1
							c0.9,2,1.7,3.2,1.4,2.1c-0.1-0.5-0.6-1.6-1.2-3.5c-0.6-1.9-1.4-4.6-2.1-8.3c-0.1-0.7-0.2-1.4-0.3-2c-0.1-0.6-0.2-1.1-0.2-1.6
							c-0.1-1-0.3-1.8-0.4-2.4c-0.2-1.3-0.4-2-0.5-2.6c-0.3-1.2-0.7-1.7-0.9-5c0,0,0.1,0.4,0.2-0.3c0.2-5-0.1-5.5,0.1-9.6
							c-0.5,3-0.7,7.3-0.5,8.8c-0.2-0.8-0.1-3.4,0.1-6.3c0.2-2.9,0.7-6,0.8-8c0,2.5,0.3,0.1,0.8-2.4c0.4-2.5,0.9-5.1,0.7-3.2
							c2.1-9.6,4.6-19.6,5.7-24.6c0.7-1.5,1.3-2.9,1.8-4.4c0.5-1.5,1-2.9,1.5-4.5c1-3.1,2.1-6.8,3.9-11.6c-0.5,1.5-1.3,4.3-2.1,6.4
							c-1.4,5.8,3.7-10.1,1.2-1.3c0.5-1.9-0.2-0.2-0.8,1.7c-1.1,3.3-1.9,6.5-1.4,5.8l3.1-7.9l-0.8,2.8c1.6-4,3.1-8,4.6-12
							c0-0.4-0.5,0.7-0.7,1.3c4.9-14.1,9.2-30.6,12-43.3c-0.4-1.3,1.2-9.2,2.3-18c0.6-4.4,1-9.1,1.1-13.2c0.1-4.2-0.1-7.8-0.6-10.2
							c0.6,2.6,1.3,4.1,1.6,2.4c0.2,2.2,0.8,6.9,0.3,12.2c-0.3,0.8-1.2,7.2-1,3.1c-1.6,14.4,0.9-1.9,0.9,2.4c0.9-8,0.8-14.5,0-19.9
							c-0.8-5.4-2.1-10-4.4-13.8c0-0.1,0-0.2,0-0.3c-1.2-1.9-2.6-3.5-4.3-4.7c2,1.6,2.4,2.9,2.1,2.8c-0.2,0-0.5-0.4-1.1-1
							c-0.6-0.6-1.5-1.4-2.8-2.3l0.7,0.4c-1.4-1.2-4-2.4-7.3-2.9c-3.3-0.5-7.2-0.2-10.6,0.2c-1.5,0.4-3,0.8-4.5,1.2
							c-3.4,0.7-5.2,1-6.5,1.1c-1.3,0.1-2-0.1-3.2,0c-5.4,1.7-9.5,3.4-13.2,5.1c-3.7,1.7-7,3.4-10.6,5.3c-3.5,1.1-19.1,8.4-11,4.1
							c-9.2,4.8-6.4,5.6-22.9,12.6l4-2.4c-7.6,3.9-16.9,8.6-25.1,12.8c-8.3,4.2-15.7,7.6-19.4,9c2.6-1.9-2.4,0-8.6,2.2
							c-6.2,2.2-13.6,4.5-15.3,4.4c0.9,0-5.2,2.1-6.1,2.5c-1.4,0.3-3.7,0.8-6.1,1.7c3.3-0.7,2.3-0.1,1.9,0.2
							c-0.2,0.2-0.2,0.3,0.7,0.1c0.8-0.2,2.5-0.7,5.6-1.8c-3,1.4-6.5,2.8-11.2,4.2c-4.7,1.3-10.5,2.6-18.1,2.7l0.2-0.5
							c4,0,8-0.4,11.8-1c-0.6-0.1,0.6-0.4,2.2-0.7c1.6-0.4,3.7-0.8,4.8-1.2c-5.3,1.1-7.8,1.3-8.9,1.4c-1.1,0-0.8-0.2-0.5-0.3
							c0.3-0.2,0.6-0.3-0.6-0.3c-1.2,0-3.7,0.5-9.3,0.6c-1.1,0.2-1.3,0.2-1.9,0.2c-0.6,0-1.8,0-4.7-0.2c1.4,0.1,2.2,0.1,2.1,0
							c-0.1-0.1-1.1-0.2-3.2-0.5l-2.1-0.1c-0.7,0-1.4-0.1-2.1-0.2c-3.8-1.2-0.5-0.6,2.8-0.2c3.3,0.4,6.8,0.5,3.5-0.1
							c4.3,0.2,10.1-0.2,14.3-1c4.3-0.8,7.1-1.6,5.7-1.7c-6.7,1.1-9.7,1.6-12.8,2.1c-3.1,0.4-6.5,0.8-13.6-0.6l-1.5-0.6
							c-2.5-0.5-4-0.7-5.1-0.9c-1.2-0.2-2.1-0.3-3.5-0.7c-0.2-0.3-1.4-0.7-4.4-2.2c-4.1-1.6-7.2-3.5-10.1-5.7
							c-2.9-2.1-5.5-4.6-8.3-7.6c3.4,4.3,6.5,6.9,8.9,8.9c1.3,0.9,2.3,1.8,3.4,2.5c1.1,0.7,2.1,1.4,3.1,2c0.5,0.3,1,0.6,1.6,0.9
							c0.5,0.3,1.1,0.6,1.7,0.9c0.6,0.3,1.2,0.6,1.9,0.9c0.7,0.3,1.4,0.5,2.1,0.8c3,1.1,6.9,2.3,12.5,3c-0.9-0.1-2.5-0.3-4.5-0.7
							c-1-0.2-2-0.4-3.1-0.7c-1.1-0.3-2.2-0.6-3.3-0.9c-4.4-1.3-8.3-3.1-8.9-3.1l0.4-0.4c-3.4-1.6-6.6-3.7-9.7-6.3
							c-3.1-2.6-6-5.8-8.5-9.8l0.9,1.2l0.9,1.1c0.6,0.7,1.2,1.5,1.9,2.2c-0.5-0.6-1-1.2-1.5-1.8c-0.5-0.6-0.9-1.2-1.3-1.8
							c-0.8-1.2-1.6-2.3-2.2-3.5c-0.6-1.2-1.3-2.3-1.8-3.4c-0.5-1.1-1-2.2-1.5-3.4c-1.8-4.5-2.9-8.7-4.3-13.3c0.3,1.7,0.7,3.1,1,4.5
							c0.4,1.3,0.8,2.5,1.1,3.5c-1.1-3-2-6.4-2.6-9.9c-0.6-3.5-1-7.1-1.1-10.5c-0.5-4.6-0.8-9.2-0.7-13.9c0.2,0.1,1.1-8.5,1.1-4.3
							c0.8-4.9,1.2-8.5,1.7-11.5c0.2-1.5,0.4-2.9,0.6-4.3c0.2-1.4,0.4-2.7,0.8-4.1c1.5-4.8,1-2.7,0.2,0.8c-0.4,1.7-0.8,3.8-1.1,5.5
							c-0.3,1.7-0.4,3.1-0.3,3.4c1.4-6.8,3.2-13.6,5-19.7c1.8-6,3.6-11.3,4.9-15c-1.2,2.6-1.7,3.8-1.8,3.6c0.3-0.3,2.3-5.5,3.6-8.3
							l0.5-2.1c2.4-4.6,2.2-3.8,0.6,0.2c2.1-4.4,4-10,6.9-14.2c-1.8,3.8-3.9,8-5.7,11.9c-0.9,1.9-1.7,3.8-2.4,5.4
							c-0.7,1.6-1.2,3-1.6,4c3.2-8.2,5.4-12,7.8-16.3c2.5-4.3,5.2-9.1,10.8-18.6c0.3-0.1-1.4,3.2,0.8-0.4c5.2-8.3,0.8-2.5,2.1-5.3
							c-1,1.6-1.8,3-2.6,4.3c-0.8,1.3-1.4,2.3-2.1,3.3c-1.3,2-2.4,3.6-3.7,5.4l0.8-1.9c0.1-0.1,0.8-1.2,1.6-2.4c0.8-1.2,1.6-2.5,2-3
							l0.2-1.3c0.2,0.8,4.7-5.4,7.9-10.5c-3.8,4.8-2.8,3.4-4.3,4.4c2.1-3.7,3.5-5.6,5.1-7.5c1.6-2,3.2-4,5.8-8
							c-0.3,0.7-5,7.4-0.7,1.8c3.6-4.7,2.7-4.4,5.1-7.6c-2.4,3.8-1.3,3.2-3.8,7.4c-3.1,4.2-3.7,5.1-4.3,5.9c-0.6,0.9-1.2,1.7-3.9,6
							c1.7-2.3,3.5-4.6,5.3-6.8c-5,7.3-3.2,5.6-3.5,6.3c4.5-6,6.1-8.4,7.2-10.3c1.1-1.9,1.8-3.3,4.8-7c1.3-1.9-0.1-0.2-1.3,1.3
							c-1.2,1.5-2.2,2.8-0.1-0.2c5.8-7,1-1.9,7.4-9.8l-0.9,1.5c1.1-1.1,2.1-2.3,3.1-3.5c1-1.3,2-2.6,3.2-3.9c1.3-1.5,0.2-1,0.1-1.6
							c0-0.6,0.9-2.4,6.6-8.3c-0.5,0.7-0.6,1-0.6,1c-2.6,4.9-5.2,9.7-7.5,14.7c10.7-12.4,24.4-25.6,39.2-37.3c2-1.1-0.5,1.2-3.3,3.7
							c-2.8,2.5-5.9,5.3-5.4,5.1c-2.2,1.9-4.4,3.7-6.5,5.7c0-0.1,0.9-1,2-2.1c1.2-1.1,2.6-2.4,3.9-3.6c2.6-2.4,4.4-4,1.2-1.7
							c-5.6,5.1-9.7,8.9-13.6,12.7c-2,1.9-3.8,3.9-5.8,6c-2,2.2-4.1,4.5-6.3,7.3c1.8-1.4,5-4.9,8.8-8.7c3.7-3.9,8-8.1,11.7-11
							c-1.5,1.3-2.8,2.6-4,3.8c-1.2,1.2-2.4,2.4-3.5,3.6c6.4-6.1,13.4-12.3,21.3-18.6l1.6-1.6c-5.3,4.2-8.8,7.2-9.3,7.6
							c6.8-5.8,12.5-10.8,12.5-11.7l-1.3,1l2.4-2.2C172.5,99.3,174.2,98.1,175.9,96.8z M747.4,83.3c-0.5,0-1,0-1.3,0
							C746.4,83.3,746,83.2,747.4,83.3z M75.2,236.7c3.2-11.4,7.8-22.5,12.8-32.8c-5.1,9-8.6,17.1-9.6,18.7c-0.5,0.8-0.4,0.1,0.6-3
							c1-3,3-8.3,6.7-16.1l0.9-2.1c-2.2,4-5.4,11.1-7.9,18c-0.9,2.9-2.5,9-3.5,14.4c-0.6,2.7-0.9,5.2-1.2,7.1
							c-0.3,1.8-0.4,3-0.3,2.9c0.8-2,1.1-5,2.3-8.6L75.2,236.7z M71.2,244.4c-1.5,6.6-0.9,5.2-0.8,6.3c0.2-1.2,0.4-2.4,0.6-3.5
							c0.2-1.2,0.4-2.3,0.7-3.5C71.4,244.5,71.2,245,71.2,244.4z M70.7,250.3c0.1-0.8,0.3-1.4,0.4-1.7
							C70.9,249.2,70.8,249.8,70.7,250.3z M133.3,136.3c-0.2,0.2-0.3,0.3-0.5,0.5c1.1-1.1,2.2-2.3,3.4-3.5
							C135.7,133.8,134.9,134.6,133.3,136.3z M123.7,146.2l-0.7,1.5c1-1.1,2-2.3,3-3.4C125.5,144.5,125,144.8,123.7,146.2z
							 M96.4,181.2c-1.1,2.6-5.6,10.8-5.3,11.7c-0.1,0.6,0.9-1.1,2-3c1.2-2.1,2.5-4.4,4-6.8c0-0.1,0.2-0.6,0.6-1.5
							c-1.5,2.3-2.6,3.8-2.3,2.7c4.4-5.6,2.8-5.8,7.2-12.1C103.5,169.8,97.4,179,96.4,181.2z M291.2,459.8c0,0.2,0,1,0,2.1
							c-0.5-1.8-0.9-3.5-1.2-5.3c-0.6-4.8-0.4-9.2-0.1-13.4c0.3-4.2,0.7-8.3,1-12.6c0.4-2,0.8-3.5,1.2-4.8c0.4-1.3,0.8-2.3,1.2-3.2
							c-0.4,1.9-0.8,3.7-1.1,5.3c-0.7,6-0.9,9.8-1.2,12.4c-0.2,2.6-0.4,4-0.6,5.3c-0.2,1.3-0.4,2.4-0.4,4.5
							C290,452,290.1,455,291.2,459.8z M314.8,353c-0.2,1-0.2,1.3-0.2,1.3c2.3-10.5,4.2-20.1,5.6-28.5c1.4-8.4,2.2-15.7,2.5-21.4
							c-0.3,1.1-0.7,4.2-1.3,7.6c-0.6,3.4-1.3,7.1-1.8,9.5c0.1-1.5,0.1-2.9,0.2-4.4c0.3-0.9,0.5-1.7,0.8-2.6c0.2-2.5,0.3-5,0.3-7.5
							c-0.5,2-1.1,8-2,12c0,0.2-0.3,3.5-0.8,7.2c-0.5,3.7-1.2,7.8-1.4,9.6c0.9-3.4,1.7-6.7,2.5-10.1c-0.3,1.4-1.1,5.4-2.1,9.8
							c-1,4.4-2.1,9.1-2.7,11.8c0.3,0.2,2.9-8.9,2.6-10.2c0.7-1-1.9,9.6,0.1,3c-1.5,8.1-5.4,20.5-7.3,26.2l-0.9,0.8
							c-2.2,6.3-0.6,4.5-3.3,11.9c2.8-9.3-1.2,1.3,1.1-6c-1,2.3-0.6-0.2-3,7.2c-1.2,6.4-3.1,7.5-4.3,13.5c-1.6,3.8,0.9-4.3-1.8,3.2
							c-2.5,8.9-1.9,8.5-1.5,9.3c2.6-8.2,2.2-9.5,4.6-16.1l-1.8,6.8c-0.6,2.3-1.1,4.5-1.6,6.8c0.9-2.4,1.5-4.2,2-5.7
							c-0.8,2.7-1.4,5-1.8,7c-0.2,1.1-0.4,2.2-0.6,3.2c2.2-7.6,4.6-14.2,5.2-15.3l-0.1,1.1c1.2-2.6,2.4-7,2.9-9
							c2.2-6.7,3.9-13.6,4.8-15l-0.5,2.6c1.3-4.2,1.9-6.5,2.7-9.1C312.5,361.2,313.4,358.3,314.8,353z M128.8,328.6
							c2.6,0.3,5.4,0.4,10.6-0.3c5.1-0.8,12.6-2.5,24.1-7l-1.8,0.8c11.9-3.7,22-10.1,35.9-15.9c-6.4,3.5-6.1,3.4-13,7.6l7-3.6
							c-1.7,1.5,5.3-2.1,10.4-4.7l-4.3,2.9c-3.2,1.3-11.4,5.1-11.1,5.1c1.8-0.9-11.2,4.1-18.1,7.1c0.5,0.1,4.3-1.4,7.3-2.6
							c3-1.2,5-1.9,2-0.1c5.6-2.8,6.5-2.7,12.4-5.6c-5.6,2.9-1.1,1.3-5.2,3.5c3.2-1.5,6.5-3.1,9.7-4.7c0.2,0-3.3,1.8-5.9,3.1
							c-2.5,1.3-4.1,2.3,0.1,0.7c3.8-2,14.3-6.7,14.2-7.3l0.3,0c7.3-3.4,2.8-2.2,11.8-6.3c0-0.3-1.8,0.4-4.9,2
							c-2.6,1.4-2.9,2-8.4,4.7c-2.7,0.8,6.7-3.2,2.5-2c-2,0.6-14.5,7.3-10.8,4.7l7.3-3.4c0-0.6,5.2-3.1,4.8-3.4
							c4.3-2.3,8.7-3.9,13-6.5c1.7-1.2-1.8-0.2,5.7-3.6c3.1-1.1,8.8-3.8,14.6-6.5c5.8-2.7,11.7-5.5,14.9-7c1.8-0.9,3.7-1.9,5.6-2.8
							c-0.3-0.1-3,1.1-5.2,2.1c-2.2,1-3.9,1.7-2.1,0.7c2.9-1.4,5.9-2.7,8.8-4l-0.6,0.5c3-1.2,5.9-2.6,8.6-3.7
							c-2.7,1.4-9.2,3.9-7.7,3.9c4.2-1.6,4.9-1.7,8.8-3.2c-0.8,0.4-1.5,0.7-1.4,0.7c4.3-1.5,6.4-2.3,7.6-2.9c1.2-0.6,1.6-1,2.7-1.4
							c4.3-1.6,2-1.2-1.2-0.3c-3.2,0.8-7.4,2.2-6.9,1.7c4.2-1.6,8.5-3,12.9-4.1c4.4-1.1,8.9-2,13.4-2.2c-2.3,0.2-4.6,0.7-3.7,0.8
							c3.3-0.2,3.3,0,3.7,0c0.2,0,0.5,0,1.2,0.1c0.8,0,2.1,0,4.4,0.3c-0.1-0.2,0.5-0.3,1.7-0.1c1.2,0.1,2.8,0.5,4.6,1.2
							c1.8,0.7,3.7,1.7,5.3,3.1c1.6,1.3,2.9,2.9,3.9,4.2c0.7,1.4,1,2.3,0.8,2c-0.1-0.1-0.3-0.5-0.8-1.2c-0.4-0.7-1.1-1.7-2.2-3
							c0.1,0.5,1.6,2.3,2.8,4.8c1.2,2.4,2.1,5.3,2.5,6.9c0.6,1.8,1.1,4.9,1.4,6.9c0-1.3,0.1-1.8,0.3-1.1c0.2,0.7,0.5,2.4,0.8,5.3
							l0.1,0.3c-0.1-4.8-0.5-11.1-2.6-16.6c-1-2.7-2.5-5.2-4.1-7.1c-1.6-1.9-3.5-3.2-4.9-3.9c0.5,0.3,1.1,0.5,1.6,0.8
							c-2.3-1.8-5.2-3.1-8.1-3.7c-2.9-0.6-5.9-0.7-8.6-0.6c-5.4,0.3-9.8,1.4-12.5,1.5c0.4-0.5-2.2,0.4-2.1-0.1
							c-2.6,0.8-5.2,1.7-7.8,2.7l1.6-0.8c-4.5,1.4-8.8,3.1-13.1,4.9l0.3-0.2c-6,2.9-10.5,5.4-14.2,7.4c0.1,0.2,0.5,0.1-1.4,1.2
							c-2,1-3.5,1.8-4.8,2.4c0,0,0,0,0,0l0,0c-3.1,1.4-5.3,2.1-9.1,3.8c3.9-1.9,7.7-3.8,11.6-5.6c0.8-0.8-0.4-0.7-6.2,1.8
							c2.3-1.1,3.2-1.9,0.3-0.5c-0.3,0.2-7.5,3.9-4.6,2.8c-11,5.5-29.1,13.6-45.6,22.2c11.9-6.1-9.9,4.1,3.4-2.4
							c-4.8,1.9-6.7,3-8.7,4.1c-2,1.1-3.9,2.4-8.7,4.4c-0.9,0.2,5.3-2.3,7.3-3.7c-8,3.5-14.7,6.6-21.4,9.4
							c-6.7,2.8-13.5,5.4-21.7,7.2l-0.8-0.3C135.9,327.4,132.5,328.1,128.8,328.6z M96.7,323.7c-2.9-1.4-5.7-3.2-8.3-5.2
							c0.2,0.2,0.5,0.4,0.7,0.6c-2.6-1.9-5-4.1-7.2-6.5c1.8,2.4,3.5,4.2,3.9,4.8c0.2,0.3,0,0.3-0.5-0.1c-0.3-0.2-0.7-0.6-1.2-1
							c-0.5-0.4-1.2-1.1-1.9-1.9c0.6,0.4-0.8-1.6,1.2,0.5c-1.9-2.2-4.4-5.9-6.1-8.9c-0.9-1.5-1.5-2.8-1.9-3.4
							c-0.4-0.7-0.6-0.8-0.4,0c1.3,2.4,2.2,3.7,2.6,4.5c0.4,0.8,0.4,1.1,0.4,1.3c0,0.2-0.1,0.4,0.2,0.9c0.3,0.5,0.9,1.5,2.3,3.1
							c-3.3-3.4-5.4-7.6-7.3-11.6c1.1,2,1.2,1.7,0.7,0.1c-0.2-0.8-0.6-1.9-1-3.3c-0.4-1.3-0.8-2.9-1.3-4.6c-0.5-1.4-1.1-4.1-1.7-7
							c-0.2-1.5-0.5-3-0.7-4.5c-0.1-1.5-0.4-2.9-0.5-4.1c-0.2,0.9-0.4,0.3-0.5,0.4c-0.1,0.2-0.2,1.1,0.2,5.1
							c-0.5-2.9-1-7.5-0.7-12.7c0.1,2,0.2,5.6,0.4,5.3c0.1-1.7,0.2-3.4,0.3-5.1c0.1-1.6,0.2-3.1,0.3-4.2c0.1-1.7,0.1-3.4,0.3-5.1
							c-0.1,0.5-0.2,0.9-0.3,1.2c0.1-1.9,0-3.8,0.2-5.7c-0.6,7.5-0.6,3.4-0.8,3.3c0.5,0.3,0.6-4.8,1-7.4c-0.5,1.8-0.9,3.7-1.3,5.5
							c0-1.4,0.4-3.8,0.8-5.6c0.4-1.8,0.6-3.2,0.2-2.5c-1.1,5.9-1.5,10-1.8,14c-0.2,4-0.3,7.9,0.2,13.3c0.1-1.5,0.1-3,0.2-4.4
							c0,1.5,0.2,2.8,0.2,3.9c0.1,1.1,0.1,1.9,0.2,2.7c0.1,1.5,0.1,2.5,0.1,3.5c0.1,1,0,2.1,0.3,3.8c0.2,1.7,0.6,4,1.6,7.3
							c0.2,0.7,0.5,1.5,0.9,2.4c0.3,0.9,0.7,1.9,1.1,3c0.5,1,0.9,2.1,1.4,3.2c0.5,1.1,1.1,2.1,1.6,3.1c2.2,4,4.8,7,5.2,6.9
							c-0.3-0.3-0.2,0,0.3,0.7c0.4,0.7,1.3,1.7,2.2,2.8c2,2.3,4.9,4.8,7,6c0.6,0.3,1.3,0.7,2.2,1.1c0.4,0.2,0.8,0.5,1.3,0.7
							c0.5,0.2,0.9,0.4,1.4,0.7c0.5,0.2,1,0.5,1.5,0.7c0.5,0.2,1,0.4,1.5,0.6c0.5,0.2,1,0.4,1.5,0.6c0.5,0.2,1,0.3,1.5,0.5
							c1.9,0.7,3.5,1.1,4.4,1.3c0.9,0.2,1,0.2-0.1-0.3c-2-0.6-4.4-1.4-6.6-2.3c-1.1-0.5-2.2-1-3.1-1.5c-0.9-0.5-1.8-1.1-2.4-1.6
							c0.6,0.4,1.2,0.7,1.8,1l1.8,1c1.2,0.6,2.5,1.1,3.7,1.6c-0.8-0.4-1.6-0.9-2.4-1.3l-1.2-0.7l-1.1-0.7c1.2,0.7,1.8,0.9,1.9,0.8
							C97.4,324.6,97.1,324.2,96.7,323.7z M115.5,165.8c0.1-0.1,0.1-0.2,0.2-0.2C115.6,165.7,115.5,165.8,115.5,165.8L115.5,165.8z"
							/>
						<path class="st1" d="M391,502.9c2.3-0.3,8.1-0.5,6.9-0.8C398.1,502.5,387.7,502.6,391,502.9z"/>
						<path class="st1" d="M397.9,503c0.4-0.1,0.1-0.3,2.7-0.4l-7.1,0.4L397.9,503z"/>
						<path class="st1" d="M405.3,505.6c3.7-0.5,6-0.8,11.7-1.1c2.2,0.9-9.4,0.8-12,1.9c10.6-0.5,13.7-1.6,22.4-2.1
							C423.1,504,405.6,504.8,405.3,505.6z"/>
						<polygon class="st1" points="400.7,507.1 406.5,506.6 406,506.6 400.1,507.1 						"/>
						<path class="st1" d="M297.5,460.6c0.1-0.3-0.1-1.2-0.3-2.3c-0.2-1.1-0.5-2.3-0.7-3.2C296.6,456.6,296.9,458.6,297.5,460.6z"/>
						<path class="st1" d="M615.7,72.8c14.8,1.6,29.6,3.3,44.4,5.1C647.3,76.3,635.5,74.9,615.7,72.8z"/>
						<path class="st1" d="M325.3,318c-0.8,6.1-1.4,10.4-2.1,14.8c-0.7,4.4-1.6,8.8-3,14.8c2.3-7.8,3.3-13.2,4-18.2
							c0.7-5,1.3-9.7,2.5-16.6C326.3,314.6,325.8,316.3,325.3,318z"/>
						<path class="st1" d="M327.2,322.7c-0.5,1-0.2-1.4,0-3.8c0.2-2.4,0.4-4.9,0-4c-0.5,4.1-0.5,5.1-0.5,6c0,0.9,0,1.7-0.7,5.4
							C326.4,325.1,326.8,323.9,327.2,322.7z"/>
						<polygon class="st1" points="303.9,373.3 304.7,369.7 303.9,372.5 						"/>
						<path class="st1" d="M316.9,265.3c0.5,0.3,1,0.6,1.4,1c-1.9-1.8-4.2-3.3-6.5-4.3C313.7,262.9,315.4,264,316.9,265.3z"/>
						<path class="st1" d="M319.7,267.4c-0.4-0.4-0.9-0.7-1.4-1.1C318.8,266.6,319.3,267,319.7,267.4z"/>
						<polygon class="st1" points="304,368.4 302.3,373.5 301.7,376.1 						"/>
						<path class="st1" d="M318.9,323.3c-0.2,1.6-0.4,3.2-0.7,4.8C318.3,327.1,319.7,320.7,318.9,323.3z"/>
						<path class="st1" d="M276.3,263.5c-1.9,0.7-3.9,1.4-5.8,2.1l0.6-0.1c1.9-0.7,3.8-1.4,5.7-2.1L276.3,263.5z"/>
						<path class="st1" d="M318.8,286.6c0,1.6-0.3-0.6-0.8-2.3c-0.2-0.9-0.5-1.6-0.6-1.7c-0.1-0.2,0,0.2,0.3,1.8
							c0.7,2.6,0.9,3.5,1,3.5C318.7,287.8,318.8,287,318.8,286.6z"/>
						<path class="st1" d="M263.6,274.8c-0.7,0.3-1.5,0.6-2.2,1C262.3,275.4,263,275.1,263.6,274.8z"/>
						<path class="st1" d="M263.6,274.8c2.4-1,4.8-1.7,6.4-2.4C267,273.3,265.9,273.8,263.6,274.8z"/>
						<path class="st1" d="M236.9,287l2.1-1c-2,1.2-1,0.7,0.8-0.4c2.2-1.1,2-1.2,2.3-1.4c0.4-0.3,0.8-0.5,1.3-0.8
							c-0.7,0.4-1.3,0.7-1.8,1C238.1,286.1,236,287.2,236.9,287z"/>
						<path class="st1" d="M134.8,321.7c3.9-0.7,6.4-1.3,7.9-1.6c1.5-0.3,1.9-0.3,1.7-0.1c3.8-1,5.3-1.7,6.5-2.2
							c1.2-0.5,1.9-1,4.2-1.9c-4.2,1.5-6.8,2.3-9.5,3.1C142.8,319.9,139.8,320.7,134.8,321.7z"/>
						<path class="st1" d="M155.1,316.1c0.9-0.3,1.8-0.7,2.9-1.1C156.8,315.4,155.9,315.8,155.1,316.1z"/>
						<path class="st1" d="M269.7,276.8c-1.6,0.8-3.1,1.6-4.7,2.4l1.8-0.8L269.7,276.8z"/>
						<path class="st1" d="M123.3,322.9c1.4,0,3.7-0.2,4.8-0.2c0.2-0.2-1.4-0.1-2.8,0C123.9,322.8,122.6,322.9,123.3,322.9z"/>
						<path class="st1" d="M155.7,323.2c0.9-0.1,6-2,8.2-2.8C160.9,321.6,158.2,321.8,155.7,323.2z"/>
						<path class="st1" d="M101.7,320.4c1.3,0.5,3.2,1.5,2.3,1.5c1,0.3,2.3,0.4,2.3,0.3C106.4,322,105.2,321.6,101.7,320.4z"/>
						<path class="st1" d="M140.6,327.6l1.2-0.2c1.9-0.5,3.8-1.1,5.6-1.7C145.2,326.4,142.9,327,140.6,327.6z"/>
						<path class="st1" d="M162.5,326.5c3.1-1.4,0.5-0.7-1.5-0.2c-2,0.4-3.5,0.7,1.9-1.4c-7.1,2.3-6.8,2.3-6,2.3
							c0.8-0.1,2.1-0.2-3.2,1.5C159.9,326.7,163.1,326.1,162.5,326.5z"/>
						<path class="st1" d="M153.7,328.6c-0.9,0.3-1.9,0.6-3,0.9C152,329.1,152.9,328.9,153.7,328.6z"/>
						<path class="st1" d="M72.3,298.7c0.4,0.9,0.7,1.5,1,2.1C73,300.1,72.6,299.4,72.3,298.7z"/>
						<path class="st1" d="M118.2,334.8c3.6,0,7.1-0.3,10.6-0.9c-1.7,0.3-4.1,0.5-6.8,0.6c-2.6,0.1-5.6-0.1-8.1-0.4
							c-5.2-0.5-9.3-1.6-8.8-1.1c5.6,1.7,12.6,2.3,15.6,2C119.8,334.9,119,334.8,118.2,334.8z"/>
						<path class="st1" d="M79.4,245.2c-0.2,1.3-0.4,2.7-0.6,4c0.3-1.7,0.7-3.3,1.1-5C79.5,245.7,79.6,243.1,79.4,245.2z"/>
						<path class="st1" d="M80.2,243.4l-0.2,1C80,244.1,80.1,243.8,80.2,243.4z"/>
						<path class="st1" d="M82.4,315c0.5,0.6,1.1,1.2,1.6,1.7c0.5,0.5,1,1.1,1.6,1.5c1.1,0.9,2.2,1.9,3.4,2.7
							c-0.5-0.4-2.3-1.9-3.8-3.4c-0.8-0.8-1.5-1.4-2-1.9C82.7,315.1,82.3,314.8,82.4,315z"/>
						<polygon class="st1" points="87.3,217.3 86.1,220.5 84.9,223.8 86.2,220.3 87.6,216.8 						"/>
						<path class="st1" d="M102.6,189.2l0.7-1l2.8-5c-0.3,0.3-0.5,0.6-0.7,1C104.5,185.9,103.5,187.5,102.6,189.2z"/>
						<path class="st1" d="M72.8,222.6c-0.4,1.2-0.8,2.3-1.1,3.3c-0.3,1-0.5,1.9-0.6,2.6c-0.3,1.4-0.3,2.1-0.1,1.5
							c0.5-1.5,0.9-3,1.4-4.5l1.6-4.5c-0.7,1.1-0.9,1.7-1.2,2.7c-0.3,1-0.7,2.4-1.6,5C71.8,226.6,72.3,224.6,72.8,222.6z"/>
						<path class="st1" d="M294.5,64c-2,0.6-12,1.7-12.5,1.6c1.3-0.4,6.7-1.3,3.3-1l-7.7,2c-5.3,0.6-3.3,0,0.6-0.9
							c1.9-0.4,4.4-0.9,6.7-1.4c2.3-0.4,4.4-0.8,5.7-1c-5.4,0.6-8.8,1.3-12.3,2c-3.5,0.6-7.1,1.5-12.7,2.5c3.3-0.5,5.5-0.7,7.3-0.8
							c0.2,0.3-2.3,0.8-5.8,1.4c-3.5,0.6-8,1.6-11.7,2.4c2.4-0.4,2.9-0.4,2.4-0.1c-0.5,0.2-2,0.6-3.7,1.2c-0.6,0.2-1,0.3-1.3,0.4
							c-0.4,0.1-0.8,0.2-1.1,0.4l0.9-0.2c0,0.1,0.2,0.1,0.8,0.1c3.1-0.8,5.8-1.3,8.3-1.7c2.5-0.4,4.7-0.8,6.7-1.1
							c-2.1-0.1,1.3-0.8,5.9-1.6c2.3-0.4,4.9-0.7,7.2-1.1c2.3-0.4,4.4-0.7,5.7-0.9l5.9-0.9l2.2-0.3c0.5,0-0.2,0.3-3.5,0.9
							c2.8-0.6,12.2-1.6,11.3-1.8c7.2-0.8,14.4-1.5,21.6-2c0.7,0,1.4,0,1.9,0c0.7-0.1,0.9-0.2,0.8-0.2c31.5-2.3,63.2-2.7,95-2
							c-4.7-0.2-8.8-0.5-13.6-0.6c7.3-0.6-7.9-0.2-5.8-0.8c3.3-0.2,8.1-0.1,10.9,0.1c1.1-0.3-3-0.6-2.5-1c-6-0.2-9.5,0-12.9,0.3
							c-3.4,0.3-6.8,0.6-12.7,0.5c0.5-0.4,4.1-0.7-3.6-0.6l2-0.1c-12.3,0.6-9.6-0.7-17.3,0.5l0.2-0.5c-2.8,0.2-6.9,0.5-11.1,0.7
							c-4.2,0.2-8.4,0.4-11.5,0.6l0.4-0.1c-4.3,0.4-7,0.6-9,0.8c-2,0.2-3.3,0.3-4.6,0.3c-2.7,0.1-5.6,0.3-15.2,1.2l8.8-1.3
							c-6.6,0.3-8.1,1-12.8,1.5c0.3-0.1-0.8-0.4,3.7-0.9c-7.7,1-15.4,2.2-23.1,3.5C287,64.8,293.7,63.9,294.5,64z"/>
						<path class="st1" d="M265.4,67.8c-1.2,0.2-2.6,0.5-4.2,0.8C262.8,68.3,264.1,68,265.4,67.8z"/>
						<path class="st1" d="M428.9,59.8l-6.7-0.2C424.3,59.7,426.5,59.8,428.9,59.8z"/>
						<path class="st1" d="M233.6,76.7c3.9-0.9-2.7,1.2-3.3,1.6l6.8-2.1c2.3-0.7,4.6-1.2,6.9-1.9c-0.1-0.2,1.2-0.8,0.9-0.9
							C241.1,74.5,237.3,75.5,233.6,76.7z"/>
						<path class="st1" d="M248,73.7c0.4-0.2,1.9-0.7,3.5-1.2c-2.5,0.6-5.1,1.2-7.6,1.9C244,74.5,244.9,74.4,248,73.7z"/>
						<polygon class="st1" points="243.9,63.6 246.4,63 250.2,61.9 						"/>
						<path class="st1" d="M284,56.7c-3.1,0.2-8.9,1.3-10.8,1.7C279.9,57.4,277,57.9,284,56.7z"/>
						<polygon class="st1" points="275.2,54.8 281.7,53.6 281.1,53.6 						"/>
						<path class="st1" d="M478.5,59.9c1.1,0.1,2.1,0.1,3.2,0.1C480.2,59.9,479.2,59.9,478.5,59.9z"/>
						<path class="st1" d="M422.8,58.1c7.7,0.5,5.2,0.6,1.3,0.6c-3.9,0.1-9,0.1-6.6,0.6c2.8,0,5.6-0.1,8.4-0.1l-0.7,0.2l10.3,0.2
							c-2.1-0.4-3.7-0.5-3.2-0.8c13.7,0.6,4.3,0.6,14.3,1.4l15.3,0.6l-1.2,0c1.3,0.1,1.9,0,2.3,0c17.2,0.8,34.4,1.8,51.5,3
							c9.4,0.4-5.1-1.1,1.8-1.1c-5.4-0.4-12.2-1-17.7-1.4c-5.5-0.4-9.8-0.6-10.3-0.2c0.4-0.1,1.1-0.2-1.1-0.5l-6.3,0.2l6,0.5
							c-6.4,0.2-26.8-1-30.4-1.5c5.8,0.1,7.3,0,9.3,0c2,0,4.6,0,12.7,0.6c-0.7-0.2-3.7-0.7,0-0.6C459.5,59,442.5,57.9,422.8,58.1z"
							/>
						<path class="st1" d="M612.8,71.9l-0.2,0C613,71.9,613.1,71.9,612.8,71.9z"/>
						<path class="st1" d="M606.5,71.1l-9.3-0.3l14.4,1.5l1.1-0.4c-1.3,0-6.3-0.3-8.3-0.7L606.5,71.1z"/>
						<path class="st1" d="M586.4,70c7.4,0.6,7.1,0,3.1-0.7c6.8,0.5,3.5,1,8.3,0.9c-0.1-0.4-8.5-1.1-10.5-1.2L586.4,70z"/>
						<polygon class="st1" points="531.7,64.5 533.8,64.5 528.7,64 						"/>
						<path class="st1" d="M533.8,64.5l5.1,0.5c-0.3-0.2-0.7-0.4-1.5-0.6L533.8,64.5z"/>
						<path class="st1" d="M552.3,66.3c2.2,0.2,4.5,0.5,7.5,0.8L552.3,66.3z"/>
						<path class="st1" d="M546.5,65.7l0.2,0.1l5.7,0.6C550.2,66.1,548.3,65.9,546.5,65.7z"/>
						<path class="st1" d="M538.9,65c0.8,0.5,1.7,1,9.1,1.5l-1.4-0.8L538.9,65z"/>
						<path class="st1" d="M322.7,49.8c2-0.2,3.9-0.5,5.9-0.7l-0.6,0l-5.9,0.7L322.7,49.8z"/>
						<path class="st1" d="M356.8,48.3c1.5-0.1,2.6-0.2,3.6-0.4C358.8,48,357.6,48.1,356.8,48.3z"/>
						<path class="st1" d="M382,44.9c7,0.3-9.6,0.7,3.3,0.7c1.1,0.4-4.9,0.9-11,0.8c0.5-0.4,5.9-0.3,2.2-0.6c-4,0.5-5.6,0.3-4.1,0.8
							c-6.8,0.5-7.5,0.9-12.1,1.4c8.2-0.5,25.3-0.3,35.7-0.9c5.7-0.7,2.3-1.6,2.3-2.5C397.5,44.3,382.6,44.2,382,44.9z"/>
						<path class="st1" d="M371.1,44.1c-3.2,0-4.2,0.1-6.2,0.2C365.4,44.6,368.5,44.2,371.1,44.1z"/>
						<path class="st1" d="M444.8,52c0.6-0.1,6.4-0.1,5.2-0.3l-8.8-0.2C443.2,51.6,444,51.8,444.8,52z"/>
						<path class="st1" d="M437.3,51.4l3.9,0.1C440.2,51.5,439,51.4,437.3,51.4z"/>
						<path class="st1" d="M445.2,52.1c-0.1,0-0.3-0.1-0.4-0.1C444.7,52,444.7,52.1,445.2,52.1z"/>
						<path class="st1" d="M573.4,68.6c-0.1,0.2,3.7,0.5,5.7,0.6C577.5,69,575.3,68.7,573.4,68.6z"/>
						<path class="st1" d="M719.4,85.5l3.4,0.7C721.6,85.9,721,85.8,719.4,85.5z"/>
						<path class="st1" d="M773.1,85.9c0.1,0,0.4,0,0.7,0C773.5,85.9,773.3,85.9,773.1,85.9z"/>
						<path class="st1" d="M773.8,85.9c2.4,0.1,9.5,1.5,12.2,1.5l-0.3,0.1l4.9,0.4C786,87.3,776.5,86,773.8,85.9z"/>
					</g>
				</g>
			</g>
		</g>
	</g>
</g>
<g>
	<g>
		<g>
			<g>
				<g>
					<g>
						<path class="st1" d="M481,433.9c-0.5-0.3-0.7-0.9-0.5-0.9c-1.2-0.4-1-0.8-1.5-0.3c-0.8-0.1-1.2-1-0.3-0.8
							c-0.7-0.3-1.4-0.6-2.1-0.8l1.1,0.8c-0.6,0.3-1.7-1.3-2.4-0.9l2,1.2l-0.2,0.1c0.6,0.1,1.4,0.8,1.6,1.1c-0.1,0-0.2,0.2-0.5,0
							c1.1,0.8,1.4,0.8,1.7,0.6c0.3-0.2,0.5-0.4,1.5,0.3C481.3,434.2,481.2,434.1,481,433.9z"/>
						<path class="st1" d="M481.9,436.6l1.3,0.1c0.4,0.4,0.7,0.9,1,1.3c0.2-0.2,1.2,0.6,0.8-0.2c-0.1-0.1-0.4-0.3-0.6-0.5
							c0.3-0.1,0.7,0.2,1.1,0.5c0.4,0.3,0.7,0.6,0.7,0.2c-1-0.9-1.1-1.1-2-1.4c-0.8-0.9-1.5-1.6-1.7-2.2c-0.3-0.2-0.6,0-1-0.2
							c0.1,0.1,0.2,0.1,0.3,0.2l-0.5,0.7c0.4,0.1,0.6,0.4,0.9,0.7c-0.7-0.2-1.4-0.4-2.1-0.5c0,1,1.7,1.9,2,2.6
							C481.9,436.8,482.9,438.2,481.9,436.6z"/>
						<path class="st1" d="M481.5,434.3C481.5,434.3,481.5,434.3,481.5,434.3C481.5,434.3,481.5,434.3,481.5,434.3z"/>
						<path class="st1" d="M483.7,565.1c-0.4-0.5-0.6-0.4-0.7-0.3c1.4,1.8,2.8,3.8,4.2,5.7c-0.1-0.6-1.2-2.6-0.4-1.7
							c-0.3-0.8-1.3-1.9-1.6-1.7c0.1,0,0.3,0,0.4-0.1c-0.5-0.3-0.9-1-1-1.5c-0.1-0.5,0-0.8,0.3-0.6l-0.1-0.1c-1-0.4-2.1-0.9-3.4-1.6
							C482.3,564.6,482.5,563.6,483.7,565.1z"/>
						<path class="st1" d="M391.4,525.9c0.6-0.1,0.7-0.2,0.7-0.3C391.8,525.7,391.6,525.7,391.4,525.9z"/>
						<path class="st1" d="M480.4,562.7l-1.3-0.7C479.6,562.4,480,562.6,480.4,562.7z"/>
						<path class="st1" d="M487.7,559c0,0,0-0.1,0-0.1c-0.1,0.1-0.1,0.1-0.2,0.2l0,0C487.6,559.1,487.7,559.1,487.7,559z"/>
						<path class="st1" d="M462.5,549.2c-0.1-0.1-0.2-0.1-0.3-0.2C462.3,549.1,462.4,549.1,462.5,549.2z"/>
						<path class="st1" d="M488.5,554.8c0.1,0.3,0.2,0.7,0.2,1.1c-0.1-0.5-0.1-0.2-0.3-0.8c0,0.1,0,0.3,0.1,0.6l0-0.1
							c0.2,1,0.3,1.3,0.4,1.7c0.1,0.5,0.2,1,0.2,1.8c0.3,0.5,0.2-0.5,0-1.2c0-0.1,0-0.2,0-0.3c-0.1-0.7-0.3-1.4-0.5-2L488.5,554.8z"
							/>
						<path class="st1" d="M423.2,524.6L423.2,524.6C423.2,524.6,423.2,524.6,423.2,524.6z"/>
						<path class="st1" d="M423.3,524.4l-0.1,0.2C423.3,524.5,423.8,524.5,423.3,524.4z"/>
						<path class="st1" d="M481,562.7c-0.1,0.1-0.3,0.1-0.6,0l0.9,0.5C481.3,563.1,481.1,562.9,481,562.7z"/>
						<path class="st1" d="M483.3,563.1c0.5,0.5,1,1.1,1.4,1.7c0.2,0.1,0.4,0.1,0.6,0.2C484.8,564.5,484.2,563.8,483.3,563.1z"/>
						<path class="st1" d="M464.5,551.2c-3.1-2.1,1.2-0.1,0-1.3c-0.9-0.5-1.4-0.4-2-0.7c2.6,1.4-1.1,0.8,1.5,2.4
							c-0.8,0.3-2.2-0.6-2.9-1.3c-0.5-1.2,1.1,0.2,1.7-0.2c-1-0.6-0.9-0.4-1.6-0.4c-1.4-1.2-3.7-1.4-4.1-2.8
							c-1.2-0.6-1.3-0.2-2.2-0.3c-0.5,0.5,1.5,1.3,1.6,2.1c-0.1-0.1-0.2-0.3-0.1-0.4l0.9,0.7c-0.8-0.8,0.5-0.5,1-0.3
							c0.4,0.2,1.1,0.6,0.9,0.7l-0.6-0.2c0.6,0.6,1.8,0.5,2.3,1.4c-0.1,0.2-0.4,0-0.5,0.1c1.1,0.2,1.8,0.7,3.2,1.3l-1.1,0.1
							c1.4,0,3.4,1.9,4.5,3.3c-0.1-0.2-0.3-0.5,0-0.5c1,0.5,1.2,1.4,0.6,1.4c1.2,0.3,2.6,3,4.2,3.4l3.6,1l1.8,0.6
							c0.6,0.2,1.2,0.4,1.8,0.7c-0.3-0.2-0.5-0.3-0.7-0.5c0.1-0.9-0.2-1.1,0.9-0.7c-1-0.6-1,0.1-2.2-1.1c0.7,0.2,1.3-0.2,0.3-1.3
							c-1.6-1.1-3.1-1.9-4.7-2.4c-0.8-0.3-1.6-0.6-2.4-0.8c-0.8-0.3-1.6-0.6-2.4-1c0.2-0.5-2-2.1-3-3c0.7-0.1,1.6,0.4,2.5,1
							c-0.5-0.4-1.3-1.2-2-1.7L464.5,551.2z"/>
						<path class="st1" d="M472.3,555.5c0-0.1-0.1-0.2-0.2-0.3C472.2,555.3,472.2,555.4,472.3,555.5z"/>
						<path class="st1" d="M467.6,552.4C467.7,552.4,467.7,552.4,467.6,552.4l-0.2-0.2C467.5,552.3,467.6,552.4,467.6,552.4z"/>
						<path class="st1" d="M481,561c0.3,0.1,0.5,0.2,0.7,0.3c-0.1-0.1-0.3-0.2-0.5-0.4C481.1,560.9,481,560.9,481,561z"/>
						<path class="st1" d="M481.1,562.4l-0.2,0c0.1,0.1,0.1,0.2,0.2,0.3C481.1,562.7,481.2,562.6,481.1,562.4z"/>
						<path class="st1" d="M454.6,539.6l-0.4-0.1C454.5,539.7,454.6,539.7,454.6,539.6z"/>
						<path class="st1" d="M461.6,548.1c1.1,0.7,0.5-0.5,2,0.6l-0.4-0.4c1.3,0.5,3.1,2,4.3,3c-0.3,0.1,0.5,0.9,0.1,1.1
							c0.9,0.6,1.8,1.2,2.5,1.2c0.4,0.6,1.4,0.9,1.9,1.7c-0.1-0.4,1.5,0.1-0.2-1c0.2,0.1,0.1,0,0.3,0.1c-0.8-1.2-1.6-1.1-2.5-1.8
							c-0.4-0.6,1.2,0.4,0.7-0.1c-1.3-0.7-3.4-3.1-3.9-2.2c-0.9-0.6-0.9-0.8-1-1.2c-1-0.1-2.2-1-3.2-1.9c-1.1-0.8-2-1.4-2.4-0.8
							c0.5,0.3,1.4,0.8,2.3,1.1L461.6,548.1z"/>
						<path class="st1" d="M479.4,559.3c-0.1-0.1-0.1-0.1-0.2-0.2C479.3,559.1,479.3,559.2,479.4,559.3z"/>
						<path class="st1" d="M493.8,585l0,2l-0.1,0.3c-1.7-2.4-3-4.2-4.1-6c-1.1-1.8-2.3-3.5-3.9-5.8c-0.2-0.5,0.2-0.1,0.4,0.1
							c-1.1-1.5-2.5-3.6-3.9-5.5c-0.7-1-1.3-1.7-2-2.5c-0.6-0.7-1.2-1.4-1.7-1.8c-0.4-0.4-1-1.3-1.4-1.9c0-0.1-0.1-0.2-0.1-0.2
							c0,0,0-0.1,0-0.1c0-0.1,0-0.1,0-0.2c0-0.1,0.1-0.1,0.2-0.1c-0.3-0.2-0.5-0.4-0.7-0.6c0.2-0.3,0.6,0.5,0.8,0.3
							c-0.2-0.2-0.2-0.3-0.3-0.3c0.3,0.1,0.4-0.2,0.6-0.3c0.1,0,0.3,0,0.5,0.1c0.1,0,0.1,0.1,0.2,0.1c0,0,0.1,0,0.1,0.1
							c0,0,0.1,0.1,0.2,0.1c0.2,0.2,0.5,0.5,0.7,0.8c0.2,0.8-0.2,0.4-0.7-0.2c-0.6-0.6-0.8-0.8-1-0.4c0.1,0.1,0.1,0.1,0.2,0.2
							c0.1,0.1,0.2,0.1,0.2,0.2c0.1,0.1,0.2,0.1,0.3,0.2c0.2,0,0.2,0,0.3,0c1,1.2,0.8,1.3,0.7,1.4c0.6,0.2,1.7,2.2,2.4,2.5
							c1,1.2,0.9,1.4,0.7,1.4c-0.2,0-0.5-0.1,0.2,0.8c0.4,0,0.7,0.1,1.1,0.1l2,3.2c1.5,1.9,1.4,1.1,1.4,0.5c0-0.7,0.1-1.3,1.5,0.3
							c-0.2,0.1,0,0.9,0.4,2c0.4,1.1,1.1,2.5,1.9,3.8c-0.4-0.6-1-1.2-1.7-2c-0.6-0.8-1.4-1.7-2-2.8c1.7,3.6-2.4-3.3-1.6-0.9
							c1,0.8,2.4,2.7,3.5,4.7l-0.4-0.4c0.6,0.9,1.1,1.3,1.6,1.8c0.5,0.5,1.1,1.1,1.9,2.6c0.8,1.1,0.7,1.4,0.6,1.7
							c0.3,0.3,0.6,0.6,0.8,0.9C493.7,585,493.7,584.8,493.8,585z M492.3,583.9l-1.1-1.8C491.5,582.8,491.9,583.4,492.3,583.9z"/>
						<path class="st1" d="M490.3,446.9c0-0.1-0.1-0.2-0.1-0.3C490.3,446.7,490.3,446.8,490.3,446.9z"/>
						<path class="st1" d="M496.2,535l0.1-0.6C496.2,534.6,496.2,534.8,496.2,535z"/>
						<path class="st1" d="M495.4,521.4l-0.1-0.9C495.3,520.9,495.3,521.1,495.4,521.4z"/>
						<path class="st1" d="M493.3,453L493.3,453c0,0.1,0.1,0.1,0.1,0.1L493.3,453z"/>
						<path class="st1" d="M499.2,495.1c0.1-0.1,0.1-0.3,0.2-0.5C499.3,494.7,499.3,494.8,499.2,495.1z"/>
						<path class="st1" d="M495.4,521.6C495.4,521.5,495.4,521.5,495.4,521.6c0-0.1,0-0.1,0-0.2L495.4,521.6z"/>
						<path class="st1" d="M492.7,540.3c0,0.1,0,0.2,0,0.4C492.7,540.5,492.7,540.4,492.7,540.3z"/>
						<path class="st1" d="M495.2,539.9c0,0.1,0,0.3,0,0.4L495.2,539.9z"/>
						<path class="st1" d="M490,556l0,0.3C490.1,556.2,490.1,556.1,490,556z"/>
						<path class="st1" d="M494.2,541.9c0,0.1,0.1,0.1,0.1,0.1C494.3,542,494.3,541.9,494.2,541.9z"/>
						<path class="st1" d="M489.8,441.4C489.8,441.4,489.8,441.5,489.8,441.4l0.1,0L489.8,441.4z"/>
						<path class="st1" d="M487.6,440.7c-0.2-0.2-0.3-0.3-0.5-0.5C487.3,440.4,487.5,440.5,487.6,440.7z"/>
						<path class="st1" d="M500.3,483.6c0.1-0.2,0.2-0.7,0.4-0.5C500.4,482.7,500,482.7,500.3,483.6z"/>
						<path class="st1" d="M496.4,441.9c-0.2-0.1-0.3-0.2-0.5-0.3C496.2,441.8,496.4,442,496.4,441.9z"/>
						<path class="st1" d="M495.9,441.6c-0.1-0.1-0.3-0.2-0.4-0.3C495.6,441.4,495.8,441.5,495.9,441.6z"/>
						<path class="st1" d="M507.5,488.7c-0.1,0.1-0.1,0.1-0.1,0.3C507.5,488.9,507.6,488.8,507.5,488.7z"/>
						<path class="st1" d="M486.9,439.7c-0.2,0-2.5-1.9-1,0c-0.5,0.3-1.2-1-1.8-1.3c0.2,0.4-0.5,0.1-0.5,0.4c0.3,0.2,0.7,0.3,1,0.7
							c-0.1,0.4-0.7-0.1-1.1-0.6c0.3,0.8-1-0.3-0.5,0.6c0.9,0.7,1.5,1.4,2.3,1.9c0.7,0.6,1.4,1,2.3,1.4c-0.9-1-2-2-2.5-3l0.7,0
							c0.5,1.2,1.2,1.6,1.9,2.6c-0.5-0.8-0.9-1.6-1.5-2.3c-0.5-1.3,0.1-0.7,0.9,0C487,440,486.9,439.8,486.9,439.7z"/>
						<path class="st1" d="M491.9,438.2L491.9,438.2c-0.1-0.1-0.1-0.1-0.1-0.1L491.9,438.2z"/>
						<path class="st1" d="M499,565.3l0.1,0.6C499.1,565.5,499,565.3,499,565.3z"/>
						<path class="st1" d="M490.8,441.2L490.8,441.2C490.8,441.2,490.8,441.3,490.8,441.2z"/>
						<path class="st1" d="M501.4,556.1C501.4,556.1,501.4,556.1,501.4,556.1C501.4,556.1,501.4,556.1,501.4,556.1z"/>
						<path class="st1" d="M490.3,551.8C490.3,551.8,490.3,551.8,490.3,551.8C490.2,551.9,490.3,551.9,490.3,551.8z"/>
						<path class="st1" d="M501.3,556C501.3,556.1,501.3,556.1,501.3,556C501.3,556.1,501.3,556,501.3,556z"/>
						<path class="st1" d="M505.1,525.2c0,0-0.1,0.1-0.2,0.2C504.9,525.5,504.9,525.4,505.1,525.2z"/>
						<path class="st1" d="M503.4,531.1c0,0,0,0.1-0.1,0.1L503.4,531.1z"/>
						<path class="st1" d="M497.9,485.1c0,0.3,0,0.5,0.1,0.7C498,485.6,497.9,485.3,497.9,485.1z"/>
						<path class="st1" d="M501.4,556.1c0,0.1,0.1,0.2,0.1,0.3C501.5,556.3,501.4,556.2,501.4,556.1z"/>
						<path class="st1" d="M503.4,515.7c0,0.1,0,0.1,0,0.2L503.4,515.7L503.4,515.7z"/>
						<path class="st1" d="M504.1,512.5c0.1,0.1,0.1,0.2,0.2,0.2c-0.1-1.1,0.3-3.2-0.3-3.5c0,0.4-0.5,2.3-0.8,2
							c0.1,0.8-0.4,1.9-0.4,2.3c0.4-1.3,0.5-0.1,0.6,0.8c-0.2,0.8-0.4-0.2-0.6,0.5l-0.1,1.8l0.2-1.6l0.5,0.5c0-0.1,0-0.1,0-0.2
							C503.4,512.8,504.2,515.3,504.1,512.5z"/>
						<path class="st1" d="M504.3,512.8c0,0.2,0,0.3,0.1,0.4C504.4,513,504.3,512.9,504.3,512.8z"/>
						<path class="st1" d="M505.9,501.8c0-0.1,0-0.3-0.1-0.5C505.9,501.4,505.9,501.6,505.9,501.8z"/>
						<path class="st1" d="M486.3,566.3c0,0.3,1.1,2.3,1.1,1.6c-0.3-0.5-0.6-1-1-1.5L486.3,566.3z"/>
						<path class="st1" d="M502,471.8c0,0.2,0,0.3,0.1,0.5c0,0,0.1,0.1,0.1,0.1C502.2,472.3,502,472,502,471.8z"/>
						<path class="st1" d="M503,510.8c0,0.3,0.1,0.4,0.2,0.5C503.2,511.1,503.1,510.9,503,510.8z"/>
						<path class="st1" d="M503,471.6c0.1-0.2,0.2-0.6,0.4-0.7c-0.1-0.5-0.4-0.7-0.5-1.2C503,470.2,503,470.8,503,471.6z"/>
						<path class="st1" d="M502.8,469.7L502.8,469.7C502.8,469.7,502.8,469.7,502.8,469.7z"/>
						<path class="st1" d="M485.7,565.2c-0.1-0.1-0.2-0.2-0.3-0.3l0.2,0l-0.7-1.1c-0.1-0.1-0.2-0.2-0.3-0.3c0.1,0,0.1,0,0.1,0
							l-0.2-0.4c-0.8-0.2-2.6-1.9-3.3-2.2c-0.2-0.1-0.4-0.3-0.6-0.5c-0.2-0.1-0.3-0.3-0.5-0.4c-0.3-0.3-0.6-0.6-0.8-0.8
							c0.4,0.4,0.9,0.9,1,0.6c-0.6-1.1-0.5-2-2.3-3l0.8,0.8l-2.5-1.2c-0.4-0.9,1.3,0.6,1.8,0.6c-0.9-0.6-1.4-1.4-1.9-2.1
							c-0.5-0.7-0.9-1.2-1.5-1.2c0.2-0.4,0.6-1.2-0.4-2.1c0.4,1.1-0.8-0.3-0.6,0.7c-0.5-0.1-1-1.1-1.3-0.9l0.2-0.1
							c-1.3-2.1-2.7-1.6-3.7-1.9c-0.6-0.4-1-0.7-1.5-1.1c-0.4-0.3-0.8-0.6-1.2-0.9c-0.7-0.6-1.4-1.1-2.4-1.8
							c0.1-0.3,0.1-1.4-0.7-1.9c-0.6,0.1-2.4-0.8-2.9-0.4c1.2,1.1,1.4,0.3,2.3,0.7c0.3,0.9-0.3,0.5,0.5,1.4c-0.6-0.7-3.5-1.9-4-2.9
							l0.3,0.1c-1.1-1.1-0.7-2.4-3.4-3l-1.2-0.3c0.1,0,0.1-0.1,0.2-0.1c-1.8-1-1-1.3-3.2-1.9c0.2,0,0.1-0.1,0.3,0
							c-1-0.9-2.5-0.8-3.4-1.1c-0.3-0.7,0.3-0.4,0.8-0.5c-1-0.5-2.1-0.9-3.2-1.1c-1.1-0.2-2.1-0.2-2.9-0.2L442,534
							c0.9,0.1,2,0.1,1.9-0.3c-0.8-0.2-0.7,0.1-1.7-0.4c0.3-0.2,0.8-0.3,1.5-0.5c-2-1.3-0.9,0.8-2.1-0.7c-0.7-0.3-1.3,0-1.5,0.3
							l-1.1-0.9c-0.3,0.4-1.8-0.1-2.9-0.4c-0.2,0.2,0.7,0.7,1.1,0.7c-0.2,0.3-1.3,0.2-2-0.1c0-0.5-1.1-0.8-2.2-1.1
							c-1-0.3-1.9-0.5-1.3-1c-3.3-0.6-7.8-1.5-10.1-1.5c-0.7-0.4-2.1-0.7-1.1-1c-2.6-0.5-4.1,0.3-6.7-0.3c-0.2-0.2,1.2,0.2,1.1-0.2
							c-1.8,0.1-3.1-0.8-5.8-0.9c0.5,0,0.6-0.2,0.7-0.2c0,0.2-1.1,0.2-1.8,0.3c-0.4-0.1,0.5-0.1,0.3-0.2c-5.1-0.9-9.2,0.2-14.3,0.2
							c1.5,0,2-0.6,2-0.9l-1.4,0c-0.6,0.3-1.6,0.3-2.5,0.6c-0.1-0.1-0.6-0.2-0.1-0.4c-2.9-0.6-4.4,1.3-7.8,1.3
							c1.3-0.6,2.7-1.1,4-1.6l-1.1-0.4l1.8-0.7c-1.1-0.3-2.1,0.6-2.2,0.1c0.2-0.2,0.8-0.1,0.8-0.4c-1.1-0.1-1.2,0.3-2,0.4
							c2.1-1.2,6.3-1.3,8.6-1.6c0.4-0.1-0.3,0.2-0.4,0.3c0.9,0,1.5,0.3,2.6,0.1c0.7-0.4-0.5-0.3-1.1-0.4c0.1-0.4,0.4-0.4,1-0.4
							c0.1,0.5,3.5,0.2,4.3,0.9c3.4,0-0.5-1.3,2.8-0.9l1,0.6c2-0.3,4.5-0.5,6.7-0.1l-0.5,0c-0.3,0.2,0.2,0.4,0.4,0.6
							c1.6,0.4,3.2,0,4.1,0.6c1-0.2,2.3-0.2,3.6-0.2c1.3,0,2.7,0,3.8,0.1c0.4,0.8-2.9,0.1-3.9,0.4l1.9,0.3c-1.2-0.2-1.7,0-2.5,0.3
							c1.7,0.4,2.3-0.1,4,0c-0.2,0.2,0,0.3,0.8,0.5l0.3-0.4c0,0,0.1,0.1,0.3,0.2c1,0.1,2,0.2,2.9,0.3c-0.6-0.3-0.5-0.8-1.2-0.9
							c0.2,0.3-0.4,0.3-1.2,0.1c0.7-0.2-0.7-0.4-0.6-0.7c1.5,0.3,3.3,0.7,4.3,0.8l0.2,0.5c1.4,0.4,2.9,0.6,3.9,1l-0.4,0.2
							c0.8,0.3,1.7,0.5,2.5,0.7c0.8,0.2,1.6,0.5,2.2,1c0.8,0,1.7,0,2.6,0c0.9,0.1,1.7,0.1,2.4,0.1c0.4-0.2,1.5,0.4,2.6,1
							c1.1,0.6,2.4,1.3,3.4,1.2c0.1,0.1-1.3,0-1.9-0.1c1.1,0.5,2.2,0.2,2.3,0.9c-2.4-1.2-0.1,0.5-1.2,0.2c1.2,0.4,2.4,0.9,3,0.9
							c-1.8-0.8,1-0.5-1-1.1c1.6,0.2,3.7,0.8,5.3,1.9c-0.1,0.2,0,0.4,0.6,0.9l0.7-0.1c0.8,0.5-1.7-0.4-0.2,0.6
							c0.9,0.1,2.2,0.8,3.2,1.4c1.1,0.6,2.1,1.1,2.7,0.8c1,1.1-2.5-0.9-1,0.7c-1.3-0.2-2.5-1.5-3.1-1.1c1.1,0.4,0.1,0.7,0.8,1
							l1.3,0.3l-0.2-0.2c1.1,0.3,2.4,0.9,3.7,1.7c1.3,0.8,2.6,1.7,3.8,2.4c1.1,0.4,2.2,0.7,3.2,1.1c1,0.4,2.1,0.9,3.2,1.8
							c-0.9-0.3,1.7,1.8-0.2,1.2c0.8,1.1,2.1,1.6,2.3,1.4c-0.9-0.8-0.3-0.3-1-1.1c0.7,0.2,2,1.1,2.3,1.7c-0.2-0.2-0.2-0.1-0.3-0.1
							c0.9,1.1,0.7,0.2,1.6,0.8c-0.1,0.6,1.6,1.6,2.1,2.4c0.5,0.1,1,0.3,1.4,0.5c-0.8-0.2,0.8,1,0.7,1.5c0.9,0.5,1.8,0.7,2.8,1.8
							c-0.3-0.1-0.1,0.1,0.1,0.5c0.2,0.4,0.4,0.8,0.3,1c0.2,0.3,0.4,0.5,0.5,0.7c0.1,0.1,0.2,0.2,0.3,0.3c0.2,0.1,0.5,0.2,0.7,0.3
							c0.4,0.1,0.8,0.1,0.9,0.8c0,0.1-0.3,0.2-0.1,0.6c0.2,0.1,0.4,0.5,0.6,0.6l0,0l0,0c0.1,0.1,0.1,0.1,0.2-0.1
							c0.3-0.3,0.5-0.8,0.7-0.9c-0.1-0.9-0.3-0.9-0.4-0.8c0,0.2-0.1,0.4-0.2,0.6c0-0.6-0.1-0.6-0.2-0.6c-0.1,0-0.2,0.1-0.2-0.1
							c0.2-0.4,0.4-0.4,0.6-0.4c0.2,0,0.3,0.1,0.4-0.2c-0.3-1.5-0.3-1.7-0.5-1.8c0,0.1,0,0.3,0,0.5l-0.1-0.1c0,0.3,0,0.5,0,0.8
							c-0.1-0.3-0.3-0.3-0.4-0.5c0.1,0.1,0,1.1-0.1,0.8c0-0.8-0.3,0.1-0.5-0.2c0.1,0.2,0.2,0.3,0,0.5c-0.1-0.5-0.2-0.7-0.3-0.9
							c0-0.1-0.1-0.2-0.1-0.3c0-0.1,0-0.1,0-0.2c-0.1-0.2-0.2-0.4-0.3-0.6c-0.2,0.4-0.6-0.1-1.1-0.6c-0.5-0.5-1-1-1.3-0.9l0.6,0.7
							l-1.7-1c-0.8-1.7,1.6,0.6,0-1.6c-0.8-0.9-1.4-1.2-1.9-1.4c-0.5-0.2-1-0.4-1.8-1c0.8,0.1,2.2,0.8,3.3,2l-0.5-0.8
							c0.6,0.2,2.1,1.8,2.8,2.6c-1.7-0.9,0.5,0.7,0.7,1.6c0.4-0.2-0.4-1,0.8-0.2c-0.9-1-1.1-1-2.1-2.3c1.2,1.3,2,1.6,2.8,1.9
							c0.2,0.1,0.4,0.1,0.6,0.2c0.1,0,0.2,0.1,0.3,0.1c0.1,0,0.2,0.2,0.2,0.1c0.1-0.1,0.1-0.1,0.1,0c-0.2,0.1-0.4,0.6-0.5,0.8
							c0.1,0,0.2,0,0.3-0.1c0.1-0.3,0.2-0.5,0.3-0.7c0.1-0.2-0.1,0.1-0.1,0.5c0,0.3,0,0.6,0.1,0.2c0-0.6,0-0.2,0-0.3
							c0.1-0.3,0-0.1,0.1,0.5c0,0.5,0.1,1.3,0.3,1.9c0-0.3-0.1-0.7-0.2-1.9c0.1,0.8,0.2,1.3,0.2,1.8c0.1,0.3,0.1,0.2,0.1,0
							c0-0.1,0-0.2,0-0.3c-0.1-0.3-0.1-0.6-0.2-0.9c0-0.3-0.1-0.7-0.2-0.9c0,0.1,0.2,0.9,0.2,1.2c0.1,0.2,0.4,1.3,0.1,0
							c0.1,0.4,0.2,1,0.3,1.5c0,0.3,0.1,0.6,0.1,0.8c0,0.1,0,0.2,0,0.3c0,0,0,0,0,0l0,0.1l0.1,0.2c0,0.1,0,0.2,0,0.2
							c0,0-0.1-0.1-0.2-0.3c0.2,0.9,0.4,1.6,0.4,2.2c0-0.2,0-0.2-0.1-0.3c-0.2-0.4-0.2-0.4-0.2,0.1c0,0.9,0.3,1,0.5,1.8l0,0l0.2,0.1
							c0-0.1,0-0.4,0-0.6l0-0.7l-0.1-1.3c-0.1-0.8-0.2-1.6-0.3-2.3c0-0.7,0.3-0.1,0.6-0.1l-0.3-0.8c0.1-0.2,0.3-0.4,0.7,0.6
							c-0.1-0.2-0.1-0.1-0.2,0c0,0.1,0.1,0.2,0.1,0.3c0,0,0,0.1,0.1,0.1c0-0.7,0-1.1,0-1.1c0.2,0.7,0.3,1.1,0.5,1.2
							c0.2,0.2,0.5,0.2,0.8,0.8l0.1-1.5c-0.4,0.5-0.4-0.3-0.4-0.6c0.4,0.3,0.2-0.9,0.4-1.2l0.1,0.1c0.1-0.1,0.2-0.4,0.3-0.7
							c0.1-0.5,0.2-1.1,0.3-1.6c-0.2,0-0.7-1.4-1-2.1c-0.5,1.6-0.5,0.6-0.8,0.6c0.1-0.2,0.1-0.5,0.1-0.5c-0.1-0.3-0.3,0.3-0.4,0.3
							c-0.1,0.9-0.2,1.8-0.3,2.5c0,0.1,0,0.2,0,0.3l0,0.1c0,0,0.1,0.1,0.1,0.1c0.1,0.1,0.2,0.2,0.3,0.3c0.3,0-0.2-0.3,0-0.4
							c0.4,0.4,0.2,0.7,0.1,1.1c-0.1,0-0.3-0.1-0.4-0.1c0,0.2,0.1,0.4,0.1,0.6c-0.1-0.3-0.5-0.6-0.5-1c-0.3-0.2,0,0.3-0.2,0.4
							c0.1,0.2,0.3,0.4,0.4,0.6c-0.2-0.3-0.4,0-0.6-0.7c-0.1-0.3-0.2-0.5-0.3-0.7c-0.1-0.1-0.2-0.2-0.3-0.3c0-0.1,0-0.1-0.1-0.2
							c0.1,0.1,0.2,0.1,0.2,0.2c-0.1-0.2,0.1-0.1,0.3,0c0.1,0,0.2,0.1,0.3,0c0,0,0,0,0-0.1c0-0.1-0.1,0,0-0.5
							c-0.4-1.1-0.2-2.2,0.3-4c-0.2,1.4,0.4,0.2,0.7,0.8c0.6-1.3,0.2-1.9,0.1-2.7c0.4-0.3,0.8-0.5,0.4,0.8c0.7,0.3,0.2-1.7,1-1.6
							c0.9-4.2-1.7-3.8,0.2-8.5l0.3,0.2c0.2-3.2,0.9-4.9,1.1-7.8l1.1-2.1c0,0.5,0.4,2,0.9,1.4c-0.9,1-0.9,2.2-1.5,3.3
							c0.2,0.2,0.4-0.3,0.6-0.5c-0.1,0.7-0.5,1-0.6,2c0.2,0,0.5-1,0.5-0.2l-0.7,1.2c-0.1,1.8,1,1.1,0.4,3c-0.3-0.5-0.8-1.3-0.8-2.1
							c-0.3,0.9,0-1.3-0.4-0.5c0.4,1.4-0.2,2-0.2,3.8c0-0.2-0.2-0.3-0.1-0.7l-0.8,2.5c0.5-0.6,0,2.2,0.6,2.1c0.8-2.7,0.3-1.9,1.2-5
							c0,0.9,0.3,2.2,0.7,2.8c0,0-0.1,0.1-0.1,0.2c0.4,0.6,0.7,0.1,1.6,0.3c-0.4-1.6,0.3-2.4,0.3-4.2c-0.5-0.4-0.8,0.9-0.9,1.7
							l-0.1-1.6l0.2,0.3l0.9-3.8c-0.1,0.7,0.2,1,0.3,1.4c0.1-0.5,0.3-0.9,0.6-1.4c-0.5,0-0.8-0.1-0.8-0.6c0.5-2.4,1.2-3.7,1.9-4.5
							c0-0.1,0-0.2,0-0.3c-0.6,0.3-0.6-1.9-1-2.7c0.5,0.1,0.5-1.2,0.9-1.9c-0.6-0.5-1.4-0.1-2.1,0.7c0.3,1.7,0.4,1,1.1,1.9l0.1,2.7
							l-0.4-0.7c-0.4,1.3,0,2.7-0.6,2.5c-0.3-0.8,0.1-1.9-0.2-2.6l-0.4,0.8c-0.4-1.6,0.7-0.7,0.6-2.6c-0.6,0.6,0-0.2-0.3-1
							c-0.5,0.6-0.3,3.3-1.2,2.6c-0.2-1,1.5-3.1,0.8-4.5l0.1,0.1c0.4-1.9,0-2.6-0.3-3.3c0.4-0.8,0.1-1.9,0.2-2.8l0.3,0.1l0-1.2
							c0.4,0.6-0.2,1.4-0.2,2.5l0.5-0.1c-0.7,1.1,0.1,2.1,0.3,3.1c-0.2-1.4,0.6-3.9-0.3-4.3l0.6-0.8l-0.1-0.4
							c0.4-0.6,0.9,0.1,0.9,1.4c-0.1,0.2-0.2,0.3-0.3,0.2c0.2,0.6,0.5,1.2,0.2,2.5l-0.2-0.8c-0.2,1.7-0.3,3.3,0.1,4
							c0.5-2.5,0.9-4.9,1.1-7.3c-1-0.8-1.6-1.7-2.5-2.1c0-1.6,0-3.7,0.5-5l0.2,0.1c0.2-0.7,0.1-1.3,0.1-1.8c0.3-0.7,0.5,0.5,0.7,0
							l-0.2-2.3c0.5,0.2,0.3,2,0.3,2.9c0-0.2-0.1-0.5-0.1-0.4c-0.3,1,0.4,3-0.4,3.4c0.1,0.5-0.4-1.1-0.6,0.6
							c-0.4,1.1,0.2,1.6,0.4,1.7c0.3,0,0.5-1.8,0.8-1.1c0.1-0.9-0.3-1.3,0.1-2.4c0,0.9,0.4,2.1-0.1,2.6c0.3,1.8,1.6,1.7,1.7,0.9
							c-0.4,0.2-0.2-3.3-0.9-1c-0.4-1.1-0.2-3-0.4-4.4l0.1,0.1l0-1.7c0.1,0.2,0.2,0.8,0.5,0.8l-0.5-2.4c0.4,1.3,0.4-0.8,0.6-1.4
							c-0.4-0.3-0.6-1.2-0.9-0.3c-0.3,1,0.2,0.6,0.2,1.5l-0.6-1.3l0.1-0.1l-0.5-0.8c0.1-1.7,1.2,0.8,0.8-1.4l-0.7,0.3
							c0.2-2.5,1.1-5.8,0.8-7.5c0.4,0.5,1.1,0.7,1.4,0c-0.1,0.8-0.1,2.3-0.1,3.5c-0.1,0.2-0.8-1.4-0.6-2.6c-1.2,0.6,0.7,3-0.5,3.2
							c-0.5,3.1,1.1,2.3,0.2,4.9c0.5,0.1,0.2,0.8,0.7,0.9c0.9-0.7,0.2-3.5,0.5-5.2c0,0.2,0.1,0.5,0.2,0.6c0.2-1.2,0.1-1.7-0.1-2.6
							l-0.1,0.1c-0.5-1.5,0.4-0.9,0.7-1.8c-0.1-0.3,0.1-1.6-0.3-1.4l0.5-1.6l-0.6,0.1c0-0.9,0.3-1.1,0-1.9l-0.5,0l-0.2,2.2
							c-0.2-1.1-0.5-0.3-0.6-1.5c0.6,1.4,0.3-1,0.8-1.1l-0.3-0.9l0.1,0.2c0.3-0.7-0.2-0.8-0.2-1.7c-0.3,1-0.6,1.6-0.2,2.9
							c-0.3-0.9-0.7-2.7-0.7-3.1c-0.3-0.9,0.1-1.6,0.1-2.5c0.3,1.7,1.6-0.7,1.3,2.8c-0.1-0.1-0.1-0.3,0-0.4c-0.7,0.5,0.1,2,0.4,2.8
							c0.4-0.2,0.5,0.6,0.7-0.7c-0.2,0.4-0.9-1.1-0.6-2.4l0.8,0.2c0-0.6,0-1.2,0-1.8l0,0.2c0.5-0.7-0.2-2,0-3.2
							c-0.2-0.4-0.3-1.5-0.4-2.3c-0.2-0.8-0.4-1.3-0.7-0.5c0.4-1.2-0.3-2.1-0.6-3.3c0,0.5-0.1,1-0.2,1.5c-0.8-1.7-0.4-1.2-1.5-2.5
							c0.2-0.2,0.4-0.5,0.6-0.3c-0.3-2.4-0.6-5.8-1.6-7c-0.3-1.6,0.6-2.1-0.3-4.3c-0.2-0.4-0.6,0.6-0.8-1c0-0.1,1,1.3,0.5-0.4
							c-0.9-1-0.5-2.9-1.5-4.2c-0.1-0.9-0.6-2.2,0-2.1c0.2,0.6,0.4,1.4,0.7,2c0.2,0.6,0.5,1.1,0.6,1.2c-0.3-0.1,0,1-0.5,0.1
							c0.2,2,0.7,1.2,0.9,3c0.2,0.1,0.3-1,0-1.4c0.7-0.2,1.3,3.4,1.6,1.6c-0.5-1.9-2-2.1-1.8-3.9c0.6,0.5,0.6,1.6,1.5,2.3
							c0-0.5-0.1-1-0.1-1.4l-0.8-0.8l0.1,0c-0.1-1.3-0.4-1.8-0.9-2.2c-0.5-0.4-1-0.8-1.6-1.7c0,1.3-1.2,0.2-1.2,1.1
							c-0.6-1.3-0.9-2.3-0.3-2.6c1.5,2.3,0.7-0.1,2.3,2c0.1-0.5,1.2,0.2,0.7-1.2c-1.1-1.4-0.3,0.7-1.2-0.8c0-0.1,0-0.2,0.2-0.2
							c-0.6-0.6-0.2-0.9-1-1.6l0.2,0.1c-0.1-1.2-0.9-1-1-2.1c-0.3,0.6-0.7-0.4-1.2-0.8c0.3,1-0.1,1.8,0.7,3.5
							c0.5,0.1,0.6-0.2,1.1,0.5l-0.6-1.2c0.2,0.2,0.4,0.4,0.5,0.6c0.1,0.4,0.2,0.8,0.3,1.2c-0.9-1.3-1-0.5-1.6-0.9
							c-0.4-1.4-0.6-1-0.8-1.9c0.3-0.1,0.2-0.8,0-1.7c-0.2-0.9-0.6-2-0.8-2.8c0.1,0.2,0.3,0.5,0.3,0.7c0.9,0.9,0-1,0.1-1.1l-0.7-0.6
							c0.1,0.1,0.4,0.2,0.2-0.1c-0.7-0.9-1.1-0.6-1.9-1.5c0.2-0.3,1.2,0.3,0.9-0.4c0.1-0.4,0.3-1.5-0.9-2.6c-0.2,0-0.5-0.3-0.8-0.6
							c0.1,0,0.1,0.1,0.2,0.1l-0.4-1.1c1,0.4,0.9,1.6,1.9,2l0.5-0.2c0.4,0.6,1.2,1.3,1.7,1.5c-0.6-1-0.8-1.1-1.6-2
							c0.2-0.3,0.9,0.2,1,0.3l-0.4,0c0.5,1.5,1.7,1.5,2.6,3.2c0.1,0.3,0,0.1-0.1,0.1c0.6,0.5,0.9,1.2,1.3,1.9
							c0.3,0.7,0.7,1.3,1.3,1.8l-0.5-0.3c0.3,0.4,0.8,1,1.4,1.7c0.6,0.7,1.2,1.5,1.8,2.3l0.2-0.1c0-0.3,0.3,0.4,0.4,0.9l0,0
							c0.6,0.8,1.2,1.7,1.6,2.4c0-0.3,0-0.6-0.1-1c-0.3-0.2-0.8-2-1.3-1.6c0-0.9-1-2-1.1-2.7c0.1,1.2-0.8-0.5-1.2-0.6
							c0.1-0.5-0.8-1.5-0.3-1.6c0-0.3,0,0.6,0.4,0.9c0.9,0.9-0.6-2.1,0.4-1c-0.3-0.4-0.6-0.8-0.8-1.3c-0.3-0.5-0.6-0.9-0.9-1.4
							c-0.6-1-1.2-1.9-1.9-2.6l0.4,1c-0.2-0.4-0.6-1-0.9-1.6c-0.4-0.5-0.6-1-0.6-1.1c0.4,0.5,0.9,1.1,1.4,1.8c0.2-0.1,0-0.6-0.3-1
							c-0.3-0.4-0.7-0.8-0.6-1c-0.7-0.5-1.4-1-2.1-1.4c0.2,0.3,0.4,0.6,0.6,0.9c-0.7-0.3-1.6-2.3-2.7-3.6c0.6,0.1,1,0.6,1.4,1.2
							c0.4,0.6,0.8,1.3,1.5,1.9c1,0.9,0.1-1.1,0.9-0.2c0-0.4-0.5-1-0.9-1.2l-0.2-0.5c1.2,0.4,2.5,2.5,3.9,3.6
							c-0.1-0.1-0.3-0.1-0.4-0.1c0.4,1.2,1.1,2.3,1.9,3.2c-0.1-0.7-0.4-0.8-0.6-1.1c0.1-0.1,0.7,0.8,1.1,1.1c-0.4-1.1,0.2-0.4,0-1.1
							c0.5,0.6,0.8,1.1,1.1,2c0,0.5-0.5-0.2-0.7,0.1c0.6,0.7,0.1,1.5,1,2.5c-0.7-1.7,0.9,0.1,1.3,0.6l-0.1-0.3
							c0.6,0.4,0.8,0.8,0.6,1.3c-0.4-0.6-0.6-1.3-0.9-1c0.2,0.4,0.4,0.9,0.8,1.3l-0.5-0.3c0.4,0.7,0.7,1.5,1,2.2
							c0.5,0.2,1.1,0.7,1.7,0.8c-0.1,0.7,0.4,1.3,0.7,1.8l-0.2-0.2c0.1,1.1,1,3.3,1.4,3.4c0,0.8-3.4-4.5-1.6,0.5
							c0.6,1.9,1.3,0.9,1.9,2c0,0-0.1,0-0.1,0.1c0.2,0.9,0.5,0.9,0.9,1.6c0-0.6-0.2-1.3-0.4-1.5c0.5,0.2,0.5,1.8,0.9,2.4
							c-0.8-0.7,0.2,1.7-0.3,1.1c0,1.8,0.9,3.6,1.5,4.4c-0.6,1.3,0.5,2.1,0.4,4c0-0.3-0.2-0.8-0.2-1.2c-0.7-1,0,2-0.7,0.4
							c0.1,0.3,0.3,0,0.1-0.4c-0.2-0.6-0.5-1.2-0.7-1c-0.1,0.5-0.1,1.1-0.2,1.6l-0.2-0.5l-0.3,2.4c0.1,0,0.2-0.2,0.2-0.3
							c0.1,2.7,0.8,5.8,0.9,8.2c1.5,0.3,1,5.8,1.9,7.8c-0.4-0.5-1.1-0.8-1.4-0.4c-0.1-0.4-0.7-1.3-0.6-2.3c0.2-0.2,0.4-1.4,0.7-0.6
							c-0.3-2.7-0.6,0.4-1.2-0.4c0.3,3,1.1,4.7,1.5,6.6l-0.2,0l0.3,1.4c0.1-1.2,0.9-1.1,0.6,0.4l0-0.2c-0.3,0.9,0.1,2.6,0,4l0.4,0.9
							c-0.1,1.3-0.9,1.4-1.5,1.8c-0.1,2.1,0.5,3.3,0.8,4.8c-0.4,0.7-0.7,3.8-1,2.1c0.2,1.9,2.2,1.7,0.9,4.8l-0.3-0.9
							c-0.2,3.1,0.1,7.5-0.5,8.9c-1.1-1.3-1.8,3.7-3.1,4c0.3-0.1,0.2,1,0.4,1.2c-0.2,0.2-0.4,0.6-0.2,1.1c0.4-1.1,1.2,1,1-1.3
							c0.7,1.3,1.2,2.9,0.7,5.4l-0.5-0.1l0.5-2c-0.4,0.1-0.2-0.9-0.4-1.3c-0.8,3.7-1.1-0.7-1.6,3.1c0.3,0.4,0.2,0.2,0.2,1.2
							c0.1-0.5-0.3-0.6-0.4,0.1l0.3,0.8c-1.1,1.2-0.2-2.3-1-1.2c-0.2-1.5,0-4.1-0.8-3.7c-0.6,2.3,0.9,2.3,0.2,4.7l-0.3,0.2
							c0,0.9,0.5,1.1,0.7,1.6c-0.2,0-0.3,0.2-0.5,0.8c0.4,1.6,0.4,2.6,0.9,4.1c0.1-3.7,1.1-3,1.2-6.8c0.1,0.6-0.2,3.3,0.5,3.6
							l-0.5-0.1c0.1,1.3,0.1,2.5-0.3,4l-0.1-1c0,2.1-1.4,3.2-0.9,5c0.2-0.6,0.2-1,0.2-1.4c0,1.1-0.3,2.4-0.6,3.5l0.4,2.5
							c-0.3-0.1-0.6,1.4-0.8,0.6c-0.7,1.6-0.2,2.5-0.2,3.5c-0.9,1.6,0.1-1.5-0.6-1.9c-0.8,2.3-1.1,4.8-1,6.3
							c0.2-0.5,0.4-0.7,0.5-0.6c-0.1,0-0.2,0.3-0.3,0.6c-0.1,0.4-0.2,0.9-0.3,1.3l0.2,0.7c-0.6,1.3-0.7,1-0.7-0.2
							c-0.4,1.2-0.2,3.2-1,4.2c0.1-1.2,0.4-2.5,0.7-3.6c0.1-0.6,0.3-1.1,0.4-1.5c0-0.2,0.1-0.5,0.1-0.6c0-0.1,0-0.2,0-0.3
							c0,0.3-0.2,0.9-0.3,1.3c-0.1,0.4-0.2,0.8-0.4,1.2c-0.2,0.7-0.5,1.2-0.8,1.8c-0.5,1.1-1.1,2.3-1.6,5.1
							c-0.1-0.1-0.1-1.3-0.4-0.3c-0.5,2.4,0.4,1.4,0.4,2.5c0.4-2.1,0.8-2.8,1.4-3.6l0.1,0.8c-0.1,0-0.5,1.2-0.7,1.5l0.3,0.9
							c-0.2-0.4-0.6-0.2-0.9,0.3c-0.3,0.5-0.6,1.2-0.7,2.1c0.8-1,0.6-0.6,1.3-0.2c-0.1,1.5-0.4,2-0.7,2.5c-0.3,0.5-0.6,0.9-0.8,2.7
							c-0.1-0.5,0.5-2.9-0.2-1.2c-0.5,1.5-0.1,2-0.4,3.3c0.1-2-0.2-2.3-0.3-4.4c0.7-2.6,0.3-1,0.9-3.8c-0.3,0.5-0.6,1-0.9,1.5
							c0.6-2.2,0-2.2-0.1-2.7c-0.7,1.3-0.7,2.2-0.7,3c0,0.8,0.1,1.6-0.3,2.6c-0.1,1.7,0.7-2,0.4,0.3c-0.7,2,0,1-0.6,3.9l0-0.8
							c-0.4,0.2-0.4,1.6-0.7,2.6c-0.1,0.6,0.2,1.3,0.3,2.2c0.1,0.5,0.1,1.1,0.1,1.8c0,0.4-0.1,0.8-0.2,1.3c-0.1,0.4-0.2,0.7-0.4,1.1
							c0-0.5,0-0.7,0-0.9l-0.1-3l-0.2-3.2c-0.1-2.1-0.3-4-0.5-5.9c-0.2,0.6-0.3,1.1-0.5,1.7l-0.1,0.4c0,0.1,0,0.2-0.1,0.2l-0.1-0.1
							c-0.2-0.1-0.3-0.2-0.5-0.4c-0.7-1.1-1.4-2.2-2.1-3.4c-0.7-1.2-1.4-2.4-2.2-3.6c-0.2-1.1,0.2-0.8,0.6-0.5
							c0.4,0.4,0.8,0.9,0.8,0.4l0.9,1.6c0,0.7-1.9-2.6-1-0.1c1.2,1.4,1.9,2.8,2.8,3.8c0.2,0.1,0.3,0.2,0.5,0.3l0.1,0
							c0,0,0-0.1,0-0.2c0-0.1,0-0.3,0.1-0.4c0-0.3,0.1-0.6,0.1-0.8c-0.1-0.2-0.3-0.1-0.4,0.1c0,0,0,0.1-0.1,0.1l-0.1-0.1
							c-0.1-0.1-0.1-0.2-0.2-0.2c-0.1-0.2-0.2-0.3-0.3-0.5c-0.5-0.7-1.2-1.4-1.7-2.8c0.4,0.7,0.7,1,1,1.2c-0.4-0.7-0.9-1.5-1.3-2.2
							c-0.4-0.8-0.9-1.5-1.4-2.3l-0.2,0c0.3,0.5,0.6,1,0.9,1.3c0.2,0.3,0.3,0.6,0.4,0.6c-0.9-1.4-1.8-1.7-1.9-0.8l0.2,0.3l-0.4-0.2
							L485.7,565.2z M394.6,525c0.1-0.1,0.2-0.1,0.2-0.2C394.8,524.8,394.9,524.9,394.6,525z M495.9,551.4c-0.5,2-1.3,4.3-1.7,5.7
							c0.9-1.1,1.8-2.7,2.3-2.9c0.2-0.1,0.3,0,0.3,0.6c0,0.3-0.1,0.7-0.2,1.2c-0.1,0.5-0.3,1.2-0.4,2l0,0.5c0.3-0.7,0.7-2.3,0.9-3.6
							c-0.2-1.1-1-4.8-1.2-4.8c-0.4,0.3-0.2,0.9-0.4,1.5L495.9,551.4z M498.3,550.4c0.4-1.1,0.1-0.9-0.1-1.2
							c-0.1,0.4-0.1,0.8-0.2,1.3C498,550.4,498.1,550.3,498.3,550.4z M497.9,549.3c0,0.1-0.1,0.2-0.1,0.3L497.9,549.3z M491.8,571.7
							c0-0.1,0-0.1,0-0.1l-0.1,0.3c-0.1,0-0.2-0.2-0.2-0.4c0,0.1,0.1,0.2,0.2,0.3c0,0,0,0.1,0.1,0.1c0,0,0,0,0,0l0,0
							C491.7,571.8,491.8,571.8,491.8,571.7z M492.8,570.4l-0.1-1.1c-0.1,0.2-0.2,0.5-0.3,0.7C492.5,570.3,492.6,570.6,492.8,570.4z
							 M496.2,563.9c-0.3-1.1,0.2-3-0.3-3.5c-0.1-0.2-0.3,0.1-0.4,0.5c-0.1,0.4-0.3,0.9-0.4,1.4c0.1,0.1,0.1,0.3,0.1,0.5
							c0.2-0.4,0.4-0.7,0.7-0.1c-0.5,0.3-0.5,0.7-0.4,1.3c0.1,0.6,0.2,1.3-0.1,1.9C495.5,566.9,496.2,564.6,496.2,563.9z M500,458.9
							c0-0.1,0.1-0.2,0.2-0.5l0.6,0.8c0.3,1.7-0.1,3.2,1,4.6c0,0.8-0.3,1.2-0.6,1.6c-0.1-0.3-0.1-0.7-0.1-1c-1-2-0.9-2.6-0.7-3.1
							C500.6,460.9,501,460.4,500,458.9z M502.7,478.3c-0.1-0.2-0.2-0.2-0.2-0.2c1.6,3.6,2,6.8,2.1,8.9c0.5-0.4,0.7-2.3,0.8-3.2
							l0.6,0.8l-0.4,0.5l0.5,1.3c0.3-0.4,0.2-1.5,0.4-2.2c-0.1-0.1-0.9-2.4-1.2-3l-0.2,1.9c0.1-0.5-0.2-3-0.4-4
							c-0.3,0-0.5,1.7,0.1,1.9c-0.4,0.2-0.5-1.7-0.8-0.4c-0.5-1.4-0.4-3.7-0.4-4.8l0.6-0.3c0.1-1.2-0.9-0.7-0.7-2.1
							c0.4,1.7,0.7-0.4,0.9,1c0.2-0.5,0.7-0.1,0.4-1.5c-1-1,0.3-1.5-0.6-2.5c0.1-0.8,0.6,0.7,0.5-0.8c-0.7-1.6-1-1.4-1.7-1.4
							c0.1,1.5,1.1,1.6,1.2,2.8l-1.5-2.3c-0.1,0.5,0,0.8,0.1,1.1c-0.1-0.5-0.4-0.9-0.7-1.2c-0.2-0.2-0.3-0.3-0.4-0.5
							c0.3,1.4,0.4,2.6,0.2,2.9l-0.3-0.1c-0.2,0.5,0.2,1.3,0.4,1.6c0.2,1.2,0.8,2.4,0.5,2.7l-0.3-0.4
							C502.4,476.2,502.5,476.3,502.7,478.3z M500,528.5c1.2-0.8,2.4-1.6,2.8-6l0,0.4c1-2.1-0.4-4.4,0.7-7c0.3,1.3,0.3,1.3,1.1,2.8
							l-0.2-1.4c0.6,0.5,0.4-1,0.5-2l0.6,1c-0.3,0.6-0.5,2.2-0.3,2.2c0-0.4-1.1,2-1.1,3.4c0.5-0.1,0.6-2.9,1.3-1.6
							c-0.2-1.1,0.3-1.2,0.3-2.4c0.2,1.2,0.6,0.3,0.9,1.2l0-1.9c0.2,0,0,2.8,0.8,1.3c-0.2-0.8,0.4-2.8-0.2-2.9l0.2,0
							c0.3-1.4-0.7-0.7-0.2-2.4c-0.3,0-0.5,0.3-0.5,0.9c0.1,0.5,0.4,0.7,0.4,1.8c-0.5,0.5,0.2-1.3-0.6-0.6c-0.4,0.3,0,2.9-0.7,2
							l0.3-1.4c-0.5-0.1-0.4-1.1-0.8-1.1c-0.1-0.9,0.6-1.7,0.2-2.6c-0.3-0.4-1,0.2-0.6-1.3c0.9-1.1,1-4.5,0.9-5.8l-0.3-1.1
							c-0.3,0.1-0.1,2.1-0.4,1.4l0-1.7l0.2,0.1c0.1-0.6-0.1-1.2-0.2-1.7c0.4,0.6,0.1,1.8,0.7,1.6c0.1-0.8,0.4-0.9,0.3-1.7
							c0,0.2,0.1,0.3,0.2,0.3c0.3-1.6-0.6-1.6-0.7-2c-0.7-1.7-0.7,1.6-1.3,1.4c0-1.6-0.1-3.2-0.2-4.8c0.2,0.4,0.3,0.8,0.6,0.7
							c0.3-1.2,0.4,0,0.4-1.7c-0.8,0.1-0.5-2.1-0.9-3.3c0.3-0.5,0.4-0.7,0.4,0.5c0.5-0.1,0.3-1.8,0.3-2.3c-0.1-0.3-0.2-0.9-0.3-1.2
							c-0.2,0.5-0.5,0.3-0.8-0.7l-0.1-0.1c-0.1,1.7-0.6,4.3-0.1,5.4l-0.2-0.3c-0.4,1.9,0.8,4.3-0.1,5.2c-0.4-0.1-0.1,0.4-0.6,0.3
							l0.4,1.5l-0.2-0.3l0,2.4l-0.1-0.1c0.4,1.2,0.8,2.1,1,2.9c0.2,0,0.3-0.1,0.4,0.3c0.1,0.4,0.1,0.7,0,1l0,0l0,0
							c-0.1,0.6-0.5,1-0.6,1.7l0.1-2.3c-0.4-0.2-0.8,0-1.1,1.1c0-0.5-0.3-0.7-0.4-0.1c0.1,0.1,0.1,1.5,0.5,1c0,2.2-1.3,5.6-0.9,8.9
							c-0.2-2.4-0.7,1.8-0.6-0.8c-0.8,1.7,0.4,1.6,0.1,3.5c-0.2,0.1,0.1-1-0.2-1.5c-0.6,3,0.4,5.3-0.2,8.3l-0.5,0.1
							C500.1,527.2,500,527.8,500,528.5z M499.7,534.4c0,0.6-0.1,1.2-0.1,1.8c0-0.1,0-0.1,0-0.2l0.1,1.8c0.4-1,1-1.6,1-0.1
							c-0.2-0.2-0.5,0.2-0.5-0.3c-0.5,0.9-1.1,3.1-0.3,2.6c-0.3-2,1-0.3,0.8-1.9c0.3,0.9,0,1.6,0,2.4c-0.2-0.9-0.9,0-1.3,1.2
							c0,0.5-0.4,1.9-0.4,2.8c0.5-0.2,0.6,0.6,1-0.8c0,0.5-0.1,1.3-0.5,2.2c0-0.4,0.1-1-0.1-1c-0.5,0.5-0.6,1.2-0.9,1.5
							c0,0.3-0.1,0.6-0.1,0.9c0.1-0.1,0.1-0.1,0.2-0.2l0.2,1.1c0.1-1.3,0.3-0.6,0.6-0.5c-0.5-0.1-0.2,0.8-0.3,1.3l0.8-0.9
							c0.2,0.5-0.7,1.6-0.2,1.4c0.7-2,0.7-2.8,1-4.7l-0.6,0.7c0.1-2.2,1-1.2,1.4-3.5c-0.2-1.1,0.6-3.6-0.1-3.8
							c0.2,0.3,1-1.4,0.7-2.2c-0.5-1-0.2-3.8-0.7-3c-0.1,0.7,0.1,1.8-0.5,2.3l0.1-1.4l-0.5,0.9C500.7,534.3,500.3,534.3,499.7,534.4
							z M490.1,558.3L490.1,558.3C490.1,558.3,490.1,558.3,490.1,558.3L490.1,558.3z"/>
						<path class="st1" d="M489.3,440.7c-0.4-0.2-1-1-1.2-0.6C488.5,439.8,489.3,441.5,489.3,440.7z"/>
						<path class="st1" d="M488.9,439.5c-0.1,0-0.2,0.1-0.5-0.2l0.8,0.9L488.9,439.5z"/>
						<path class="st1" d="M490.4,436.7c-0.7-0.3-1.1-0.5-1.8-1.3c0.5-1,1.4,1.1,2.4,0.9c-0.6-0.8-1.2-1.1-1.8-1.4
							c-0.6-0.3-1.2-0.5-1.7-1c0.1,0.4,0.7,1.3,1.3,2C489.4,436.4,490,436.9,490.4,436.7z"/>
						<path class="st1" d="M491.9,436.5c-0.3-0.2-0.6-0.5-0.9-0.7l0,0.1c0.3,0.2,0.6,0.5,0.9,0.7L491.9,436.5z"/>
						<path class="st1" d="M494.2,460.3c-0.3,0.2,0.2,0.7,0.4,0.9C494.5,461,494.5,460.6,494.2,460.3z"/>
						<path class="st1" d="M418.9,520.2c-1.4-0.2-2.7-0.3-4.1-0.5c-1.4-0.1-2.8-0.2-4.1-0.3C413.1,519.6,415.3,519.8,418.9,520.2z"
							/>
						<path class="st1" d="M500.4,484.8c-0.4-2.1-1.1-2.9-1.4-5c-0.4,2.8,1.3,3.6,0.8,6L500.4,484.8z"/>
						<path class="st1" d="M497.8,484.2c0.6-0.4,0.8,1.5,1.2,1.2c-0.2-1.4-0.6-0.6-0.6-1.9L497.8,484.2z"/>
						<polygon class="st1" points="506.9,473.7 507.3,474.3 507.1,473.8 						"/>
						<polygon class="st1" points="498.7,493.6 498.5,493.4 498.3,494.4 						"/>
						<path class="st1" d="M498.4,493.1l0.1,0.2L498.4,493.1z"/>
						<path class="st1" d="M508.3,474.3l0-1l-0.4-0.5C508.1,473.4,508.2,473.8,508.3,474.3z"/>
						<path class="st1" d="M505.9,483.4l-0.3-0.9C505.7,482.7,505.5,483.9,505.9,483.4z"/>
						<polygon class="st1" points="498.3,499.9 498.5,500.9 498.6,500.8 498.4,499.8 						"/>
						<path class="st1" d="M507.9,490.1c0.5-0.6,0.2,1.8,0.6,0.5C508.4,489.5,508.1,490,507.9,490.1z"/>
						<path class="st1" d="M504.5,502.9c0,0.1,0,0.3,0,0.4C504.6,503.2,504.6,503,504.5,502.9z"/>
						<path class="st1" d="M504.5,502.9c0-0.5,0.2-0.9,0.1-1.2C504.4,502.2,504.5,502.4,504.5,502.9z"/>
						<path class="st1" d="M504.4,508.1l0.1-0.4c0.2,0.4,0.2,0.2,0-0.2c0-0.4-0.1-0.4-0.2-0.5c-0.1-0.1-0.1-0.2-0.2-0.3
							c0.1,0.1,0.1,0.3,0.1,0.4C504.1,507.8,504.1,508.3,504.4,508.1z"/>
						<path class="st1" d="M494.4,526.3c0.4-1.4,0.5-1.8,0.9-1.7c0.3-1.4-0.3-1.3-0.4-2.1C494.7,524.1,494.5,524.4,494.4,526.3z"/>
						<path class="st1" d="M494.9,522.5c0-0.2,0-0.3,0-0.6C494.9,522.2,494.9,522.4,494.9,522.5z"/>
						<polygon class="st1" points="508.7,502.2 509.2,503.2 509.1,502.8 						"/>
						<path class="st1" d="M493.9,528.5c0.1-0.3,0.1-0.7,0.3-0.9C493.8,527.5,493.8,528.8,493.9,528.5z"/>
						<path class="st1" d="M501.8,523.8c0.2-0.1,0.2-1.1,0.4-1.5C502,522.8,501.3,523.2,501.8,523.8z"/>
						<path class="st1" d="M494.7,533c0.1-0.3,0.4-0.7,0.6-0.4C495.2,532.1,494.7,531.5,494.7,533z"/>
						<polygon class="st1" points="501.3,526.5 501.5,526.3 501.4,525.2 						"/>
						<path class="st1" d="M507.2,523.5c-0.3-1.2-1.3,1.7-1.4-0.3c-0.8,2.6,0.6-0.1,0.3,1.8C506.4,523.9,507,523.4,507.2,523.5z"/>
						<path class="st1" d="M506.1,525c0,0.2-0.1,0.3-0.1,0.5C506.1,525.3,506.1,525.1,506.1,525z"/>
						<path class="st1" d="M500.7,541c0-0.2,0-0.3-0.1-0.4C500.6,540.7,500.7,540.9,500.7,541z"/>
						<path class="st1" d="M505.6,531.2l-0.4-1.9c0.3,1.2-0.2,4.2,0.4,4.1c0.3-0.9,0.3-2.1,0.1-2.6L505.6,531.2z"/>
						<path class="st1" d="M490.2,548.8l-0.1-0.8l-0.3,0.9C490,548.7,490.4,549.3,490.2,548.8z"/>
						<path class="st1" d="M489.8,549.1l0.1-0.2C489.8,549,489.8,549,489.8,549.1z"/>
						<path class="st1" d="M501,537.7c0.1-0.6,0.2-1,0.2-1.5C501,536.3,500.7,537.7,501,537.7z"/>
						<polygon class="st1" points="490,554.2 490.1,552.9 489.9,554.3 						"/>
						<path class="st1" d="M488.7,554.6l-0.1-0.1c0.1,0.1,0.1,0.2,0.2,0.3l0.1,0.1C488.8,554.8,488.8,554.7,488.7,554.6z"/>
						<path class="st1" d="M501.8,555.1c0.3-0.8-0.2-1.6-0.3-1.4l-0.4,1.6c0.6-0.3,0.1-0.5,0.4-1.4L501.8,555.1z"/>
						<path class="st1" d="M474.4,543.2c0.5,0,1.9,1.3,1.8,1.7c-0.3-0.1-1.2-0.6-0.8,0l1.7,0.3c0.6,0.9,0.1,0.8-0.6,0.5
							c-0.8-0.3-1.8-0.8-2.3-1c0.8,0.7,1.3,1,2,1.3c0.6,0.3,1.2,0.7,2,1.5c-0.4-0.5-0.6-0.9-0.7-1.3c0.3-0.5,1.7,1.1,2.8,2
							c-0.5-0.8,0-0.6,0.7-0.3c0.1,0.1,0.2,0.1,0.3,0.1c0.1,0,0.2,0.1,0.2,0.1l-0.1-0.1c0.1,0,0.1-0.1,0.1-0.3c-1-0.7-1.4-1.7-2-2.3
							c0,1.2-2.2-1.7-3.2-2l-1-0.7l-0.3-0.3c0-0.1,0.2-0.2,0.8,0.1c-0.6-0.2-2-1.4-2-1.1c-1.1-0.9-2.3-1.6-3.4-2.5
							c-0.1-0.1-0.2-0.2-0.2-0.3c-0.2,0-0.2,0-0.2,0c-5-3.5-10.3-6.5-15.8-9.1c0.8,0.5,1.4,1,2.1,1.5c-1.5-0.1,1.3,0.8,0.7,1.1
							c-0.7-0.1-1.4-0.6-1.8-0.9c-0.3,0.2,0.2,0.8,0,1.1c1.8,1.4,2.8,0.2,4.7,1.5c-0.3,0.3-1,0.2,0.3,0.9l-0.4-0.1
							c2.2,0.8,1.1,1.6,2.9,1.5l-0.3,0.4c1.1,0.2,2.8,1.3,3.8,1.9l-0.1,0c1.5,0.6,1.9,0.9,2.3,1.2c0.4,0.3,0.8,0.7,2.4,1.6l-1.7-0.5
							c0.9,0.9,1.5,0.6,2.2,1.1c-0.1,0-0.2,0.5-0.9,0.1c1.4,0.6,2.7,1.3,4.1,1.9C475.3,544.3,474.3,543.5,474.4,543.2z"/>
						<path class="st1" d="M478.2,547.4c0.2,0.2,0.3,0.4,0.6,0.6C478.5,547.8,478.3,547.6,478.2,547.4z"/>
						<path class="st1" d="M452.9,529l1.2,0.5C453.7,529.4,453.4,529.2,452.9,529z"/>
						<path class="st1" d="M483.6,551c-0.4-0.7,0.7,0.1,0.9,0.1l-2-2c-0.1,0.2-0.5,0.1-0.6,0.3L483.6,551z"/>
						<path class="st1" d="M482.2,548.2c-0.2,0-0.5-0.1-0.8-0.2c0.4,0.3,0.8,0.7,1.1,1.1C482.6,549,482.6,548.7,482.2,548.2z"/>
						<path class="st1" d="M474.9,556.3c-0.1-0.1-0.2-0.2-0.3-0.3l-0.6-0.3C474.3,555.8,474.6,556,474.9,556.3z"/>
						<path class="st1" d="M470.3,551c0.2,0.6,1.2,1,1.5,1.2C470.9,551.4,471.3,551.7,470.3,551z"/>
						<polygon class="st1" points="469.3,554.4 468.3,553.8 468.3,554 						"/>
						<path class="st1" d="M443.5,527.4c-0.2-0.1-0.4-0.1-0.6-0.2C443.2,527.3,443.4,527.3,443.5,527.4z"/>
						<path class="st1" d="M453.3,530.9c-1.2-0.9-0.7-0.8,0-0.6c0.7,0.2,1.7,0.5,1.4-0.1c-0.5-0.2-1-0.3-1.5-0.5l0.2-0.1l-1.8-0.7
							c0.2,0.5,0.5,0.6,0.3,0.9c-2.3-1.2-0.6-0.7-2.1-1.9c-0.9-0.4-1.8-0.7-2.7-1l0.3,0c-0.2-0.1-0.3-0.1-0.4-0.1l-2.3-0.8
							c-0.8-0.3-1.5-0.5-2.3-0.8c-1.5-0.5-3.1-1-4.7-1.4c-1.8-0.2,0.7,0.9-0.7,1c2,0.6,4.7,2,5.1,1.3c-0.1,0.1-0.3,0.2,0.1,0.4
							l1.3-0.2l-1-0.6c1.3-0.2,4.9,1.4,5.4,2c-2.1-0.6-1.3,0.4-4-1c0.1,0.2,0.5,0.7-0.2,0.6c1.7,0.5,3.2,1.2,4.8,1.8
							C449.9,529.8,451.5,530.5,453.3,530.9z"/>
						<path class="st1" d="M419.4,520.8L419.4,520.8C419.4,520.8,419.3,520.8,419.4,520.8z"/>
						<path class="st1" d="M420.5,521.1c0.6-0.1,1.2-0.3,1.8-0.4c-0.9-0.2-1.8-0.3-2.7-0.4l-0.3,0.5c0.3-0.1,1.2-0.2,1.5,0.1
							L420.5,521.1z"/>
						<path class="st1" d="M424.4,520.7c-1.4-0.1-1.4,0.5-0.8,0.9c-1.3,0-0.5-0.8-1.5-0.3c-0.1,0.4,1.5,0.5,1.9,0.5L424.4,520.7z"/>
						<path class="st1" d="M434.3,523.4l-0.4,0.1c0.3,0.1,0.6,0.2,0.9,0.3L434.3,523.4z"/>
						<path class="st1" d="M433.9,523.5l-0.9-0.3c0,0.2,0,0.4,0.1,0.5L433.9,523.5z"/>
						<path class="st1" d="M430.6,522.4c-0.4-0.2-0.8-0.3-1.3-0.4C429.7,522.1,430.1,522.3,430.6,522.4z"/>
						<path class="st1" d="M431.6,522.8L431.6,522.8l-1-0.4C430.9,522.6,431.3,522.7,431.6,522.8z"/>
						<path class="st1" d="M433,523.2c0-0.4-0.1-0.9-1.5-1.2l0.1,0.7L433,523.2z"/>
						<polygon class="st1" points="463.3,549 462.4,548.6 462.5,548.8 463.4,549.1 						"/>
						<path class="st1" d="M458.8,545.5c-0.2-0.1-0.4-0.1-0.6-0.1C458.4,545.5,458.6,545.6,458.8,545.5z"/>
						<path class="st1" d="M453.7,545.8c-0.8-0.9,1.6,0.3-0.1-0.9c0-0.4,1.1-0.4,1.9,0.3c-0.3,0.3-1-0.3-0.6,0.3
							c0.8,0,0.9,0.3,0.9-0.2c1.2,0.3,1.5,0,2.3,0.1c-0.6-0.3-1.5-0.9-2.5-1.4c-1-0.6-2-1.1-2.9-1.2c-1.2,0.1-1.1,1.2-1.5,2.1
							C451.3,545,453.3,546.3,453.7,545.8z"/>
						<path class="st1" d="M454.8,547.5c0.4,0.3,0.6,0.3,0.9,0.4C455.8,547.6,455.2,547.7,454.8,547.5z"/>
						<path class="st1" d="M446.9,535.5c-0.2,0.1-1.1-0.2-1,0.1l1.5,0.5C447,535.9,447,535.7,446.9,535.5z"/>
						<path class="st1" d="M448,536.3l-0.6-0.2C447.5,536.2,447.7,536.2,448,536.3z"/>
						<path class="st1" d="M446.9,535.4l0,0.1C446.9,535.5,446.9,535.4,446.9,535.4z"/>
						<path class="st1" d="M426.8,521.3c0.1-0.3-0.7-0.3-1-0.3C426,521.1,426.4,521.3,426.8,521.3z"/>
						<path class="st1" d="M399.6,518.9l-0.6-0.2C399.2,518.8,399.4,518.9,399.6,518.9z"/>
						<path class="st1" d="M390.1,526.1c0,0.1-0.1,0.1-0.1,0.1C390,526.2,390.1,526.2,390.1,526.1z"/>
						<path class="st1" d="M390,526.2c-0.4,0.2-1.7,0-2.1,0.3l0.1-0.1l-0.8,0.2C387.9,526.6,389.5,526.6,390,526.2z"/>
					</g>
				</g>
			</g>
		</g>
	</g>
</g>
</svg>
