<?xml version="1.0" encoding="utf-8"?>
<!-- Generator: Adobe Illustrator 27.0.1, SVG Export Plug-In . SVG Version: 6.00 Build 0)  -->
<svg version="1.1" id="Layer_1" xmlns="http://www.w3.org/2000/svg" xmlns:xlink="http://www.w3.org/1999/xlink" x="0px" y="0px"
	 viewBox="0 0 680 561" style="enable-background:new 0 0 680 561;" xml:space="preserve">
<style type="text/css">
	.st0{fill:none;stroke:#022F40;stroke-miterlimit:10;}
	.st1{fill:#1F4656;}
</style>
<path class="st0" d="M1630.5-104.5"/>
<g>
	<g>
		<g>
			<g>
				<g>
					<g>
						<path class="st1" d="M390.6,446.5c2.8,1.3,4.8,3.3,3.8,2.7c2.7,1.7,3.8,3,4.4,3.7c0.7,0.7,0.8,0.9,1.4,1
							c1.4,1.6,2.5,3.6,2.7,4.6c0.3,1,0.1,1-1-1.1c2,3.5,3.1,7.3,3.6,11.1c-0.2-2.3-0.6-4.6-1.3-6.9c0.6,0.8,1.3,3.6,1.6,6.4
							c0.2,1.4,0.2,2.8,0.4,4c0.1,1.2,0.2,2.1,0.4,2.7c-0.1-4.1-0.4-8.3-1.6-12.5l0.4,0.6c-0.5-1.4-1.2-3.5-2.2-5.4
							c-0.9-1.9-2.1-3.6-2.7-4.5c0.1,0.1,0.2,0.1,0.4,0.3c0.2,0.2,0.6,0.6,1.3,1.6c-1.1-1.8-2.2-3-3.1-3.9c-0.9-0.9-1.7-1.5-2.2-1.9
							c-1.2-0.8-1.6-0.9-2-1c-0.4-0.1-0.7-0.1-1.6-0.5c-0.9-0.4-2.4-1.2-5.3-2.3C388.5,445.5,389.4,445.9,390.6,446.5z"/>
						<path class="st1" d="M379.2,440.9l-4.9-0.6c-2.6-0.8-5.1-1.6-7.5-2.6c-0.1,0.1-1.5-0.3-2.4-0.6c-0.9-0.3-1.4-0.4,0.3,0.5
							c0.7,0.3,2.1,0.8,3.2,1.2c-0.5,0.1-3-0.7-5-1.7c-2-0.9-3.5-1.9-2.7-1c2.7,1.5,4.4,2.2,5.8,2.7c1.4,0.5,2.6,0.8,4.5,1.2
							c2.8,0.9,5.3,1.6,7.4,2.2c2.1,0.6,3.8,1.2,5.2,1.8c1.8,0.5,2.1,0.2,4.4,1c-0.5-0.2-0.9-0.3-1.5-0.6l0-0.9
							c-1.9-0.5-3.7-1.1-5.7-1.7c3.3,0.6,6.6,1.3,10,2.5c-1.4-1.1-4.7-2.5-7.9-3.4c-3.2-1-6.5-1.8-8.2-2.5c2.1,1,1.2,0.8,0.8,0.8
							C374.7,439.3,374.8,439.4,379.2,440.9z"/>
						<path class="st1" d="M387.5,445.1c0.1,0,0.2,0.1,0.2,0.1C387.7,445.2,387.6,445.1,387.5,445.1z"/>
						<path class="st1" d="M520.6,58.4c-1.9-0.7-2.5-0.8-2.8-0.7c7.1,2.7,14.1,5.7,20.8,9.3c-0.5-0.5-6.3-3.7-2.3-1.9
							c-0.8-0.5-2.6-1.5-4.3-2.2c-1.7-0.7-3.3-1.3-3.8-1.3l1.7,0.4c-4.9-1.8-8-3.8-4.7-2.8l-0.4-0.2c-2.4-0.6-4.7-1.3-7.1-1.9
							c-2.4-0.5-4.8-1.1-7.2-1.6c2.5,0.9,3.5,1.1,4.7,1.3c0.6,0.1,1.2,0.2,2,0.5c0.4,0.1,0.9,0.3,1.5,0.4
							C519.2,57.9,519.8,58.1,520.6,58.4z"/>
						<path class="st1" d="M49.8,72.6c3-0.6,3.3-0.7,3-0.7C51.7,72.1,50.7,72.3,49.8,72.6z"/>
						<path class="st1" d="M507,54.8c-1.5-0.3-3-0.6-4.5-0.8C504.3,54.4,505.9,54.7,507,54.8z"/>
						<path class="st1" d="M539.9,59.4c0,0,0.1,0,0-0.1l-2-0.7c0,0,0,0,0,0C538.6,58.9,539.3,59.2,539.9,59.4z"/>
						<path class="st1" d="M404,41.9c-0.5,0-0.9,0-1.5,0C403,41.9,403.5,41.9,404,41.9z"/>
						<path class="st1" d="M591.7,97.8c-1.3-1.2-2.6-2.4-3.8-3.6c-1.3-1.2-2.6-2.4-3.9-3.6c1.2,0.8-2.5-2.7-0.7-1.3
							c-0.3-0.3-1.1-1-1.8-1.7c-0.7-0.6-1.2-1-0.9-0.6c0.5,0.5,1,1,1.6,1.5c-2.2-1.7-2.8-1.9-3.7-2.4c-0.9-0.5-2.1-1.4-5.7-4.3
							c1,1,1.9,1.9,2.6,2.6c0.8,0.8,1.5,1.4,2.1,1.9c1.3,1.1,2.4,1.9,3.6,2.9c0.8,0.7,1.4,1.3,2,1.9c2.3,1.8,4.6,3.7,6.9,5.6
							C590.6,97,591.2,97.4,591.7,97.8z"/>
						<path class="st1" d="M191.3,47.1l0.1-0.1C191.3,47.1,191.3,47.1,191.3,47.1z"/>
						<path class="st1" d="M191.8,46.8l-0.4,0.3C191.9,46.9,194,46.5,191.8,46.8z"/>
						<path class="st1" d="M508.7,54.9c-0.2,0.1-0.8,0.1-1.7-0.1l3.4,0.6C509.9,55.3,509.3,55.1,508.7,54.9z"/>
						<path class="st1" d="M516.6,55.9c2.7,0.9,5.4,2,8.1,3c1,0.3,2.1,0.6,3.1,0.9c-1.5-0.6-3.2-1.2-5.1-1.9
							C520.9,57.3,518.9,56.5,516.6,55.9z"/>
						<path class="st1" d="M417.5,43c-8.9-0.5-7.8-0.5-5.5-0.7c2.3-0.1,5.8-0.2,1.7-0.5c-5-0.2-6.7,0.2-9.8,0.2
							c7.1,0.1,6.6,0.4,6.1,0.8c-0.5,0.3-0.9,0.6,6.2,0.9c-2.1,0.6-10.3,0.3-15.1-0.1c-2.7-0.4-1.5-0.5,0.5-0.6c2,0,4.9,0,5.6-0.3
							c-5.7-0.1-4.7,0-7.2,0.3c-4.5-0.2-9.1-0.1-13.3-0.1c-4.2,0-7.9,0-10.6-0.4c-6.5,0.1-6.1,0.5-9.8,0.9c-0.4,0.4,2.1,0.4,4.9,0.5
							c2.8,0.1,6,0.1,7.2,0.4c-0.5-0.1-1.5-0.2-1.2-0.3c1.9,0.1,3.7,0.1,5.6,0.2c-5.3-0.3,0.7-0.7,3.6-0.7c2.1,0,6.2,0,5.6,0.2
							l-3.1,0.1c4,0.3,8.9-0.3,13.2,0.2c0.2,0.2-1.4,0.2-1.6,0.3c2.4-0.2,4.7-0.2,7.4-0.2c1.3,0,2.7,0,4.2,0c1.5,0,3.1,0,4.9,0.1
							l-4.1,0.5c5.7-0.5,18.5,0.5,27.2,1.9c-1-0.2-2.7-0.5-1.6-0.5c2.6,0.1,4.9,0.5,6.2,0.8c1.3,0.3,1.7,0.6,0.4,0.6
							c1.3,0,3.1,0.2,5.2,0.4c2.1,0.3,4.6,0.7,7.1,1c2.5,0.4,5,0.8,7.4,1.2c2.3,0.4,4.5,0.6,6.2,0.7c10.6,0.6,21.2,1.6,31.7,3.3
							c-1.2-0.2-2.4-0.5-3.7-0.8c-2.6-1.4-4.2-1.7,0.9-1c-2.5-0.5-3.2-0.5-4.3-0.6c-1.1-0.1-2.5-0.3-6.1-1.1
							c2.9,0.4,3.8-0.2-3.2-1.9c-2.2-0.4-4.3-0.7-6.4-1c-2.1-0.3-4.1-0.5-6-0.7c-3.9-0.5-7.6-0.7-11.3-0.9
							c-3.7-0.2-7.3-0.3-11.1-0.5c-3.8-0.1-7.7-0.3-11.8-0.5c-0.3-0.3-3.7-0.7-7.9-1.1c-4.2-0.3-9-0.7-12.2-1
							c2.5-0.4,7.2-0.2,12.2,0.1c-3.1-0.2-8.4-0.7-12.4-0.9L417.5,43z"/>
						<path class="st1" d="M459.2,45.4c-0.4-0.1-0.9-0.2-1.4-0.3C458.1,45.2,458.5,45.2,459.2,45.4z"/>
						<path class="st1" d="M433.1,43.1C433.1,43.1,433.1,43.1,433.1,43.1c-0.5-0.1-1-0.1-1.5-0.1C432.1,43,432.7,43.1,433.1,43.1z"
							/>
						<path class="st1" d="M505,52.6c1.1,0.2,1.8,0.4,2.9,0.6c-0.6-0.2-1.4-0.4-2.2-0.5C505,52.4,504.6,52.4,505,52.6z"/>
						<path class="st1" d="M508.2,54.5l-0.6,0c0.4,0.2,0.7,0.3,1.1,0.4C508.9,54.8,508.8,54.7,508.2,54.5z"/>
						<path class="st1" d="M349.2,37.7l-1.7,0.2C348.5,37.8,348.9,37.8,349.2,37.7z"/>
						<path class="st1" d="M397.7,41.3c6.2,0.1,0.8-0.8,9.6-0.4l-2.6-0.2c6.3-0.1,17.4,0.6,24.9,1.2c-0.9,0.2,4.5,0.7,3.6,1.1
							c5.1,0.4,10.2,0.7,12.8,0.6c1.6,0.3,3.6,0.4,5.7,0.6c2.1,0.2,4.3,0.5,6.3,0.8c-1.7-0.5,5.8-0.2-4-1.1c0.8,0.1,0.3-0.1,1.1,0
							c-3.1-0.6-5.3-0.8-7.4-0.9c-2.1-0.1-4.1-0.2-6.8-0.5c-1.6-0.3-0.3-0.3,1.1-0.2c1.4,0.1,2.7,0.1,1.2-0.1
							c-1.7-0.1-3.9-0.3-6.2-0.5c-2.3-0.2-4.7-0.5-7-0.6c-4.4-0.3-8-0.5-7.8,0.1c-5-0.2-5.6-0.5-7.1-0.7c-2,0.1-4.8,0.1-7.9,0
							c-3.1-0.1-6.5-0.3-9.6-0.4c-6.3-0.3-11.6-0.4-11.6,0.3c1.4,0,3.3,0,5.4,0c2.1,0,4.3,0,6.4-0.1L397.7,41.3z"/>
						<path class="st1" d="M495,49.9c-0.4-0.1-0.9-0.2-1.2-0.3C494.1,49.7,494.6,49.8,495,49.9z"/>
						<path class="st1" d="M561.4,87.4l-2.5-1c-1.4-1.2-2.7-2.2-3.9-3.2c-1.2-1-2.3-2-3.4-2.7c-2.1-1.6-3.9-3-5.8-4.2
							c-0.9-0.6-1.9-1.3-2.8-1.9c-0.9-0.7-2-1.2-3-1.8c-1-0.6-2.1-1.3-3.3-1.9c-1.2-0.6-2.5-1.3-3.9-2c-0.8-0.5,0.6,0.1,1.3,0.4
							c-1-0.5-2-1-3.1-1.5c-1.1-0.5-2.2-1-3.4-1.5c-1.2-0.5-2.4-1.1-3.6-1.6c-1.2-0.5-2.5-1-3.7-1.4c-1.2-0.5-2.4-1-3.6-1.4
							c-1.2-0.4-2.3-0.8-3.4-1.1c-1.1-0.3-2.1-0.7-3.1-1c-1-0.3-1.9-0.5-2.6-0.7c-1.4-0.4-3.8-1.2-5.5-1.9c-1.8-0.6-2.9-1-1.5-0.8
							c-1.4-0.3-2.9-0.6-4.4-1.1c-0.3-0.4,3.5,0.8,3.6,0.6c-1.2-0.4-1.7-0.5-2-0.5c1.1,0.1,0.6-0.3,1.1-0.4c0.2-0.1,0.7,0,1.7,0.1
							c0.5,0.1,1.1,0.2,2,0.4c0.8,0.2,1.8,0.5,3,0.9c1.7,0.9,0.1,0.4-1.8-0.1c-1.8-0.6-3.9-1-2.9-0.3c3.2,0.9,2.9,0.5,3.2,0.5
							c4,1.3,3.8,1.4,3.6,1.5c1.6,0.2,6.4,2.3,8.7,2.6c7.6,2.8-0.6,0.4,4.3,2.3l3.1,0.3c1.4,0.6,2.6,1.2,4,1.8
							c1.3,0.6,2.7,1.2,3.9,1.9c5.7,2.7,5.5,2.2,5.4,1.8c0-0.2,0-0.4,0.9-0.2c0.8,0.3,2.5,1,5.7,2.8c-1-0.3-0.2,0.4,1.3,1.8
							c0.8,0.7,1.8,1.5,2.9,2.4c0.3,0.2,0.6,0.4,0.9,0.7c0.3,0.2,0.6,0.5,0.9,0.8c0.6,0.5,1.2,1,1.9,1.5c-0.8-0.6-1.8-1.3-2.9-2
							c-1.1-0.7-2.4-1.4-3.7-2.2c-0.6-0.4-1.3-0.8-1.9-1.2c-0.7-0.4-1.3-0.7-2-1.1c-1.3-0.7-2.5-1.5-3.6-2.2c1.5,1.1,1.7,1.3,1.2,1
							c-0.5-0.2-1.6-0.9-3-1.6c-2.6-1.3-5.7-2.8-4.2-1.6c1.7,0.7,3.9,1.6,6.1,2.8c1.1,0.6,2.2,1.3,3.3,1.9c0.5,0.3,1.1,0.7,1.6,1
							c0.5,0.3,1,0.7,1.5,1l-1.3-0.8c2,1.4,4,2.4,6,3.6c1,0.7,2,1.3,3.2,2.1c0.6,0.4,1.1,0.8,1.7,1.3c0.6,0.5,1.2,1.1,1.9,1.7
							c2.7,2.2,2,2,1.4,1.7C559.4,85.6,561.5,87.3,561.4,87.4z M555.5,82.6c-1.2-1-2.4-2.1-3.5-3C552.7,80.4,554,81.5,555.5,82.6z"
							/>
						<path class="st1" d="M348.8,396.5c-0.1,0.5-0.1,1-0.2,1.4C348.7,397.6,348.8,397,348.8,396.5z"/>
						<path class="st1" d="M658.6,228.2c0.2,0.9,0.3,1.9,0.5,2.8C658.9,229.9,658.7,229,658.6,228.2z"/>
						<path class="st1" d="M656.3,292.7l-0.9,2.1c-0.3,0.7-0.7,1.4-1.1,2C655.3,295.3,655.8,294,656.3,292.7z"/>
						<path class="st1" d="M354.8,365.4l0.1-0.1c0.1-0.2,0.1-0.4,0.2-0.6L354.8,365.4z"/>
						<path class="st1" d="M535.6,318.1c-0.6-0.1-1.3-0.2-2.2-0.3C533.4,317.9,534.3,318,535.6,318.1z"/>
						<path class="st1" d="M656.7,292c-0.1,0.1-0.1,0.2-0.1,0.2c-0.1,0.2-0.1,0.3-0.2,0.5L656.7,292z"/>
						<path class="st1" d="M653.8,200.5c-0.2-0.6-0.4-1.1-0.7-1.7C653.4,199.6,653.7,200.1,653.8,200.5z"/>
						<path class="st1" d="M652.8,205c-0.2-0.6-0.4-1.2-0.6-1.6L652.8,205z"/>
						<path class="st1" d="M608,119.3c-0.8-1-1.6-1.9-2.5-2.9C606.8,117.8,607.5,118.7,608,119.3z"/>
						<path class="st1" d="M650,195.3c-0.1-0.2-0.2-0.4-0.3-0.5C649.9,195.3,650.1,195.5,650,195.3z"/>
						<path class="st1" d="M347.8,419.3c0-0.1,0-0.2-0.1-0.2l-0.1-0.1L347.8,419.3z"/>
						<path class="st1" d="M352,426.7c0.5,0.8,1.1,1.7,1.7,2.4C353.1,428.3,352.5,427.4,352,426.7z"/>
						<path class="st1" d="M481.9,315.2c-1-0.1-3.3-0.2-2.2-0.4C477.8,315,478,315.4,481.9,315.2z"/>
						<path class="st1" d="M340.8,401.6c0.1,0.6,0.2,1.4,0.3,2.1C340.9,402.3,340.8,401.1,340.8,401.6z"/>
						<path class="st1" d="M341,403.8c0.1,0.7,0.1,1.5,0.2,2.1C341.2,405.1,341.1,404.4,341,403.8z"/>
						<path class="st1" d="M507,308.5c0.2,0.1,0.6,0.1,1.1,0.2C508,308.6,507.6,308.5,507,308.5z"/>
						<path class="st1" d="M355.1,431.1c0.1,0.1,0.8,0.7,1.6,1.4c0.9,0.7,1.9,1.5,2.8,1.9c0.8,0.5,1.4,0.7,1.2,0.5
							c-0.1-0.1-0.4-0.3-1-0.7c-0.3-0.2-0.6-0.4-1-0.8c-0.4-0.3-0.8-0.7-1.3-1.1c0.4-0.1,1.6,1,3.3,2c1.7,1.1,3.8,2.1,5.2,2.6
							c-1.9-1,1.1,0,0.6-0.4c-1.3-0.5-3-1-4.9-2.2c-0.7-0.8,2.2,0.9,4.8,2c-1.5-0.8-0.5-0.5,0.4-0.3c0.9,0.2,1.6,0.4-0.6-0.6
							c-4.7-1.9-7.9-4.3-10.3-7c-1.2-1.4-2.2-2.9-3.1-4.4c-0.9-1.6-1.7-3.2-2.4-4.9c0.9,2.9,2.1,5.7,3.7,8c0.8,1.2,1.6,2.3,2.5,3.2
							c0.9,0.9,1.8,1.8,2.7,2.6c-0.6-0.2-1.2-0.5-1.9-0.8c-1.8-2-3-3.7-4.1-5.5c-1.1-1.8-2.1-3.8-2.8-6.4c1.1,3.9,2.8,7.6,5.4,10.5
							c0.9,1.1,1.4,1.7,1.6,2c0.2,0.3,0.1,0.3-0.2,0.1c-0.7-0.4-2.2-1.8-3.6-3.6c0.3,0.4,0.6,0.9,0.9,1.2
							C354.8,430.7,355,431,355.1,431.1z"/>
						<path class="st1" d="M346.3,426.1l0.1,0.2c0.1,0.2,0.2,0.4,0.3,0.5L346.3,426.1z"/>
						<path class="st1" d="M599.8,126.6l-0.9-0.8C599.6,126.6,599.8,126.8,599.8,126.6z"/>
						<path class="st1" d="M346.3,417.5L346.3,417.5C346.3,417.4,346.3,417.4,346.3,417.5z"/>
						<path class="st1" d="M616.1,149.7c0,0-0.1-0.1-0.1-0.1C616.1,149.6,616.1,149.6,616.1,149.7z"/>
						<path class="st1" d="M630.2,150c0-0.1,0-0.1,0-0.2C629.8,149.3,629.9,149.6,630.2,150z"/>
						<path class="st1" d="M616.2,149.7C616.2,149.7,616.2,149.7,616.2,149.7C616.1,149.7,616.2,149.7,616.2,149.7z"/>
						<path class="st1" d="M651.1,278.1c0,0,0.2-0.4,0.5-1C651.5,276.8,651.4,277.1,651.1,278.1z"/>
						<path class="st1" d="M654.7,251.7c0-0.2,0-0.3,0.1-0.5L654.7,251.7z"/>
						<path class="st1" d="M488.4,317.6c1.4,0,2.4,0,3.2,0C490.6,317.6,489.6,317.6,488.4,317.6z"/>
						<path class="st1" d="M616,149.6c-0.2-0.2-0.5-0.5-0.9-1C615.6,149.1,615.8,149.4,616,149.6z"/>
						<path class="st1" d="M628.6,310.4c0.3-0.1,0.5-0.3,0.7-0.4l-0.5,0.2L628.6,310.4z"/>
						<path class="st1" d="M614.8,313.5c0.5-0.1,0.7-0.2,1-0.3c-2.5,0.4-6.1,0.7-9.3,0.9c-3.1,0.2-5.8,0.4-6.3,0.7
							c0.9,0,3.6,0,5.8,0c2.3,0,4.2,0,3.4,0.3c1.8-0.2,4-0.3,6-0.5c2-0.2,3.8-0.4,4.8-0.7c-5.9,0.7-0.7-0.2,3.1-1.5
							c3.5-0.8-0.5,0.7,2.5-0.2c2.7-0.9,5.2-2.2,7.6-3.6c-2.1,1.2-4.3,2.3-6.6,3l0.9-0.6l0.9-0.7c-0.2,0.1-0.4,0.2-0.7,0.3
							c-1.4,0.6-2.5,1-3.4,1.3c-0.9,0.2-1.5,0.4-1.9,0.5c-0.8,0.2-1,0.1-1.2,0.1c-0.2-0.1-0.3-0.1-1.2,0c-0.4,0.1-1.1,0.2-2,0.4
							C617.5,313,616.4,313.3,614.8,313.5z"/>
						<path class="st1" d="M615.8,313.2c0.7-0.1,1.4-0.3,1.9-0.4C616.5,312.9,616.1,313.1,615.8,313.2z"/>
						<path class="st1" d="M565.7,312.7c-0.6,0-1.3,0-2.2,0C564,312.7,564.9,312.7,565.7,312.7z"/>
						<path class="st1" d="M533.3,62.4c0.1,0.3,6.3,3.7,6.4,3.4c-1.8-1-3.7-2-5.6-3L533.3,62.4z"/>
						<path class="st1" d="M429,315.7l2.4-0.4c0.2,0,0.3-0.1,0.5-0.1C431.3,315.2,429.8,315.5,429,315.7z"/>
						<path class="st1" d="M607.3,315.3c1.3-0.1,1.9-0.2,2.2-0.3C608.6,315.1,607.8,315.2,607.3,315.3z"/>
						<path class="st1" d="M428.4,314.8c-1,0-2.5,0.1-2.8,0c-2.1,0.4-3.5,0.8-5.5,1.3c1.2-0.3,2.4-0.5,3.8-0.7
							C425.3,315.1,426.8,314.9,428.4,314.8z"/>
						<path class="st1" d="M419.9,316.1c0.1,0,0.1,0,0.2,0C420,316.1,420,316.1,419.9,316.1z"/>
						<path class="st1" d="M529.5,60.5c-0.6-0.2-1.2-0.5-1.8-0.7l0.9,0.3c-0.7-0.4-1.5-0.7-2.2-1.1c-0.7-0.3-1.5-0.6-2.3-1
							c-0.6-0.2-1.2-0.4-1.9-0.7c0.3,0.1,0.5,0.2,0.7,0.2c-0.5-0.2-1-0.4-1.4-0.6c-1.9-0.5-5.2-1.5-8.3-2.4
							c-1.6-0.5-3.1-0.9-4.4-1.2c-1.3-0.3-2.4-0.6-3.1-0.7c-1.8-0.5-3.8-0.9-5.7-1.4c-1.9-0.5-3.7-1-5.1-1.3c2.6,0.7,5.9,1.5,5,1
							c-2.6-0.8-4.4-1.6-6.8-2.3c-2.4-0.7-5.3-1.5-9.9-2.1c1.8,0.4,3.6,0.7,5.3,1.1c-2-0.3-4.1-0.5-6.1-0.8c-2-0.3-4-0.5-6.1-0.7
							c-2.1-0.6-0.5-0.4,1.7-0.1c2.2,0.3,5.2,0.9,6.1,0.8c-9.4-1.5-17-3.9-21.5-3.8c-0.3-0.3-0.6-0.7-1.7-1.1
							c-1.1-0.4-2.9-0.8-6-1.2c4.4,1.1-3.8-0.1-0.2,0.9c-2.2,0-6.9-1-7.3-0.7l0.6-0.1c-2.6-0.5-4.8-0.8-6.7-1
							c-1.9-0.2-3.5-0.2-4.9-0.2c-2.8,0-4.8,0.2-7.1,0.3c-12.7-0.8-18.6-1.3-29-1.6c-0.4-0.3-3.2-1.3-7.4-1.4
							c-2,0.4-11.4,0.5-12.4,1c7.5,0.3,6.1-0.4,10.6-0.5c3.7,0.7,0.3,0.6,5.4,1.1c-4.1-0.4-18.5,0-23-0.6l1.6-0.1
							c-3.6-0.2-5.7-0.6-8.5-0.9c-2.7-0.3-6.1-0.4-12.1,0.2l-5.7,0.5c0.3-0.1,0.3-0.1,0.4-0.2c-9.3,0.2-6.8-0.5-17.1,0.4
							c0.8-0.1,0.3-0.1,1.1-0.2c-5.9-0.1-11.8,0.9-16.2,1.2c-2.7-0.3,0.6-0.5,2.3-0.9c-10.4,0.3-21.5,1.9-27.8,2.9l-6.7,0.2
							c3.9-0.5,8.7-1.3,7.5-1.5c-3.7,0.4-2.9,0.5-8.1,0.8c0.9-0.4,3-0.8,5.4-1.4c-10.7,0.3-2.3,1.2-9.9,0.9
							c-3.4,0.3-5.3,0.9-5.6,1.3l-6.1,0.1c-0.6,0.5-8.1,1.2-13.1,1.8c-0.6,0.3,4,0.1,5.9-0.2c-0.3,0.4-5.6,1.1-8.9,1.4
							c-0.7-0.4-6.2,0.2-11,0.7c-4.9,0.5-9.1,1-7.1,0.2c-15.1,1.9-36.3,4.6-46.1,6.3c-3.3,0.2-10,1-6.1,0
							c-12.1,1.6-18.2,3.5-30.3,4.9c-1,0,5.4-0.8,5-1c-7.8,1.5-14.4,1.6-26.5,3.7c2-0.3,2.6-0.6,2.9-0.8c0.2,0.1-4.9,1.1-8.1,1.7
							c-1.8,0.2,2.3-0.5,1.3-0.4c-23.6,3.1-41.3,7.4-64.6,11.2c6.7-1.1,9.1-2.1,9.1-2.4l-6.5,1.1c-2.5,0.7-7.4,1.5-11.4,2.5
							c-0.5,0-2.5,0.2-0.5-0.3c-6.5,0.7-11.5,1.8-16.9,3c-2.7,0.6-5.5,1.2-8.6,1.7c-3.1,0.6-6.5,1.1-10.7,1.3
							c3.3-0.4,6.5-1.1,9.7-1.8c3.2-0.7,6.4-1.4,9.5-2.1l-4.8,0.3l8.3-1.9c-5.1,0.5-9.3,1.9-10,1.5c1-0.3,3.6-0.6,3.7-0.9
							c-4.9,0.5-5.2,1-8.8,1.5c9.4-2.2,28.2-5.4,38.2-7.3c1.6-0.3-1.3,0.5-1.6,0.6c4.1-0.7,6.6-0.8,11.8-1.8
							c3.2-0.9-2.5,0.1-5.1,0.5c0.3-0.4,1.6-0.6,4.4-1.1c0.7,0.4,15.6-2.4,19.4-2.4c15.2-2.6-2.6-0.9,12.3-3l4.5-0.1
							c8.6-1.8,19.7-3.9,29.5-5.2l-2.1,0.3c-1.3,0.4,1,0.2,2,0.2c7.4-0.9,14-2.5,18.5-2.6c8.3-1.8,22.4-4.2,32-5.7
							c2.7,0.4-12.5,2.3-16.5,3.3l8.8-1.2c-5.4,0.7-7.5,1.3-10.7,2.2c7.7-0.9,10.2-1.9,17.4-3c-0.5,0.3,0.4,0.3,3.8-0.2l0.9-0.6
							c0.1,0,0.4,0,1.5-0.1l13-1.9c-2.8,0.1-3-0.3-6.3,0.1c1.2,0.1-1.6,0.5-5,1c2.9-0.7-3.3,0.2-3.3-0.1c6.7-0.9,15-1.9,19.4-2.6
							l1.5,0.3c6.4-0.7,13.2-1.7,17.6-2l-1.4,0.4c7.7-0.7,15.3-1.8,22.2-2c3.4-0.6,7.3-1.2,11-1.8c3.7-0.6,7.3-1.1,10.1-1.6
							c1.5-0.4,6.6-0.7,12.3-1c5.7-0.3,12-0.6,15.8-1.3c0.5,0-5.3,0.8-8,1.2c5.2-0.3,9.3-1.3,10.9-0.8c-11.7,0.6,0.7,0.4-4.6,1
							c5.5-0.4,11.2-0.8,13.9-1.2c-8.8,0.5,3.1-1-5.8-0.2c6.9-0.9,16.4-1.7,24.7-1.8c-0.1,0.3,1,0.3,4,0.3l2.5-0.5
							c3.9-0.1-7.5,0.8,0.3,0.6c8-1,24.2-0.3,27.7-1.5c6.1,0.4-11.6,0.6-2.4,1.1c-5.4,0.5-12.8,0.2-14.5,0.8
							c5.2-0.3,1.9,0.5,5.3,0.4l5.9-0.5l-1.3,0c9.8-0.7,25.4-0.5,38-0.2c10.7-0.3,18.1-0.9,30.8,0.1c-3.8,0.1,10.6,1.1,2.5,1.2
							c5.9,0.7,11.7,1,11.9,0.7c-5.2-0.6-1.8-0.3-6.2-0.8c1.5,0,3.9,0.1,6.4,0.3c2.4,0.2,4.8,0.6,6.2,0.8c-1.3-0.2-0.8-0.1-1.1,0
							c6.2,0.9,3,0,7.5,0.4c0.7,0.3,3.1,0.7,6,1c2.8,0.4,5.9,0.9,8,1.3c2,0.1,4,0.2,6,0.4c-3.3-0.2,5.6,1.1,6.5,1.7
							c4.3,0.6,7.9,0.8,14.3,2.4c-1.3-0.2,0.1,0.2,1.9,0.7c1.8,0.6,3.9,1.3,3.9,1.5c2.7,0.8,5.2,1.5,7.5,2.1
							c2.4,0.7,4.6,1.1,6.8,1.8c2.2,0.6,4.4,1.2,6.7,2c2.2,0.8,4.6,1.7,7,2.9c-0.2,0-0.8-0.2-1-0.2c-0.2,0,0,0.2,1.4,0.9
							c2.3,0.9,6.3,2.7,8.6,3.9l-0.1,0c0,0,0.1,0,0.1,0.1c1.2,0.6,1.9,0.9,2,0.8c2.1,0.8,3.7,1.5,5.8,2.5c1,0.5,2.2,1,3.6,1.8
							c1.4,0.8,3,1.7,4.9,2.9c-0.1-0.4-1.9-1.6-3.9-3c-1-0.7-2.1-1.3-3.2-1.9c-1.1-0.6-2-1.1-2.8-1.5c-0.9-0.3-1.8-0.7-2.7-1
							c-1-0.9-2.9-1.8-4.7-2.7c-0.9-0.4-1.8-0.8-2.6-1.1c-0.8-0.3-1.4-0.6-1.9-0.9c1.3,0.4,3.2,1,5.4,2c2.2,1,4.7,2.1,7.2,3.6
							c1.3,0.7,2.6,1.4,3.9,2.1c1.3,0.8,2.5,1.6,3.8,2.4c2.5,1.5,4.8,3.2,6.8,4.5c-1.1-1-2.5-2.3-4.2-3.7c-1.8-1.3-3.8-2.8-6-4.2
							c-1.1-0.7-2.3-1.4-3.5-2.1c-1.2-0.7-2.4-1.4-3.7-2.1c-1.3-0.6-2.5-1.3-3.8-1.9c-0.6-0.3-1.3-0.6-1.9-0.9
							c-0.6-0.3-1.3-0.6-1.9-0.8c0.7,0.4,1.4,0.7,2.1,1.1l2.1,1.2c-0.9-0.4-1.7-0.9-2.6-1.3l-2.6-1.2l2.4,1.4c0.8,0.5,1.6,1,2.4,1.5
							c-2.4-1.3-4.7-2.3-6.9-3.3c-2.2-1-4.5-1.8-6.7-2.7c5.3,2,7,3.7,4.1,2.2c-5.7-2.7-6.2-2.2-10.7-3.8c1.3,0.5,2.7,1,3.5,1.3
							c0.8,0.4,1.1,0.6,0,0.3c-2.2-1-4-1.6-5.6-2.3c-0.8-0.3-1.5-0.6-2.3-0.9c-0.7-0.2-1.4-0.5-2.1-0.7c-2.7-0.9-5.4-1.9-9.4-3.2
							c0.4,0.5-2.2-0.2-5-0.9c-2.9-0.7-6-1.4-6.7-1.3l3.8,1c-2.8-0.5-5.5-1-8.3-1.4c-7.4-2.2,6.8,0.7-4.6-2.1
							c-5.3-1.1-8-1.3-10.3-1.5c-2.4-0.2-4.4-0.2-8.6-0.9c1.4,0,3.8,0.1,6.7,0.4c2.9,0.3,6.3,0.8,9.6,1.4l-4.1-1
							c1.1,0.1,4,0.5,7.2,1.1c3.2,0.7,6.7,1.3,9,2c-7.8-1.2,3.6,1,6.9,2.3c0.8-0.3-4.2-1.5,1.7-0.3c-2.7-0.8-4.3-1.1-6-1.5
							c-1.7-0.4-3.7-1-7.1-1.8c0.9,0.2,1.8,0.4,2.6,0.6c0.8,0.2,1.6,0.4,2.3,0.5c1.4,0.3,2.7,0.5,3.8,0.7c2.2,0.3,3.9,0.6,5.5,0.9
							c1.6,0.2,3.2,0.5,5.1,0.9c2,0.5,4.3,1.2,7.5,2.2c-6.1-1.6,1.9,1.2,2.5,1.8c1.4,0.5,3.5,1.2,5.6,1.8c2.1,0.7,4.1,1.5,5.2,1.9
							l-1.8-1.5c1.9,0.7,3.4,1.3,4.8,2c1.4,0.7,2.6,1.4,3.9,2.1c2.5,1.3,5.1,2.9,9.4,4.7c1.3,0.2-7.3-3.9-5.7-3.2
							c1.4,0.7,2.8,1.3,4,1.9c1.2,0.6,2.4,1.2,3.4,1.8c2.1,1.3,3.9,2.4,5.6,3.6c1.7,1.3,3.3,2.6,5.1,3.9c1.7,1.5,3.6,3.1,5.8,4.9
							c0.6,0.2,0.8-0.2,4,2c-1.2-0.5,0.9,1.5-2.6-1c1.4,1.2,2.9,2.5,4.5,3.7c1.5,1.2,3,2.4,4.3,3.4c-2.8-2.6-2.1-2.2-0.6-1
							c1.6,1.1,3.9,3.1,4.5,3.5c2.9,2.7-1.2-0.5-3.1-2.1c2.3,2.2,4.7,5.2,6.4,6c-0.2,0.4-7.2-5.3-11.8-9l2.9,2.6
							c-2.2-1.6-2.5-2-5.5-4.6c2.7,2.7,2.2,2.8,1.3,2.4c-0.3-0.4,0.3,0.1,0-0.3c-2.3-2.1-4.3-3.6-3.9-2.9c-2.6-1.4,3.2,3,4.6,4.7
							c1.2,1,2.5,2.1,3.7,3.1c4.5,3.2,8.9,6.4,13.2,9.9c5.2,4.8,7,7.4,10.4,11.5l1.3,0.7c4.1,4.6,7.7,9.1,4.6,6.5
							c0-0.3-0.6-0.9-1.4-1.9c-0.2-0.1-0.4-0.3-0.7-0.6c-0.1-0.1-0.2-0.1-0.3-0.2c4.4,4.8,7.1,7.9,7.3,8.2c-7.6-8.1-1,0.1-2.9-0.7
							c2.5,2.8,4.8,5.6,7.2,8.5c-4-5.5,0.3-0.4,1.8,1.5c0,0.8,5.4,7.2,7.5,10.5l-0.2-0.2c2,3.1,5.5,8.4,8,12.1
							c0-0.3,3.8,4.3,5.6,6.5c-3.8-6.8-1.3-2.9-1.3-3.6c0.4,0.7,1.1,2,1.3,2.1c0.7,0.9-0.6-1.4-0.6-1.7c-4.5-7-9.3-14.1-11.8-16.5
							c1.2,2.3,2.7,3.4,4.1,5.9c-2.7-3.2-5.6-7.6-9.6-13.2l-1-2c-1.5-1.8-2.9-3.6-4.4-5.4c2,2.1,1.3,0.5,5.7,6.2
							c-0.1-0.5-1.2-1.9-2.6-3.7c-1.4-1.8-3.2-3.8-4.5-5.6l-1.9-1.4c0.8,0.5-5.3-6.9-0.6-2c2.5,2.7,4.9,5.5,7.3,8.4
							c-0.5-0.9-1.1-1.8-1.6-2.7c2,2.4,3.9,4.9,5.8,7.4c-0.5-0.5-1-1.1-1.6-1.6c4.6,5.9,5,7,5.5,8.1c0.4,1.1,1,2.1,5.4,8.2
							c3.1,3.6,6,7.9,10.4,16.1c-3.5-5.8-0.7-0.4-2.3-2.4c3.2,6.1,4.7,7.9,6.6,10.9c0.2,0.9,0.4,1.6,0.2,1.4
							c-0.2-0.2-0.8-1.2-2.2-3.9c-0.5-0.2,0.5,1.6,1.5,3.5c1,1.9,2.1,4,1.9,4.4c4.4,9.1,6.5,12.7,8.6,16.6c1.1,2,2.1,4.1,3.4,7.2
							c1.2,3.1,2.6,7.1,4.1,12.9l-0.5-0.8c2.4,7.2,3.8,13.1,4.9,18.9c1.1,5.8,2,11.5,2.7,18.6c0.1,3.8-0.1,7.6-0.3,11.3
							c0-1.3-0.3-3.6-0.5-5.2c-0.3-1.6-0.6-2.5-0.7-0.9c0.5-5.5-0.3-11.2-0.8-17.1c-0.3-0.6-0.1,1.8-0.1,2.9
							c-0.2-1.7-0.3-3.1-0.5-4.5c-0.1-0.7-0.2-1.5-0.3-2.4c-0.2-0.9-0.3-1.8-0.6-3c-0.1,0.3,0.7,5.2-0.2,1.5l-0.4-3.1l-0.5-3.1
							c-1.1-4.1-1.6-5-2.1-6.1c-0.3-0.6-0.5-1.2-0.9-2.2c-0.3-1.1-0.8-2.6-1.4-4.9c0.9,1.6,2.6,5,3.6,8.7c-1-4.4,1.7,5.8,1,1.7
							c-2.2-6.2-2.5-9.3-5.6-17.4c0.4,0.9,0.6,1.2,1.3,3.2c-0.6-2-1.2-4-1.9-6c-0.6-2-1.3-4-2-5.9c0.4,1.5-0.6-0.9-1.8-3.4
							c-1.1-2.6-2.5-5.3-2.5-4.7c2.5,6.2,3.3,8.4,4.2,10.8c0.9,2.4,1.9,5,4,12.3c-0.7-2-1.6-4.3-2.5-6.4c-1-2-1.9-3.9-2.6-5
							c0-0.1-0.1-0.3-0.2-0.8c-1.3-2-0.6,0.3-1.5,0.6c3,6.2,3.9,10.7,6.5,18.4c0.5,0.7,0.3-0.5-0.1-2.3c-0.4-1.8-1.2-4.3-1.8-6.2
							c0.8,2.2,1.6,4.5,2.4,6.7l-0.6-1.3c1.6,5.8,3,11.7,4,17.7c-0.7-3.4-1.2-4.5-1.8-6.2c0.5,2.3,0.8,4.6,1.1,7
							c0.4-0.6,0.8-0.3,1.2,1.9c0.9,5.8,1.3,10.3,1.3,14c0.1,3.6-0.1,6.4-0.4,8.5c0,0.4,0,1,0.1,1.4c0.3-1,0.5,1.1,0.7,3.9
							c0,1.4,0.1,3,0.1,4.5c0,1.5,0,2.8,0,3.8c-0.3-0.1-0.5,1.4-0.8,3.4c-0.2,1-0.4,2.1-0.6,3.1c-0.2,1.1-0.5,2.1-0.7,2.9
							c0.1,1,0.5,0.9,1,0.1c0.5-0.8,1.2-2.4,1.8-4.5c0.2-2.1,0.2-3.4,0.3-4.3c0-0.9,0-1.3-0.1-1.6c-0.1-0.6-0.3-0.7-0.5-2.6
							c0.1-4.3,0-8.6-0.3-12.9l0.5,2.9c0.1-6.4-1.2-12.5-0.5-12.1c0.8,3.3,0.9,8.9,1.3,12.3c0-1.4,0.1-2.9,0.1-4.3
							c0.4,3.8,0.3,4.7,0.1,5.9c-0.2,1.2-0.3,2.5-0.4,7.1c0.7-3.3,0.1,0.8,0,4.8c0.2-0.8,0.3-2.2,0.5-3.8c0.1-1.6,0.2-3.5,0.3-5.1
							c0.1-3.3,0.1-5.9,0.6-4.5c0.1,1.2,0.1,2.8,0,4.6c-0.2,1.8-0.3,3.9-0.6,6c-0.5,4.2-1.4,8.6-1.6,11.9l0-0.3
							c-1.1,4.7-2,7.8-2.7,10.3c-0.7,2.4-1.3,4.2-1.9,5.9c-0.6,0.9-1.1,2-1.7,3c-0.6,1.1-1.2,2.2-1.9,3.3c-0.7,1.1-1.4,2.3-2.1,3.3
							c-0.4,0.5-0.8,1-1.1,1.6c-0.4,0.5-0.8,1-1.2,1.4l-0.1-0.3l-1.1,1.3c-0.4,0.4-0.8,0.8-1.2,1.2l-1.2,1.2
							c-0.4,0.4-0.8,0.8-1.2,1.1c2.1-2.4,5.8-5.5,8.9-10.3l-0.8,0.3c0.5-0.6,1-1.3,1.4-1.9c0.4-0.6,0.8-1.2,1.1-1.9
							c0.7-1.2,1.2-2.4,1.7-3.6c0.9-2.3,1.4-4.6,2-6.9c-0.9,3.4-3,8-5.3,11.8c-2.3,3.8-4.7,6.7-4.9,7.7c-1.1,1.1-2.4,2-3.5,3
							l-1.5,1.6c-1.4,1-1.6,0.8-0.7-0.2c0.4-0.5,1.1-1.2,1.9-2c0.4-0.4,0.8-0.9,1.3-1.4c0.5-0.5,1-1.1,1.5-1.7
							c0.8-0.8,1.3-1.2,1.1-0.8c0.5-0.6,0.8-1.2,1.3-1.9c0.4-0.7,0.9-1.4,1.4-2.2c0.5-0.9,1.1-1.8,1.7-2.9c0.3-0.6,0.7-1.2,1-1.8
							c0.4-0.7,0.7-1.4,1.1-2.2c-0.5,1.2-1,2.3-1.6,3.5c2.2-3.8,3.8-7.8,4.8-11c1-3.3,1.5-6,1.6-7.4c-1.5,6-3.6,11.8-6.6,17.2
							c-1.5,2.7-3.3,5.2-5.2,7.6c-2,2.3-4.1,4.5-6.5,6.5c-2.1,3.2-5.6,5.9-6.8,7.7c-3.8,2-8.6,3.8-13.3,4.7
							c-2.4,0.4-4.8,0.7-6.7,0.9c-2,0.2-3.9,0.2-5.6,0.2l0.6-0.2c-3.2,0.1-6.2,0.3-8.6,0.4c-3.4-0.2,2.3-0.6-0.1-0.7
							c-3.6,0.2-7.1,0.3-10.7,0.4c0.7-0.4,9.6-0.5,14-0.7c-0.8,0.1-2.4,0.2-1.9,0.3c2.5,0,6.1-0.3,9.4-0.6c1.6-0.2,3.2-0.4,4.5-0.5
							c1.3-0.1,2.4-0.2,3-0.1c1.3-0.3,0,0.1-0.5,0.3c-0.3,0.1-0.3,0.2,0.2,0.2c0.6,0,1.8-0.1,4-0.6c1.5-0.2,2.8-0.6,3.8-0.9
							c1-0.3,1.8-0.7,2.4-1c1.2-0.6,1.8-1,2-1.2c0-0.1-2.3,0.7-4.2,1.2c-1.9,0.5-3.5,0.8-1.9,0.2c-1.1,0.4-2.1,0.6-3,0.8
							c-0.9,0.2-1.7,0.4-2.6,0.6c-0.9,0.2-1.8,0.3-2.9,0.4c-1,0.1-2.2,0.2-3.6,0.3c1.1-0.1,2.2-0.3,3.4-0.4c1.2-0.2,2.5-0.5,3.7-0.7
							c1.2-0.3,2.3-0.5,3.3-0.7c1-0.2,1.8-0.4,2.4-0.5c0.5-0.2,1.1-0.4,1.5-0.5c0.5-0.2,0.9-0.4,1.3-0.6c0.8-0.4,1.4-0.7,1.9-1
							c0.9-0.6,1.4-1,1.4-1.3c0-0.2-0.3-0.3-0.9-0.2c-0.3,0.1-0.6,0.2-1,0.3c-0.4,0.1-0.9,0.2-1.4,0.4c0.3,0-0.5,0.4-1.8,0.9
							c-0.6,0.2-1.3,0.5-2.1,0.7c-0.7,0.2-1.5,0.5-2.1,0.6c-1.3,0.4-2.3,0.6-2.3,0.7c0,0,0.3,0,1-0.1c0.6-0.1,1.7-0.2,3.1-0.5
							c-0.6,0.3-1.3,0.5-2.1,0.7c-0.8,0.2-1.6,0.5-2.5,0.6c-0.9,0.2-1.8,0.3-2.7,0.5c-0.9,0.2-1.8,0.3-2.8,0.4
							c-3.7,0.5-7.6,0.8-10.9,1l0.3-0.1c-2.7,0.2-5.4,0.2-8,0.3c1.1-0.1,3.5-0.3,3.6-0.6c-3.7,0.3-7.4,0.6-11.1,0.8
							c6.2-0.4-3.9-0.3-6.7-0.7c-1.2,0.4-5.5,0.5-1.4,0.9c4.6,0.4,2.7-0.1,6.9-0.1l-6,0.5l-0.5-0.1l-3.6,0.4
							c-8.1-0.3,3.6-1.1-6.8-0.9l1.3,0.8c-12-0.5-27.3-2.2-35.7-2.3c2.3-0.3,3.4-0.9,0.2-1.4c3.6,0.3,10.9,0.6,16.2,0.8
							c1,0.2-6.6,0.5-12.2,0.1c2.7,1.3,14.3,0,14.9,1.2c7.2,0.6,9.9,0.4,12.4,0.2c2.4-0.2,4.6-0.3,10.8,0.3c0.2-0.5,3.5-0.2,4.2-0.6
							c-3.6-0.9-16.5-0.5-24.5-1.2c0.8,0,2.4,0,2.7-0.1c-5.7-0.4-8-0.4-12-0.4l0.5,0.1c-7,0.2-4.3-0.6-8.3-1c-1.6,0-7.2-0.4-6.4,0
							l-7.4-0.8l0.3,0.6c-4.2-0.2-5.1-0.6-8.8-0.4l-0.2,0.5L528,318c-5.2-0.1-1.5,0.4-7.2,0.3c6.4-0.3-4.5-0.5-5.1-1l-4.2,0.1
							l1.1-0.1c-3.3-0.4-4,0.1-7.8-0.1c4.6,0.4,7.5,0.9,13.4,0.8c-4.3,0.1-12.6,0.2-14.7,0.1c-4.4,0.1-7.5-0.4-11.7-0.5
							c8-0.1-2.8-1.7,13.2-0.9c-0.3,0.1-1.6,0-2.1,0c2.1,0.7,9.6,0.2,13.1,0.1c-0.9-0.4,2.8-0.4-3.4-0.8c2,0.3-5.2,0.7-11.1,0.2
							l1.1-0.8l-8.5-0.3l0.8,0c-3.2-0.6-9.1,0-15-0.3c-2.1,0.2-7.2,0.2-10.9,0.4c-3.7,0.2-6,0.5-2.5,0.8c-5.3-0.3-9.8,0.6-15.5,1.1
							c2.4-0.1,4.7-0.1,7.1-0.1c-8.3,1.1-6,0.6-12.6,2.1c-0.7-0.2-2.2-0.2-0.9-0.6c-5.6,0.5-12.4,1.3-18.5,2.3
							c-6.1,1.1-11.5,2.4-14.6,3.6c-1.9,0.5-3.4,0.8-4.7,1.1c-0.7,0.1-1.3,0.3-1.9,0.4c-0.6,0.2-1.2,0.3-1.9,0.5
							c-1.3,0.3-2.7,0.7-4.3,1.3c-1.7,0.5-3.6,1.4-6.1,2.5c-1,0.5-0.5,0.5-0.6,0.7c0,0.1-0.2,0.3-0.8,0.6c-0.6,0.3-1.6,0.7-3.2,1.5
							c-0.5,0.1,5.9-3.6-1.2,0c-2.4,1.6-5.2,3.1-8.2,5c-2.9,1.9-5.9,4.1-8.3,6.7c-0.7,0.6-1.5,1.4-2.3,2.2c-0.8,0.8-1.5,1.6-2.2,2.3
							c-0.7,0.7-1.2,1.3-1.5,1.6c-0.3,0.3-0.5,0.4-0.4,0.1c0.9-1.2,2-2.4,3.1-3.6c0.5-0.6,1.2-1.2,1.7-1.8c0.6-0.6,1.1-1.2,1.7-1.7
							c2.2-2.1,4.1-3.7,4.6-4.2c-0.5,0.7,3.6-2.3,0.2,0.5c0.9-0.7,1.7-1.2,2.4-1.6c0.7-0.4,1.2-0.8,1.7-1.1c0.9-0.6,1.5-1,2.1-1.4
							c0.5-0.4,1.1-0.8,2-1.3c0.9-0.5,2-1.2,3.9-2.1c0.2-0.2-0.8,0.1-2.1,0.7c-1.2,0.6-2.7,1.4-3.4,1.9c-0.2-0.3,3.3-2.5,6.2-4
							c2.8-1.5,4.9-2.5,1.3-1.3c-4.1,1.9-6.5,3.7-8.7,5.4c-1.1,0.8-2.2,1.6-3.3,2.5c-0.6,0.4-1.2,0.9-1.9,1.3
							c-0.7,0.5-1.4,1-2.2,1.5c2.1-2.3,6.3-4.8,9.4-7.4c-1,0.5-1.9,1-2.8,1.5c-0.9,0.5-1.9,1-2.8,1.7c-1.2,1-2.3,2-3.4,3.2l0.2-0.3
							c-4.6,3.3-6.2,5.4-7.7,7.3c-0.7,1-1.4,2-2.1,3.3c-0.4,0.6-0.8,1.3-1.3,2.1c-0.5,0.8-1,1.7-1.7,2.8c1.8-2.2,1.8-1.8,1.8-1.2
							c0,0.6-0.2,1.3,1.1-0.4c-3.7,5.2-5.5,9.6-6.2,9.3c0.6-1.4,1.1-2.4,1.4-3.3c0.4-0.8,0.6-1.3,0.8-1.7c0.3-0.8,0.3-0.9,0.2-0.9
							c-0.1-0.1-0.5-0.3,2.5-5.2c-0.7,0.7-0.5,0-0.6-0.2c-0.1-0.1-0.2-0.1-0.6,0.3c-0.4,0.4-1,1.2-2,2.7c-1.8,3.5-1.3,3.1-1,2.6
							c0.2-0.2,0.4-0.5,0.3-0.2c0,0.1-0.2,0.4-0.4,0.8c-0.2,0.4-0.5,1-0.9,1.9c-0.3,0.4-0.5,0.8-0.5,0.5c-0.3,0.8-0.6,1.5-0.9,2
							c-0.2,0.6-0.5,1.1-0.7,1.6c-0.2,0.5-0.5,1.1-0.7,1.7c-0.3,0.7-0.5,1.5-0.7,2.5l0.2-1c-0.5,1.2-0.9,2.2-1.1,3
							c-0.2,0.8-0.3,1.5-0.5,2.2c-0.3,1.3-0.4,2.6-1.1,4.8c0.4-0.8,0.4-0.1,0.2,1.3c-0.2,1.4-0.5,3.4-0.5,4.8
							c0.2-1.2,0.5-2.2,0.8-3.2c0.3-1,0.6-2.1,0.9-3.2c0.4-1.1,0.6-2.4,1.2-3.9c0.2-0.7,0.5-1.6,0.8-2.5c0.3-0.9,0.6-1.8,1-2.9
							c0-1.2-0.5-0.6,0.7-4.1l-1.1,2.7l-0.9,2.8c0.4-1.2,0.5-2.2,0.9-3.3c0.8-1.7,1.5-3.4,2.5-5.1c-0.4,0.8-0.7,1.5-0.9,2
							c-0.2,0.6-0.3,1-0.4,1.4c-0.2,0.7-0.3,1.1-0.2,1.3c0,0.5,0.2,0.5-0.1,2c-0.5,1.5-1,2.6-1.2,3.4c-0.2,0.8-0.4,1.4-0.5,1.9
							c-0.1,0.5-0.2,0.9-0.4,1.5c-0.1,0.6-0.3,1.2-0.5,2.2c-0.1-0.1-0.4,0.6-0.8,1.8c-0.4,1.3-0.8,3.1-1.3,5.3
							c-0.9,4.2-1.7,9.5-2.2,13.4c0.1-1.2,0.2-2.8,0.3-3.6c0.1-2.8-0.1-1.9-0.4-0.2c-0.3,1.7-0.5,4.1-0.6,4.2c0,1.4,0.1,2.8,0.1,4.1
							c0-0.8-0.1-1.9-0.3-0.1c0,1.4,0,2.4,0.1,3.3c0.1,0.8,0.2,1.5,0.3,2.1c0.1,0.6,0.2,1.3,0.3,2.1c0.1,0.8,0.2,1.8,0.4,3.1
							c-0.3,0.5-1.2-4.1-1.1-0.7c0,0.3-0.1,0.8-0.1,1.4c0,0.6,0,1.4,0,2.5c0.2,2,0.5,4.8,1.9,8.1c0.3,0.4,1,2.1,2.1,3.9
							c-0.2-0.2-0.4-0.6-0.4-0.7c0.6,1.4,1.3,2.8,2.2,4.1c-1.5-1.4-2.5-3.2-3.3-5.1c-0.8-1.9-1.4-3.9-2.2-5.8l-0.6-0.2
							c-0.9-3.2-1.6-7.6-2-9.7c0.1,1.3,0.2,2.3,0.3,3.2c0.1,0.9,0.3,1.7,0.4,2.5c0.3,1.6,0.7,3.2,1.5,5.9c0,0.4-0.4-0.3-0.8-1.2
							c-0.3-0.9-0.7-2-0.8-2.3c0.2,0.3,0.3,0.5,0.5,0.8c-0.5-3.4-0.9-5.9-1.3-8.6c-0.4-2.7-0.7-5.7-0.4-10c0.1-1.3,0.1-0.5,0.2-0.2
							c-0.2-7,1.4-13.6,1.8-20.4l-0.1,2.2c0.1-1.1,0.3-2.6,0.5-4.2c0.3-1.6,0.5-3.4,0.9-5.4c0.7-3.9,2-8.3,3.7-12.5l-0.2-0.2
							c-0.5,0.9,0.9-2.2,1.9-3.8l0,0c2-4.2,4.5-7.9,6.7-10.8c-0.9,0.8-1.8,1.9-2.9,3.3c-0.4,0.6-1.7,2.7-2.9,4.6
							c-1,1.9-1.9,3.5-1.4,3.1c-0.6,0.8-1.1,1.8-1.6,2.9c-0.6,1-1,2.2-1.4,3.3c-0.9,2.2-1.5,4.4-2.1,5.8c1-2.4,0.8-1.5,0.4,0.1
							c-0.4,1.6-0.9,4-0.9,4.5c-0.4,0.8-0.8,2.7-1.1,4.2c-0.3,1.6-0.5,2.8-0.7,2.5c-0.3,1,0.7-2.4,0.9-4.6c0.4-2.7-0.3-0.3-0.8,2
							c-0.5,2.3-0.9,4.3-0.6,1c-0.6,4.2-1.3,9.1-1.8,14.1c-0.5,5-0.6,10-0.3,14.4c0-1.7,0.1-3.3,0.2-4.9c-0.1,2-0.1,5.3,0.1,8.2
							c0.1,1.5,0.2,2.8,0.3,3.8c0.1,1,0.2,1.7,0.1,1.9c-0.5-2.9-0.8-6.3-0.9-10.1c-0.2-0.1-0.3,2.2-0.1,4.5c0.2,2.3,0.5,4.7,0.4,5
							c0.8,3.6,1.9,7.2,3.5,10.5c-0.3-0.8-0.5-1.5-0.8-2.3c-0.2-0.8-0.5-1.5-0.7-2.3c0.6,1.4,1.4,4.6,3.2,8c0.9,1.7,2,3.5,3.3,5.1
							c1.3,1.6,2.8,3,4.3,4.2c-1.9-1-4.1-3-6.1-5.7c-1.9-2.8-3.5-6.2-4.7-10c-0.5-1.4-0.6-1.8-0.7-1.8c-0.1,0-0.1,0.5,0,0.9
							c0.1,0.9,0.2,1.9-0.6-0.7c0.1,0.7,0.4,1.9,0.8,3.2c0.2,0.6,0.5,1.2,0.7,1.8c0.3,0.6,0.5,1.1,0.7,1.5c0.2,0.7,0.6,1.4,0.9,2.1
							c-1.5-2.1-3.1-5.9-4.2-10.1c-1-4.2-1.5-8.8-1.8-12.4c0.1,0.6,0.2,1.2,0.3,1.4c0.1-5.6,0.4-11.2,0.8-16.5
							c-0.5,2.8-0.4,3.9-0.5,5.6c-0.1,0.1-0.1-1.1,0-2.6c0.1-1.5,0.2-3.2,0.2-4.2c-0.7,5-0.5,0.9-0.9,4c0.2-3.3,0.5-5.9,1.1-9.8
							c0.5-2,0.1,1.7,0.5,1.4c0.2-2,0.5-3.5,1-5.1c0.4-1.7,0.8-3.5,1.3-6.6c-0.9,3.9-1,3.4-0.8,1.5c0.1-0.9,0.3-2.2,0.5-3.5
							c0.2-1.2,0.5-2.4,0.6-3.1l-0.4,1.3c0.3-2.6,1-4.7,2-6.3c-0.5,1.6-1,3.2-1.3,4.3c-0.3,1.1-0.3,1.7,0,1.2
							c0.1-0.5,0.3-1.1,0.4-1.6c0.2-0.5,0.3-1.1,0.5-1.6c0.4-1.1,0.7-2.2,1.1-3.4c-0.2,0.7-0.4,1.5-0.5,2.2c0.5-1.8,1.3-3.4,2-5.1
							c0.3-0.9,0.8-1.7,1.2-2.5c0.4-0.8,0.8-1.7,1.2-2.5c0.3-0.8,0.7-2,1.1-3.1c0.4-1.1,0.9-2.2,1.1-3c0.5-0.5,0.9-1.1,1.4-1.7
							c0.5-0.6,1-1.2,1.4-1.9c0.9-1.3,1.9-2.5,2.7-3.5l-0.7,1c0.4-0.4,0.9-1,1.5-1.5c0.5-0.6,1.2-1.1,1.8-1.8
							c0.6-0.6,1.2-1.3,1.9-1.9c0.7-0.6,1.3-1.2,2-1.8c2.6-2.3,4.9-4.2,5.2-4.6c0.8-0.4-0.1,0.3-1.4,1.5c-1.3,1.3-3,2.9-4.2,4.3
							c-1.2,1.3-1.8,2.2-1.1,1.7c0.8-0.5,2.8-2.5,7.7-6.2c0.9-0.7,1.7-1.2,2.4-1.7c0.7-0.5,1.2-0.8,1.6-1.2c0.8-0.6,1.3-1.1,1.6-1.5
							c0.7-0.7,0.9-1.2,3.1-2.7c0,0-0.2,0.2,0.3,0c3.6-1.8,3.8-2.3,6.8-3.8c-1.1,0.5-2.5,1-3.7,1.6c-1.2,0.6-2.2,1.2-2.7,1.5
							c0.5-0.4,2.3-1.5,4.5-2.4c1.1-0.5,2.2-1,3.2-1.5c1-0.4,2-0.9,2.7-1.2c-1.7,1.1,0.1,0.3,2-0.4c1.9-0.7,4-1.5,2.6-0.8
							c7.6-2.4,15.7-4.8,19.7-6.1c5.4-0.3,9.2-2,17.9-2.8c-1.3,0.2-3.7,0.6-5.5,0.8c-2.4,0.6-0.2,0.3,1.7,0.1
							c1.9-0.2,3.5-0.4-0.3,0.4c1.6-0.3,0.1-0.3-1.6,0.1c-2.9,0.5-5.5,1.2-4.8,1.3c2.3-0.3,4.7-0.5,7-0.7l-2.4,0.5
							c1.8-0.2,3.5-0.3,5.3-0.5c1.8-0.1,3.5-0.3,5.3-0.3c0.3-0.1-0.7-0.1-1.2-0.1c12.2-1.2,26.2-2.2,36.9-2.3c1-0.7,7.6-1,15-1
							c7.4,0,15.7,0.2,20-0.1c-2.3,0.3-3.6,1-2.2,1.3c-1.9,0-5.9,0.4-10.2,0.2c-0.7-0.2-6.1-0.6-2.6-0.8c-12.1,0,1.6,0.6-1.9,1.1
							c13.4,0.1,21.2-0.4,29.7-0.4l0.2,0.2l6.4,0c-5.2-0.3-4.9-1.1,1.8-0.5l-0.8,0c3.8,0.5,11.8,0.5,17.7,0.9l4.1-0.3
							c6,0.3,6.2,1.2,8.1,1.8c9.3,0.5,14.7,0,21.3-0.3c3,0.5,16.9,0.6,9.5,1.1c4.2-0.1,5.8-0.8,8.2-1.2c2.4-0.5,5.5-0.7,12.5-0.7
							c-1.2,0.2-2.4,0.4-3.6,0.6c1.7-0.1,3.5-0.3,5.3-0.4c0.9-0.1,1.8-0.2,2.7-0.3c0.9-0.1,1.7-0.3,2.6-0.4c3.5-0.7,6.8-1.8,9.8-3.3
							c3-1.4,5.5-3.2,7.5-4.8c0.5-0.4,1-0.8,1.4-1.2c0.4-0.4,0.8-0.8,1.2-1.1c0.8-0.7,1.4-1.4,1.9-1.9c-1.1,2.1,1.9-0.4,4.8-4.3
							c1.4-2,2.8-4.3,3.8-6.3c0.3-0.5,0.5-1,0.8-1.4c0.2-0.4,0.4-0.8,0.6-1.2c0.4-0.7,0.7-1.2,1-1.4c-0.5,0.5,0.9-4.3,0.9-5
							c0.4-1,1-2.8,1.1-4.7c-0.6,2.5-0.8,1.6-0.9,1.2c-0.1-0.2-0.2-0.2-0.3,0.4c-0.1,0.3-0.2,0.8-0.3,1.5c-0.1,0.7-0.3,1.6-0.6,2.8
							c0.4-5,1.2-11.3,1.4-22.2l0.5,0.2l-0.1,2.2l-0.1,2.2c-0.1,1.4-0.3,2.9-0.4,4.3c0.5-0.8,0,3.6-0.2,5.4c0.7-3.9,0.9-5.8,1.1-6.6
							c0.2-0.8,0.3-0.5,0.4-0.3c0.1,0.3,0.2,0.5,0.4-0.4c0.1-0.4,0.2-1.1,0.2-2.3c0.1-1.1,0.2-2.7,0.2-4.8c-0.3-1.6-0.2-0.6-0.4-4.9
							c0,2,0.4,2.4,0.4-0.9l-0.6-3.1c0.2-3,0.6-0.5,0.8,2c0.3,2.5,0.3,5.2,0.6,2.7c0.3,3.3,0.4,7.7,0.3,11.1
							c-0.1,3.4-0.2,5.7,0.3,4.7c0.7-5.3,0.5-7.8,0.2-10.2c-0.1-1.2-0.2-2.5-0.4-4.1c-0.1-1.6-0.2-3.7-0.3-6.5l0.2-1.2
							c-0.5-3.9-1.1-4.5-1.6-6.6c0.2-0.2,0.1-1.2-0.2-3.7c-1.7-6.5-2.7-10.7-4.9-16.5c0.6,1.9,1,3.6,1.4,5.1
							c0.4,1.5,0.6,2.8,0.8,3.9c0.5,2.3,0.7,4,0.9,5.8c0.4,3.5,0.9,7,1.6,15.3c-0.1-0.6-0.2-1.9-0.4-3.3c-0.2-1.5-0.4-3.2-0.7-4.8
							c-0.2-1.6-0.6-3.2-0.9-4.4c-0.3-1.2-0.6-2-0.8-2.2l0.5,0.1c-1.1-5.3-2.5-10.5-4-17.1l1.3,4c-2.5-8.6-3.3-14.7-6.5-21.2
							c0.8,2.4,1.5,4.3,2,5.8c-1.7-4.3-3.6-9.9-5.5-14.6c-1.6-3.1-3.3-6.2-5-9.3c0.3,0-2.6-6-0.8-3.3c-2.9-7-5.3-9.8-7.5-13.5
							c-1.6-3.5-0.8-2.1,0.6,0.3c1.4,2.4,3.2,5.7,3.8,5.9c-2.4-4.8-5-9.6-7.6-13.8c-1.3-2.1-2.6-4-3.7-5.8c-1.2-1.7-2.3-3.2-3.2-4.4
							c1.1,1.9,1.6,2.8,1.4,2.8c0-0.2-0.6-1.2-1.4-2.4c-0.8-1.2-1.7-2.6-2.4-3.6l-1.2-1.2c-2.1-3.4-1.6-3.1,0.6-0.4
							c-1.1-1.6-2.4-3.2-3.7-4.9c-1.3-1.6-2.6-3.4-3.6-5.1c4.3,5,8.6,12.1,10.7,14.8c-2-2.8-3.4-5-4.6-6.8c-1.2-1.9-2.2-3.4-3.2-5.1
							c-1-1.7-2.2-3.4-3.7-5.5c-1.5-2.2-3.6-4.7-6.4-8c0-0.3,2.1,1.8,0-0.8c-2.5-3-3-3.2-3-3c-0.1,0.3,0.3,1-0.6,0.2
							c2,2.2,3.4,3.9,4.5,5.4c1.1,1.5,1.9,2.8,2.8,4.3l-1.2-1.1c0-0.3-2.3-3.2-2.9-4.1l-1-0.4c0.4,0-0.3-1.3-1.4-2.9
							c-1.2-1.7-2.9-3.7-4.5-5.4c2.8,3.9,1.9,2.9,2.2,4.3c-2.4-2.3-3.5-3.8-4.7-5.3c-0.6-0.8-1.2-1.6-2-2.5
							c-0.8-0.9-1.8-1.9-3.2-3.1c0.5,0.3,5,4.9,1.3,0.7c-3.1-3.4-3.1-2.6-5.3-4.7c2.8,2.1,2.5,1.2,5.5,3.5c5.6,6,2.3,2.4,7.8,8.3
							c-1.4-1.8-2.8-3.6-4.2-5.4c4.7,5.1,3.8,3.4,4.4,3.7c-1.9-2.3-3.3-3.9-4.3-5c-1.1-1.1-1.8-1.7-2.5-2.3c-1.3-1.1-2.4-1.8-5-4.5
							c-2.8-2.4,5,5.2,0.7,1.3c-2.5-2.6-2.8-2.8-3.3-3.1c-0.5-0.3-1-0.6-4-3.3l1.1,0.8c-1.5-2-3.6-3.3-5.7-5.2c-1.2-1-0.9-0.1-1.4,0
							c-0.3,0.1-0.8-0.1-1.8-0.8c-1-0.7-2.5-2-5-4c0.6,0.3,0.8,0.4,0.8,0.3c4.1,1.6,8.2,3.4,12.2,5.2c-4.8-4.5-10-9.3-15.6-14
							c-5.6-4.7-11.7-9.1-18.3-12.9c-1.3-1.3,1.1-0.1,3.8,1.4c0.7,0.4,1.4,0.7,2,1.1c0.6,0.4,1.2,0.7,1.7,1c1,0.6,1.7,1,1.5,0.7
							l2.9,2l2.7,2.2c-0.3,0-3.1-2.2-5.6-3.6c-2.4-1.5-4.1-2.5-1.6-0.5c1.3,0.8,2.5,1.6,3.6,2.3c1.1,0.8,2.1,1.5,3.1,2.3
							c1,0.7,1.9,1.4,2.8,2.1c0.9,0.7,1.7,1.4,2.6,2.1c1.7,1.4,3.4,2.8,5.2,4.3c1.8,1.5,3.8,3.1,6.1,4.9
							c-2.1-3.1-11.5-10.2-17.3-15.2c1.3,1,2.4,1.9,3.6,2.7c1.1,0.9,2.2,1.7,3.2,2.5c-2.7-2.4-5.6-4.6-8.7-6.9
							c-1.6-1.1-3.2-2.2-4.8-3.3c-1.7-1-3.4-2.1-5.2-3.1c-0.6-0.2-1.1-0.5-1.7-0.7c2.4,1.4,4.3,2.6,5.8,3.5c1.4,0.9,2.3,1.6,2.5,1.7
							c-0.8-0.5-1.5-1-2.2-1.4c-0.8-0.4-1.5-0.8-2.2-1.2c-1.4-0.8-2.7-1.4-3.8-2c-2.3-1-3.9-1.5-4.3-1.3l1.1,0.6l-2.4-1
							c-0.7-0.4-1.5-0.8-2.3-1.1L529.5,60.5z M64.4,69.3c0.4-0.1,0.8-0.3,1-0.4C65.1,69.1,65.4,69.1,64.4,69.3z M629.2,159
							c-4.7-8.5-9.9-16.9-15.2-24.6c2.2,3.6,4.1,7,5.6,9.7c1.4,2.7,2.4,4.7,2.6,5.4c0.2,0.8-0.2,0.3-1.7-1.8
							c-1.5-2.1-3.9-5.9-8-11.6c-0.4-0.5-0.7-1-1.1-1.4c2,3.1,5.6,8.2,8.8,13.2c1.5,1.9,4.6,5.9,7.2,9.6c1.3,1.8,2.5,3.5,3.4,4.8
							c0.9,1.2,1.4,2,1.5,2c-0.5-1.7-2.1-3.7-3.5-6.4L629.2,159z M630.7,166.1c2.4,4.9,2.1,3.7,2.7,4.3c-0.9-1.7-1.8-3.4-2.7-5.1
							C630.9,166,631,166.4,630.7,166.1z M633.4,170c-0.3-0.6-0.5-1-0.6-1.3L633.4,170z M568.7,85.9c0.2,0.2,0.3,0.2,0.4,0.4
							c-1-0.9-1.9-1.8-2.9-2.7C566.6,83.9,567.4,84.6,568.7,85.9z M576.5,93.9l1.2,0.6c-0.8-0.9-1.7-1.7-2.6-2.6
							C575.2,92.3,575.5,92.8,576.5,93.9z M599.4,121.2c0.9,0.7,2.5,2.5,4,4.2c1.5,1.7,2.8,3.2,3.2,3.1c0.4,0.3-0.5-1-1.5-2.5
							c-1.2-1.6-2.5-3.2-3.9-5c-0.1,0-0.5-0.3-1-0.8c1.3,1.8,2.1,3,1.3,2.6c-1.4-2.5-2.4-3.4-3.4-4.3c-1-0.9-2.1-1.8-4.1-4.2
							c-0.8-0.6,0.2,0.8,1.6,2.4C597,118.5,598.8,120.5,599.4,121.2z M373.1,335c-0.2,0.1-0.8,0.3-1.5,0.7c1.1-1,2.3-1.9,3.4-2.8
							c3.3-2.1,6.5-3.7,9.6-5.1c0.8-0.4,1.5-0.7,2.3-1.1c0.8-0.3,1.5-0.7,2.3-1c1.5-0.8,3.1-1.4,4.6-2.3c3.2-1,4.9-1.2,6.6-1.4
							c-1.5,0.5-2.9,1-4.1,1.3c-1.1,0.5-2.1,0.9-3.1,1.4c-0.9,0.4-1.7,0.8-2.5,1.1c-1.5,0.7-2.7,1.3-3.6,1.7c-1.9,0.9-3,1.3-4,1.6
							C381.2,329.8,379.4,330,373.1,335z M458.4,312.9c-0.8,0.1-1.1,0.2-1.1,0.2c17.3-2.1,31.6-2.2,41-2c-1.8-0.5-10.2-1-14.2-1.2
							l3.5-0.5l2.2,0.4l6.2-0.4c-1.7-0.4-6.7-0.4-10-0.7c-0.3,0.1-10.9,0.7-13.9,1.1c2.8,0.1,5.7,0.1,8.5,0.3
							c-2.3-0.2-13.6,0.1-18,0.5c0,0.1,1.9,0.2,3.9,0.2c2,0,4.2-0.1,4.7-0.4c0.9,0.4-7.9,0.6-2.3,0.9c-6.6,0.6-17.2,0.8-22.1,1.1
							l-0.9-0.6c-5.4,0.3-3.5,1.1-9.9,1.5c7.8-1-1.4-0.6,4.8-1.3c-2,0-0.1-0.7-6.4,0.1c-2.5,0.8-4.2,0.9-5.8,1
							c-1.6,0.1-3.2,0.2-5.6,1c-3.3,0.3,3.4-1.2-3-0.1c-3.6,0.9-5.3,1.6-6.1,2c-0.8,0.4-0.8,0.6-0.9,1c3.4-0.7,5.3-1.3,7-1.9
							c1.7-0.6,3.3-1,6.1-1.5c-3.7,1-7.3,2-10.9,3.2c2.1-0.3,3.6-0.6,4.8-0.9c-2.2,0.5-4.1,1.1-5.6,1.7c-0.9,0.3-1.7,0.6-2.5,0.9
							c6.2-1.5,11.8-2.5,12.8-2.4l-0.8,0.5c2.3-0.1,5.9-0.9,7.5-1.4c5.6-0.9,11.3-1.8,12.6-1.5l-2.1,0.5c3.5-0.4,5.4-0.6,7.6-0.8
							C451.6,313.3,454,313.1,458.4,312.9z M658.2,261.3c-0.7,2.1-1.4,4.3-2.3,8.5c-0.3,1-0.5,2.2-0.8,3.5c-0.4,1.3-0.7,2.7-1.1,4.3
							c-0.9,3.2-2,7-4.1,11.5c0.2-0.5,0.4-1,0.6-1.4c-2.3,4.4-4.6,8.6-7.9,12.6c-0.8,1-1.7,1.9-2.6,2.9c-1,0.9-1.9,1.9-3.1,2.7
							c-2.2,1.7-4.7,3.1-7.5,4.2c2.6-1.4,3.7-2.3,4.8-3.2c0.3-0.2,0.6-0.5,0.9-0.7c0.3-0.3,0.6-0.6,0.9-0.9c0.3-0.3,0.7-0.7,1.1-1.2
							c0.4-0.5,0.8-1,1.4-1.6c-1.4,1.4-3,2.8-4.7,3.9c0.5-0.7-0.4-0.2-2,0.8c-1.6,0.9-4,2.2-6.1,2.8c1.2-0.6,2.3-1.4,3.3-2.2
							c0.6-0.2,1.4-0.6,2.4-1.1c0.9-0.4,1.8-1.1,2.7-1.6c1.7-1.1,2.9-2.2,2.8-2.2c-0.3,0.3,0.1,0.1,0.8-0.4c0.7-0.5,1.8-1.4,3-2.4
							c2.4-2.2,4.9-5.5,6.3-8.1c-0.4,0.1-2,2.9-3.7,4.8c-0.8,1-1.5,1.7-1.8,1.9c-0.3,0.2-0.3-0.1,0.5-1.2c-0.7,0.9-1.3,1.7-1.8,2.3
							c-0.6,0.6-1.1,1-1.6,1.5c-1,0.9-2.1,1.7-4,3.2c0.9-0.8,1.4-1.2,1.6-1.5c0.2-0.3,0.3-0.5,0.3-0.6c0-0.2-0.1-0.4,1.1-1.6
							c-1.9,1.8-4,3.4-6.2,4.8c-0.1,0,2.3-1.6,3.8-3c0.8-0.7,1.3-1.3,1.4-1.5c0.1-0.2-0.4,0-1.7,0.9c-1.1,1-3.5,2.7-5.7,3.8
							c-1.1,0.6-2.2,1-2.9,1.4c-0.8,0.3-1.3,0.6-1.3,0.7l-0.2-0.1c-1.4,0.5-2.3,0.7-2.8,1c-0.6,0.2-0.9,0.4-1.3,0.6
							c-0.8,0.3-1.7,0.8-5.4,1.1c0,0.1,0.3,0.2,1,0.2c0.3,0,0.8,0,1.3-0.1c0.5,0,1.1-0.1,1.7-0.3c1.1-0.3,1.7-0.5,2.6-0.9
							c0.9-0.4,2-0.8,4.1-1.6c1-0.1-0.3,0.3-1.4,0.7c-1.1,0.4-2.2,0.7-0.6,0.7c0.4,0,1.3-0.4,2.4-0.7c0.6-0.2,1.1-0.5,1.7-0.7
							c0.6-0.3,1.2-0.5,1.7-0.8c2.1-1.1,3.6-2.1,2.4-0.9c-0.9,0.5-1.8,0.9-2.7,1.4c-0.9,0.4-1.8,0.8-2.8,1.2c0,0.3-1,0.8-2,1.3
							c-1,0.5-2,0.8-1.9,1c-3.6,1.2-7.2,1.1-11.2,1.9c-1.6,0.4,1.3,0.9-5.3,1.1c-2.6-0.2-7.7-0.2-12.9-0.3c-5.2,0-10.5-0.1-13.3-0.1
							l-5,0.2c0.4,0.4,9.6,0.2,6.4,0.6l-7.9-0.1l0.6-0.2c-2.6-0.1-5.3,0-7.7,0c2.5-0.3,8.1,0.1,7-0.5c-3.7-0.2-4.2-0.5-7.6-0.5
							c0.7,0,1.4,0,1.3-0.1c-7.4-0.6-7.2,0.3-9.1,0.4c-7.5,0.4,7.5,1,6.6,1.5l-21.9-0.8c1.9-0.1,3.8-0.2,3.1-0.4
							c-5.4-0.5-0.1-0.4-7.7-0.8c0.5,0.8-9.5,0-14.9,0.2c-2.5-0.4-3-0.5,2.5-0.3c-0.6-0.5-7.9-0.6-10.5-0.8c-1.5,0.1-4.1,0-5.7,0.1
							c2.2,0.3,1.2,0.6-3.5,0.7l-0.3,0.1c7.7,0.3,19.7,1.4,24.6,1.1l-1.4,0.2c8.9,0.8,19.5,0.1,23.6,1.2c-0.4,0.3,1.8,0.2,1.6,0.7
							l6.6-0.1l-1.4,0.2l11.2,0.4l-0.3,0.1c5.4-0.3,9.6-0.5,12.9-0.8c0-0.2-0.3-0.3,1.5-0.4c1.8-0.1,3.1-0.1,4.4,0c0,0,0,0,0,0l0,0
							c2.8,0.1,4.6,0.4,8,0.5c-3.5,0.1-7,0.1-10.5,0c-0.9,0.4,0,0.8,5.2,1.1c-2.1,0-3,0.3-0.4,0.4c0.3-0.1,6.9-0.3,4.4-0.6
							c5-0.1,11.5,0,18.7-0.6c3.6-0.3,7.5-0.9,11.2-2.1c3.7-1.2,7.3-3,10.5-5.4c-2.3,1.6-3,2.1-2.9,2.1c0.1,0,1.1-0.5,2-1
							c0.5-0.3,0.9-0.5,1.2-0.7c0.3-0.2,0.5-0.3,0.5-0.3c0,0-0.2,0.2-0.8,0.6c-0.3,0.2-0.6,0.4-1.1,0.7c-0.5,0.3-1,0.7-1.7,1
							c1-0.4,1.8-0.9,2.6-1.4c0.4-0.2,0.7-0.4,1-0.6c0.3-0.2,0.6-0.4,0.8-0.6c1-0.8,1.7-1.4,2.4-2.1c0.7-0.7,1.3-1.4,2.1-2.4
							c0.9-0.9,1.9-2.2,3.3-3.8c0.2-0.1,0.1,0.1-0.2,0.4c-0.3,0.3-0.7,0.9-1.2,1.5c-0.5,0.6-1.1,1.2-1.6,1.8c-0.5,0.6-1,1.2-1.3,1.6
							c5.6-5,8.8-10.6,11.1-16.2c1.2-2.8,2-5.7,2.8-8.8c0.7-3,1.4-6.2,2-9.6l0.6-0.5c0.1-1.3,0.3-2.7,0.4-4.2
							C658.1,264.4,658.2,262.9,658.2,261.3z M656.1,234c-0.5-2.6-1-5.3-1.6-7.9c0,0.3,0.1,0.5,0.1,0.8c-0.3-1.3-0.7-2.6-1-3.9
							c-0.4-1.3-0.7-2.6-1.1-3.8c1,4.8,1.1,8.1-0.6,1.5c0.3,0.5,0.1-1.5,0.8,0.8c-0.4-2.3-1.1-5.9-1.9-8.5c-0.7-2.7-1.4-4.4-1.4-3
							c1.6,4.1,1.4,4.7,1.3,5c-0.2,0.3-0.4,0.4,0.7,3.7c-1.3-3.5-2.1-7-3.4-10.3c1.4,3.4,0.7-1.1-0.9-6.4c-0.9-2.2-2.9-8.3-4.7-11.9
							c0.1,1.5-1.4-1.6,0.9,4.4c-1-2.2-2.4-5.5-3.8-9.4c0.7,1.5,1.9,4.1,1.9,3.8c-0.6-2.6-1.9-5.5-2.4-7.1c-0.6-1.2-1.2-2.5-1.8-3.7
							c0.1,0.4,0.2,0.7,0.3,1l-2.3-3.9c2.8,5.4,1,2.6,0.7,2.6c0.5-0.1-1.6-3.5-2.6-5.4c0.5,1.4,1,2.8,1.5,4.3c-1.1-1.8-3-7-3-5.8
							c1,2.1,1.9,3.9,2.6,5.6c0.8,1.6,1.4,3.1,2.1,4.5c1.3,2.9,2.6,5.6,4.3,9.6c-0.3-1.1-0.6-2.3-0.9-3.4c2,4.4,2.4,5.9,2.7,7.5
							c0.4,1.6,0.8,3.4,2.6,8.5c0.4,1,1,2.5,1.6,4.2c0.5,1.7,1.1,3.5,1.6,5.2c0.5,1.7,1,3.3,1.4,4.4c0.4,1.1,0.7,1.9,0.9,1.9
							c-0.5-1.3,0.9,6.7,1.9,10.3c0.7,1.9,1.6,6,2.2,9.1c0.5,3.1,0.9,5.3,0.8,3.4c-0.3-3.4-1.4-7.8-1.4-10.5l0.6,3.2l0.5,3.2
							c-0.1-1.4-0.1-2.9-0.2-4.3C655.4,235.4,655.7,235.1,656.1,234z M592.4,102c0-0.1-0.1-0.1-0.2-0.2
							C592.3,101.8,592.3,101.9,592.4,102L592.4,102z"/>
						<path class="st1" d="M348.8,422.9c0.2,0.4,0.4,1,0.7,1.6c0.3,0.6,0.6,1.2,0.9,1.7c0.6,1.1,1.2,1.8,1.1,1.3
							c-0.2,0.2-1.2-1.5-1.8-3.1c-0.4-0.8-0.6-1.5-0.8-1.8C348.8,422.2,348.7,422.2,348.8,422.9z"/>
						<path class="st1" d="M350.7,427.9c0.3,0.2,0.2,0,1.4,1.6c-1.1-1.5-2-3.1-2.8-4.8c0.2,0.5,0.4,1.1,0.7,1.6
							C350.2,426.9,350.5,427.4,350.7,427.9z"/>
						<path class="st1" d="M351.9,434.5c1.2,1.1,2.2,1.9,3.5,2.7c1.2,0.9,2.7,1.8,4.8,3c0.6,0.9-1.3,0.1-3.4-1.3
							c-1.1-0.7-2.2-1.6-3.2-2.3c-0.5-0.4-1-0.7-1.4-1.1c-0.4-0.3-0.8-0.5-1-0.7c3.2,3.5,6,5,8.6,6.1c2.6,1.1,5,1.9,8.4,3
							c-1.6-0.8-5.9-2.4-9.5-4.6C355,437.1,352.3,434.3,351.9,434.5z"/>
						<path class="st1" d="M348.3,432c0.5,0.7,1.1,1.4,1.7,2.1c0.6,0.6,1.2,1.3,1.9,1.9l-0.3-0.4c-1.3-1.2-2.5-2.6-3.5-4L348.3,432z
							"/>
						<path class="st1" d="M375.4,340.8c0.5,0,2.5-1.8,3.7-2.8C378.1,338.7,376.6,339.6,375.4,340.8z"/>
						<path class="st1" d="M169.2,46.4c-12,1.7-24,3.6-36,5.5C143.5,50.3,153.1,48.8,169.2,46.4z"/>
						<path class="st1" d="M487.7,315.1c-9.7,0.3-14,0.9-23.8,1.4c6.5,0.1,10.7-0.2,14.7-0.5c4-0.3,7.8-0.5,13.2-0.1L487.7,315.1z"
							/>
						<path class="st1" d="M484.2,317.7c-1.6-0.6,7.5-0.7,6.1-1.1c-6.5,0.1-3,0.6-8.9,0.5L484.2,317.7z"/>
						<path class="st1" d="M439.7,309.6c1-0.2,2-0.4,2.9-0.6l-2.4,0.4L439.7,309.6z"/>
						<polygon class="st1" points="528.4,318.4 527.3,318.4 532.2,318.9 						"/>
						<path class="st1" d="M526.2,318.5l1.1-0.1L526.2,318.5z"/>
						<path class="st1" d="M443.4,307.9c-1.5,0.1-3,0.2-4.5,0.3l-2.2,0.5C439,308.5,441.2,308.2,443.4,307.9z"/>
						<path class="st1" d="M482.6,309.5l-3.9,0.2C479.5,309.7,484.9,309.9,482.6,309.5z"/>
						<polygon class="st1" points="558.2,320.1 563,320.1 562.5,320 557.7,320 						"/>
						<path class="st1" d="M513.5,308.4c-2.7-0.6,7.9,0.2,2.3-0.5C510.8,307.9,512.8,308.2,513.5,308.4z"/>
						<path class="st1" d="M571,314.3c0.6,0,1.3,0,2,0C572.2,314.3,571.6,314.3,571,314.3z"/>
						<path class="st1" d="M571,314.3c-2.1-0.1-4.2-0.3-5.6-0.3C568,314.3,569,314.3,571,314.3z"/>
						<path class="st1" d="M594.8,314.6l-1.9,0c1.9-0.3,1-0.2-0.7,0c-2,0-1.9,0.2-2.1,0.3c-0.4,0.1-0.8,0.1-1.2,0.2
							c0.6-0.1,1.2-0.1,1.6-0.2C593.6,314.9,595.5,314.8,594.8,314.6z"/>
						<path class="st1" d="M663.6,267.9c-0.1,0.9-0.3,1.8-0.4,2.5c-0.1,0.8-0.3,1.4-0.4,2.1c-0.2,1.2-0.4,2.1-0.6,2.8
							c-0.4,1.3-0.6,1.7-0.7,1.5c-0.9,3.5-1.2,5-1.4,6.2c-0.2,1.2-0.2,2-1,4.1c1.4-3.9,2-6.3,2.7-8.9
							C662.4,275.6,663.1,272.8,663.6,267.9z"/>
						<path class="st1" d="M659.1,287.1c-0.3,0.9-0.6,1.7-1.1,2.7C658.6,288.7,658.9,287.9,659.1,287.1z"/>
						<polygon class="st1" points="567.2,310 571.5,309.6 569.9,309.6 						"/>
						<path class="st1" d="M664.5,256.9c0,1.4-0.1,3.6-0.3,4.7c0.2,0.2,0.3-1.3,0.3-2.7C664.5,257.5,664.5,256.2,664.5,256.9z"/>
						<path class="st1" d="M653,283.3c-0.2,0.3-0.7,1.5-1.2,2.8c-0.6,1.3-1.2,2.8-1.6,3.6c0.6-1.1,1.2-2.2,1.8-3.2
							C652.5,285.5,652.9,284.5,653,283.3z"/>
						<path class="st1" d="M661.6,236c0.2,1.3,0.1,3.4-0.2,2.6C661.8,240.5,662.8,243.1,661.6,236z"/>
						<path class="st1" d="M656.2,270.9l-0.3,1c-0.2,1.6-0.5,3.2-0.7,4.7C655.5,274.7,655.9,272.8,656.2,270.9z"/>
						<path class="st1" d="M646.6,285.2c-0.8,2.3,0.2,0.7,1.1-0.6c0.4-0.7,0.7-1.2,0.8-1.1c0.1,0.1-0.1,0.9-0.9,2.9
							c0.3-0.6,0.6-1.2,0.8-1.7c0.2-0.5,0.4-0.9,0.5-1.3c0.3-0.7,0.4-1.2,0.5-1.4c0.2-0.6,0-0.4-0.2-0.2c-0.2,0.2-0.4,0.6-0.4,0.3
							c0-0.2,0.2-1,0.8-2.9C648.1,283.9,646.5,285.7,646.6,285.2z"/>
						<path class="st1" d="M649.7,279.3c0.2-0.7,0.4-1.4,0.6-2.2C650,278,649.9,278.7,649.7,279.3z"/>
						<path class="st1" d="M647.4,206.6c0.3,0.7,0.5,1.2,0.7,1.7C647.8,207.7,647.6,207.1,647.4,206.6z"/>
						<path class="st1" d="M652.5,252.8c0.1,1.3,0.3,2.6,0.3,3.9c0.1,1.3,0.2,2.6,0.2,3.9c0-2.6-0.1-7.1-0.4-11
							c-0.1-0.9-0.2-1.9-0.2-2.7c-0.1-0.8-0.2-1.5-0.3-2.1c-0.2-1.2-0.4-1.8-0.5-1.6c0.3,4.2,0.6,9.3,0.9,11.3L652.5,252.8z"/>
						<path class="st1" d="M637.5,161.5l1.9,3l-2-4C637.9,161.7,636.4,159.9,637.5,161.5z"/>
						<path class="st1" d="M637,159.8l0.4,0.8C637.3,160.4,637.2,160.1,637,159.8z"/>
						<path class="st1" d="M651.7,221.1c0.5,2.5,1,4.5,1.5,6.8C653.2,226.9,651.9,220.6,651.7,221.1z"/>
						<path class="st1" d="M623.9,140.5l3.3,4.9c-1.2-1.8-2.3-3.6-3.5-5.4L623.9,140.5z"/>
						<path class="st1" d="M608.7,117.6l-0.5-0.9c-1.1-1.2-2.2-2.4-3.3-3.6l0.6,0.9C606.6,115.2,607.7,116.4,608.7,117.6z"/>
						<path class="st1" d="M618.4,153.7c1.9,3.3,3.9,5.6,3.5,4.6c-1.2-2.1-2.6-4.2-3.8-6.3c0.5,1.9,1.1,1.7,3.2,5.5
							C620.4,156.2,619.4,155,618.4,153.7z"/>
						<path class="st1" d="M431.6,31.6c1.7-0.2,10,0.8,10.4,1.1c-1.1,0-5.6-0.2-2.8,0.2c2.2-0.1,4.4-0.2,6.7-0.2
							c4.3,0.7,2.6,0.8-0.7,0.7c-3.3-0.1-8.3-0.3-10.4-0.4c8.9,0.9,11.6,0.6,21,1.8c-2.8-0.5-4.5-0.9-6-1.2
							c-0.3-0.7,8.5,0.7,14.8,1.6c-4-0.9-1.6-0.7,1.3-0.5c0.5,0.1,0.9,0.1,1.1,0.1c0.3,0,0.7,0,1,0.1l-0.8-0.1
							c0.1-0.1-0.1-0.2-0.6-0.4c-5.3-0.7-9.3-1.6-12.7-2.1c3.3,1.4-11.7-1.2-16-1.2l-5-0.4l-1.9-0.1c-0.4-0.1,0.2-0.2,3-0.2
							c-2.4,0-10.3-0.6-9.5-0.3c-6-0.4-12-0.7-18-1c-0.6-0.1-1.1-0.1-1.5-0.2c-0.6,0-0.7,0.1-0.7,0.1c-26.1-0.9-52.2-0.5-78.1,0.7
							c3.8-0.1,7.2,0,11.2-0.1c-3,0.4-1.3,0.4,0.8,0.3c2.2,0,4.8-0.1,4,0.2c-2.7,0.3-6.6,0.4-8.9,0.3c-0.9,0.3,2.5,0.5,2.1,0.9
							c9.8,0,11.3-1.5,20.9-1.5c-0.4,0.4-3.3,0.8,3,0.6l-1.6,0.1c10.1-0.5,7.9,0.7,14.2-0.3l-0.2,0.5c2.3-0.2,5.7-0.3,9.1-0.3
							c3.4,0,6.9,0,9.4,0l-0.3,0.1c14.1-0.2,7.9,0,23.7,0.4c-2.4,0.1-4.9,0.2-7.3,0.3c5.4,0.5,6.7-0.1,10.6,0.2
							c-0.3,0.1,0.6,0.5-3.1,0.4l9.6,0.1l9.6,0.2C437.8,32.4,432.3,31.8,431.6,31.6z"/>
						<path class="st1" d="M455.8,34.9c1,0.2,2.2,0.3,3.5,0.5C458,35.2,456.9,35.1,455.8,34.9z"/>
						<path class="st1" d="M321,30.1l5.5-0.3C324.8,29.8,323,29.9,321,30.1z"/>
						<path class="st1" d="M483.4,38.3c-3.3-1,2.6,0.1,3.2,0.1l-5.9-1.2l-5.9-1.1c0,0.2-1.2,0.2-1,0.4
							C476.9,37.1,480.2,37.6,483.4,38.3z"/>
						<path class="st1" d="M471.3,35c-0.4,0.1-1.7,0-3.1-0.1l3.3,0.5l3.3,0.6C474.7,35.9,474,35.6,471.3,35z"/>
						<path class="st1" d="M470.7,45.9c-0.7-0.1-1.4-0.2-2.1-0.3l-3.1-0.3C467.3,45.5,469,45.7,470.7,45.9z"/>
						<path class="st1" d="M438.6,40.9c2.5,0.5,7.2,0.8,8.7,0.9C441.9,41.2,444.3,41.3,438.6,40.9z"/>
						<path class="st1" d="M444.9,44.8c-1.7-0.1-3.5-0.3-5.2-0.4l0.5,0.1C441.8,44.6,443.3,44.7,444.9,44.8z"/>
						<path class="st1" d="M280.8,34.8c-0.9,0.1-1.7,0.2-2.6,0.2C279.4,34.9,280.1,34.9,280.8,34.8z"/>
						<path class="st1" d="M326,31.4c-6.3,0-4.3-0.2-1.1-0.5c3.1-0.3,7.4-0.6,5.4-0.9c-2.3,0.2-4.6,0.4-6.9,0.6l0.6-0.2l-8.4,0.5
							c1.7,0.3,3,0.2,2.7,0.6c-11.2,0.5-3.5-0.2-11.8-0.2L294,32l1-0.2c-1.1,0.1-1.5,0.2-1.9,0.2c-14,1.1-28,2.4-42,3.8
							c-7.6,1,4.3,0.2-1.3,1.3c8.8-0.9,22-1.6,22.7-2.4c-0.3,0.1-0.9,0.4,0.9,0.3l5.1-1l-4.9,0.2c5.1-1,21.8-2.2,24.8-2
							c-9.5,0.8-4.7,1.2-17.9,1.8c0.6,0.1,3,0.3,0.1,0.6C296.2,33.4,310,32.8,326,31.4z"/>
						<path class="st1" d="M171.6,46.7l0.1-0.1C171.5,46.6,171.4,46.7,171.6,46.7z"/>
						<path class="st1" d="M176.8,46l7.4-1.7L172.5,46l-0.8,0.6c1-0.3,5.1-1.1,6.7-1.1L176.8,46z"/>
						<path class="st1" d="M192.8,42.8c-6,1-5.6,1.5-2.3,1.4c-5.5,1-3-0.3-6.7,0.9c0.2,0.4,7-0.7,8.5-1L192.8,42.8z"/>
						<polygon class="st1" points="237.3,37.9 235.6,38.4 239.8,38 						"/>
						<path class="st1" d="M235.6,38.4l-4.2,0.4c0.3,0.1,0.6,0.3,1.3,0.3L235.6,38.4z"/>
						<path class="st1" d="M220.6,39.8c-1.8,0.2-3.7,0.3-6.1,0.6L220.6,39.8z"/>
						<path class="st1" d="M225.3,39.4l-0.1-0.1l-4.6,0.4C222.3,39.6,223.8,39.5,225.3,39.4z"/>
						<path class="st1" d="M231.5,38.7c-0.7-0.3-1.6-0.7-7.5,0.1l1.3,0.5L231.5,38.7z"/>
						<polygon class="st1" points="407.1,41.4 402.3,41.5 402.8,41.6 407.6,41.5 						"/>
						<path class="st1" d="M379.8,40.4c-1.2,0.1-2.1,0.1-2.9,0.2C378.1,40.6,379.1,40.5,379.8,40.4z"/>
						<path class="st1" d="M359.5,43.3c-5.6-0.3,7.7-0.7-2.6-0.7c-0.9-0.4,3.9-1,8.8-0.8c-0.4,0.4-4.7,0.3-1.7,0.6
							c3.2-0.5,4.4-0.2,3.3-0.7c5.4-0.4,6-0.7,9.7-1.1c-6.6,0.2-20.3-0.2-28.7,0.7c-4.6,0.8-1.8,1.6-1.8,2.6
							C347.2,44.1,359.1,44,359.5,43.3z"/>
						<path class="st1" d="M368.2,44.2c2.6,0,3.4,0,4.9-0.1C372.8,43.8,370.3,44.1,368.2,44.2z"/>
						<path class="st1" d="M308.7,39.1c-0.5,0.2-5.2,0.6-4.1,0.8l7.1-0.6C310,39.4,309.4,39.2,308.7,39.1z"/>
						<path class="st1" d="M314.8,39l-3.1,0.3C312.5,39.3,313.4,39.2,314.8,39z"/>
						<path class="st1" d="M308.4,39c0.1,0,0.2,0,0.3,0.1C308.8,39.1,308.8,39,308.4,39z"/>
						<path class="st1" d="M203.4,41.6c0.1-0.3-3.1,0.3-4.6,0.5C200,42,201.8,41.8,203.4,41.6z"/>
						<path class="st1" d="M85.3,59.7L82.5,60C83.5,59.9,84,59.9,85.3,59.7z"/>
						<path class="st1" d="M43.9,73.8c-0.1,0.1-0.3,0.1-0.5,0.2C43.6,73.9,43.8,73.8,43.9,73.8z"/>
						<path class="st1" d="M43.3,74c-1.9,0.5-7.7,1.1-9.8,1.8l0.3-0.1l-3.9,0.8C33.6,75.8,41.2,74.6,43.3,74z"/>
					</g>
				</g>
			</g>
		</g>
	</g>
</g>
<g>
	<g>
		<g>
			<g>
				<g>
					<g>
						<path class="st1" d="M464,417.1c-0.5-0.3-0.7-0.8-0.4-0.8c-1.1-0.4-0.9-0.7-1.4-0.2c-0.8-0.1-1.2-0.9-0.3-0.7l-1-0.3l-1-0.3
							c0.4,0.2,0.7,0.4,1.1,0.7c-0.6,0.4-1.7-1.1-2.3-0.6l2,0.9l-0.2,0.1c0.5,0.1,1.3,0.6,1.6,0.9c-0.1,0.1-0.2,0.2-0.5,0
							c0.6,0.3,0.9,0.5,1.1,0.6c0.2,0,0.4,0,0.5-0.1c0.3-0.2,0.5-0.4,1.5,0.2C464.3,417.4,464.2,417.3,464,417.1z"/>
						<path class="st1" d="M464.7,419.7l1.1,0.1c0.3,0.4,0.6,0.8,0.8,1.3c0.2-0.2,1.1,0.6,0.8-0.1c-0.1-0.1-0.4-0.3-0.5-0.5
							c0.5-0.2,1.5,1.5,1.7,0.8c-0.9-0.9-0.9-1.2-1.7-1.5c-0.4-0.4-0.7-0.8-0.9-1.2c-0.2-0.4-0.5-0.6-0.6-0.9
							c-0.3-0.2-0.6,0.1-0.9-0.2c0.1,0.1,0.1,0.1,0.2,0.2l-0.5,0.7c0.4,0.1,0.6,0.4,0.9,0.6c-0.7-0.1-1.3-0.3-2-0.4
							c-0.1,1,1.4,1.7,1.6,2.4C464.7,420,465.4,421.3,464.7,419.7z"/>
						<path class="st1" d="M464.5,417.6C464.5,417.5,464.5,417.5,464.5,417.6C464.5,417.5,464.5,417.5,464.5,417.6z"/>
						<path class="st1" d="M410.9,529.5c-0.3-0.3-0.5-0.3-0.6-0.3l1.4,1.8l0.5,0.6c0.2,0.2,0.3,0.5,0.5,0.7c0.3,0.4,0.6,0.9,0.9,1.4
							c0-0.2-0.2-0.8-0.3-1.2c-0.1-0.4-0.1-0.6,0.3-0.1c-0.1-0.3-0.4-0.8-0.7-1.1c-0.2-0.2-0.4-0.4-0.5-0.5
							c-0.1-0.1-0.3-0.1-0.3-0.1l0.5,0.1c-1-0.6-0.8-1.7-0.2-1.3l-0.1-0.1l-1.6-0.7c-0.5-0.2-1.1-0.4-1.6-0.5
							C409.7,529.1,410.1,528.4,410.9,529.5z"/>
						<path class="st1" d="M317.8,506.1c0.6-0.1,0.7-0.2,0.6-0.3C318.2,505.9,317.9,505.9,317.8,506.1z"/>
						<path class="st1" d="M408.3,528l-1-0.3C407.6,527.9,408,528,408.3,528z"/>
						<path class="st1" d="M418.1,527.4C418.2,527.4,418.2,527.4,418.1,527.4l-0.2,0l0,0C418,527.4,418.1,527.4,418.1,527.4z"/>
						<path class="st1" d="M390.2,517.9c-0.1,0-0.2-0.1-0.3-0.1C390,517.9,390.1,517.9,390.2,517.9z"/>
						<path class="st1" d="M420.7,525.4c0,0.3,0,0.6-0.1,0.9c0-0.4-0.1-0.2,0-0.7c0,0.1-0.1,0.3,0,0.5l0-0.1
							c-0.1,0.8-0.1,1.1-0.1,1.4c0,0.4-0.1,0.9-0.2,1c0,0,0,0.1,0,0.1c0,0.1,0,0.1,0,0.2c0,0.2,0,0.3,0.1,0.4c0,0,0.1-0.1,0.1-0.2
							c0.1-0.2,0.1-0.6,0.2-0.9c0-0.1,0.1-0.2,0.1-0.3c0.1-0.6,0.1-1.2,0.1-1.7L420.7,525.4z"/>
						<path class="st1" d="M348.3,501.3L348.3,501.3C348.3,501.3,348.3,501.3,348.3,501.3z"/>
						<path class="st1" d="M348.5,501l-0.1,0.2C348.5,501.1,348.9,501.1,348.5,501z"/>
						<path class="st1" d="M408.8,528c-0.1,0.1-0.3,0.1-0.6,0.1l0.8,0.2C409,528.2,408.9,528.1,408.8,528z"/>
						<path class="st1" d="M411.1,528.1l1.2,1.4l0.7,0.3C412.4,529.3,411.8,528.7,411.1,528.1z"/>
						<path class="st1" d="M392.5,519.4c-1.6-0.8-1.3-0.8-0.8-0.9c0.5,0,1.3,0.1,0.6-0.4c-0.9-0.4-1.4-0.1-2-0.3
							c2.7,0.9-0.9,1,1.7,2c-0.6,0.4-2.1-0.2-2.9-0.7c-0.7-1.1,1.1-0.1,1.6-0.6c-1.1-0.4-1-0.2-1.5,0c-1.5-0.9-3.7-0.6-4.4-1.9
							c-1.3-0.3-1.3,0-2.1,0.1c-0.4,0.6,1.7,1,1.9,1.7c-0.1-0.1-0.2-0.3-0.1-0.4l1,0.5c-0.9-0.6,0.4-0.6,0.9-0.5
							c0.4,0.1,1.2,0.4,1,0.5c-0.2,0-0.4-0.1-0.6-0.1c0.6,0.5,1.8,0.2,2.4,0.9c0,0.2-0.3,0.1-0.4,0.2c0.5,0,1,0,1.5,0.2
							c0.5,0.1,1.1,0.3,1.7,0.4l-1,0.3c0.7-0.1,1.5,0.2,2.4,0.6c0.4,0.2,0.9,0.5,1.3,0.8c0.4,0.3,0.7,0.6,1,0.9
							c-0.1-0.2-0.3-0.5-0.1-0.5c0.9,0.4,1.3,1.2,0.7,1.3c0.6,0,1.3,0.6,2,1.2c0.7,0.6,1.4,1.3,2.2,1.4c1.2,0.1,2.3,0.3,3.5,0.5
							l1.8,0.3c0.6,0.1,1.1,0.3,1.7,0.5c-0.2-0.1-0.5-0.2-0.7-0.4c0.1-0.9-0.2-1.1,0.9-0.7c-0.9-0.5-1,0.2-2.2-0.8
							c0.7,0.1,1.3-0.3,0.2-1.3c-0.8-0.5-1.5-0.9-2.4-1.1c-0.8-0.3-1.6-0.4-2.4-0.6c-1.5-0.4-3.1-0.5-4.7-1c0.1-0.2-0.4-0.7-1.1-1.1
							c-0.7-0.4-1.6-0.9-2.1-1.2c0.7-0.2,1.6,0.1,2.5,0.4c-0.5-0.3-1.5-0.8-2.2-1.2L392.5,519.4z"/>
						<path class="st1" d="M400.4,522.2c0-0.1-0.1-0.2-0.2-0.2C400.3,522.1,400.3,522.1,400.4,522.2z"/>
						<path class="st1" d="M395.6,520C395.6,520,395.7,520,395.6,520l-0.3-0.2C395.5,519.9,395.6,520,395.6,520z"/>
						<path class="st1" d="M409,526.6c0.3,0.1,0.4,0.2,0.6,0.2c-0.1-0.1-0.3-0.2-0.4-0.3C409.1,526.5,409,526.5,409,526.6z"/>
						<path class="st1" d="M408.9,527.7l-0.2,0.1c0,0.1,0.1,0.1,0.1,0.2C408.9,527.9,409,527.8,408.9,527.7z"/>
						<path class="st1" d="M381,510.2l-0.4,0C380.9,510.3,381,510.3,381,510.2z"/>
						<path class="st1" d="M389.2,517c1.2,0.5,0.4-0.6,2.1,0.1l-0.5-0.3c1.3,0.2,3.2,1.4,4.6,2.1c-0.3,0.2,0.6,0.7,0.3,1
							c0.9,0.4,1.8,0.9,2.5,0.8c0.4,0.5,1.5,0.6,2.1,1.2c-0.1-0.4,1.5-0.1-0.3-1c0.2,0.1,0.1-0.1,0.3,0c-0.9-1-1.7-0.7-2.6-1.3
							c-0.4-0.6,1.1,0.2,0.7-0.2c-1.3-0.6-3.7-2.4-4-1.5c-0.9-0.4-0.9-0.7-1.1-1c-1.9,0.3-5.2-2.9-5.8-1.5c0.6,0.1,1.4,0.5,2.3,0.6
							L389.2,517z"/>
						<path class="st1" d="M407.5,525.1c-0.1-0.1-0.1-0.1-0.2-0.2C407.4,525,407.4,525,407.5,525.1z"/>
						<path class="st1" d="M417.1,547.6c-0.2,0.2-0.5,0.4-0.7,0.6c-0.7-1.3-1.3-2.4-1.8-3.5c-0.5-1.1-1-2-1.5-3
							c-0.9-1.9-1.8-3.7-3.1-6.1c-0.1-0.4,0.3,0,0.5,0.3c-0.2-0.4-0.5-0.8-0.8-1.2c-0.1-0.2-0.3-0.4-0.5-0.6
							c-0.2-0.2-0.3-0.4-0.5-0.6c-0.3-0.4-0.6-0.8-0.9-1.2c-0.6-0.8-1.3-1.4-1.9-1.7c-0.4-0.4-1.1-1.6-0.6-1.4
							c-0.2-0.1-0.5-0.3-0.7-0.5c0.2-0.3,0.5,0.4,0.7,0.2c-0.1-0.2-0.2-0.3-0.3-0.3c0.5,0.1,0.5-1.1,1.8,0.3c0,1.1-1-0.9-1.3,0
							c0.4,0.5,0.6,0.2,0.7,0.1c0.5,0.6,0.4,0.7,0.2,0.8c0.4,0.1,0.8,1,1.4,1.1c1,1.2-0.5,0.3,0.1,1.1l1-0.1l0.5,0.7
							c0,0.1,0.3,0.4,0.4,0.6c0.2,0.2,0.3,0.5,0.5,0.7c0.7,0.9,1.1,1.4,1.3,1.5c0.2,0.1,0.3-0.1,0.4-0.3c0.2-0.4,0.5-0.7,1.8,1.2
							c-0.3,0-0.3,0.5-0.1,1.5c0.2,1,0.7,2.3,1.2,3.6c-0.4-0.7-1-1.4-1.6-2.4c-0.6-0.9-1.3-2-1.6-3c0.5,1.6,0,0.7-0.6-0.3
							c-0.3-0.5-0.6-1-0.9-1.3c-0.2-0.3-0.4-0.3-0.3,0.1c0.3,0.2,0.5,0.5,0.8,0.9c0.3,0.4,0.5,0.8,0.8,1.3c0.5,0.9,1,1.9,1.4,2.9
							l-0.3-0.5c0.5,1,1,1.6,1.5,2.2c0.3,0.3,0.5,0.7,0.8,1.1c0.3,0.4,0.5,1,0.8,1.7c0.6,1.2,0.4,1.3,0.2,1.4
							C416.6,546.6,417.1,547.3,417.1,547.6z M415.7,545.2l-0.8-1.8C415,543.9,415.3,544.6,415.7,545.2z"/>
						<path class="st1" d="M470.2,430c0-0.1,0-0.2,0-0.3C470.1,429.8,470.1,429.9,470.2,430z"/>
						<path class="st1" d="M437.3,508.6l0.4-0.5C437.5,508.3,437.4,508.5,437.3,508.6z"/>
						<path class="st1" d="M442.2,496.3l0.3-0.8C442.3,495.8,442.3,496,442.2,496.3z"/>
						<path class="st1" d="M470.6,436.2L470.6,436.2c0,0.1,0,0.1,0,0.2L470.6,436.2z"/>
						<path class="st1" d="M457,474.9c0.1-0.1,0.2-0.2,0.4-0.3C457.3,474.6,457.2,474.7,457,474.9z"/>
						<path class="st1" d="M442.2,496.4C442.2,496.4,442.2,496.4,442.2,496.4c0-0.1,0-0.1,0.1-0.1L442.2,496.4z"/>
						<path class="st1" d="M432,511.9c0,0.1-0.1,0.2-0.1,0.4C431.9,512.1,431.9,512,432,511.9z"/>
						<path class="st1" d="M434.4,512.6c-0.1,0.1-0.1,0.2-0.1,0.3L434.4,512.6z"/>
						<path class="st1" d="M422,526.5l-0.1,0.3C422,526.7,422,526.6,422,526.5z"/>
						<path class="st1" d="M432.7,514c0,0.1,0,0.1,0,0.2C432.8,514,432.8,514,432.7,514z"/>
						<path class="st1" d="M471.3,424.9C471.3,424.9,471.3,425,471.3,424.9l0.1,0L471.3,424.9z"/>
						<path class="st1" d="M469.5,423.8c-0.1-0.2-0.2-0.3-0.3-0.5C469.2,423.5,469.3,423.7,469.5,423.8z"/>
						<path class="st1" d="M463.1,465.4c0.2-0.1,0.5-0.5,0.6-0.3C463.6,464.7,463.2,464.6,463.1,465.4z"/>
						<path class="st1" d="M477.6,427.2c-0.1-0.1-0.3-0.3-0.4-0.4C477.4,427.1,477.5,427.3,477.6,427.2z"/>
						<path class="st1" d="M477.2,426.8c-0.1-0.1-0.2-0.3-0.3-0.4C477,426.5,477.1,426.6,477.2,426.8z"/>
						<path class="st1" d="M467.3,473.2c-0.1,0-0.2,0.1-0.2,0.2C467.2,473.4,467.2,473.3,467.3,473.2z"/>
						<path class="st1" d="M469,422.8c-0.3,0-2-2-0.9-0.1c-0.6,0.3-1-1-1.5-1.3c0.1,0.4-0.4,0.1-0.5,0.3c0.2,0.2,0.6,0.3,0.8,0.7
							c-0.1,0.3-0.7-0.1-0.9-0.6c0.1,0.7-0.9-0.3-0.5,0.5c1.3,1.4,2.1,2.4,3.5,3.4c-0.3-0.5-0.6-1-0.9-1.5c-0.3-0.5-0.6-1-0.7-1.4
							l0.7,0c0.1,0.6,0.3,1,0.5,1.4c0.2,0.4,0.5,0.7,0.7,1.2c-0.1-0.4-0.2-0.8-0.4-1.2c-0.1-0.4-0.3-0.8-0.4-1.1
							c-0.2-1.2,0.3-0.6,0.8,0.1C469,423.1,469,422.9,469,422.8z"/>
						<path class="st1" d="M474.1,422.3L474.1,422.3c0-0.1-0.1-0.1-0.1-0.1L474.1,422.3z"/>
						<path class="st1" d="M429,535.4l-0.1,0.5C429,535.5,429,535.4,429,535.4z"/>
						<path class="st1" d="M472.4,425L472.4,425C472.4,425,472.4,425,472.4,425z"/>
						<path class="st1" d="M433.6,529.5C433.6,529.5,433.6,529.6,433.6,529.5C433.6,529.5,433.6,529.5,433.6,529.5z"/>
						<path class="st1" d="M425.2,521.1C425.2,521.1,425.2,521.1,425.2,521.1C425.1,521.2,425.2,521.2,425.2,521.1z"/>
						<path class="st1" d="M433.6,529.5C433.6,529.5,433.6,529.5,433.6,529.5C433.6,529.5,433.6,529.5,433.6,529.5z"/>
						<path class="st1" d="M449.3,503.8c0,0-0.1,0-0.3,0.1C449.1,504,449.2,504,449.3,503.8z"/>
						<path class="st1" d="M445.4,508.3c0,0-0.1,0-0.1,0.1L445.4,508.3z"/>
						<path class="st1" d="M460.3,465.7c-0.1,0.3-0.2,0.4-0.2,0.6C460.2,466.1,460.2,465.9,460.3,465.7z"/>
						<path class="st1" d="M433.6,529.6c0,0.1,0,0.2,0,0.4C433.6,529.8,433.6,529.6,433.6,529.6z"/>
						<path class="st1" d="M451.9,494.7c0,0.1,0,0.1,0,0.2l0.1-0.1L451.9,494.7z"/>
						<path class="st1" d="M453.8,492.3c0,0.1,0,0.2,0,0.3c0.4-1.1,1.6-2.7,1.2-3.2c-0.2,0.3-1.5,1.8-1.6,1.4
							c-0.3,0.7-1.2,1.5-1.3,1.9c0.9-0.9,0.5,0.1,0.2,1c-0.5,0.6-0.3-0.4-0.8,0.1l-0.9,1.5l0.9-1.3l0.2,0.7c0-0.1,0-0.1,0-0.2
							C453.1,492.2,452.7,494.8,453.8,492.3z"/>
						<path class="st1" d="M453.9,492.6c-0.1,0.2-0.1,0.3-0.1,0.4C453.9,492.8,453.9,492.7,453.9,492.6z"/>
						<path class="st1" d="M460.1,483.8c0-0.1,0.1-0.3,0.1-0.5C460.2,483.4,460.1,483.6,460.1,483.8z"/>
						<path class="st1" d="M413.7,530.9c0,0.1,0.1,0.5,0.4,0.9c0.2,0.4,0.4,0.8,0.6,0.6c-0.2-0.5-0.5-1-0.8-1.4L413.7,530.9z"/>
						<path class="st1" d="M470,456.1c-0.1,0.2-0.1,0.3-0.2,0.5c0,0,0,0.1,0,0.1C469.9,456.6,469.9,456.3,470,456.1z"/>
						<path class="st1" d="M453.6,490.3c-0.1,0.3-0.1,0.4-0.1,0.5C453.6,490.6,453.6,490.5,453.6,490.3z"/>
						<path class="st1" d="M471,456.4c0.2-0.2,0.5-0.4,0.6-0.4c0.1-0.4,0-0.8,0.1-1.2C471.6,455.2,471.3,455.8,471,456.4z"/>
						<path class="st1" d="M471.7,454.7L471.7,454.7C471.7,454.7,471.7,454.7,471.7,454.7z"/>
						<path class="st1" d="M413.3,530c-0.1-0.1-0.2-0.2-0.3-0.3l0.2,0.1l-0.5-0.9c-0.1-0.1-0.2-0.2-0.3-0.3c0.1,0,0.1,0.1,0.2,0.1
							l-0.2-0.3c-0.8-0.4-2.5-1.6-3.1-1.9c-0.7-0.4-1.4-1-1.8-1.5c0.4,0.4,0.9,0.8,1,0.5c-0.3-0.5-0.4-1-0.7-1.4
							c-0.3-0.4-0.8-0.9-1.7-1.3l0.9,0.7l-2.5-0.9c-0.4-0.9,1.2,0.5,1.7,0.4c-1.7-1-2.4-2.9-3.6-2.8c0.2-0.5,0.5-1.3-0.6-2
							c0.2,0.5,0,0.5-0.2,0.4c-0.2,0-0.5-0.1-0.3,0.4c-0.5,0-1.1-0.9-1.4-0.6l0.2-0.1c-1.5-1.8-2.7-1.2-3.8-1.3
							c-1.2-0.5-2.1-1-2.8-1.5c-0.8-0.5-1.6-0.8-2.6-1.2c0.1-0.3-0.1-1.4-1-1.7c-0.5,0.2-2.5-0.3-2.9,0.2c1.4,0.8,1.4,0,2.3,0.2
							c0.5,0.9-0.2,0.6,0.7,1.3c-0.7-0.6-3.7-1.1-4.4-2l0.3,0c-1.3-0.9-1.1-2.3-3.8-2.2l-1.2,0c0.1,0,0.1-0.1,0.1-0.1
							c-1.9-0.6-1.2-1.1-3.4-1.2c0.2,0,0.1-0.1,0.3-0.1c-1.1-0.6-2.5-0.3-3.4-0.4c-0.5-0.6,0.2-0.4,0.7-0.7c-2.1-0.7-4.6-0.4-6,0
							l-1.3-0.5c0.9,0,2-0.3,1.8-0.7c-0.8,0-0.7,0.2-1.7-0.1c0.2-0.3,0.7-0.5,1.3-0.7c-2.2-0.9-0.7,1-2.1-0.2
							c-0.7-0.1-1.2,0.3-1.3,0.6l-1.2-0.7c-0.2,0.4-1.8,0.2-2.8,0.2c-0.2,0.2,0.8,0.6,1.2,0.5c-0.1,0.3-1.2,0.4-2,0.3
							c-0.1-1-4.7-0.4-3.7-1.4c-3.2,0-7.8-0.2-9.9,0.1c-0.7-0.3-2.1-0.4-1.2-0.8c-2.6-0.1-4,0.9-6.5,0.6c-0.2-0.1,1.2,0,1.1-0.3
							c-1.7,0.4-3.1-0.4-5.7-0.1c0.4,0,0.6-0.2,0.6-0.3c0,0.2-1.1,0.4-1.7,0.5c-0.4-0.1,0.5-0.1,0.3-0.2c-5.1-0.4-8.9,1.2-13.8,1.5
							c1.4-0.1,1.9-0.8,1.9-1.1l-1.4,0.1c-0.5,0.4-1.6,0.4-2.4,0.8c-0.1-0.1-0.6-0.2-0.1-0.4c-2.8-0.4-4.2,1.6-7.5,1.7
							c1.2-0.6,2.6-1.2,3.9-1.8l-1.1-0.3l1.7-0.8c-1.1-0.2-2,0.7-2.2,0.2c0.2-0.2,0.8-0.2,0.8-0.5c-1.1-0.1-1.1,0.3-1.9,0.5
							c1.9-1.3,6-1.7,8.2-2.1c0.3-0.1-0.3,0.3-0.3,0.4c0.9-0.1,1.5,0.1,2.6-0.1c0.7-0.5-0.6-0.3-1.1-0.3c0-0.4,0.3-0.4,0.9-0.5
							c0.2,0.5,3.4-0.1,4.2,0.5c3.3-0.3-0.6-1.3,2.6-1.2l1,0.5c1.9-0.5,4.3-0.9,6.4-0.9l-0.4,0c-0.3,0.2,0.2,0.4,0.4,0.5
							c1.6,0.2,3.1-0.5,4,0.1c0.9-0.3,2.1-0.5,3.4-0.7c1.3-0.2,2.6-0.3,3.6-0.4c0.5,0.8-2.8,0.5-3.7,1l1.9,0.1
							c-1.2,0-1.7,0.2-2.4,0.6c1.7,0.2,2.2-0.4,3.8-0.6c-0.1,0.2,0.1,0.3,0.8,0.4l0.2-0.5c0,0,0.1,0.1,0.3,0.1l2.8-0.1
							c-0.6-0.2-0.6-0.7-1.3-0.7c0.2,0.3-0.4,0.3-1.1,0.3c0.7-0.3-0.7-0.3-0.7-0.6c1.5,0.1,3.3,0.1,4.3,0.1l0.3,0.5
							c1.4,0.2,2.9,0.1,3.8,0.3l-0.3,0.2c1.7,0.3,3.3,0.2,4.8,0.8c1.6-0.4,3.5-0.5,4.8-0.8c0.8-0.5,4.3,1.5,6.1,1
							c0.1,0.1-1.2,0.2-1.9,0.3c1.1,0.3,2.1-0.3,2.4,0.4c-2.5-0.7,0,0.5-1.1,0.5c1.2,0.2,2.4,0.4,3,0.3c-1.9-0.4,0.9-0.7-1.1-0.8
							c1.6-0.2,3.7,0,5.4,0.7c-0.1,0.3,0.1,0.4,0.7,0.7l0.6-0.2c0.8,0.3-1.7,0-0.1,0.6c1.9-0.2,5,1.9,6.1,1c1.1,0.9-2.6-0.3-0.9,0.9
							c-1.3,0.1-2.7-0.9-3.2-0.4c1.1,0.2,0.3,0.6,1,0.8l1.3,0l-0.3-0.1c1.1,0.1,2.5,0.4,3.9,0.9c1.4,0.5,2.8,1,4.1,1.6
							c1.2,0.2,2.3,0.3,3.4,0.4c1.1,0.2,2.2,0.6,3.5,1.3c-0.9-0.1,2,1.4,0,1.1c1,0.9,2.3,1.3,2.5,1.1c-1-0.7-0.3-0.3-1.1-0.9
							c0.7,0.1,2,0.9,2.5,1.4c-0.2-0.2-0.2-0.1-0.3,0c1.1,0.9,0.7,0.1,1.7,0.5c0,0.5,1.8,1.4,2.4,2.2l1.5,0.3
							c-0.9-0.1,1,0.9,0.9,1.4c0.9,0.4,1.9,0.6,3,1.7c-0.6-0.3,0.8,1.1,0.5,1.5c1.5,2.1,3.9,2.3,4.9,4.7c-0.1,0-0.6-0.2-0.3,0.4
							c0.1,0.1,0.2,0.2,0.3,0.3c0.1,0.1,0.1,0.1,0.2,0.2l0.1,0.1c0.1,0.1,0.2,0.2,0.3,0.3l0,0l0,0c0.1,0.1,0.2,0.1,0.2,0
							c0.5,0,0.8-0.2,1.3-0.1c0.2-0.6-0.1-0.7-0.3-0.7c-0.1,0.1-0.3,0.2-0.4,0.3c0.2-0.4,0.1-0.4,0-0.5c-0.1,0-0.2,0-0.2,0
							c0,0,0,0,0,0c0,0,0,0,0,0c0,0,0-0.1,0-0.1c0,0,0.1,0,0.1,0l0.1,0c0,0,0.1,0,0.1-0.1c0.1,0,0.2,0,0.2,0c0.2,0,0.3,0.1,0.4,0.1
							c0.2,0.1,0.4,0.3,0.6,0.1c0.1-0.5,0.1-0.8,0.1-1c0-0.1,0-0.2,0-0.2c0,0,0,0,0-0.1c0,0,0,0,0,0c-0.1,0-0.2,0.1-0.2,0.2l0-0.1
							c0,0,0,0,0,0c-0.1,0-0.2,0.1-0.2,0.1c0,0.1-0.1,0.2-0.1,0.3c0,0-0.1-0.1,0-0.1c0,0,0,0.1,0,0l-0.3-0.3
							c-0.4-0.4-0.7-0.9-1.1-1.3c0.8,1.1,0.6,1.9,0.2,1.2c-0.5-1.5-1.2-1-1.9-1.9c0.4,0.5,0.9,1.2,0.3,0.9c-0.4-1.1-0.9-1.6-1.3-2.1
							c-0.4-0.5-0.8-1-1.3-2c-0.2,0.4-0.6-0.1-1.1-0.5c-0.5-0.5-1.1-1-1.4-0.8l0.6,0.7l-1.8-0.9c-0.9-1.7,1.6,0.5-0.1-1.6
							c-0.9-0.9-1.6-1-2.1-1.2c-0.6-0.2-1.1-0.3-1.9-0.8c0.8,0,2.3,0.6,3.6,1.6c-0.2-0.3-0.4-0.5-0.6-0.8c0.6,0,2.3,1.6,3.1,2.4
							c-1.8-0.8,0.5,0.7,0.9,1.6c0.4-0.2-0.5-1,0.8-0.3c-1-0.9-1.2-1-2.3-2.2c2.6,2.5,3.6,1,5.6,3.7c-1.2-1-0.1,0.8-0.2,1.1
							c0.6,0.4,1.5,1.5,2,1.9l0.2-0.8c0.7,0.7,0.9,1.4,1.1,2c-0.3,0-0.3,0.3-0.1,0.1c0.3-0.3,0.1-0.2,0.1-0.2c0.2-0.1,0,0-0.1,0.3
							c-0.1,0.3-0.3,0.8-0.2,1.3c0.1-0.2,0.1-0.4,0.4-1.2c-0.1,0.5-0.2,0.9-0.3,1.2c0,0.4,0.2,0.1,0.2-0.1c0-0.5,0.1-0.8,0.2-1.2
							c0,0,0-0.1,0-0.1c0,0.1,0,0.4-0.1,0.6c0,0.1,0,0.2-0.1,0.3c0,0.1,0,0.3,0,0.4c0,0.2,0,0.3,0,0.4c0,0,0-0.1,0.1-0.5
							c0,0.2,0,0.4-0.1,0.7c0,0.3-0.1,0.4-0.1,0.6c-0.1,0.3-0.2,0.4-0.3,0.3l0.1,0.3c-0.1,0.2-0.1,0.1-0.2-0.2
							c0,0.7-0.1,1.2-0.2,1.6c0-0.1,0-0.1,0-0.2c-0.1-0.4-0.2-0.4-0.2,0c-0.3,0.5,0.1,0.8,0.1,1.4l0.2,0.3c0.1-0.1,0.1-0.2,0.2-0.3
							c0.1-0.1,0.1-0.2,0.2-0.4c0.1-0.2,0.1-0.5,0.2-0.8c0.1-0.5,0.2-1,0.3-1.5c0.2-0.6,0.3-0.1,0.6,0l-0.1-0.7
							c0.2-0.2,0.5-0.3,0.6,0.6c-0.1-0.2-0.1-0.1-0.2,0c0,0.1,0,0.2,0,0.2c0,0,0,0.1,0,0.1c0.2-0.6,0.4-0.9,0.4-0.9
							c0,0.6,0,0.9,0.2,1.1c0.2,0.2,0.4,0.3,0.6,0.8l0.6-1.2c-0.6,0.3-0.3-0.3-0.2-0.6c0.1,0.1,0.2,0.1,0.3,0c0,0,0.1-0.1,0.1-0.1
							c0-0.1,0.1-0.2,0.1-0.2c0.3-0.5,0.6-1,0.9-1.3l0,0.1c0.6-0.5,1.4-1.6,1.8-2.4c-0.2-0.1-0.1-1.5-0.1-2.3
							c-1.1,1.2-0.7,0.3-1,0.2c0.1-0.1,0.3-0.4,0.3-0.4c0-0.3-0.3,0.1-0.5,0.1c-0.8,1.5-1.9,2.9-1.8,3.9c0.6-0.2,0.3-0.9,0.8-1.2
							c-0.1,0.5-0.3,0.9-0.6,1.4c-0.2,0.2-0.3,0.5-0.5,0.7c-0.2,0.2-0.3,0.4-0.5,0.7c-0.1-0.1-0.3-0.1-0.4-0.2c0,0.1,0,0.3-0.1,0.5
							c0-0.3-0.4-0.6-0.2-0.9c-0.3-0.2-0.1,0.3-0.3,0.3c0.1,0.2,0.2,0.4,0.2,0.6c-0.2-0.3-0.4-0.1-0.5-0.7c0-0.2,0-0.4-0.1-0.6
							c-0.1-0.1-0.2-0.2-0.3-0.3c0-0.1,0-0.1,0-0.1c0.1,0.1,0.1,0.1,0.2,0.2c0,0,0,0,0-0.1c0-0.1,0.2-0.2,0.2-0.3
							c0.2-0.2,0.3-0.3,0.4-0.4c0.2-0.2,0.4-0.2,0.6-0.2c0.3,0,0.6-0.1,1.3-1.5c0.1-1.2,0.6-2,1.9-3.5c-0.7,1.2,0.3,0.4,0.3,1
							c1.1-1,0.9-1.7,1.1-2.4c0.5-0.1,0.9-0.1,0.1,0.9c0.5,0.6,0.9-1.4,1.6-1c2.4-3.4,0-4.1,3.6-7.5l0.1,0.3c1.5-2.7,2.8-4,4.2-6.5
							l1.9-1.4c-0.2,0.5-0.5,1.9,0.2,1.6c-1.3,0.5-1.7,1.6-2.7,2.3c0.1,0.2,0.5-0.1,0.7-0.2c-0.4,0.6-0.9,0.7-1.3,1.5
							c0.2,0.1,0.9-0.7,0.5,0l-1.1,0.8c-0.8,1.5,0.5,1.4-0.9,2.9c-0.1-0.6-0.2-1.5,0.2-2.2c-0.6,0.7,0.5-1.1-0.2-0.6
							c-0.2,1.4-1,1.7-1.7,3.3c0-0.2,0-0.3,0.2-0.7l-1.7,1.9c0.7-0.3-0.9,1.9-0.3,2.1c1.8-2.1,1.1-1.6,3.1-3.9
							c-0.4,0.8-0.6,2-0.5,2.8c0,0-0.1,0-0.1,0.1c0.2,0.7,0.6,0.4,1.3,1c0.3-1.5,1.3-2,1.9-3.6c-0.2-0.6-1.1,0.4-1.5,1.2l0.6-1.4
							l0,0.4l2.3-3c-0.4,0.6-0.3,1-0.3,1.4c0.3-0.4,0.7-0.7,1.1-1c-0.5-0.2-0.7-0.5-0.4-0.8c1.5-1.9,2.6-2.8,3.6-3.2
							c0-0.1,0.1-0.2,0.1-0.3c-0.6,0,0.2-1.9,0.2-2.8c0.4,0.3,0.9-0.9,1.6-1.3c-0.3-0.6-1.3-0.7-2.1-0.3c-0.4,1.7,0,1.1,0.2,2.1
							l-1,2.5l-0.1-0.8c-0.9,1-1.1,2.4-1.6,1.9c0-0.8,0.9-1.6,0.9-2.4l-0.7,0.6c0.3-1.6,0.9-0.3,1.6-2.1c-0.8,0.3,0.1-0.2,0.2-1
							c-0.7,0.3-1.7,2.8-2.1,1.8c0.2-1,2.7-2.1,2.6-3.6l0.1,0.1c1.1-1.5,1-2.3,1.1-3.1c0.7-0.5,0.9-1.6,1.3-2.4l0.2,0.2l0.6-1.1
							c0.1,0.7-0.8,1.2-1.3,2.1l0.5,0.2c-1.1,0.7-0.8,1.8-1,2.9c0.4-1.4,2.2-3.1,1.5-3.9l0.9-0.4l0.1-0.4c0.6-0.3,0.8,0.5,0.2,1.6
							c-0.2,0.1-0.3,0.2-0.4,0.1c-0.1,0.6-0.1,1.2-0.9,2.3l0.2-0.8c-1,1.4-1.6,2.8-1.6,3.5c1.5-1.9,2.9-3.9,4.1-5.9
							c-0.6-1.2-0.7-2.2-1.4-3c0.6-1.4,1.6-3.2,2.6-4.2l0.1,0.2c0.4-0.5,0.7-1,0.8-1.5c0.6-0.4,0.2,0.7,0.6,0.3l0.8-2.1
							c0.3,0.3-0.6,1.9-1,2.7c0.1-0.2,0.2-0.5,0-0.4c-0.7,0.8-1,2.8-1.8,2.8c-0.2,0.5,0.1-1.1-0.8,0.3c-0.8,0.8-0.5,1.5-0.4,1.7
							c0.2,0.2,1.2-1.3,1.2-0.6c0.4-0.8,0.3-1.2,1.1-2.1c-0.4,0.8-0.6,2-1.2,2.2c-0.5,1.7,0.7,2.2,1.2,1.5c-0.4,0,1.2-2.9-0.4-1.3
							c0.1-1.1,1.1-2.7,1.5-4l0.1,0.1l0.7-1.5c0,0.3-0.1,0.8,0.1,0.9l0.5-2.3c-0.2,1.3,0.7-0.5,1.2-0.9c-0.2-0.4-0.1-1.3-0.7-0.7
							c-0.7,0.7-0.1,0.6-0.5,1.4l0.1-1.4l0.1-0.1l-0.1-0.9c0.9-1.4,0.7,1.2,1.3-0.9l-0.8-0.1c1.3-2.1,3.5-4.5,4-6.2
							c0.1,0.6,0.6,1.1,1.3,0.7c-0.4,0.6-1.1,2-1.6,3c-0.2,0.1-0.1-1.6,0.6-2.6c-1.3,0-0.8,2.9-1.9,2.5c-1.8,2.4-0.1,2.5-1.9,4.4
							c0.4,0.3-0.1,0.8,0.2,1.1c1.1-0.2,1.7-3,2.7-4.3c0,0.2-0.1,0.5-0.1,0.6c0.7-1,0.8-1.5,1.1-2.3l-0.1,0.1
							c0.2-1.5,0.8-0.6,1.4-1.3c0.1-0.3,0.8-1.3,0.3-1.3l1.2-1.1l-0.6-0.2c0.4-0.8,0.8-0.8,0.8-1.7l-0.5-0.3l-1.1,1.8
							c0.3-1-0.3-0.5,0.1-1.6c-0.1,1.5,0.7-0.7,1.2-0.6l0.1-0.9l0,0.3c0.5-0.5,0.2-0.8,0.6-1.5c-0.7,0.7-1.3,1.1-1.5,2.4
							c0.1-0.9,0.6-2.6,0.7-3c0.2-0.9,0.8-1.3,1.2-2.1c-0.5,1.6,1.7,0.1-0.1,3c-0.1-0.1,0.1-0.3,0.2-0.4c-0.8,0.1-0.8,1.8-0.9,2.6
							c0.4,0,0.2,0.7,0.9-0.3c-0.4,0.3-0.3-1.4,0.5-2.3l0.7,0.5l0.8-1.6l0,0.2c0.8-0.4,0.7-1.8,1.5-2.8c0.1-0.9,1.6-4,0.2-3
							c0.9-0.8,0.7-2,1-3.1c-0.3,0.4-0.6,0.8-0.8,1.3c0.1-1.8,0.3-1.2-0.1-2.9c0.3-0.1,0.5-0.3,0.7,0.1c0.8-2.2,2.1-5.2,1.8-6.7
							c0.5-1.5,1.5-1.5,1.7-3.8c0-0.5-0.8,0.2-0.3-1.2c0.1-0.1,0.3,1.5,0.6-0.1c-0.2-0.6,0-1.3,0.3-2c0.2-0.7,0.5-1.4,0.3-2.2
							c0.4-0.8,0.4-2.1,0.9-1.8c-0.2,1.2-0.4,3-0.2,3.3c-0.3-0.2-0.5,0.8-0.5-0.1c-0.7,1.8,0.1,1.3-0.5,2.9c0.2,0.2,0.8-0.8,0.6-1.2
							c0.7,0.1-0.4,3.5,0.7,2.1c0.5-1.9-0.9-2.7,0.1-4.1c0.3,0.7-0.2,1.6,0.3,2.6l0.5-1.3l-0.3-1l0.1,0.1c1-2.3-0.4-2.3-0.5-4.3
							c-0.6,1.1-1.2-0.4-1.5,0.5c0.1-1.3,0.1-2.3,0.8-2.3c0.4,2.5,0.8,0.2,1.3,2.6c0.3-0.4,1,0.7,1.2-0.8c-0.4-1.7-0.6,0.4-0.7-1.2
							c0.1-0.1,0.1-0.2,0.2-0.1c-0.3-0.7,0.2-0.9-0.2-1.8l0.1,0.2c0.4-1.1-0.5-1.2-0.1-2.1c-0.5,0.4-0.5-0.6-0.8-1.1
							c-0.1,0.9-0.8,1.5-0.7,3.2c0.4,0.2,0.6,0.1,0.8,0.9c0-0.4,0-0.8,0-1.2c0.1,0.3,0.2,0.5,0.3,0.7l-0.3,1.2
							c-0.2-1.5-0.7-0.8-1.1-1.4c0.2-1.3-0.1-1.1,0-1.9c0.3,0,0.5-0.6,0.7-1.4c0.2-0.8,0.2-1.9,0.3-2.6c0,0.2,0.1,0.5,0.1,0.7
							c0.5,1,0.4-0.8,0.5-0.9l-0.5-0.7c0.1,0.1,0.3,0.3,0.3,0c-0.3-1-0.9-0.8-1.3-1.8c0.3-0.2,1,0.5,1-0.2c0.1-0.2,0.3-0.5,0.3-0.9
							c0-0.4-0.1-1-0.5-1.6c-0.2,0-0.4-0.3-0.6-0.7c0,0,0.1,0.1,0.1,0.1l-0.1-1c0.9,0.5,0.6,1.6,1.3,2.2l0.5-0.1
							c0.1,0.3,0.3,0.7,0.5,1c0.2,0.3,0.4,0.6,0.6,0.8c-0.2-1.1-0.4-1.2-1-2.3c0.2-0.3,0.8,0.4,0.9,0.5l-0.3-0.1
							c0.1,0.7,0.3,1.2,0.7,1.7c0.3,0.5,0.7,1.1,0.9,2c0,0.3,0,0.1-0.1,0.1c0.4,0.7,0.5,1.4,0.6,2.1c0.1,0.7,0.1,1.4,0.5,2.1
							l-0.3-0.4c0.3,0.9,0.9,2.8,1.4,4.8l0.2,0c0.1-0.2,0.1,0.5,0,0.9l0,0c0.2,1,0.3,2,0.4,2.8c0.1-0.2,0.3-0.5,0.3-0.9
							c-0.2-0.3,0.1-2.1-0.4-1.9c0.4-0.8,0-2.2,0.1-2.8c-0.3,1.1-0.5-0.8-0.8-1c0.4-0.4-0.1-1.6,0.4-1.5c0.1-0.2-0.3,0.6,0,1
							c0.5,1.2,0.2-2.2,0.7-0.7c-0.4-1.9-0.7-4.4-1.6-6.2c0,0.4,0,0.7,0.1,1.1c-0.1-0.9-0.8-2.8-0.6-3c0.2,0.6,0.5,1.3,0.8,2.1
							c0.5-0.1-0.6-1.9-0.3-2.1c-0.6-0.7-1.1-1.3-1.7-1.9l0.4,1c-0.3-0.2-0.5-0.9-0.8-1.7c-0.2-0.4-0.3-0.8-0.5-1.2
							c-0.2-0.4-0.4-0.8-0.6-1.1c1.1,0.4,1.3,2.1,2.2,3.6c0.7,1.1,0.4-1,1,0.1c0-0.4-0.3-1.1-0.6-1.4l-0.1-0.5
							c1.1,0.7,1.9,3.1,2.9,4.6c-0.1-0.1-0.2-0.2-0.3-0.3c0.1,0.7,0.1,1.3,0.3,1.9c0.1,0.6,0.3,1.2,0.5,1.8c0.1-0.7-0.1-0.9-0.2-1.3
							c0.2-0.1,0.4,1.1,0.7,1.5c0-1.2,0.4-0.3,0.4-1c0.3,0.7,0.3,1.4,0.4,2.3c-0.2,0.5-0.4-0.4-0.7-0.2c0.3,0.9-0.5,1.4,0,2.7
							c0-1.8,0.7,0.4,0.9,1.1l0-0.3c0.4,0.6,0.4,1.1,0.1,1.5c-0.2-0.8-0.1-1.5-0.5-1.3c0,0.5,0.1,1,0.2,1.5
							c-0.1-0.2-0.2-0.3-0.3-0.5c0,0.8,0,1.6,0,2.4c0.3,0.4,0.8,1.1,1.2,1.5c-0.4,0.6-0.2,1.4-0.1,2l-0.1-0.3
							c-0.4,1-0.5,3.4-0.3,3.6c-0.3,0.7-1.1-5.5-1.6-0.3c-0.4,2,0.7,1.4,0.8,2.6c0,0-0.1-0.1-0.2,0c-0.3,0.8,0.1,1,0.1,1.8
							c0.3-0.5,0.4-1.2,0.3-1.5c0.3,0.3-0.4,1.8-0.3,2.5c-0.4-1-0.7,1.6-0.8,0.9c-0.8,1.6-0.9,3.5-0.7,4.5c-1.1,0.9-0.5,2-1.5,3.7
							c0.1-0.3,0.2-0.8,0.4-1.2c-0.1-1.2-0.9,1.8-0.8,0.1c0,0.4,0.2,0.1,0.3-0.3c0.1-0.6,0.1-1.3-0.1-1.2c-0.3,0.4-0.6,0.9-0.9,1.3
							l0.1-0.5l-1.3,2c0.1,0.1,0.3-0.1,0.4-0.2c-1.1,2.4-1.9,5.4-2.9,7.5c1.1,1-1.8,5.5-1.8,7.5c-0.1-0.6-0.7-1.2-1.1-1
							c0.1-0.4,0-1.4,0.5-2.2c0.3,0,1-1,0.9-0.2c0.9-2.5-0.7,0.1-0.9-0.9c-1.1,2.7-1.1,4.6-1.6,6.3l-0.2,0l-0.3,1.4
							c0.6-1,1.3-0.6,0.4,0.6l0-0.2c-0.7,0.6-1.1,2.3-1.8,3.4l0,1c-0.7,1.1-1.4,0.8-2.1,0.9c-1,1.7-1,3.1-1.3,4.6
							c-0.6,0.4-2.2,3-1.8,1.3c-0.6,1.7,1.3,2.4-1.3,4.6l0.1-0.9c-1.5,2.6-3.1,6.6-4.2,7.6c-0.5-1.6-3.1,2.4-4.5,2.2
							c0.3,0-0.2,1-0.2,1.2c-0.3,0.1-0.6,0.4-0.6,0.9c0.9-0.8,0.6,1.4,1.4-0.7c0.1,1.4-0.1,3-1.5,5l-0.4-0.3l1.2-1.5
							c-0.4-0.1,0.1-0.9,0.2-1.3c-2.3,2.9-0.8-1.1-2.8,2c0.1,0.5,0.1,0.2-0.3,1.1c0.2-0.4,0-0.7-0.4-0.1l0,0.8
							c-1.5,0.6,0.7-2.1-0.4-1.5c0.5-1.4,1.6-3.6,0.8-3.6c-1.5,1.8-0.1,2.4-1.7,4.3l-0.4,0.1c-0.3,0.8,0,1.2-0.1,1.7
							c-0.2-0.1-0.4,0.1-0.7,0.5c-0.3,1.6-0.7,2.4-0.9,4c1.6-3.2,2.2-2.2,3.8-5.5c-0.1,0.6-1.5,2.8-1,3.4l-0.4-0.3
							c-0.5,1.1-0.9,2.3-1.9,3.4l0.3-0.9c-0.8,1.8-2.6,2.2-2.8,4c0.4-0.4,0.6-0.8,0.7-1.1c-0.4,1-1.2,2-1.9,2.8l-0.7,2.4
							c-0.2-0.2-1.1,1-1,0.2c-1.3,1.1-1.1,2.2-1.6,3c-1.5,1,0.7-1.3,0.2-1.9c-1.6,1.7-2.9,3.8-3.3,5.2c0.4-0.3,0.6-0.4,0.7-0.3
							c-0.2,0-0.7,0.7-1,1.1l0.1,0.5c-0.7,0.6-0.8,0.3-0.6-0.4c-0.3,0.3-0.4,0.8-0.7,1.2c-0.2,0.4-0.4,0.7-1.1,1.2
							c0.1-0.2,0.3-0.5,0.4-0.7c0.1-0.2,0.2-0.3,0.3-0.5c0.2-0.3,0.4-0.6,0.7-0.9c0.5-0.6,0.9-1.1,1-1.4c-0.8,1.3-1.4,1.7-2.2,2.2
							c-0.3,0.2-0.9,0.7-1.4,1.3c-0.6,0.6-1.2,1.4-2,2.6c-0.1-0.1,0.3-1.1-0.4-0.3c-1.4,2,0,1.2-0.3,2.2c1.1-1.7,1.8-2.2,2.8-2.8
							l-0.2,0.7c-0.1-0.1-1,1-1.3,1.1l0.1,0.8c-0.3-0.7-1.7,0.4-2.6,1.8c1.2-0.7,0.9-0.4,1.5,0c-0.6,1.3-1.1,1.7-1.6,2
							c-0.5,0.4-1,0.7-1.8,2.2c0.1-0.4,1.5-2.3,0.2-1.1c-1,1.2-0.8,1.7-1.5,2.8c0.7-1.7,0.5-2,1.2-3.8c1.7-2.1,0.7-0.8,2.3-3.1
							c-0.5,0.4-1,0.8-1.5,1.1c1.3-1.8,0.8-1.9,0.8-2.2c-1.2,1-1.5,1.7-1.8,2.4c-0.3,0.7-0.4,1.4-1.2,2.2c-0.7,1.4,1.4-1.6,0.3,0.3
							c-1.5,1.6-0.3,0.9-2,3.2l0.3-0.7c-0.3,0.1-0.5,0.4-0.8,0.8c-0.1,0.2-0.3,0.4-0.4,0.7c-0.1,0.2-0.3,0.5-0.4,0.5
							c-0.2,0.2-0.2,0.7-0.3,1.2c0,0.6-0.1,1.2-0.5,1.9c-0.2-0.1-0.6-0.6-1.2-1.8c0.2,0,0.2-0.1,0.2-0.2c0.5-0.5,0.9-1.1,1.4-1.8
							l0.7-2.2c0.3-0.9,0.5-1.8,0.7-2.7c-0.2,0.2-0.4,0.4-0.5,0.6c-0.2,0-0.3-0.2-0.4-0.3c-0.6-1.3-1.3-2.8-2-4.3
							c-0.7-1.5-1.5-3-2.3-4.5c0.1-1.4,1.8,1.5,1.8,0.9l0.7,1.5c-0.2,0.4-1.8-2.7-1.4-0.7c0.8,1.1,1.3,2,1.7,2.9
							c0.4,0.9,0.9,1.7,1.5,2.2c0.1,0,0.1,0,0.2,0.1c0-0.2-0.1-0.5-0.1-0.7c-0.2-0.9-0.5-1.4-0.9-2.1c-0.2-0.3-0.4-0.7-0.6-1.1
							c-0.1-0.2-0.2-0.4-0.2-0.7c-0.1-0.2-0.2-0.4-0.2-0.7c0.4,0.6,0.6,1,0.9,1.4c-0.1-0.4-0.3-0.7-0.5-1.1
							c-0.2-0.4-0.4-0.7-0.6-1.1c-0.4-0.7-0.7-1.4-1.1-2.2l-0.3-0.1c0.5,1,0.9,1.8,0.9,1.9c-0.7-1.3-1.7-2-2.3-1.7l0.2,0.3l-0.5-0.4
							L413.3,530z M320.8,505c0.1-0.1,0.2-0.1,0.2-0.2C321,504.8,321.1,504.9,320.8,505z M430.4,523.1c-1.3,1.6-2.7,3.1-4,4.6
							c3.2-2.1,5.4-3.5,1.8,1.2l-0.2,0.4c0.6-0.5,1.4-1.6,2.1-2.6c0.3-1.1,1-4.7,0.8-4.8c-0.5,0.1-0.5,0.7-1,1.2L430.4,523.1z
							 M433,523.2c0.8-0.9,0.4-0.8,0.3-1.1c-0.2,0.3-0.4,0.7-0.7,1C432.8,523.1,432.9,523.1,433,523.2z M433.1,522
							c-0.1,0.1-0.2,0.2-0.2,0.2L433.1,522z M419.1,537.9C419.1,538,419.1,538,419.1,537.9c-0.1-0.2-0.2-0.5-0.3-0.8
							C418.8,537.3,418.9,537.6,419.1,537.9z M420.4,538.7l0.2-0.9c-0.2,0.2-0.3,0.3-0.5,0.5C420.1,538.6,420.1,538.8,420.4,538.7z
							 M426.3,533.8c0.1-1,1.2-2.5,0.8-3c0-0.2-0.3,0-0.6,0.3c-0.3,0.3-0.6,0.7-0.9,1.1c0,0.1,0,0.2,0,0.5c0.4-0.3,0.7-0.5,0.8,0
							c-0.7,0.2-0.8,0.5-0.9,1c-0.1,0.5-0.2,1.1-0.7,1.6C424.6,536.2,426.1,534.4,426.3,533.8z M474.1,444.1c0.1,0,0.2-0.1,0.4-0.3
							l0.1,1c-0.4,1.6-1.6,2.7-1.2,4.4c-0.4,0.6-0.9,0.9-1.3,1.2c0.1-0.3,0.2-0.6,0.3-0.9c0-2.2,0.3-2.6,0.8-3
							C473.8,446.1,474.2,445.8,474.1,444.1z M467.7,462c0-0.2,0-0.3,0-0.3c-0.3,3.9-1.3,6.8-2.1,8.6c0.6-0.2,1.6-1.7,2.2-2.4
							l0.2,0.9l-0.6,0.3l-0.1,1.4c0.5-0.2,0.8-1.2,1.4-1.7c-0.1-0.1,0.3-2.4,0.3-3.2l-1.1,1.5c0.3-0.4,1.2-2.7,1.4-3.6
							c-0.2-0.1-1.2,1.3-0.8,1.7c-0.4,0,0.3-1.7-0.5-0.8c0.2-1.5,1.3-3.4,1.9-4.3l0.7,0.1c0.6-1-0.5-1,0.4-2.2
							c-0.4,1.6,0.8,0,0.4,1.3c0.4-0.3,0.7,0.2,1.1-1.1c-0.4-1.3,1-1.2,0.6-2.4c0.5-0.6,0.3,0.9,0.8-0.4c0.1-1.7-0.3-1.7-0.9-2
							c-0.6,1.4,0.3,1.8-0.2,3l-0.3-2.6c-0.3,0.4-0.4,0.7-0.4,1c0.1-0.5,0.1-0.9,0-1.3c-0.1-0.2-0.1-0.4-0.2-0.6
							c-0.4,1.3-0.8,2.4-1.1,2.6l-0.2-0.3c-0.4,0.4-0.4,1.2-0.4,1.6c-0.4,1.2-0.4,2.5-0.8,2.6l-0.1-0.5
							C468.4,460.1,468.4,460.2,467.7,462z M443.5,504.5c1.4-0.1,2.8-0.4,5-4.1l-0.1,0.3c1.8-1.4,1.5-4,3.5-5.8
							c-0.3,1.3-0.3,1.2-0.2,2.9l0.5-1.3c0.3,0.6,0.8-0.7,1.3-1.5l0.1,1.1c-0.5,0.4-1.4,1.7-1.2,1.7c0.1-0.3-1.9,1.2-2.4,2.5
							c0.5,0.2,1.8-2.3,1.8-0.8c0.3-1.1,0.8-0.9,1.2-2c-0.3,1.1,0.4,0.6,0.3,1.5l0.8-1.7c0.2,0-1.1,2.5,0.2,1.5
							c0.2-0.8,1.5-2.3,1.1-2.6l0.2,0c0.8-1.1-0.3-0.9,0.8-2.2c-0.2-0.2-0.5,0-0.8,0.6c-0.2,0.5,0.1,0.8-0.4,1.7
							c-0.6,0.2,0.7-1.1-0.3-0.8c-0.5,0.1-1.2,2.6-1.5,1.5l0.8-1.1c-0.4-0.3,0.1-1.2-0.3-1.4c0.3-0.8,1.2-1.2,1.3-2.2
							c-0.1-0.5-1-0.3,0-1.4c1.3-0.6,2.8-3.5,3.3-4.6l0.2-1.1c-0.3-0.1-1,1.8-1,1l0.7-1.5l0.1,0.2c0.3-0.5,0.4-1.1,0.5-1.6
							c0.1,0.6-0.7,1.6-0.1,1.7c0.5-0.6,0.7-0.6,1-1.3c0,0.2-0.1,0.3,0,0.3c1-1.3,0.2-1.7,0.2-2.1c0.1-1.8-1.4,1.1-1.8,0.6
							c0.7-1.4,1.3-2.8,2-4.3c0,0.4-0.1,0.9,0.2,0.8c0.8-0.9,0.4,0.2,1.1-1.3c-0.7-0.2,0.5-2,0.6-3.2c0.5-0.3,0.6-0.4,0.1,0.6
							c0.5,0.1,1-1.4,1.3-1.9c0-0.3,0.2-0.9,0.3-1.2c-0.4,0.3-0.6,0-0.4-1l-0.1-0.1c-0.8,1.4-2.4,3.5-2.5,4.6l-0.1-0.4
							c-1.2,1.5-1.1,4.1-2.4,4.4c-0.3-0.2-0.3,0.3-0.7,0l-0.3,1.4l-0.1-0.4l-1,2.1l-0.1-0.1c-0.1,1.2-0.2,2.2-0.3,3
							c0.2,0.1,0.3,0.1,0.3,0.5c-0.1,0.4-0.2,0.6-0.4,0.9l0,0l0,0c-0.4,0.5-0.8,0.6-1.3,1.2l1.1-2c-0.2-0.4-0.7-0.4-1.5,0.4
							c0.2-0.4,0-0.7-0.3-0.3c0.1,0.1-0.5,1.4,0,1.1c-0.9,1.9-3.6,4.3-4.6,7.4c0.8-2.2-1.4,1.3-0.2-1c-1.5,1.2-0.3,1.6-1.3,3.1
							c-0.3,0,0.6-0.8,0.4-1.4c-1.8,2.4-1.9,4.8-3.7,7.2l-0.5-0.2C444,503.4,443.8,503.9,443.5,504.5z M440.7,509.6
							c-0.3,0.5-0.6,1-0.8,1.5c0,0,0.1-0.1,0.1-0.1l-0.7,1.6c0.8-0.7,1.6-1,1,0.3c-0.1-0.2-0.5,0-0.3-0.5c-0.8,0.6-2.3,2.2-1.3,2.2
							c0.5-1.9,1,0.2,1.5-1.3c-0.1,0.9-0.7,1.4-1,2.2c0.1-0.9-0.8-0.4-1.7,0.5c-0.2,0.5-1.1,1.5-1.4,2.3c0.5,0,0.3,0.8,1.2-0.3
							c-0.2,0.5-0.6,1.2-1.3,1.7c0.1-0.3,0.5-0.9,0.3-0.9c-0.7,0.2-1,0.8-1.4,0.9c-0.2,0.2-0.3,0.5-0.5,0.7c0.1,0,0.2-0.1,0.3-0.1
							l-0.3,1c0.6-1.2,0.5-0.4,0.7-0.2c-0.4-0.3-0.6,0.6-0.8,1l1-0.4c-0.1,0.5-1.3,1.1-0.7,1.2c1.4-1.5,1.8-2.2,2.7-3.8l-0.8,0.4
							c1-1.9,1.4-0.6,2.7-2.5c0.2-1,2-2.9,1.4-3.4c0,0.4,1.4-0.8,1.6-1.7c-0.1-1.1,1.4-3.4,0.6-2.9c-0.4,0.6-0.6,1.6-1.4,1.8
							l0.7-1.2l-0.8,0.5C441.6,510,441.3,509.8,440.7,509.6z M421.3,528.4C421.3,528.4,421.3,528.4,421.3,528.4
							C421.3,528.4,421.3,528.4,421.3,528.4L421.3,528.4z"/>
						<path class="st1" d="M471.1,424.2c-0.3-0.3-0.7-1.1-1-0.8C470.5,423.2,470.9,424.9,471.1,424.2z"/>
						<path class="st1" d="M471,423c-0.1,0-0.2,0.1-0.4-0.3l0.6,1L471,423z"/>
						<path class="st1" d="M472.9,420.5c-0.7-0.4-1-0.7-1.6-1.6c0.6-1,1.2,1.3,2.3,1.2c-0.5-0.9-1-1.4-1.6-1.7
							c-0.6-0.4-1.1-0.7-1.6-1.3c0.1,0.5,0.6,1.4,1.1,2.1C472,420,472.6,420.6,472.9,420.5z"/>
						<path class="st1" d="M474.5,420.6c-0.2-0.3-0.5-0.6-0.8-0.9l0,0.1c0.3,0.3,0.5,0.6,0.8,0.9L474.5,420.6z"/>
						<path class="st1" d="M468.2,442.7c-0.3,0-0.1,0.6-0.1,1C468.2,443.5,468.4,443.1,468.2,442.7z"/>
						<path class="st1" d="M343.7,497.6l-4,0.1l-4,0.2C338,497.8,340.1,497.7,343.7,497.6z"/>
						<path class="st1" d="M462.7,466.6c0.5-2,0.4-3,1-5c-1.6,2.2-0.4,3.7-2,5.5L462.7,466.6z"/>
						<path class="st1" d="M460.6,464.9c0.7-0.1,0,1.7,0.5,1.6c0.4-1.3-0.3-0.8,0.3-1.9L460.6,464.9z"/>
						<polygon class="st1" points="473.5,460 473.6,460.7 473.7,460.2 						"/>
						<polygon class="st1" points="457.2,473.4 457.2,473.1 456.5,473.9 						"/>
						<path class="st1" d="M457.1,472.8l0,0.3L457.1,472.8z"/>
						<path class="st1" d="M474.5,461.2c0.2-0.3,0.3-0.6,0.5-0.9l-0.1-0.6C474.7,460.3,474.6,460.7,474.5,461.2z"/>
						<path class="st1" d="M468.2,467.8l0.2-0.9C468.3,467.2,467.7,468.1,468.2,467.8z"/>
						<polygon class="st1" points="454.1,478.7 453.8,479.7 453.9,479.6 454.2,478.7 						"/>
						<path class="st1" d="M466.9,474.6c0.7-0.3-0.6,1.6,0.3,0.7C467.6,474.3,467.2,474.6,466.9,474.6z"/>
						<path class="st1" d="M458.3,484.1c-0.1,0.1-0.1,0.3-0.1,0.4C458.3,484.4,458.3,484.2,458.3,484.1z"/>
						<path class="st1" d="M458.3,484.1c0.2-0.4,0.6-0.7,0.6-1C458.5,483.5,458.5,483.7,458.3,484.1z"/>
						<path class="st1" d="M455.9,488.6l0.2-0.3c0,0.5,0.1,0.3,0.1-0.1c0.2-0.4,0.1-0.4,0-0.5c0-0.1,0-0.2,0-0.3c0,0.1,0,0.3,0,0.4
							C455.8,488.2,455.7,488.6,455.9,488.6z"/>
						<path class="st1" d="M439.3,500.2c0.9-1.1,1.2-1.4,1.5-1.1c0.9-1.1,0.2-1.3,0.5-2C440.5,498.4,440.2,498.6,439.3,500.2z"/>
						<path class="st1" d="M441.3,497.1c0.1-0.2,0.2-0.3,0.3-0.5C441.4,496.8,441.4,496.9,441.3,497.1z"/>
						<polygon class="st1" points="462.4,485.3 462.4,486.4 462.5,486.1 						"/>
						<path class="st1" d="M437.9,501.9c0.2-0.2,0.4-0.6,0.6-0.7C438.3,501,437.7,502.1,437.9,501.9z"/>
						<path class="st1" d="M447,501.1c0.3,0,0.7-0.9,1-1.2C447.6,500.4,446.8,500.4,447,501.1z"/>
						<path class="st1" d="M436.8,506.2c0.2-0.2,0.6-0.4,0.8-0.1C437.6,505.7,437.4,504.9,436.8,506.2z"/>
						<polygon class="st1" points="445.5,503.4 445.7,503.3 446,502.3 						"/>
						<path class="st1" d="M452,503.3c0.3-1.2-1.9,1-1.1-0.9c-1.8,1.9,0.6,0.2-0.5,1.7C451.1,503.2,451.9,503.1,452,503.3z"/>
						<path class="st1" d="M450.4,504.1c-0.1,0.1-0.2,0.3-0.3,0.4C450.2,504.4,450.3,504.2,450.4,504.1z"/>
						<path class="st1" d="M439,515.9c0.1-0.2,0.1-0.3,0.1-0.4C439,515.6,439,515.8,439,515.9z"/>
						<path class="st1" d="M447.3,509.3l0.4-1.8c-0.3,1.2-1.9,3.6-1.3,3.8c0.6-0.7,1.1-1.7,1.2-2.3L447.3,509.3z"/>
						<path class="st1" d="M426.3,518.4l0.2-0.7l-0.6,0.7C426.2,518.2,426.3,518.9,426.3,518.4z"/>
						<path class="st1" d="M425.8,518.5l0.1-0.1C425.9,518.4,425.9,518.5,425.8,518.5z"/>
						<path class="st1" d="M440.6,513.1c0.4-0.4,0.6-0.8,0.8-1.3C441.2,511.9,440.3,513,440.6,513.1z"/>
						<polygon class="st1" points="424,523.1 424.6,522.1 423.9,523.2 						"/>
						<path class="st1" d="M421,525.2L421,525.2c-0.1,0,0,0.1,0,0.2l0.1,0.1C421,525.4,421,525.3,421,525.2z"/>
						<path class="st1" d="M434.4,528.8c0.6-0.6,0.5-1.5,0.3-1.4l-1,1.3c0.7,0,0.3-0.4,0.9-1L434.4,528.8z"/>
						<path class="st1" d="M400.8,509.9c0.5-0.2,2.1,1.1,2,1.4c-0.3,0-1.3-0.4-0.8,0.1l1.7,0.1c1.5,1.5-1.9,0.1-2.9-0.1
							c1.7,1.2,2.5,1,4.4,2.2c-0.5-0.4-0.7-0.8-0.9-1.1c0.1-0.3,0.6-0.1,1.2,0.3c0.6,0.4,1.3,1,1.9,1.4c-0.6-0.8-0.1-0.6,0.7-0.4
							c0.1,0.1,0.2,0.1,0.3,0.1c0.1,0,0.2,0,0.2,0.1l-0.1-0.1c0,0,0.1-0.1,0-0.3c-1.1-0.6-1.6-1.6-2.3-2.1c0.2,1.2-2.5-1.3-3.5-1.6
							c-0.4-0.2-0.7-0.4-1.1-0.5l-0.4-0.2c0-0.1,0.1-0.2,0.8,0c-0.6-0.1-2.2-1-2.2-0.7c-1.2-0.6-2.5-1.3-3.8-1.8
							c-0.1-0.1-0.2-0.2-0.3-0.3c-0.2,0-0.2,0-0.2,0.1c-5.5-2.5-11.2-4.4-16.9-5.7c0.8,0.3,1.5,0.7,2.3,1c-1.5,0.3,1.4,0.5,0.8,1
							c-0.6,0.1-1.5-0.2-1.9-0.5c-0.3,0.2,0.4,0.7,0.2,1c1,0.5,1.7,0.4,2.4,0.3c0.7-0.1,1.4-0.2,2.4,0.2c-0.2,0.3-0.9,0.4,0.4,0.8
							l-0.4,0c2.3,0.3,1.4,1.3,3.1,0.8l-0.2,0.5c1.1,0,3,0.7,4.1,1l-0.1,0.1c3.2,0.7,1.7,0.6,5.1,1.8c-0.6-0.1-1.2-0.1-1.8-0.1
							c1,0.7,1.6,0.2,2.3,0.7c-0.1,0.1-0.1,0.5-0.9,0.2l4.3,1.2C401.9,510.7,400.8,510.1,400.8,509.9z"/>
						<path class="st1" d="M405.2,513.5c0.2,0.2,0.4,0.3,0.7,0.5C405.6,513.8,405.4,513.6,405.2,513.5z"/>
						<path class="st1" d="M377.4,500.2c0.4,0.1,0.8,0.2,1.2,0.3C378.3,500.4,377.9,500.3,377.4,500.2z"/>
						<path class="st1" d="M411,516.5c-0.4-0.7,0.7,0.1,0.9,0c-0.7-0.6-1.4-1.3-2.2-1.8c-0.1,0.2-0.5,0.2-0.5,0.4
							C409.8,515.5,410.4,516,411,516.5z"/>
						<path class="st1" d="M409.3,513.9c-0.2,0.1-0.5,0-0.8-0.1l1.3,0.9C409.8,514.5,409.8,514.3,409.3,513.9z"/>
						<polygon class="st1" points="403,522.7 402.6,522.4 402,522.2 						"/>
						<path class="st1" d="M397.9,518.2c0.3,0.5,1.2,0.8,1.5,1C398.5,518.6,399,518.7,397.9,518.2z"/>
						<polygon class="st1" points="397.4,521.7 396.4,521.3 396.5,521.4 						"/>
						<path class="st1" d="M368.2,500.5c-0.2,0-0.4-0.1-0.6-0.1C367.9,500.5,368,500.5,368.2,500.5z"/>
						<path class="st1" d="M378.1,502c-1.3-0.6-0.8-0.6-0.1-0.6c0.7,0,1.7,0.1,1.3-0.4l-1.6-0.2l0.2-0.2l-1.9-0.3
							c0.3,0.4,0.6,0.5,0.4,0.8c-2.4-0.7-0.7-0.6-2.4-1.4c-0.9-0.2-1.8-0.3-2.8-0.5l0.2-0.1c-0.2,0-0.3,0-0.4,0
							c-3.1-0.5-6.2-0.9-9.3-1.2c-1.7,0.1,0.8,0.8-0.5,1.2c1.9,0.2,4.8,1.1,5,0.3c-0.1,0.1-0.2,0.3,0.1,0.4l1.2-0.4l-1-0.3
							c1.2-0.5,4.9,0.4,5.5,0.9c-2.1-0.2-1.2,0.7-4-0.2c0.1,0.2,0.6,0.6-0.1,0.6c1.7,0.2,3.3,0.5,4.9,0.8
							C374.7,501.6,376.3,501.9,378.1,502z"/>
						<path class="st1" d="M344.2,498.1L344.2,498.1C344.2,498.1,344.2,498.1,344.2,498.1z"/>
						<path class="st1" d="M345.3,498.3l1.7-0.7l-2.6,0l-0.2,0.5c0.2-0.1,1.1-0.3,1.5-0.1L345.3,498.3z"/>
						<path class="st1" d="M349,497.3c-1.3,0.2-1.3,0.8-0.6,1c-1.2,0.2-0.6-0.7-1.5-0.1c0,0.4,1.5,0.2,1.9,0.2L349,497.3z"/>
						<polygon class="st1" points="358.8,498.3 358.4,498.5 359.3,498.7 						"/>
						<path class="st1" d="M358.4,498.5c-0.3-0.1-0.6-0.1-0.9-0.2c0,0.2,0.1,0.4,0.2,0.5L358.4,498.5z"/>
						<path class="st1" d="M355.1,498c-0.4-0.1-0.8-0.1-1.3-0.2L355.1,498z"/>
						<path class="st1" d="M356.1,498.2L356.1,498.2l-1-0.2C355.4,498.1,355.8,498.2,356.1,498.2z"/>
						<path class="st1" d="M357.5,498.4c-0.1-0.4-0.2-0.9-1.6-0.9l0.2,0.7L357.5,498.4z"/>
						<polygon class="st1" points="391,517.6 390.1,517.4 390.1,517.5 391.1,517.7 						"/>
						<path class="st1" d="M386.1,515.1c-0.2,0-0.4,0-0.6,0C385.7,515.2,385.9,515.2,386.1,515.1z"/>
						<path class="st1" d="M381.3,516.4c-0.9-0.7,1.6-0.1-0.3-0.9c-0.1-0.4,1-0.6,1.9-0.1c-0.2,0.3-1-0.1-0.5,0.5
							c0.7-0.2,0.9,0.1,0.9-0.4c1.1,0,1.4-0.3,2.2-0.3c-1.3-0.3-3.8-1.6-5.6-1.5c-1.1,0.4-0.8,1.4-1.1,2.3
							C378.8,516.2,381,517,381.3,516.4z"/>
						<path class="st1" d="M382.7,517.9c0.5,0.2,0.6,0.2,0.9,0.3C383.6,517.8,383,518,382.7,517.9z"/>
						<path class="st1" d="M372.9,507.8c-0.1,0.1-1.1,0.1-1,0.3l1.5,0.2C373.1,508.2,373,508,372.9,507.8z"/>
						<path class="st1" d="M374,508.3l-0.7-0.1C373.5,508.3,373.8,508.3,374,508.3z"/>
						<path class="st1" d="M372.8,507.7L372.8,507.7C372.9,507.7,372.9,507.7,372.8,507.7z"/>
						<path class="st1" d="M351.3,497.5c0-0.3-0.7-0.1-1-0.1C350.6,497.4,350.9,497.5,351.3,497.5z"/>
						<path class="st1" d="M325.2,498.5l-0.6-0.2C324.8,498.5,324.9,498.5,325.2,498.5z"/>
						<path class="st1" d="M316.5,506.4c0,0.1-0.1,0.1-0.1,0.1C316.5,506.5,316.5,506.5,316.5,506.4z"/>
						<path class="st1" d="M316.4,506.5c-0.4,0.3-1.7,0.1-2.1,0.4l0-0.1l-0.8,0.3C314.4,507,316,506.9,316.4,506.5z"/>
					</g>
				</g>
			</g>
		</g>
	</g>
</g>
</svg>
