<?xml version="1.0" encoding="utf-8"?>
<!-- Generator: Adobe Illustrator 27.0.1, SVG Export Plug-In . SVG Version: 6.00 Build 0)  -->
<svg version="1.1" id="Layer_1" xmlns="http://www.w3.org/2000/svg" xmlns:xlink="http://www.w3.org/1999/xlink" x="0px" y="0px"
	 viewBox="0 0 960 30" style="enable-background:new 0 0 960 30;" xml:space="preserve">
<style type="text/css">
	.st0{fill:#DC376E;}
</style>
<g>
	<g>
		<g>
			<g>
				<g>
					<g>
						<path class="st0" d="M935.4,14c2.2-0.1,4.1,0.3,3.2,0.4c4.4-0.4,4.5,0.1,5.1-0.7c2.8-0.4,5.9,0.1,2.6,0.4l8.2-0.4l-4.9-0.1
							c1.3-0.6,7.8,0.2,9.4-0.5l-8.8,0.1l0.4-0.2c-2,0.2-5.9,0.1-7.3,0c0.2-0.1,0.1-0.3,1.6-0.3c-10.7,0-2.9,1.1-11.7,1.3
							C933.8,13.9,934.4,13.9,935.4,14z"/>
						<path class="st0" d="M926.3,12.5l-3.7,0.8l-6.3-0.2c-0.1,0.3-4.6,0.5-1.5,0.7c0.6,0,1.8-0.1,2.8-0.1c-0.7,0.6-8.3,0.3-6.5,0.9
							c4.9-0.2,5.7,0,8.7-0.5c4.5,0.1,7.8,0.2,9.9,0.4c1.3-0.1,1.5-0.4,3.2-0.5c-0.4,0-0.7,0-1.2,0l-0.2-0.9
							c-1.4,0.2-2.8,0.1-4.4,0.1l7.3-1c-2.4-0.8-9.5-0.3-12.4-0.7C925.8,12.3,919.4,11.9,926.3,12.5z"/>
						<path class="st0" d="M933,13.9c0,0,0.1,0,0.2,0C933.1,13.9,933.1,13.9,933,13.9z"/>
						<path class="st0" d="M386.3,18.9c-1.6,0-2,0.2-2.2,0.3l17.5,0c-0.5-0.2-5.6-0.5-2.2-0.6c-1.5-0.2-6.1,0-6.7,0.3l1.3-0.3
							c-4,0.4-6.8-0.4-4.2-0.7l-0.3,0l-11.2,1.7C382.3,19.6,381.4,18.9,386.3,18.9z"/>
						<path class="st0" d="M26.6,18.1c2.3-0.1,2.5-0.2,2.3-0.2C28.1,17.9,27.3,17.9,26.6,18.1z"/>
						<path class="st0" d="M375.6,19.9l-3.5,0.5C373.5,20.3,374.8,20.1,375.6,19.9z"/>
						<path class="st0" d="M399.9,11.9C399.9,11.9,399.9,11.8,399.9,11.9l-1.6,0.2c0,0,0,0,0,0C398.9,12,399.4,12,399.9,11.9z"/>
						<path class="st0" d="M296.1,21.9c-0.4,0-0.7,0-1.1,0C295.4,21.9,295.8,21.9,296.1,21.9z"/>
						<path class="st0" d="M447.3,8.9l-7.8,0.5c1-0.2-2.7-0.2-1.1-0.4c-0.6,0-3.4,0.1-2.6,0.3l1.6,0c-4.1,0.7-1.6,1-8.4,1.5
							c4.2,0.4,6.1,0,8.3-0.3c0.8,0,1.4-0.1,2-0.1l6.5-1L447.3,8.9z"/>
						<path class="st0" d="M135.1,14.1L135.1,14.1C135.1,14,135.1,14.1,135.1,14.1z"/>
						<path class="st0" d="M135.5,13.8l-0.3,0.2C135.6,13.9,137.2,13.8,135.5,13.8z"/>
						<path class="st0" d="M376.9,19.5c-0.1,0.1-0.6,0.3-1.3,0.5l2.6-0.4C377.9,19.5,377.4,19.5,376.9,19.5z"/>
						<path class="st0" d="M382.9,17.9l6.6-0.1l2.4-0.4C389.3,17.6,386.4,17.7,382.9,17.9z"/>
						<path class="st0" d="M306.5,22.3c-13.6,0.1,3.3-0.8-2.9-1c-3.8,0.1-5.1,0.5-7.5,0.6c10.8-0.3-1.5,1.3,9.4,1.1
							c-1.5,0.7-7.8,0.8-11.5,0.6c-4.2-0.7,3.6-0.5,4.6-1.2c-4.4,0.1-3.6,0.2-5.4,0.6c-6.8-0.2-14.2,0.8-18.3-0.1
							c-5,0.2-4.6,0.5-7.5,0.8c-0.6,0.7,7.4,0.4,9.2,1c-0.4-0.1-1.1-0.2-0.9-0.3l4.3,0.2c-4.1-0.3,0.6-0.7,2.7-0.8
							c1.6,0,4.7,0,4.3,0.2l-2.4,0.2c3.1,0.2,6.8-0.5,10.1-0.1c0.2,0.2-1.1,0.2-1.2,0.3c3.6-0.5,7.2-0.5,12.6-0.8l-3.1,0.7
							c4.3-0.8,14.1-0.6,20.9-0.2c-0.8-0.1-2.1-0.2-1.3-0.3c4-0.2,7,0.3,5.1,0.7c3.9-0.6,14.8,0.5,20.1-0.3l24.4-3.7
							c-0.9,0.1-1.9,0.2-2.9,0.2c-2.2-0.6-3.4-0.6,0.5-1.2c-3.8,0.3-2.4,0.8-8.1,0.9c2.2-0.3,2.8-1-2.7-1.1
							c-13.7,0.6-22.8,2.4-35.6,3.4c-0.5-0.5-10.5-0.4-15.4-0.5c1.9-0.5,5.5-0.7,9.3-0.8c-2.4,0-6.4,0-9.4-0.1L306.5,22.3z"/>
						<path class="st0" d="M338.3,20.7c-0.3,0-0.7-0.1-1.1-0.1C337.5,20.6,337.8,20.6,338.3,20.7z"/>
						<path class="st0" d="M318.3,21.4C318.4,21.3,318.4,21.3,318.3,21.4c-0.3,0-0.7,0-1.1,0C317.6,21.3,318,21.4,318.3,21.4z"/>
						<path class="st0" d="M373.7,18.4c0.8-0.1,1.4-0.2,2.2-0.3c-0.5,0-1.1,0.1-1.7,0.1C373.6,18.2,373.3,18.3,373.7,18.4z"/>
						<path class="st0" d="M376.4,19.2l-0.4,0.2c0.3,0,0.6,0,0.9,0C377,19.3,376.9,19.3,376.4,19.2z"/>
						<path class="st0" d="M254.6,17.9l-1.3,0.1C254.1,18,254.4,17.9,254.6,17.9z"/>
						<path class="st0" d="M291.4,21.5c4.7,0,0.6-0.7,7.3-0.7l-2,0c4.8-0.3,13.2-0.2,18.9-0.2c-0.6,0.3,3.5,0.4,2.8,0.8
							c3.9-0.1,7.8-0.2,9.8-0.7c2.4,0.2,6.1-0.3,9.1-0.1c-1.3-0.3,4.4-0.9-3.1-0.6c0.6,0,0.2-0.1,0.8-0.1c-4.8-0.4-6.7,0.3-10.9,0.3
							c-2.5-0.3,4.1-0.4,1.7-0.5c-5.2,0.3-16.2-0.3-15.9,0.7c-3.8,0.1-4.3-0.2-5.4-0.3c-6,1.1-22.1-0.5-22.1,0.9
							c2.2-0.1,5.7,0,8.9-0.3L291.4,21.5z"/>
						<path class="st0" d="M365.8,18.4c-0.3,0-0.7,0-0.9,0C365.1,18.4,365.4,18.4,365.8,18.4z"/>
						<path class="st0" d="M425.4,22.4l-2,0.9c-11.3,0.2-15.3,0-25.2,0c-0.8-0.1,0.4-0.2,1-0.2c-6.9,0.1-17.3-0.1-22.3,0.3
							c-2.2,0-8-0.3-5.8-0.6c-1.1,0.1-2.3,0.2-3.5,0.1c-0.3-0.3,2.8-0.1,2.8-0.4c-1,0-1.4-0.1-1.6,0c1.6-0.3-1.7-1.1,6-1.1
							c3,0.8-5.3,0.1-3.6,0.9c2.5,0,2.2-0.3,2.5-0.4c3.2,0,3.2,0.2,3,0.4c1.2-0.3,5.3,0.1,7-0.3c6.3-0.1-0.3,0.6,3.8,0.6l2.4-0.8
							l6.8,0.2c9.9-0.3-1.4-1.5,9.9-1.9c-1.5,0.4,3.1,1.2,8.3,1.4c-3.2,0-9,0.6-13,0.3c5.7,0.7-7.9,0.1-4.9,0.8
							c2.8-0.4,7.6-0.4,11.2-0.2l-1.2,0.1c3.9,0.1,6.9-0.8,12.3-0.5c2.7,0,2.2,0.2,1.7,0.4C423.4,22.4,425.4,22.2,425.4,22.4z
							 M419.5,22.6l-3.6-0.1C416.8,22.7,418.1,22.7,419.5,22.6z"/>
						<path class="st0" d="M876,12.6c0.4,0,0.8,0,1.1,0.1C876.9,12.7,876.5,12.6,876,12.6z"/>
						<path class="st0" d="M556.9,12.3l2.1,0C558.1,12.3,557.5,12.3,556.9,12.3z"/>
						<path class="st0" d="M603.6,9.5l3-0.2C605.5,9.3,604.5,9.4,603.6,9.5z"/>
						<path class="st0" d="M851.2,12.6l-0.1,0c-0.2,0-0.3,0-0.5,0L851.2,12.6z"/>
						<path class="st0" d="M697.4,11.5c0.5,0.1,1,0.1,1.7,0.2C699,11.6,698.4,11.5,697.4,11.5z"/>
						<path class="st0" d="M603.1,9.5c0.1,0,0.1,0,0.2,0c0.1,0,0.2,0,0.4-0.1L603.1,9.5z"/>
						<path class="st0" d="M536.3,9.8c-0.4,0-0.9,0-1.3,0.1C535.6,9.9,536,9.9,536.3,9.8z"/>
						<path class="st0" d="M539.2,12.2c-0.5,0-0.9,0-1.3,0.1L539.2,12.2z"/>
						<path class="st0" d="M467.2,10.6l-2.8,0.1C465.8,10.7,466.6,10.6,467.2,10.6z"/>
						<path class="st0" d="M531.8,11.7c-0.2,0-0.3,0.1-0.4,0.1C531.7,11.8,531.9,11.7,531.8,11.7z"/>
						<path class="st0" d="M893.8,15.2c-0.1,0-0.1,0-0.2,0l-0.1,0.1L893.8,15.2z"/>
						<path class="st0" d="M900.7,13.9c0.8,0,1.6,0,2.5-0.1C902.2,13.8,901.3,13.9,900.7,13.9z"/>
						<path class="st0" d="M738.1,12.8c0.7,0.1,2.5,0.3,1.7,0.4C741.2,13.1,741.1,12.7,738.1,12.8z"/>
						<path class="st0" d="M880.2,20.5c0.4-0.1,1-0.2,1.6-0.3C880.7,20.3,879.8,20.4,880.2,20.5z"/>
						<path class="st0" d="M881.7,20.2c0.5-0.1,1.1-0.1,1.5-0.2C882.7,20,882.2,20.1,881.7,20.2z"/>
						<path class="st0" d="M719.2,19.9c-0.2-0.1-0.5-0.1-0.9-0.1C718.5,19.9,718.8,19.9,719.2,19.9z"/>
						<path class="st0" d="M905.1,14c0.4-0.2,11.2-0.6,2.1-0.7c0.3-0.6,5.8-0.3,8.2-0.4c-1.7-0.1,0.9-0.4,0.3-0.6
							c-1.2,0.1-2.6,0.3-4.6,0.2c-0.9-0.3,2.1-0.5,4.4-0.4c-2.9-0.3,3.6-0.5-0.4-0.8c-8.7,0.2-14.8,0.5-21,1.4
							c5-0.2,10.5-0.3,14.6-0.1l-1.7,0.5c-4.6-0.5-7.4-0.1-12-0.2l10.2,0.3c4.8,0.5,1.6,0.6-2.2,0.7C904.1,13.9,904.9,13.9,905.1,14
							z"/>
						<path class="st0" d="M898.3,18.8l0.2,0c0.1,0,0.3,0,0.4-0.1L898.3,18.8z"/>
						<path class="st0" d="M467.7,21.6l-0.9,0.2C467.6,21.7,467.8,21.6,467.7,21.6z"/>
						<path class="st0" d="M892.2,16.1L892.2,16.1C892.2,16.1,892.1,16.1,892.2,16.1z"/>
						<path class="st0" d="M489.4,21.6c0,0-0.1,0-0.1,0C489.4,21.7,489.4,21.6,489.4,21.6z"/>
						<path class="st0" d="M495.2,9.9c0,0-0.1,0-0.1-0.1C494.6,9.9,494.8,9.9,495.2,9.9z"/>
						<path class="st0" d="M489.4,21.6C489.4,21.6,489.4,21.6,489.4,21.6C489.4,21.6,489.5,21.6,489.4,21.6z"/>
						<path class="st0" d="M595,19.6c0,0-0.3-0.1-0.9-0.2C593.9,19.5,594.1,19.5,595,19.6z"/>
						<path class="st0" d="M574.1,18.8c-0.1,0-0.2,0-0.4-0.1L574.1,18.8z"/>
						<path class="st0" d="M733.2,10.4c-1,0-1.8,0-2.5,0C731.5,10.4,732.3,10.4,733.2,10.4z"/>
						<path class="st0" d="M489.3,21.7c-0.2,0.1-0.5,0.1-1,0.2C488.8,21.8,489.1,21.7,489.3,21.7z"/>
						<path class="st0" d="M626.7,16.8c-0.2,0-0.4,0-0.6,0.1c0.1,0,0.3,0,0.4,0L626.7,16.8z"/>
						<path class="st0" d="M637.6,17.2c-0.4,0.1-0.5,0.1-0.7,0.2c3.9-0.2,11,0,11.9-0.6c-1.3,0-8.1-0.3-7-0.7
							c-2.7,0.1-6.7-0.3-8.2-0.2c4.4,0.3,0.5,0.5-2.5,0.7c-2.7-0.2,0.5-0.5-1.8-0.6l-6.3,0.1l5.5,0.1l-1.7,0.6c0.2,0,0.3,0,0.6-0.1
							C636.6,16.5,628.1,17.6,637.6,17.2z"/>
						<path class="st0" d="M636.8,17.4c-0.6,0-1.1,0.1-1.5,0.1C636.2,17.5,636.6,17.5,636.8,17.4z"/>
						<path class="st0" d="M674.8,18.3c0.5,0,1,0,1.6-0.1C676.1,18.3,675.4,18.3,674.8,18.3z"/>
						<path class="st0" d="M396.5,17.6c0.2,0.2,5.6,0.5,5.5,0.1c-1.6,0-3.2-0.1-4.9-0.1L396.5,17.6z"/>
						<path class="st0" d="M778.3,15.9c-0.6,0-1.2,0-1.8,0c-0.1,0-0.3,0-0.4,0.1C776.5,16,777.7,15.9,778.3,15.9z"/>
						<path class="st0" d="M643.4,16c-1,0.1-1.4,0.1-1.7,0.2C642.3,16.2,642.9,16.1,643.4,16z"/>
						<path class="st0" d="M778.6,16.9c0.8,0.1,1.9,0.3,2.1,0.5c1.6,0,2.7-0.2,4.3-0.3C783.1,17.1,781,17.1,778.6,16.9z"/>
						<path class="st0" d="M785.1,17c0,0-0.1,0-0.1,0C785,17,785,17,785.1,17z"/>
						<path class="st0" d="M393.3,17.4c-0.5,0-0.9,0.1-1.4,0.1l0.7-0.1c-1.2,0-2.5-0.1-3.7-0.1c-0.4,0-0.9,0.1-1.5,0.1
							c0.2,0,0.4-0.1,0.5-0.1c-0.4,0-0.8,0-1.2,0c-3,0.4-10.3,0.8-12.5,1c-2.8,0.2-6.3,0.3-8.4,0.3c2,0,4.7-0.1,3.9-0.3
							c-4.1-0.3-6-1-13.1-0.4l4.1,0l-9.3,1c-3.2-0.4,4.6-0.5,5.9-0.8c-7.2,0.5-13.2-0.8-16.5,0c-0.5-0.5-1.3-1.3-6-1.3
							c3.4,0.6-2.8,0.4,0,1c-1.6,0.3-5.3-0.2-5.5,0.2l0.4-0.2c-8.1-0.8-10.7,0.4-14.2,0.8c-9.7,0.2-14.1-0.1-22,0
							c-0.3-0.3-2.5-1.2-5.6-1.2c-1.5,0.4-8.6,0.6-9.3,1.2c5.7,0.2,4.6-0.5,8-0.6c2.8,0.6,0.3,0.6,4.1,0.9c-3.1-0.2-14,0.3-17.4-0.2
							l1.2-0.1c-5.4-0.3-6.5-1.7-15.5-0.9l-4.3,0.3c0.2-0.1,0.2-0.1,0.3-0.2c-7.1-0.1-5.1-0.7-12.9-0.2c0.6,0,0.2-0.1,0.8-0.1
							c-4.4-0.3-8.9,0.3-12.3,0.5c-2.1-0.5,0.5-0.5,1.8-0.8c-7.8-0.2-16.3,0.6-21.1,1.2l-5-0.3c3-0.2,6.6-0.7,5.7-1
							c-2.8,0.1-2.2,0.3-6.2,0.2c0.7-0.3,2.3-0.6,4.2-1c-8.1-0.5-1.8,1.1-7.5,0.1c-2.5,0-4,0.4-4.3,0.8l-4.6-0.5
							c-0.5,0.5-6.2,0.5-9.9,0.6c-0.5,0.2,3,0.5,4.4,0.3c-0.3,0.4-4.3,0.5-6.8,0.5c-0.9-1-16.7,0.1-13.7-1
							c-11.5,0.3-27.6,0.4-35.2,0.8c-2.5-0.3-7.6-0.3-4.5-0.7c-9.2,0-14,1-23.2,0.7c-0.8-0.1,4.1,0,3.8-0.3
							c-6,0.4-10.9-0.4-20.2-0.2c1.6,0,2-0.2,2.2-0.3c0.2,0.2-3.8,0.3-6.2,0.5c-1.4-0.1,1.8-0.1,1-0.2c-18-0.5-31.7,0.9-49.5,0.8
							c5.1,0,7-0.6,7.1-0.9l-5,0c-1.9,0.3-5.7,0.3-8.8,0.6c-0.4-0.1-1.9-0.3-0.4-0.4c-9.9-0.7-15.4,1.2-27.5,0.8L15.7,17L12,16.5
							l6.4-0.6c-3.8-0.4-7.2,0.5-7.7,0c0.8-0.1,2.8-0.1,2.8-0.4c-3.7-0.2-4,0.2-6.8,0.3c7.3-1,21.7-1,29.4-1.2
							c1.2-0.1-1,0.2-1.3,0.3c3.2,0,5,0.3,9,0.1c2.5-0.4-1.9-0.3-3.8-0.4c0.3-0.4,1.3-0.3,3.4-0.4c0.5,0.5,12,0.2,14.8,0.8
							c11.6-0.2-1.9-1.3,9.5-1.1l3.4,0.6c6.6-0.4,15.1-0.8,22.6-0.7l-1.6,0c-1,0.2,0.7,0.4,1.4,0.5c5.6,0.2,10.7-0.4,14.1,0.1
							c6.4-0.6,17.2-1,24.5-1.3c2,0.7-9.6,0.6-12.7,1.1l6.7,0c-4.1,0-5.8,0.3-8.3,0.7c5.9,0.1,7.8-0.5,13.4-0.7
							c-0.4,0.2,0.3,0.3,2.9,0.3l0.7-0.5c0,0,0.3,0.1,1.1,0.1l9.9-0.3c-2.1-0.2-2.2-0.6-4.8-0.6c0.9,0.3-1.3,0.3-3.8,0.3
							c2.2-0.3-2.5-0.3-2.4-0.5c5.1,0,11.4-0.1,14.8-0.2l1.1,0.5c4.9,0.1,10-0.1,13.4,0l-1,0.2c5.9,0.1,11.6-0.2,16.8,0.3
							c5.2-0.5,11.8-0.9,16.1-1.5c2.3-0.6,15.3,0.7,21.2-0.1c0.4,0.1-4,0.4-6.1,0.7c3.9,0.1,7-0.6,8.3,0c-8.8-0.2,0.5,0.5-3.5,0.7
							c4.1,0,8.5-0.1,10.5-0.3c-6.7,0,2.4-0.8-4.4-0.6c5.2-0.5,12.4-0.7,18.6-0.5c-0.1,0.3,0.7,0.4,3,0.5l1.9-0.4
							c2.9,0.1-5.6,0.5,0.2,0.6c6-0.7,18.2,0.4,20.8-0.8c4.6,0.5-8.8,0.5-1.8,1.1c-4,0.4-9.6-0.1-10.9,0.5c4-0.2,1.4,0.5,4,0.5
							l4.4-0.4l-1,0c7.4-0.6,19.1-0.3,28.6-0.4c8-0.6,13.5-1.5,23.1-1.4c-2.8,0.4,8,0.3,1.9,1c4.4,0.3,8.8-0.1,8.9-0.3
							c-3.9-0.1-1.4-0.1-4.7-0.2c2.2-0.3,7.4-0.3,9.5-0.1c-1,0-0.6,0-0.8,0.1c4.7,0.2,2.2-0.3,5.6-0.5c1.1,0.4,7.5,0.1,10.5,0.4
							l4.5-0.6c-2.5,0.4,4.3,0.2,5,0.5c3.2-0.3,5.9-0.8,10.8-0.7c-2,0.2,4.5,0.3,4.5,0.7c8.4,0.4,13.8-1.2,21.8-0.6
							c-0.2,0.1-1.8,0.4,0.5,0.5c1.8-0.1,5-0.1,7-0.1l-0.1,0c0,0,0.1,0,0.1,0c1,0,1.6-0.1,1.6-0.2c3.3-0.4,5.1-0.8,11.6-1.2
							c-0.5-0.5-6-0.3-8.4-0.1L401,11c-2-0.7-5.9,0.1-7.4-0.1c3.9-0.9,15.3-0.7,22.1-1.2c-4.2-0.7-13.2-0.8-21.1-0.7l3.5,0.3l-4.1,0
							l4,0.5c-3.9-0.1-7.3,0-10.8,0c4.1,0,5.7,0.7,3.4,0.6c-4.6-0.5-4.8,0.3-8.3,0.3c2,0,4.5,0.1,2.9,0.3c-6.9-0.6-8.8-0.2-15.1-0.8
							c0.8,0.8-7.9,0.1-8.8,0.7L364,11l-6.2,0.5c-5.7-0.7,5.1-0.7-3.6-1.1c-8-0.1-7.8,0.8-14.2,0.8c2.1-0.5,7.1-0.9,12.2-0.9
							l-3.1-0.2c1.6-0.3,8.7-0.2,12.2-0.2c-5.8,0.6,2.7,0.2,5.4,0.6c0.5-0.5-3.3-0.4,1.2-0.8c-4.1,0-4.7,0-10-0.1
							c11.4,0.2,10.2-1.6,20.2-1.2c-4.6,0.2,1.6,0.7,2.1,0.9c2.2-0.1,6.5-0.2,8.3-0.3l-1.6-0.7c5.8-0.3,7.8,1.1,14.5,0.4
							c0.9-0.4-5.9-0.1-4.7-0.2c9.1-0.4,12.4,0.7,20.5,1.2c0.5-0.2,0.4-0.6,3.2-1c-0.9,0.4,1.2,0.6-2,0.9c2.7,0.2,5.9-0.1,8.3-0.3
							c-5.6-0.2,2.3-0.6,3.3-0.8c2.9,0.1-0.9,0.4-2.7,0.5c2.3,0.1,5.1,0.7,6.5,0.1c0.1,0.4-6.6,1.1-10.9,1.2l2.9,0.1
							c-2,0.2-2.4,0.2-5.3,0.1c2.9,0.3,2.6,0.7,1.9,1c-0.4-0.1,0.2-0.1-0.1-0.2c-2.3-0.1-4.1,0-3.6,0.2c-2.1,0.6,3.3,0.4,4.8,0.6
							c1.2,0,2.4-0.1,3.6-0.1l12.2-1.8c5.2-0.2,7.5,0.2,11.5,0.5l1.1-0.5c4.5,0.1,8.8,0.2,5.9,0.8C457.6,11,457,11,456,11
							c-0.1,0.1-0.4,0.1-0.6,0.2c-0.1,0-0.1,0.1-0.2,0.1c4.9-0.2,7.9-0.3,8.2-0.3c-8.2,0.7-0.4,0.9-1.8,1.8l8.3-0.3
							c-5-0.3-0.1-0.4,1.7-0.5c0.5,0.5,6.7,0,9.6,0.1L481,12c2.7,0.2,7.4,0.1,10.8,0c-0.2-0.2,4.2-1,6.2-1.4
							c-5.8-0.2-2.4-0.4-2.8-0.7c0.6,0,1.7,0,1.8,0c0.8-0.1-1.1-0.2-1.3-0.3c-6.1,0.2-12.5,0.3-15,1c1.9,0.3,3.2-0.3,5.3-0.1
							c-3,0.5-7,0.4-12.1,0.4l-1.7-0.4l-5.1,0.2c2.1-0.2,0.9-0.6,6.2-0.7c-0.7-0.4-5.3,0.1-8.6,0l-1.7,0.5c0.6-0.3-6.4-0.4-1.4-0.8
							l8.2-0.4l-2.3-0.4l6.9-0.1l-1.6,0.3c11.1-0.4,3.3,1.1,14.4,0.4c3.5-0.7,7.3-0.7,14.1-0.6c-5,0.1-0.5,0.5-2.4,0.8
							c5,0.3,6.8-0.3,9.4-0.5c1.3,0.3,2.2,0.6-2.3,0.6c-0.6,0.7,5.9-0.1,6.3,0.6c14.9,0,12-2.4,29.4-1.5l-0.7,0.3
							c11.1-0.4,17.5,0,27.8-0.3l8.1,0.8c-1.8,0.1-6.7,0.7-4.4,1.1c-3.9-0.8-8.1-0.5-12.3-0.9c-0.4,0.2,1.3,0.3,2,0.5
							c-2.6,0-3.8-0.4-7.2-0.2c0.2,0.2,3.8,0.4,1.1,0.4l-4.6-0.5c-6.1,0.2-3,1.1-10.3,0.9c1.3-0.4,4.1-1,6.9-1.1
							c-3.3-0.1,4.4-0.3,1.4-0.5c-4.8,0.6-7,0.1-13.4,0.5c0.7-0.1,0.9-0.2,2.5-0.3l-9.2-0.3c2.3,0.4-7.6,0.4-6.7,1
							c9.8,0.2,6.9-0.1,18,0.2c-3.2,0.1-7.2,0.7-9.1,1.2c-0.1,0-0.3,0-0.6,0c-1.7,0.5,0,0.7,0,1.6c5.1-0.7,8.5-0.1,14.5-0.5
							c1.1-0.5-3.5-0.7-6.5-0.5l5.3-0.3l-1,0.2l13.4,0.2c-2.5,0-3.4,0.3-4.7,0.6c1.7,0,3.4,0.2,5.3,0.3c-0.4-0.5-0.1-0.8,1.5-0.8
							c8.6,0.1,13.4,0.6,16.6,1.1c0.3,0,0.7,0,1,0c-1.4-0.5,6.1-0.9,8.8-1.4c-0.1,0.5,4.4,0.3,6.9,0.6c1.3-0.6-0.4-1.4-3.5-1.9
							c-5.8,0.6-3.3,0.6-6,1.3l-9.4,0.5l2.1-0.5c-4.7-0.2-9.2,0.4-8.8-0.2c2.5-0.4,6.5-0.2,9-0.6l-3.1-0.2c5.5-0.6,2.8,0.6,9.4,0.2
							c-2.4-0.5,0.6,0,3.4-0.4c-2.3-0.4-11.6,0.2-9.6-0.8c3.4-0.4,11.5,1.1,16.1,0.2l-0.2,0.1c6.7,0.1,9.1-0.4,11.6-0.7
							c2.9,0.3,6.8-0.1,9.9-0.2L613,9.7l4.4-0.1c-2.1,0.5-5.1,0-8.9,0.1l0.5,0.5c-4.3-0.6-7.2,0.3-10.5,0.7
							c4.9-0.4,13.8,0.1,14.9-0.8l3,0.5l1.4-0.2c2.2,0.4,0,1-4.4,1.1c-0.8-0.1-1.1-0.2-0.9-0.3c-2,0.2-3.9,0.6-8.8,0.5l2.6-0.3
							c-6.1,0-11.6,0.2-13.7,0.6c8.8,0.2,17.4,0.2,25.7,0.2c2.4-1.1,5.3-1.7,6.6-2.8c5.5-0.2,13.1-0.3,17.9,0l-0.4,0.2
							c2.3,0.1,4.5,0.1,6.3-0.1c2.5,0.3-1.7,0.5,0,0.7l7.9-0.3c-0.5,0.5-7.2,0.5-10.3,0.5c0.6,0,1.8-0.1,1.4-0.2
							c-3.7-0.2-10.6,0.6-12.2-0.1c-1.8,0.1,3.6-0.5-2.4-0.5c-4.1-0.3-5.4,0.4-5.8,0.6c-0.1,0.3,6.4,0.4,4.2,0.7
							c3.2,0,4.4-0.4,8.5-0.1c-3.1,0-7.4,0.6-9.1,0.2c-6.2,0.5-5.3,1.7-2.4,1.8c-0.7-0.4,11.3-0.5,3.2-1c3.7-0.5,10.3-0.5,15.1-0.8
							l-0.2,0.1l5.9-0.1c-0.8,0.1-2.6,0.3-2.7,0.5l8.2-0.7c-4.6,0.5,2.9,0.3,5,0.5c0.9-0.4,4.1-0.7,1-0.9c-3.5-0.3-2,0.2-5.2,0.2
							l4.5-0.6l0.4,0.1l2.7-0.5c6.1,0-2.7,1.2,5.1,0.7l-1-0.7c9,0.1,20.6,0.9,27,0.6c-1.8,0.4-2.5,1.1-0.1,1.4
							c-2.7-0.1-8.3-0.1-12.2,0c-0.8-0.1,4.9-0.8,9.2-0.7c-2.1-1.2-10.8,0.7-11.3-0.5c-10.9-0.4-8.1,1.1-17.4,0.4
							c-0.1,0.5-2.6,0.3-3.1,0.7c2.7,0.9,12.4,0,18.4,0.3c-0.6,0-1.8,0.1-2,0.2c4.3,0.2,6.1,0,9.1-0.2l-0.4-0.1
							c5.2-0.5,3.2,0.4,6.3,0.6c1.2-0.1,5.5,0.1,4.8-0.3l5.6,0.5l-0.3-0.6c3.2,0,3.8,0.4,6.7,0l0.1-0.5l-7.8-0.2
							c4-0.2,1.1-0.5,5.5-0.6c-4.9,0.6,3.4,0.3,3.9,0.8l3.2-0.3l-0.8,0.1c2.5,0.3,3-0.2,5.9-0.1c-3.5-0.3-5.7-0.7-10.2-0.3
							c3.2-0.3,9.6-0.6,11.2-0.6c3.4-0.2,5.7,0.2,8.9,0.2c-6.1,0.2,2.1,1.6-10,1.2c0.2-0.1,1.2-0.1,1.6,0c-1.6-0.7-7.3,0-9.9,0.3
							c0.7,0.4-2.1,0.5,2.6,0.7c-1.5-0.2,3.9-0.9,8.4-0.5l-0.8,0.8L729,13l-0.6,0c2.4,0.5,6.9-0.1,11.4,0.2
							c3.2-0.3,15.6-0.1,10.2-0.9c4,0.5,7.5-0.1,11.9-0.3l-5.4-0.3c6.4-0.6,4.6-0.2,9.7-1.2c0.5,0.2,1.7,0.4,0.6,0.7
							c8.6,0,21,0.3,26-0.4c6.1,0,7,1,15.6,0.6c1.8-0.1-1.4-0.8,4.3-0.5c0.4,0.1-5.4,0.6,0.9,0.5c4.5-0.6,10.5,0.4,16.4-0.2
							c3.1,0.2,8.4,0.1,7.3,0.6c-4.9-0.1-11.8,0-12.8,0.2c0.7-0.3-3.5-0.3,0.1-0.5c-7.4-0.4-4.8,0.3-11.4,0.1
							c-0.5,0.2,3.4,0.6,4.8,0.4c0,0.7-13,0.3-7.2,1.2c7.1,0.1,9.2-1.4,15.3-0.7c-2.5,0.4-6.3,0.1-9.4,0.8l5,0.3l3.7-0.5l-0.2,0.1
							c8.9,0.6,8.2-0.7,16.2-1.1c-4.6-0.5,1.1-1.2-2.4-1.5c5.3-0.1,9.2,0,9.3,0.7c-10,0.6-0.6,0.7-9.8,1.4c1.5,0.2-2.2,1,3.3,1.1
							c6.2-0.5-1.8-0.6,4.3-0.8c0.4,0.1,0.7,0.1,0.5,0.2c2.8-0.4,3.3,0.1,6.7-0.3l-0.8,0.1c4.2,0.4,4.6-0.5,8.3,0
							c-1.5-0.5,2.4-0.4,4.7-0.7c-3.7-0.2-5.7-0.9-13-0.9c-0.9,0.4-0.3,0.6-3.3,0.8l4.7,0c-1,0.1-1.8,0.2-2.7,0.3l-4.5-0.2
							c5.8-0.3,3.1-0.7,5.6-1.1c5.3,0.2,4.4-0.1,7.7,0c-0.3,0.6,10.2,1,16.2,1.4c-0.9,0-2.2,0-2.8,0c-4.4,0.4,3,0.5,3.2,0.7l3.2-0.3
							c-0.6,0-1.4,0.2-0.1,0.3c4.4-0.1,4.1-0.7,8.4-0.8c0.3,0.3-3.3,0.8-0.6,1c0.9,0.3,3.9,1,9.7,0.8c0.4-0.1,1.9-0.2,3.6-0.2
							c-0.2,0-0.5,0-0.7,0.1l3.8,0.4c-3.3,0.6-6.6-0.3-9.9,0.3l-0.3,0.5c-2.6,0-6,0.2-7.6,0.5c3.9,0.1,4.7,0,9.1-0.2
							c0.6,0.3-2.5,0.6-2.9,0.6l0.6-0.3c-5.2-0.4-7.8,0.5-14.2,0.4c-1,0-0.4-0.1-0.2-0.2c-5.2,0.5-10.4-0.2-15.5,0.5l1.7-0.3
							c-3.5,0.2-10.2,0.7-17,1.3l-0.1,0.2c0.8,0.1-1.8,0.1-3.2,0l0,0c-3.4,0.3-6.7,0.5-9.3,0.7c0.9,0.1,1.9,0.2,3.2,0.3
							c1.1-0.2,7.3,0,6.4-0.6c2.9,0.3,7.5-0.1,9.6,0.1c-3.8-0.4,2.7-0.5,3.4-0.8c1.3,0.3,5.7,0,5.2,0.4c0.8,0.1-1.9-0.3-3.5,0
							c-4,0.4,7.4,0.4,2.4,0.8c6.4-0.3,14.8-0.2,21.4-0.6l-3.7-0.2c2.9,0.1,9.9,0,10.4,0.2c-2.2,0.1-4.7,0-7.5,0.1
							c-0.1,0.5,6.7,0,7,0.3l8.1-0.9l-3.5,0c2.2-0.3,9.6,0.1,15.1,0.1c-3.1,0.7-8.3,0-14,0.3c-4.2,0.3,2.6,0.7-1.4,0.9
							c1,0.2,3.6,0.1,4.9,0l1.6,0.1c-3.5,0.7-11.5,0.5-16.8,1.1c0.5-0.1,0.9-0.1,1-0.2c-4.1-0.3-8.2-0.2-12.2-0.1
							c2.1,0.2,2.9,0.1,4.1,0c0.1,0.2-3.6,0.2-5,0.4c3.7,0.2,0.7,0.4,3,0.5c-2.4,0.2-4.3,0.1-7.3,0c-1.5-0.2,1.3-0.3,0.9-0.7
							c-3,0.2-4.4-0.6-8.8-0.2c5.9,0.1-1.5,0.7-3.6,0.9l1,0c-1.9,0.4-3.4,0.4-4.7,0c2.4-0.2,4.7,0,4-0.4c-1.6,0-3.2,0-5,0.1l1.6-0.3
							l-7.9,0.1c-1.2,0.3-3.3,0.8-4.4,1.3c-1.9-0.3-4.5-0.1-6.3,0.1l0.8-0.1c-3.5-0.3-11.2,0-11.9,0.3c-2.5-0.3,17.6-1.9,0-1.6
							c-6.7,0-4.2,1-8,1.3c0,0,0.2-0.1-0.2-0.2c-2.9-0.1-3.2,0.3-5.6,0.5c1.8,0.1,4.3,0.2,5.1,0c-0.9,0.4-6.1,0-8.3,0.3
							c2.9-0.6-5.6-0.2-3.4-0.6c-5.8-0.4-12,0.1-15.1,0.6c-3.9-0.8-6.9,0.1-13.3-0.3c1,0,2.8-0.1,4.1,0c3.6-0.5-6.6-0.3-1-0.7
							c-1.2,0.1-0.1,0.3,1.1,0.2c2.2-0.1,4.2-0.3,3.6-0.5l-5.2-0.4l1.8-0.1l-7.9-0.6c-0.2,0.1,0.5,0.2,0.9,0.3
							c-9.2-0.3-19.7,0.1-27.7,0c-1.5,1.4-19.8,0.6-26.3,1.5c1.7-0.4,2.7-1.1,1.6-1.4c1.4-0.1,4.4-0.6,7.7-0.5
							c0.5,0.2,4.6,0.5,2,0.7c9.1-0.2-1.2-0.6,1.5-1.1c-10.1,0.1-16,1-22.3,1.3l-0.2-0.2l-4.8,0.3c3.9,0.1,3.7,0.9-1.3,0.6l0.6,0
							c-2.9-0.3-8.9,0.1-13.4,0l-3.1,0.5c-4.5-0.1-4.7-0.9-6.2-1.4c-7.1-0.1-11.1,0.6-16.2,1.1c-2.3-0.4-12.9-0.5-7.2-0.9
							c-6.4,0.3-5.1,2.3-16,1.2l2.8-0.4c-10.5,0.1-25.4,0.8-30.2,0.4c3.9-1.3-13.1-1.3-14.9-2.6c0.5,0.3-3.4,0.4-4,0.5
							c-0.9-0.1-2.3-0.3-3.8,0c4.1,0.3-2.9,1.3,4.9,0.8c-3.9,0.9-9,1.5-17.7,1.5l0.1-0.5l6.8,0.2c-0.7-0.4,2.8-0.4,4.3-0.5
							c-12.7-0.3,1.7-1.2-11.3-1.2c-1.3,0.3-0.4,0.2-3.8,0.3c1.6,0,1.9-0.4-0.7-0.4l-2.5,0.4c-4.5-0.9,7.5-0.6,3.6-1.2
							c5-0.4,13.7-0.6,12.1-1.3c-8.2-0.2-7.4,1.3-15.9,1l-0.9-0.3c-3,0.2-3.5,0.7-5.2,0.9c-0.1-0.2-0.9-0.3-2.9-0.3
							c-5.1,0.7-8.5,0.8-13.2,1.5c12.5-0.6,10.7,0.5,23.6,0c-2,0.2-11.1,0.4-11.7,1.1l0.1-0.5c-4.2,0.3-8.4,0.5-13.7,0.4l3.2-0.3
							c-7,0.4-11.6-0.8-17.1,0.1c1.9,0,3.5,0,4.7,0c-3.6,0.2-8.1,0.2-12,0.1l-8.1,0.9c0.1-0.3-5-0.3-2.6-0.7
							c-5.8-0.4-8.6,0.4-11.9,0.5c-6-0.6,5.2-0.2,5.7-1c-8.2-0.2-16.9,0-21.5,0.5c1.7,0.1,2.5,0.2,2.4,0.3c-0.2-0.2-3.6-0.1-5.4-0.1
							l-1.3,0.3c-3.1-0.2-2.6-0.4,0-0.7c-2.9-0.1-6.4,0.6-9.5,0.1c5-0.4,11.4-0.1,14-0.3c-10.5,0.3-10.5-1-23.8-0.6
							c-0.2-0.2,2.1-0.5-0.5-0.5c-5.9,0.1-1.5,0.7-3.4,1.1c4.6-0.2,6.7,0,9.3,0.4l-1.2,0.3c-0.2-0.1-3-0.2-3.9-0.3l-0.7,0.6
							c0.3-0.6-4.2-1.1-7.8-0.9c3.6,0.5,2.7,0.4,3.6,1.1c-5.1,0.7-5.7-0.7-11.4,0.1c0.4-0.2,5.4-0.4,1.1-0.5c-3.5,0-3.1,0.5-5.5,0.6
							c2.7-0.5,2-0.9,4.9-1.5c6.3-0.1,2.5,0,8.7-0.2l-5.2-0.4c5.3-0.1,3.9-0.6,4.3-0.8c-9.1-0.5-6.9,0.8-12.7,0.7
							c-2.8,0.4,5.5,0.1,1.1,0.5c-5.5-0.1-1.3,0.3-7.4,0.6l1-0.2c-1.9-0.3-3.7,0.1-5.9,0.1c-2.4,0.2,2.7,1.8-7.1,1.9
							c0.5-0.1,0.7-0.2,0.7-0.3L435,18c-10,0-21.5-0.1-33-0.4c-2.7-0.9,8.2-0.7,7.5-1.1l5.3,0.2c-0.3,0.4-11,0.1-6.3,0.8
							c9.3-0.3,13.5,0.2,22.4-0.6c-2.7-0.9-11.6,0.2-17.4-0.5c2.4,0.1,4.4,0,6.4-0.2c-5.4-0.1-11.2-0.2-17.3-0.4l-1.4,0.2
							c4.1,0.1,7,0.2,7.4,0.2c-5.5-0.1-10.1,0.4-10.5,1l1,0l-2,0.2C395.8,17.5,394.5,17.4,393.3,17.4z M37.9,17.2
							c0.3-0.1,0.6-0.1,0.8-0.2C38.4,17.1,38.7,17.2,37.9,17.2z M500.6,15.3c-7.3-0.1-14.7-0.3-21.7-0.3c12.7,1.2,21.6,2.2,0.4,2.2
							l-1.4,0.1c2.8,0.2,7.5,0.2,12,0.1c3.6-0.4,15.3-2.1,15.2-2.2c-1.3-0.3-3.2,0-5.5-0.1L500.6,15.3z M505.8,17.3
							c4.1,0.1,3.2-0.1,3.8-0.4c-1.5,0-2.9,0.1-4.4,0.1C505.9,17.1,506.2,17.2,505.8,17.3z M509.4,16.7c-0.5,0-0.9,0-1.1-0.1
							L509.4,16.7z M428.8,16.4c0.2,0,0.3,0,0.4,0c-1,0-2,0-3-0.1C426.7,16.4,427.4,16.4,428.8,16.4z M437.2,17l1-0.5
							c-0.9,0-1.8,0-2.8-0.1C435.7,16.7,436.1,16.9,437.2,17z M464.3,18.5c1.7-0.5,7.4-0.6,7.8-1.2c0.4-0.2-0.8-0.2-2.2-0.3
							c-1.5,0-3.1,0-4.8-0.1c-0.1,0.1-0.4,0.2-1,0.3c1.7,0.1,2.8,0.2,2.1,0.6c-4.3-0.8-3.9,0.6-8.5,0.4
							C456.2,18.7,462.9,18.7,464.3,18.5z M823.4,16.9c0.1,0.1,0.6,0.2,1.2,0.4l-3.3,0.3c-5.9-0.1-10.6-1-15.9-0.3
							c-2.5-0.2-3.8-0.6-5.1-0.9c1.2,0,2.3,0.1,3.3,0.1C818.5,15.3,811.4,17.6,823.4,16.9z M755.9,15.8c0.6,0,0.8-0.1,0.8-0.1
							c-13.1,1.2-23.9,1.5-31,1.4c1.4,0.5,7.7,0.8,10.7,1l-2.7,0.5l-1.7-0.4l-4.6,0.5c1.3,0.4,5,0.3,7.5,0.5c0.2-0.1,8.2-0.7,10.5-1
							l-6.4-0.4c1.7,0.1,10.2,0,13.6-0.1c0.1-0.3-5.7-0.7-6.5-0.1c-0.7-0.4,6-0.4,1.8-0.8c5-0.4,13-0.1,16.7,0.1l0.6,0.7
							c4.1,0.3,2.7-0.8,7.6-0.4c-5.9,0.1,1,0.7-3.7,0.8c1.5,0.2,0,0.7,4.8,0.6c3.9-0.9,5,0.5,8.7-0.2c2.5,0.3-2.7,0.5,2.2,0.6
							c5.6-0.5,5.3-0.8,5.6-1.4c-5.2-0.2-5.9,0.8-10.2,0.7l8.5-1.1c-1.6-0.2-2.7-0.2-3.7-0.1c1.7-0.1,3.2-0.2,4.4-0.4
							c0.7-0.1,1.4-0.2,2-0.3c-4.8,0-9.1,0-9.9-0.3l0.7-0.3c-1.7-0.3-4.5-0.1-5.8,0.2c-4.3,0-8.7,0.5-9.6,0.1l1.6-0.3
							C763.2,15.7,762.6,15.8,755.9,15.8z M581.4,15.1c3.2,1.1,6.8,2.1,21.8,1.9l-1.2,0.1c7.6,0.7,14.8-0.9,24-0.1
							c-4.5,0.4-4.2,0.4-9.2,1.3l4.8-0.3c-1.3,0.6,3.5,0.3,7,0.3l-3.1,0.7c-2.1-0.2-7.6-0.3-7.4-0.1c1.2-0.1-7.2-0.9-11.8-0.7
							c0.5,0.5,10.2,0.3,5.8,1.1c3.8-0.3,4.3,0.2,8.3,0c-3.8,0.3-0.9,0.7-3.8,1l6.5-0.2c0.2,0.2-9.5,0.4-4.2,1
							c2.6-0.3,9.6,0.1,9.7-0.5l0.2,0.2c4.9,0.1,2.2-0.7,8.2-0.4c0.1-0.3-1.1-0.4-3.2-0.4c-1.8,0.1-2.1,0.5-5.8,0.6
							c-1.7-0.4,4.5,0.1,1.9-0.6c-1.3-0.3-9.9,0.3-7.2-0.5l4.9,0.1c0.1-0.5,3.7-0.5,3.6-0.9c3-0.2,5.8,0.4,8.9-0.1
							c1.3-0.3-0.9-1,4.1-0.7c3.9,0.8,15.6,0.6,19.9,0.5l3.8-0.3c-0.3-0.3-7.3,0-4.8-0.4l5.9-0.1l-0.5,0.2c2,0,4-0.2,5.8-0.3
							c-1.9,0.4-6.1,0.2-5.3,0.8c2.8,0.1,3.2,0.3,5.8,0.2c-0.6,0-1,0.1-1,0.2c5.6,0.2,5.5-0.6,6.9-0.8c5.7-0.7-5.7-0.7-5-1.2
							l16.6-0.3c-1.4,0.2-2.8,0.4-2.3,0.6c4.1,0.3,0.1,0.4,5.8,0.4c-0.4-0.8,7.2-0.5,11.2-0.9c1.9,0.3,2.3,0.4-1.8,0.4
							c0.5,0.5,6,0.3,8,0.3c1.1-0.1,3.1-0.2,4.3-0.3c-1.7-0.2-0.9-0.5,2.6-0.8l0.2-0.1c-5.9-0.1-15-0.7-18.6-0.2l1-0.2
							c-6.8-0.4-14.8,0.9-17.9,0c0.3-0.4-1.4-0.1-1.2-0.6l-5,0.4l1-0.2l-8.5,0.1l0.2-0.1c-4,0.5-7.2,0.9-9.7,1.2
							c0,0.2,0.3,0.3-1.1,0.5c-1.3,0.1-2.4,0.1-3.3,0.1c0,0,0,0,0,0c0,0,0,0,0,0c-2.1-0.1-3.5-0.4-6-0.5l7.9-0.1
							c0.6-0.4,0-0.8-3.9-1.1c1.6,0,2.2-0.3,0.3-0.4c-0.2,0.1-5.2,0.2-3.3,0.6c-7.5,0.1-19.6-0.9-31-0.1c8.2-0.4-6.6-0.5,2.5-0.7
							c-6.3-0.6-5.5,0.6-11.9,0.5c-0.6-0.2,3.5,0,5-0.4c-10.7-0.3-18.1,1-28.5,0.8l-0.4-0.5C585.9,14.9,583.7,15,581.4,15.1z
							 M560.9,15.7c-2,0.1-4,0.1-6.1,0.2c0.2,0,0.4,0,0.6,0l-6,0.4c3.7,0.2,6.1,0.7,1,1c0.4-0.2-1.1-0.4,0.7-0.6
							c-3.5-0.3-11.1-0.6-9.1,0.2c6.7-0.7,1.6,0.9,6.8,0.4c-2.8,0.5-5.6,0.3-8.2,0.5c2.8-0.4-0.6-0.9-4.8-1.1
							c-1.8,0.1-6.7,0-9.7,0.2c1.1,0.5-1.5,0.7,3.3,0.8c-1.8,0.1-4.6,0.2-7.7,0c1.2-0.1,3.4-0.1,3.2-0.3c-2-0.4-4.4-0.4-5.6-0.6
							c-1,0-2.1,0-3.1,0.1c0.3,0,0.6,0.1,0.8,0.2l-3.4,0.4c4.6-0.2,2.1,0.2,2.1,0.5c0.1-0.5-2.9-0.1-4.5-0.1l3.4,0.6
							c-1.6,0.3-5.8-0.4-4.9,0.1c7.2,0.2,10,0.1,16.5,0l-2.6-0.4c7.4-0.3,4.5,0.7,12.8,0.7c3.4-0.4,12.4,0,12.6-0.8
							c-1,0.2,5.1,0.7,8,0.3c3.1-0.7,12.6-0.8,9.7-1.2c-2.6,0-6,0.4-8-0.1l5-0.2l-3.3-0.4C561.8,16.6,561.6,16.2,560.9,15.7z
							 M449.9,11.2c-0.1,0-0.1,0-0.2,0C449.8,11.2,449.8,11.2,449.9,11.2L449.9,11.2z"/>
						<path class="st0" d="M896.8,15.2c1.4-0.2,5-0.2,4.3-0.5C901.1,15.1,894.7,14.7,896.8,15.2z"/>
						<path class="st0" d="M901,15.6c0.2-0.1,0.1-0.3,1.7-0.3l-4.4,0.1L901,15.6z"/>
						<path class="st0" d="M905.4,18.6c2.2-0.3,3.7-0.5,7.2-0.5c1.3,1-5.8,0.3-7.4,1.3c6.5,0.1,8.4-0.8,13.8-0.9
							C916.3,18,905.6,17.8,905.4,18.6z"/>
						<polygon class="st0" points="902.5,19.9 906.1,19.6 905.8,19.6 902.2,19.8 						"/>
						<path class="st0" d="M824.7,10.8c-0.3-0.3-2.6,0-3.8,0.1C821.9,10.9,823.3,11,824.7,10.8z"/>
						<path class="st0" d="M118.7,10.5l-27.4,0.3C99.1,10.7,106.4,10.7,118.7,10.5z"/>
						<path class="st0" d="M733.7,13c7.4-0.3,10.6-0.9,18.1-1c-9.9-0.7-13,1-21.3,0.4L733.7,13z"/>
						<path class="st0" d="M736.3,10.4c1.2,0.6-5.7,0.7-4.6,1.2c5-0.1,2.3-0.6,6.8-0.5L736.3,10.4z"/>
						<polygon class="st0" points="769.7,20.5 767.5,20.8 769.3,20.7 						"/>
						<polygon class="st0" points="702.8,10.9 703.6,10.8 699.9,10.6 						"/>
						<path class="st0" d="M704.4,10.6l-0.8,0.1L704.4,10.6z"/>
						<polygon class="st0" points="766.8,21.8 770.1,21.9 771.8,21.6 						"/>
						<path class="st0" d="M737.5,18.5l3-0.2C739.9,18.4,735.9,18.1,737.5,18.5z"/>
						<polygon class="st0" points="680.3,10.6 676.6,10.9 677,10.9 680.6,10.7 						"/>
						<path class="st0" d="M714.3,20.2c2,0.5-5.9,0.1-1.7,0.5C716.4,20.7,714.8,20.4,714.3,20.2z"/>
						<path class="st0" d="M670.8,17c-0.5,0-1,0-1.5,0.1C669.9,17.1,670.4,17,670.8,17z"/>
						<path class="st0" d="M670.8,17c1.6,0,3.1,0.2,4.2,0C673,16.8,672.3,16.9,670.8,17z"/>
						<path class="st0" d="M652.8,17.1l1.4,0c-1.5,0.2-0.8,0.2,0.5,0c1.5,0,1.4-0.2,1.6-0.3c0.3-0.1,0.6-0.1,0.9-0.2
							c-0.5,0.1-0.9,0.1-1.2,0.2C653.7,16.9,652.2,16.9,652.8,17.1z"/>
						<path class="st0" d="M585.8,9.2c5.3,0.2,6.6,0.3,6.3,0.6c5,0.1,4.2-0.5,7.2-0.7C593.8,9.2,592.6,9.1,585.8,9.2z"/>
						<path class="st0" d="M599.4,9.2c0.6,0,1.2,0,2,0C600.6,9.1,600,9.1,599.4,9.2z"/>
						<polygon class="st0" points="673.8,21.1 670.5,21.7 671.7,21.6 						"/>
						<path class="st0" d="M578,9c1,0,2.5,0,3.3,0.1C581.6,8.8,577,9,578,9z"/>
						<path class="st0" d="M598.3,16.2c0.5,0.2,3.9,0.1,5.3,0.2C601.6,16.3,600,15.6,598.3,16.2z"/>
						<path class="st0" d="M562.9,10.5c1,0,2.5,0.3,1.8,0.6C566.2,10.9,568.1,10.3,562.9,10.5z"/>
						<polygon class="st0" points="588.7,16.1 589.5,16.2 593.1,16 						"/>
						<path class="st0" d="M601.6,21.5c4.1-0.4-6.4-1.1,0.6-1.4c-9-0.5,0.7,0.6-6,0.5C600,20.8,602,21.3,601.6,21.5z"/>
						<path class="st0" d="M596.2,20.6c-0.6,0-1.2,0-1.8,0C595.1,20.6,595.6,20.6,596.2,20.6z"/>
						<path class="st0" d="M539.1,17.9c0.6,0,1-0.1,1.4-0.1C540,17.7,539.6,17.8,539.1,17.9z"/>
						<path class="st0" d="M575,21l6.1-0.7c-4.1,0.4-14.3,0.4-13.6,1.1c3.3,0.1,7.3,0,8.9-0.3L575,21z"/>
						<path class="st0" d="M505.2,9.2l2.6-0.3l-3.3-0.1C505.5,8.9,503.8,9.4,505.2,9.2z"/>
						<path class="st0" d="M504,8.8l0.6,0C504.4,8.8,504.2,8.8,504,8.8z"/>
						<path class="st0" d="M550.6,17.5c2,0,3.5,0,5.3-0.1C555.2,17.3,550.3,17.2,550.6,17.5z"/>
						<polygon class="st0" points="486.8,10.1 491.1,10 486.4,10.1 						"/>
						<polygon class="st0" points="466.5,9 465.8,8.9 462.2,9.1 463,9.2 						"/>
						<path class="st0" d="M493,21.8c2.9,0.1,5.2-0.5,4.5-0.6l-5.7,0c1.4,0.5,1.6,0,4.9,0.1L493,21.8z"/>
						<path class="st0" d="M316.5,10c1.3-0.3,7.5-0.1,7.8,0.2c-0.8,0.1-4.2,0.3-2.1,0.5l4.9-0.8c6.6,0.5-5,1.1-8.2,1.4
							c6.7,0.1,8.7-0.4,15.8-0.4c-2.1-0.1-3.4-0.3-4.5-0.5c-0.2-0.6,6.4-0.3,11.1-0.4c-3-0.3-1.3-0.5,0.9-0.7c0.4,0,0.7-0.1,0.8-0.1
							c0.3,0,0.5-0.1,0.7-0.1l-0.6,0c0-0.1-0.1-0.1-0.5-0.3c-4,0.2-7-0.3-9.6-0.3c2.5,1-8.7,0.2-11.9,0.5l-3.7,0.1l-1.4,0
							c-0.3-0.1,0.1-0.2,2.2-0.4c-1.8,0.2-7.7,0.1-7.1,0.4l-13.4,0c-0.4,0-0.8-0.1-1.1-0.2c-0.5,0.1-0.5,0.1-0.5,0.2l-58.6,0.1
							c2.9,0.1,5.4,0.3,8.4,0.4c-4.5,0.6,4.9,0.1,3.6,0.7c-2,0.2-5,0.2-6.7,0c-0.7,0.3,1.8,0.6,1.6,0.9c7.4,0.4,8.5-1.1,15.7-0.9
							c-0.3,0.4-2.5,0.7,2.2,0.6l-1.2,0.1c7.6-0.4,5.9,0.8,10.7-0.2l-0.1,0.5c3.4-0.4,10.1-0.4,13.9-0.5l-0.2,0.1
							c10.6-0.6,5.9-0.1,17.8-0.4l-5.5,0.6c4.1,0.3,5-0.4,7.9-0.3c-0.2,0.1,0.5,0.5-2.3,0.6l14.4-0.9
							C321.2,10.2,317.1,10.2,316.5,10z"/>
						<path class="st0" d="M334.7,10.7c0.8,0,1.6,0,2.6,0C336.4,10.8,335.5,10.7,334.7,10.7z"/>
						<path class="st0" d="M233.6,9.1l4.1,0C236.4,9.1,235.1,9.1,233.6,9.1z"/>
						<path class="st0" d="M355.4,9.6c-2.5-0.3,1.9-0.4,2.3-0.6l-8.9,0c0,0.2-0.8,0.4-0.7,0.6L355.4,9.6z"/>
						<path class="st0" d="M346.1,8.6c-0.3,0.1-1.2,0.3-2.3,0.4l4.9,0C348.7,8.9,348.1,8.7,346.1,8.6z"/>
						<polygon class="st0" points="347.1,19.5 345.5,19.5 343.1,19.7 						"/>
						<path class="st0" d="M322.3,18.6c1.9,0.3,5.5,0.1,6.7,0C324.9,18.6,326.7,18.5,322.3,18.6z"/>
						<polygon class="st0" points="327.5,21.9 323.5,22.1 323.8,22.1 						"/>
						<path class="st0" d="M203.2,11.2c-0.7,0-1.3,0-1.9,0C202.1,11.3,202.7,11.2,203.2,11.2z"/>
						<path class="st0" d="M237.3,10.7c-9.5-0.6,6.2-0.5,3.2-1.2l-5.2,0.3l0.4-0.2l-6.3,0.1c1.3,0.3,2.3,0.4,2,0.7
							c-8.4-0.1-2.7-0.4-8.8-0.9l-9.4,0.1l0.8-0.1c-0.8,0-1.1,0.1-1.4,0.1l-31.7,0.2c-5.8,0.3,3.2,0.7-1.1,1.2
							c6.7,0,16.6,0.4,17.2-0.3c-0.2,0.1-0.7,0.3,0.7,0.4l3.9-0.6l-3.7-0.2c3.9-0.6,16.4-0.5,18.7-0.1c-7.1,0.2-3.6,0.9-13.5,0.5
							c0.4,0.2,2.3,0.5,0,0.6C214.8,11,225.3,11.3,237.3,10.7z"/>
						<path class="st0" d="M120.5,11.1L120.5,11.1C120.3,11,120.3,11.1,120.5,11.1z"/>
						<path class="st0" d="M124.4,11.2l5.7-0.7l-8.9,0.1l-0.6,0.5c0.8-0.1,3.9-0.4,5.1-0.2L124.4,11.2z"/>
						<path class="st0" d="M136.6,10c-4.6,0.2-4.3,0.8-1.8,1.1c-4.2,0.3-2.2-0.6-5.1,0c0.1,0.4,5.3,0.2,6.5,0.1L136.6,10z"/>
						<polygon class="st0" points="170.4,10.3 169.1,10.6 172.3,10.6 						"/>
						<path class="st0" d="M169.1,10.6l-3.1-0.1c0.2,0.2,0.4,0.4,0.9,0.5L169.1,10.6z"/>
						<path class="st0" d="M157.7,10.3c-1.3,0-2.8-0.1-4.6-0.1L157.7,10.3z"/>
						<path class="st0" d="M161.3,10.5l-0.1-0.1l-3.5-0.1C159,10.4,160.1,10.4,161.3,10.5z"/>
						<path class="st0" d="M166,10.5c-0.5-0.4-1.1-0.8-5.7-0.7l0.9,0.6L166,10.5z"/>
						<polygon class="st0" points="298.5,21.3 294.9,21.5 295.3,21.6 298.9,21.3 						"/>
						<path class="st0" d="M277.7,20.9c-0.9,0.1-1.6,0.1-2.2,0.2C276.5,21.1,277.3,21,277.7,20.9z"/>
						<path class="st0" d="M262.3,23.7c-4.2-0.4,5.8-0.6-2-0.7c-0.7-0.4,3-0.9,6.7-0.7c-0.3,0.4-3.6,0.2-1.3,0.6
							c2.4-0.4,3.4-0.1,2.5-0.7c4.1-0.3,4.6-0.7,7.4-1.1c-5,0.2-15.4-0.3-21.8,0.4c-3.5,0.7-1.4,1.6-1.4,2.5
							C253,24.2,262,24.3,262.3,23.7z"/>
						<path class="st0" d="M269,24.7c2,0,2.6,0,3.8-0.1C272.4,24.3,270.6,24.6,269,24.7z"/>
						<path class="st0" d="M224,17.5c-0.4,0.1-3.9,0.3-3.2,0.5l5.4-0.2C224.9,17.8,224.5,17.7,224,17.5z"/>
						<path class="st0" d="M228.6,17.8l-2.4,0.1C226.8,17.9,227.5,17.8,228.6,17.8z"/>
						<path class="st0" d="M223.7,17.4c0.1,0,0.2,0.1,0.3,0.1C224.1,17.5,224.1,17.4,223.7,17.4z"/>
						<path class="st0" d="M144.7,10.1c0.1-0.3-2.3-0.1-3.5,0C142.1,10.1,143.5,10.2,144.7,10.1z"/>
						<path class="st0" d="M54.6,11.1l-2.1-0.2C53.2,11,53.6,11.1,54.6,11.1z"/>
						<path class="st0" d="M22,18.3c-0.1,0.1-0.2,0.1-0.4,0.1C21.8,18.4,22,18.3,22,18.3z"/>
						<path class="st0" d="M21.6,18.4c-1.4,0.2-5.9-0.1-7.5,0.2l0.2-0.1l-3,0.2C14.1,18.7,20,18.7,21.6,18.4z"/>
					</g>
				</g>
			</g>
		</g>
	</g>
</g>
</svg>
