<?xml version="1.0" encoding="utf-8"?>
<!-- Generator: Adobe Illustrator 27.0.1, SVG Export Plug-In . SVG Version: 6.00 Build 0)  -->
<svg version="1.1" xmlns="http://www.w3.org/2000/svg" xmlns:xlink="http://www.w3.org/1999/xlink" x="0px" y="0px"
	 viewBox="0 0 592.7 239" style="enable-background:new 0 0 592.7 239;" xml:space="preserve">
<style type="text/css">
	.st0{fill:#3399FF;}
	.st1{fill:#4AA5FF;}
</style>
<g id="Layer_6">
	<g>
		<path class="st0" d="M591.9,48c0.2,0,8.8,175.9,8.6,175.9c0,0-1.4-51.8-84.7-17.6s-122.8-32.9-198.3-58.7s-348.3,92.2-348.3,92.2
			l3.5-239.5c0,0,249.3,21.3,324.8,47.1s120,59.3,203.3,25.1S592.3,20,592.3,20"/>
		<g>
			<g>
				<g>
					<g>
						<g>
							<path class="st1" d="M554.6,39.1c3.3-2,6.6-2.9,5.6-1.9c3.1-2.4,4.8-3.5,5.7-4.2c0.9-0.7,1-1,0.9-2.2
								c0.9-0.9,1.9-1.7,2.8-2.3c0.9-0.6,1.7-1,2.3-1.2c1.2-0.4,1.5,0.1-0.6,2.1c3.7-3,7.2-6.2,10-9.4l-1.5,1.2l-1.6,1.2l-1.6,1.2
								l-1.7,1.2c0.4-1.4,3.1-3.3,5.4-5.3c0.6-0.5,1.2-1,1.6-1.5c0.5-0.5,1-1,1.2-1.4c0.1-0.2,0.3-0.4,0.4-0.6
								c0.1-0.2,0.1-0.3,0.1-0.5c0-0.1,0-0.1,0-0.2c0,0,0,0-0.1,0c0,0-0.3-0.2,0.5,0.3c1,0.6,1.9,1.2,2.8,1.6l0.3,0.2l0,0l0,0
								c-7.9-4.4-2.2-1.2-3.9-2.2l0,0l0,0l-0.1,0.2c-0.1,0.1-0.2,0.2-0.3,0.3l0.2-0.3l0.1-0.2l0-0.1l0,0l0,0c1.8,1-4.1-2.3,4.1,2.3
								l-0.1,0c-0.7-0.4-1.4-0.8-2.1-1.2l-1-0.6l-0.5-0.3l-0.3-0.2c-0.1,0,0,0,0,0c0,0,0,0,0,0c-0.1,0.1-0.2,0.2-0.2,0.3
								c0,0.1-0.2,0.3-0.4,0.4l-0.4,0.5c-0.3,0.3-0.7,0.7-1,1.1l-0.5,0.6l-0.6,0.6l-1.2,1.2c-0.4,0.4-0.9,0.8-1.3,1.1
								c-0.9,0.8-1.8,1.5-2.8,2.3l0.2-0.9c-2.2,2.5-7.9,6.1-10.1,7.1c0.1-0.5-0.3-0.7,1.9-2.2c-7.7,4.9-8.5,6.1-8.8,7.3
								c-0.1,0.6-0.2,1.2-1,2.1c-0.4,0.5-1,1-2,1.8c-1,0.7-2.2,1.5-3.9,2.5C551.9,40.3,553,39.7,554.6,39.1z"/>
							<path class="st1" d="M538.2,42.6c-1.6,1.7-3.2,3.4-4.9,5c-3.5,1.4-6.9,2.9-10.4,4.2c0.2,0.8-7,4.7-1.6,3.1
								c0.9-0.6,2.8-1.6,4.4-2.3c-0.4,2.1-13.3,6.9-9.6,7.1c8-4.1,9.4-4.2,13.7-7.9c7.5-3.3,12.9-5.7,16.5-6.8
								c2-1.3,1.8-2.4,4.4-4.1c-0.6,0.3-1.1,0.7-1.8,1l-1.5-2.1c-1.9,1.7-4.2,2.5-6.7,3.8c1.7-1.4,3.4-2.8,5.1-4.3l4.9-4.4
								c-1.2,0-2.7,0.4-4.5,1.1c-0.9,0.3-1.8,0.7-2.7,1.2c-0.9,0.4-1.9,0.9-2.9,1.4c-3.9,1.9-7.8,4-10.3,4.6
								c3.3-0.4,2.3,0.4,1.9,0.8c-0.2,0.2-0.2,0.3,0.6,0.2C533.8,44.1,535.3,43.6,538.2,42.6z"/>
							<path class="st1" d="M550.8,40.9c0.1,0,0.2-0.1,0.3-0.2C551,40.8,550.9,40.9,550.8,40.9z"/>
							<path class="st1" d="M112.8,177.2c2.7-0.9,3.3-1.8,3.6-2.2c-10.1,3.4-20.2,6.9-30.3,10.5c1.2,0.3,10.1-2,4.5,0.4
								c2.8-0.2,10.5-3.6,11.4-4.8l-1.9,1.7c6.5-3.7,12.1-2.8,7.8-0.5l0.6-0.2c5.9-3.8,11.8-7.6,17.8-11.3
								C119,172.9,121.3,174.2,112.8,177.2z"/>
							<path class="st1" d="M589.6,94.8c0.4,4.1,0.7,4.6,0.9,4.1C590.3,97.4,590,96.1,589.6,94.8z"/>
							<path class="st1" d="M130.5,168.2l5.6-3.5C133.8,165.9,131.8,167.1,130.5,168.2z"/>
							<path class="st1" d="M96.4,205.1c0,0.1,0,0.2,0.2,0.2l2.4-1.7c0,0-0.1,0-0.1,0C98,204.2,97.2,204.7,96.4,205.1z"/>
							<path class="st1" d="M272.9,128.5c0.7-0.1,1.3-0.2,2.2-0.3C274.3,128.3,273.5,128.4,272.9,128.5z"/>
							<path class="st1" d="M19.4,243.8l12.5-6.6c-1.5,1.4,4.8-1.3,2.3,0.5c1-0.5,5.5-2.6,4.1-2.4l-2.7,1.1
								c6.1-4.6,1.7-3.8,12.6-9.7c-7.6,1.6-10.3,3.9-13.7,6.2c-1.2,0.6-2.3,1.1-3.3,1.6l-9.8,7L19.4,243.8z"/>
							<path class="st1" d="M549.3,203.5l-0.1,0.2C549.3,203.6,549.3,203.5,549.3,203.5z"/>
							<path class="st1" d="M548.7,204.4l0.4-0.8C548.5,204.1,546,205,548.7,204.4z"/>
							<path class="st1" d="M128.6,170.2c0.1-0.4,0.7-1.1,1.8-2l-4.2,2.6C126.9,170.6,127.8,170.4,128.6,170.2z"/>
							<path class="st1" d="M119.7,177.9l-11.3,4.1l-3.8,2.5C108.9,182.6,113.9,180.7,119.7,177.9z"/>
							<path class="st1" d="M252.9,129.6c6.4-1,9.3-1.2,10.1-1.1c0.8,0.1-0.4,0.6-2,1.2c-3.2,1.2-8.1,2.7-2.2,2.2
								c7.1-1.2,9.5-2.6,14-3.4c-5.2,0.7-7.6,0.9-8.7,0.7c-1.1-0.2-0.8-0.7-0.5-1.3c0.3-0.5,0.6-1.1-0.5-1.3
								c-1.1-0.2-3.6-0.1-8.8,0.7c0.7-0.6,1.9-1.2,3.5-1.7c1.6-0.5,3.6-1,5.8-1.3c1.1-0.2,2.2-0.3,3.3-0.5c1.1-0.1,2.3-0.2,3.4-0.3
								c1.1-0.1,2.2-0.2,3.3-0.2c1.1,0,2.1,0,3,0c4.2,0.8,2.4,1.2-0.6,1.8c-3.1,0.5-7.3,1.4-8.1,2.4c8.4-1.1,6.9-1.3,10.5-2.7
								c6.8-0.1,14-0.9,20.9-0.8c6.8,0.1,13.4,1,17.8,3.6c1.4,0.2,2.7,0.6,3.9,0.9c1.1,0.3,2.1,0.5,2.9,0.7c1.4,0.3,2.4,0.5,3.4,0.6
								c1.8,0.2,3.2,0.1,6.1,0.7c0.5-0.4-0.1-1-1.4-1.8c-1.2-0.7-3.1-1.5-5.1-2.4c-1.7-0.8-4.9-1.9-7.3-2.7
								c-2.4-0.7-4.4-1.5-5.4-2.1c0.9,0.4,2.6,1.1,2,1.3c-1.7-0.5-3.4-0.8-5.1-1.2l-2.5-0.5l-2.4-0.4c1.1,0.2,2,0.4,2.6,0.6
								c0.6,0.2,0.9,0.4,1,0.5c0.2,0.3-0.5,0.4-1.5,0.5c-2.1,0.2-6,0.2-8.3,0.1c-0.9,0-1.9-0.1-3-0.2c-1.1,0-2.2-0.1-3.2-0.1
								c-2-0.1-3.4-0.2-2.9-0.5c1.7-0.2,3.4-0.2,5.1-0.4c-1.6-0.2-3.4-0.3-5.1-0.2c-1.7,0.1-3.5,0.3-5.3,0.5
								c-1.8,0.2-3.5,0.4-5.2,0.6c-1.7,0.1-3.4,0.2-5.1,0c-0.4-0.5,2.1-0.9,2.4-1.2c-7.3,1.9-14.2,2.5-24.4,5c1.9-1,3.8-2,5.7-3
								c-4,1.7-10.7,3.1-17.9,4.3c-7.2,1.2-15,2.3-21.4,3.1c1.5,0.1,4-0.2,2.6,0.5c-7.2,2.1-13.1,1.9-9.9,0
								c-1.7,0.9-4.2,1.6-7.3,2.3c-3,0.7-6.5,1.4-10.1,2.1c-7.1,1.5-14.5,3.3-19,5.7c-13.6,7.6-26.9,15.5-40,23.5
								c1.5-0.8,3.2-1.5,4.9-2.2c4.5,0.6,6.5-0.3,0.2,3.6c6.4-3,3.4-3.7,13.4-6.9c-3.7,2.1-4,4.5,5.7,1.8
								c11.8-4.5,21.4-9.1,30.9-13.6c9.5-4.5,18.9-8.9,30.3-12.8c0.6,0.6,5.5-0.2,11.4-1.2c5.9-1,12.9-2.3,17.5-2.8
								c-3.3,2.1-9.9,3.7-16.8,5.3c2.2-0.4,5.2-0.9,8.3-1.4c3.1-0.5,6.4-1.1,9.3-1.4L252.9,129.6z"/>
							<path class="st1" d="M195.6,146.7c0.6,0,1.3-0.1,2-0.2C197.2,146.4,196.6,146.5,195.6,146.7z"/>
							<path class="st1" d="M231.4,136.3c-0.1,0.1,0,0.1-0.1,0.2c0.7-0.2,1.4-0.4,2.2-0.5C232.8,136,231.9,136.2,231.4,136.3z"/>
							<path class="st1" d="M135.2,171.5c-1.3,0.9-2.3,1.3-3.6,2.2c0.8-0.4,1.9-0.9,2.9-1.3C135.5,171.8,135.9,171.5,135.2,171.5z"
								/>
							<path class="st1" d="M129.7,170.6l0.6-0.8c-0.6,0.1-1.1,0.3-1.6,0.4C128.6,170.6,128.8,170.8,129.7,170.6z"/>
							<path class="st1" d="M348.7,156.7l2.3,0.8C349.7,156.9,349.1,156.7,348.7,156.7z"/>
							<path class="st1" d="M282.3,129.2c-2.3,0.1-3.5,0.4-4.3,0.6c-0.7,0.3-1,0.5-1.3,0.8c-0.7,0.6-1.9,1.1-8.3,1.7l3.8-0.2
								c-4.6,0.8-10.8,1.7-17.1,2.6c-6.4,0.9-12.9,2-18.1,3c1-1.1-6.5,0.2-5.6-1.4c-3.6,0.8-7,1.8-10.1,2.7c-3,1-5.6,2-7.3,3.1
								c-4.5,0.6-10.8,3.3-16.4,4.2c2.5,0.2-7.1,4.7,6,0.3c-1.1,0.4-0.3,0.4-1.4,0.8c8.9-1,11.9-3.7,19.4-5.4c4.6-0.2-7,2.9-2.7,2.3
								c4.6-1.4,12-2.7,18.1-3.9c6.1-1.2,11-2.3,10.5-3.8c6.9-1.3,8-0.8,10.2-0.5c5.3-2.4,15.8-3.3,25-3.3
								c9.2-0.2,17.2,0.5,17.3-1.5c-1.1,0-2.4-0.1-3.8-0.1c-1.4,0-2.9,0-4.4,0c-3.1,0.1-6.4,0.3-9.5,0.9L282.3,129.2z"/>
							<path class="st1" d="M149,167c0.5-0.1,1.2-0.4,1.6-0.5C150.2,166.6,149.6,166.8,149,167z"/>
							<path class="st1" d="M41.9,191.5l2.4-3.8c19.1-7.9,26.4-9.7,43.5-15.9c1.4-0.1-0.6,0.8-1.6,1.3c11.9-4.6,30.1-10.1,38.6-14.2
								c3.9-1.3,14.3-3.7,10.7-1.7c1.8-0.8,3.9-1.7,6.1-2.3c0.9,0.7-4.8,1.8-4.7,2.6c1.7-0.5,2.5-0.5,2.8-0.9
								c-2.6,1.7,4,2.2-9.5,6.4c-5.9-0.5,9.2-3.3,5.4-4.6c-4.5,1.4-3.7,2.2-3.9,2.6c-5.7,1.8-5.7,1.1-5.6,0.5
								c-1.9,1.4-9.4,2.8-12,4.9c-10.9,3.9,0-2-7.2,0.5l-3.3,3.8l-12,3.7c-16.8,6.9,3.9,3.2-15.2,11.6c2.1-2.2-6.5-1.5-15.7,1.4
								c5.4-2.1,14.9-7.3,22.2-9.1c-10.6,1.6,13.6-5.1,7.7-5.4c-4.6,2.7-12.7,5.8-19.3,7.6l2-1c-6.9,2.2-11.1,6.6-20.7,9.1
								c-4.6,1.8-4,0.8-3.4,0C45.4,190.2,42.1,192,41.9,191.5z M51.7,187.2l6.3-2.1C56.4,185.3,54.1,186.2,51.7,187.2z"/>
							<path class="st1" d="M456.2,73.7c0.6,0,1.3-0.1,1.9-0.1C457.6,73.5,456.9,73.6,456.2,73.7z"/>
							<path class="st1" d="M-41.2,85.5l0.1-3.8C-41.2,83.2-41.2,84.4-41.2,85.5z"/>
							<path class="st1" d="M-47.9-22.1l0-0.3c0-0.1,0.1,0,0.1,0l0.2,0l0.6,0l1.2,0l2.4,0.1l4.9,0.1c-2-0.2-3.8-0.2-5.4-0.3
								c-0.8,0-1.5,0-2.3,0c-0.4,0-0.7,0-1.1,0C-47.6-22.5-48.1-22.7-47.9-22.1z"/>
							<path class="st1" d="M414.6,74.1l-0.2,0c-0.3,0-0.5,0-0.8,0L414.6,74.1z"/>
							<path class="st1" d="M144.1,3.8c0.8,0.3,1.7,0.6,3,1C147,4.5,145.9,4.1,144.1,3.8z"/>
							<path class="st1" d="M-47.9-20.1c0-0.2,0-0.4,0.1-0.6c0-0.4-0.1-0.9-0.1-1.4L-47.9-20.1z"/>
							<path class="st1" d="M-49.2,122.9c0.1,0.8,0.1,1.6,0.2,2.4C-49,124.2-49.1,123.5-49.2,122.9z"/>
							<path class="st1" d="M-41.9,117.7c0.1,0.9,0.1,1.7,0.2,2.4L-41.9,117.7z"/>
							<path class="st1" d="M-34.8,260.9l8.4-4C-30.5,258.7-32.9,259.9-34.8,260.9z"/>
							<path class="st1" d="M-43.8,131.1c0.1,0.3,0.2,0.6,0.3,0.8C-43.5,131.2-43.7,130.9-43.8,131.1z"/>
							<path class="st1" d="M488.1,73.1c-0.1,0-0.2,0.1-0.3,0.1l0,0.3L488.1,73.1z"/>
							<path class="st1" d="M498.1,65.3c1.3-0.6,2.7-1.3,4-1.9C500.6,64.1,499.1,64.7,498.1,65.3z"/>
							<path class="st1" d="M217.4,18.6c1.3,0.6,4.4,1.6,2.8,1.7C222.8,20.2,222.9,18.9,217.4,18.6z"/>
							<path class="st1" d="M468,95.3c0.8-0.5,1.8-1,2.8-1.5C468.8,94.6,467.2,95.3,468,95.3z"/>
							<path class="st1" d="M470.7,93.8c0.9-0.4,1.9-0.8,2.7-1.2C472.5,93,471.6,93.4,470.7,93.8z"/>
							<path class="st1" d="M180.1,34.2c-0.3-0.2-0.8-0.4-1.5-0.6C178.8,33.9,179.3,34.1,180.1,34.2z"/>
							<path class="st1" d="M505.6,62.4c0.2-0.4,4.7-2.8,7.2-4.4c1.2-0.8,2-1.4,1.5-1.3c-0.5,0-2.2,0.7-6,2.2c-0.1-1,2.2-2.2,5-3.5
								c2.8-1.3,6-2.6,7.9-3.7c-3,0.9,0.9-1.7-0.2-2c-1.8,1.1-3.9,2.6-7.2,3.9c-1.8-0.1,2.8-2.8,6.7-4.2c-5.1,1.2,5.3-4-1.6-1.7
								c-3.5,1.7-6.7,3.4-9.7,4.9c-3,1.5-5.9,2.9-8.5,4.4c-2.7,1.4-5.2,3-7.5,4.3c-2.3,1.4-4.6,2.9-6.9,4.4c1-0.4,2-0.8,3-1.2
								c1-0.5,2-0.9,3-1.4c2-0.9,4-1.8,6.1-2.7c4.1-1.8,8.1-3.5,11.6-4.5l-2.2,2.7c-4.1,0.9-7.2,2.2-10.2,3.5c-1.5,0.7-3,1.3-4.5,2
								c-1.6,0.6-3.2,1.4-5.1,2c2.8-0.8,5.6-1.9,8.4-2.8l8.6-3.1c8.4-2.1,3.3,0.4-2.8,3.3C503.6,62.8,505.1,62.3,505.6,62.4z"/>
							<path class="st1" d="M499.4,80.4l0.3-0.1c0.2-0.2,0.5-0.3,0.7-0.4L499.4,80.4z"/>
							<path class="st1" d="M-12.4,215.6l1-1.1C-12.1,215.1-12.4,215.5-12.4,215.6z"/>
							<path class="st1" d="M486.3,76.8L486.3,76.8C486.2,76.9,486.1,76.9,486.3,76.8z"/>
							<path class="st1" d="M-15,205c0,0,0.1,0,0.1,0C-14.9,205-15,205-15,205z"/>
							<path class="st1" d="M-50.1,197.7c-0.1,0.1-0.1,0.1-0.2,0.3C-50.2,198.8-50.1,198.4-50.1,197.7z"/>
							<path class="st1" d="M-15.1,205c0,0,0.1,0,0.2,0C-15,205-15.1,204.9-15.1,205z"/>
							<path class="st1" d="M-18.4,20.5c0,0-0.3,0.2-0.6,0.8C-18.8,21.5-18.6,21.4-18.4,20.5z"/>
							<path class="st1" d="M-21.3,54.4c-0.1,0.2-0.1,0.4-0.2,0.7L-21.3,54.4z"/>
							<path class="st1" d="M209.6,9.9c-1.9-0.3-3.3-0.5-4.5-0.6C206.5,9.5,208,9.7,209.6,9.9z"/>
							<path class="st1" d="M-14.9,205c0.2,0.1,0.3,0.3,0.6,0.5C-14.5,205.2-14.7,205.1-14.9,205z"/>
							<path class="st1" d="M14.2,5.3c-0.4,0-0.8,0-1.2,0.1l0.7,0.1L14.2,5.3z"/>
							<path class="st1" d="M33.8,8.4c-0.7,0.1-1,0.3-1.4,0.4c7.1,0,19.9,2.1,21.6,0.6c-2.4-0.2-14.6-2.5-12.4-3.3
								c-4.9-0.1-12.1-2-14.7-2c8,1.8,0.7,1.5-4.8,1.6c-4.9-1,1.1-1.3-3.2-2L7.4,2.7l9.9,1.2l-3.2,1.4c0.4,0,0.6,0,1-0.1
								C32.1,6.1,16.4,7.8,33.8,8.4z"/>
							<path class="st1" d="M32.4,8.9c-1.1,0-2,0-2.7,0.1C31.2,9.1,31.8,9,32.4,8.9z"/>
							<path class="st1" d="M100.7,19.1c0.9,0,1.8,0.1,3,0.1C103.2,19.2,101.9,19.2,100.7,19.1z"/>
							<path class="st1" d="M96.6,187.1c-0.4-0.4-10.1,2-9.5,3.1c2.8-0.9,5.6-1.7,8.5-2.6L96.6,187.1z"/>
							<path class="st1" d="M287.6,42.5c-1.1-0.3-2.1-0.6-3.2-0.9c-0.2,0-0.5,0-0.7,0C284.4,41.9,286.5,42.3,287.6,42.5z"/>
							<path class="st1" d="M44.7,5.8c-1.8,0-2.6,0.1-3.1,0.3C42.7,6.1,43.8,6.1,44.7,5.8z"/>
							<path class="st1" d="M287.4,45.6c0.6,0.4,1.4,0.8,2,1.3c0.6,0.5,1.1,0.9,1.2,1.2c2.7,0.9,4.8,0.8,7.6,1.5
								c-1.6-0.5-3.3-0.9-5-1.6C291.3,47.2,289.5,46.4,287.4,45.6z"/>
							<path class="st1" d="M298.4,49.6c-0.1,0-0.2,0-0.2-0.1C298.3,49.5,298.3,49.5,298.4,49.6z"/>
							<path class="st1" d="M102.3,185.6c0.8-0.4,1.6-0.7,2.4-1.1l-1.2,0.8c2.2-0.6,4.4-1.2,6.6-1.8c0.7-0.3,1.6-0.7,2.6-1.1
								c-0.4,0.2-0.7,0.4-0.8,0.6c0.7-0.2,1.4-0.4,2.1-0.6c4.7-3,17.2-8.2,20.7-10.1c4.7-2.1,10.6-4.3,14.5-5.4
								c-3.5,1.1-8.1,2.8-6.5,3c7.3-1.5,11.4-0.5,23.2-6l-7.2,2.2c5.1-2.5,10.3-5,15.5-7.5c3-0.2,1.1,0.7-1.9,1.9
								c-2.9,1.2-6.9,2.7-7.8,3.5c12.3-5.1,23.8-4.4,29.1-8.3c1.2,1.2,3.2,3.2,11.5,0.9c-6.4-0.1,4.8-2.3-0.6-2.8
								c2.7-1.6,9.5-1.8,9.7-2.9l-0.6,0.8c14.9-1.1,18.9-5.5,24.9-7.9c8.7-1.9,15.2-2.9,21.3-3.5c6.1-0.7,11.8-1.1,19.1-1.7
								c0.3,0.5,1.5,1.3,3.3,2c1.8,0.7,4.3,1.2,7.2,1.2c0.7-0.3,2-0.7,3.7-0.9c1.7-0.2,3.6-0.5,5.6-0.6c1-0.1,1.9-0.1,2.9-0.2
								c0.9,0,1.8-0.1,2.6-0.2c1.5-0.1,2.7-0.4,3.1-0.7c-1.4-0.3-2.5-0.4-3.5-0.6c-1-0.1-1.8-0.2-2.6-0.2c-1.4,0-2.4,0.2-3.3,0.3
								c-1.7,0.4-2.8,1-6,1.1c-2.6-0.9-2.8-1.3-3.1-1.7c-0.2-0.2-0.4-0.3-1.1-0.5c-0.7-0.2-1.7-0.4-3.5-0.6
								c2.9,0.2,9.6-0.1,16.4,0.3c3.4,0.2,6.9,0.6,9.9,1.3c3,0.7,5.6,1.5,7.1,2.5c-0.8-0.2-1.6-0.3-2.4-0.5c1.3,0.5,2.4,1,3.4,1.6
								c1,0.5,1.8,1.1,2.6,1.6c1.6,1.1,3,2.2,4.6,3.3c1.6,1.1,3.5,2.2,5.9,3.3c1.2,0.5,2.6,1.1,4.2,1.7c1.6,0.6,3.4,1.1,5.4,1.7
								c2.5,0.8,5.1,1.7,7.6,2.6c-0.4,0-0.5,0.1-0.8,0.2c5.8,3,7.5,4.7,9.6,6.2c2,1.5,4.4,2.9,10.9,5.9c-1-0.5-0.5,0.1-1.5-0.4
								c6.5,5,14.5,7.7,19.9,10.5c2.4,3.2-1.5,0.7-4,0.4c11.8,8,26.2,13.9,34.7,16.2l3.8,2.4l3.9,2.3c-1.3-0.4-2.6-0.9-3.9-1.2
								c-1.3-0.4-2.6-0.7-3.6-1c-2.1-0.5-3.5-0.5-3,0.2c4.6,2,4,1.1,10.3,4.3c-0.7,0.2-1.9,0.1-3.3,0c-1.4-0.1-3-0.4-4.8-0.6
								c1.6,1,2.8,1.7,3.8,2.2c1,0.5,1.8,0.8,2.3,1c1.1,0.3,1.5,0.1,1.8-0.1c0.5-0.5,0.4-1,4.6,2.3c2.1,0.9,4,1.2,5.4,1.2
								c1.4,0,2.3-0.3,2.8-0.7c2.5,1.3,4.9,2.7,7.5,3.8c0.6-0.6,3.4-0.1,6.9,0.3c0.9,0.1,1.8,0.3,2.7,0.4c0.9,0.1,1.9,0.2,2.8,0.3
								c0.9,0.1,1.9,0.2,2.8,0.3c0.9,0.1,1.8,0.1,2.6,0.1c0.4-0.3-0.9-0.7-2.6-1.1c-1.7-0.5-3.8-0.9-5.1-0.8
								c0.3-0.5,2.2-0.6,4.6-0.6c1.2,0.1,2.5,0,3.8,0.1c1.3,0,2.5,0.2,3.6,0.2c0.4,0.7,2.4,1.1,5.1,1.3c1.4,0.1,2.9,0,4.5-0.1
								c0.8,0,1.6-0.1,2.4-0.1c0.8-0.1,1.6-0.2,2.4-0.3c1.6-0.2,3.2-0.3,4.6-0.6c1.4-0.2,2.6-0.4,3.6-0.5c1.9-0.1,2.7,0.2,1.6,1.2
								c1.3-0.3,2.5-0.7,3.8-1c1.3-0.4,2.6-0.8,3.9-1.1c2.6-0.9,5.3-1.9,8.1-2.8c2.7-1.1,5.4-2.2,8.1-3.4c2.8-1.2,5.5-2.4,8.3-3.5
								c2.8-1,5.5-2.2,8.2-3c1.3-0.5,2.6-0.9,3.9-1.3c1.3-0.4,2.6-0.8,3.8-1.1c4.9-1.5,9.4-2.5,12.9-3.4c1.2,0,2.7,0,4.2,0
								c0.7,0,1.5,0,2.2,0c0.7,0,1.4,0.1,1.9,0.1c2.3,0.2,3.2,0.5,0.4,1.3c2.5-0.1,4.9-0.1,7.2-0.1c2.4,0.2,4.1,0.2,5.8,0.4
								c0.4,0,0.8,0.1,1.3,0.1c0.4,0.1,0.8,0.1,1.2,0.2c0.8,0.1,1.6,0.2,2.3,0.4c0.6,0.2,1.3,0.3,1.9,0.5c0.6,0.2,1.2,0.4,1.8,0.6
								c3.8,1.7,7.2,4.2,10.2,10.1c0.4,0.8-0.2-0.6-1-1.9c-0.8-1.3-1.8-2.4-1.3-1.5c1.3,1.4,2.4,3.2,3.4,5.3c1,2.1,1.9,4.6,2.5,7.5
								c0.2,0.7,0.3,1.4,0.4,2.2l0.1,0.6l0,0.3l0,0.1c0,0,0,0,0,0l0-0.1c0-0.3,0-0.6,0-0.9c0-1.2,0.1-2.5,0-3.9
								c0-2.8-0.2-6.2-0.6-10.3c0.2,2.6,0.9,4.3,1.2,5.2c-0.3-0.3-0.6-2.3-1-4.7c-0.3-2.3-0.8-5.3-1.1-7.5c0.2-1.9,0.5,3.3,0.8,2.5
								c0-6.9-0.3-14.1-0.8-20.8c-0.1-1.7-0.3-3.4-0.4-5c-0.2-1.7-0.3-3.5-0.5-5.2c-0.4-3.6-0.7-7.2-1.1-10.8
								c-1.5-14.3-3.2-28.6-3.9-44.9c0.4,9.3,2.5,12.7,3.3,12.8l-0.4-9.1c-1.1-3.5-1.5-10.3-2.5-16c0.3-0.7,0.6-3.5,1.2-0.7
								c0.5-9-0.7-16-2.1-23.5c-0.7-3.7-1.4-7.6-2-11.9c-0.3-2.2-0.5-4.4-0.7-6.8c-0.1-1.2-0.2-2.4-0.2-3.7c0-0.6,0-1.3-0.1-2
								c0-0.3,0-0.7,0-1l0-0.5l0-0.2l0-0.1c0,0.1,0,0.4,0.1,0.6c0.1,0.3,0.1,0.6,0.3,0.9c0.3,0.6,0.8,1.4,1.5,2
								c0.7,0.6,1.6,0.9,2.3,1.1c0.7,0.1,1.3,0.1,1.7,0c-0.7,0.1-1.8,0.2-3.2-0.5c-0.6-0.3-1.3-0.8-1.7-1.4
								c-0.4-0.6-0.7-1.1-0.9-1.6c-0.1-0.2-0.1-0.5-0.2-0.7l0-0.3c0-0.1,0-0.2,0-0.1l0,0l0,0l0,0.2c0,0.1,0.1,0.3,0.1,0.4L587,50
								l0.3,1.6l0.7,3.3l1.3,6.6l2.6,13.2l1-6.7l2.4,11.6c0.7-7.1-2.1-13-0.6-13.9c0.5,1.5,0.5,5,1.3,5.1c0.2-6.8-0.9-7.2-1.4-12.3
								c3.7,13.2,4.9,39.3,6.3,53.3c0.3,2.2-0.8-1.9-1.1-2.2c0.4,5.7-0.4,9.2,0.5,16.4c1.5,4.4,0.8-3.5,0.7-7
								c1.1,0.4,1.1,2.2,1.5,6.2c-1.4,0.9,0.5,21.8-1,27c1.5,21.2,3.6-3.6,4,17.2c-0.4,2.7-0.9,5.3-1.3,7.7c1,7.5,2.1,16.8,2.9,26.4
								l0.1,0.9l-0.1,0.7l-0.1,1.5c-0.1,1-0.2,1.9-0.4,2.8c-0.3,1.7-0.6,3.5-0.9,5.2c-0.5,3.1-1,6.2-1.5,9.2l0.3-2.5
								c-0.2-2.3-0.8,0-1.1,0.9c-0.2,1.1-0.3,2.1-0.4,3.2c0,0.5-0.1,1.1-0.1,1.6l-0.1,0.8l0,0.4l0,0.2l0,0c1.1,2.1,0.3,0.6,0.5,1.1
								l0,0l0,0l0,0l0-0.1c0.3-1.8,0.3-3.3,0.1-4.7c-0.2-1.4-0.5-2.5-1.1-3.7c-0.6-1.2-1.4-2.3-2.6-3.8c-0.2-0.1-0.3-0.2-0.5-0.3
								c-0.2-0.1-0.4-0.2-0.7-0.3c-0.3-0.1-0.5-0.2-0.8-0.3c-0.3-0.1-0.7-0.2-1-0.3c-0.8-0.2-1.7-0.4-2.6-0.7
								c-0.2,0-0.5-0.2-0.8-0.3c-0.3-0.1-0.6-0.2-0.9-0.3c-0.6-0.2-1.3-0.4-2-0.7c-1.1-0.7-2.3-1.4-3.5-2.1
								c-1.2-0.7-2.5-1.4-3.7-2.1c-1.4-0.8-2.7-1.4-4.1-2.2c-0.7-0.4-1.4-0.7-2.1-1.1c-0.7-0.3-1.4-0.7-2-1l-1.9-1l-1-0.5
								c-0.2-0.1-0.3-0.1-0.5-0.1c-0.2,0-0.3-0.1-0.5-0.1l-1-0.1l-0.5,0l-0.3,0l-1.2,0c-0.8,0-1.6,0.1-2.4,0.1
								c-0.8,0.1-1.6,0-2.4,0.2c-1.6,0.2-3.1,0.3-4.7,0.6c-1.5,0.3-3,0.5-4.4,0.8c-0.8-0.4-0.4-0.8,0.8-1.3c0.6-0.3,1.4-0.4,2.3-0.6
								c0.9-0.2,2-0.4,3.1-0.6c1.1-0.1,2.3-0.2,3.5-0.4c1.2,0,2.4-0.1,3.5-0.1c0.6,0,1.1,0,1.6,0c0.3,0,0.6,0,0.8,0
								c0.4,0,0.8,0.1,1.2,0.1c0.4,0,0.7,0,1.1,0.2c0.3,0.2,0.7,0.3,1,0.5c0.7,0.3,1.2,0.5,1.8,0.7c0.8,0.3,1.3,0.5,1.8,0.6
								l-1.8-0.9l-1.7-0.9c-0.6-0.3-1.2-0.7-1.7-0.7l-0.9-0.1c-0.2,0-0.7-0.1-0.9-0.1l-1.2-0.1c-0.8-0.1-1.6-0.1-2.4-0.1
								c-0.8,0-1.6-0.1-2.4-0.1c1.1,0,2.1,0,3.1,0c0.9,0,1.7,0,2.5,0c0.2,0,0.4,0,0.6,0c0.3,0,0.6,0,0.8,0c0.5,0,1,0,1.5,0.1
								c0.9,0.3,1.8,0.6,2.7,0.9c1.7,0.4,3.4,0.9,5.1,1.2c-1.9-1-3.7-1.9-5.2-2.5c-0.6-0.2-1.1-0.5-1.6-0.7
								c-0.5-0.2-1.1-0.5-1.6-0.5c-0.5,0-1-0.1-1.5-0.1c-0.4,0-0.7,0-1.1,0c-0.4,0-0.7,0-1.1,0c-0.4,0-0.7,0.1-1,0.1
								c-0.7,0.1-1.4,0.2-2,0.2c-1.4,0.2-2.8,0.5-4.3,0.8c-1.5,0.3-3.2,0.7-5.2,1c0.7-0.7-0.6-0.9-5-0.2c-0.3,0.5-0.6,1.1-1,1.7
								c-0.1-0.1-0.6-0.1-1.9,0.1c-2.7,0.6-5.5,1.6-8.2,2.4l-4.1,1.5c-1.3,0.5-2.7,1-4,1.5c1.8-0.3,2.9-0.1,4-0.1
								c1.1,0.1,2.3,0.1,4.4-0.6c-1.7-0.4,1.8-1.6,6-2.6c-0.9,0.4-1,0.7-0.8,0.7c0.2,0.1,0.9,0,1.6,0c1.5-0.1,3.4-0.4,3.5,0
								c-2.1,0.4-4.3,0.8-6.5,1.5c-1.1,0.3-2.2,0.6-3.3,0.9c-1.1,0.4-2.2,0.7-3.3,1.1c-1.1,0.4-2.1,0.7-3.1,1c-1,0.4-2,0.8-2.9,1.1
								c-1.8,0.7-3.5,1.3-4.8,2l-2.3-0.6c-1,0.3-2,0.7-3,1.1c-1.1,0.4-2.1,0.8-3.2,1.2c-2.2,0.9-4.4,1.7-6.5,2.6
								c-4.3,1.4-8.2,2.9-11.4,3.4l1.8-1.2c-1.4,0.3-2.8,0.6-4.2,0.9l-2.1,0.5l-2.1,0.4c-2.8,0.5-5.5,1.1-8.3,1.4
								c-1.4,0.2-2.8,0.3-4.1,0.5c-1.4,0.1-2.7,0.1-4.1,0.1c-1.4,0-2.7,0-4-0.1c-1.3-0.1-2.6-0.3-3.9-0.5c-2.6,0.4-5.4,0.5-8.2,0.6
								c-1.4,0.1-2.9,0-4.3,0c-1.4,0-2.9,0-4.3-0.1c-5.7-0.4-11.2-1-15.5-1.6c-2.5,0.2-9.7-2.8-17.1-6.7
								c-7.5-3.9-15.2-8.5-20.6-10.2c-0.3-0.3,1.5,0.4,3.9,1.3c2.4,0.8,5.3,2,7.1,2.5c-6.5-3.7-12.6-4.8-13.6-7.5
								c14,8.8,0-1.7,6.6,1.5c-6.8-3.8-13.7-7.7-17.2-9.1c10.5,6.4-5.1-0.1,6,5.7c-9.2-3.7-20.5-10.2-29.7-16.4
								c0.5-0.6-0.5-1.6-3.9-4c-1.1-0.2-2.3-0.5-3.4-0.7c-2.2-1.4,0.1-0.4,1.9,0.2c1.8,0.6,3,0.9-1.4-1.9c-5.1-1.9-12-5.9-18.4-9.1
								c-6.4-3.2-12.4-5.5-15.1-4.6c-3.4-2.1,0.2-1.1,3.4-0.2c1.6,0.4,3.1,0.8,3.5,0.7c0.4-0.1-0.2-0.8-2.8-2.3
								c7,1.5,15.1,7.1,18,6.7c-3.2-1.4-3.6-2-3.7-2.5c-0.1-0.5,0.1-1-1.9-2l-3.8-1.2l-3.8-1.1l1.5,0.8c-1.6-0.5-3.2-1-5-1.6
								c-1.7-0.6-3.6-1.2-5.4-1.8c-1.9-0.6-3.8-1.3-5.8-1.9c-0.5-0.2-1-0.4-1.5-0.5c-0.4-0.1-0.9-0.2-1.3-0.4
								c-0.9-0.3-1.8-0.5-2.8-0.7c-1-0.2-1.9-0.5-2.9-0.6c-1-0.2-2-0.3-3-0.5c-2.1-0.2-4.2-0.5-6.3-0.6c-2.1-0.2-4.3-0.2-6.4-0.3
								c-2.1,0-4.2,0-6.2,0.1c-6.9,1.1-12.6,2.7-18.7,4.3c-6.1,1.6-12.6,3.1-20.9,4.5c2.4-1-1.1-0.6-4-0.4c-2.8,0.2-5,0.1,0.1-1.9
								c-8,0.5-15.4,3.3-15.4,4.1c6.9-1.2,2.5-0.3,8.3-1.1c-1.8,0.9-5,1.8-8.2,2.5c-3.2,0.7-6.3,1.3-8.3,1.4c1.7-0.3,1-0.4,1.3-0.7
								c-8.3,1.3-3.7,1.8-9.4,3.7c-2.2-0.9-13,2.9-18.5,3.7l-7.2,4c3.9-2.4-7.5,1.6-9.1,0.9c-5.3,2.5-9.5,5.3-18,7.6
								c3.3-1.7-7.9,1.5-8.5,0.3c-14.8,3.4-22.7,11-36.8,13.9c0.3-0.4,2.8-2.2-1.3-1.1c-3,1.4-8.5,3.2-11.8,4.5l0.1-0.1
								c-0.1,0-0.1,0.1-0.2,0.1c-1.6,0.6-2.6,1.2-2.5,1.5c-5.3,3.2-7.8,5.4-18.5,10.5c1.3,1.1,10.5-2.9,14.5-4.8l3-2.6
								c4.1,0.9,10-3.9,12.8-4.1c-5.9,4.7-25.4,11-36.3,16.8c7.7-0.7,23.1-6,36.4-10.8l-6.2,1.2l7-2.5l-7.3,0.9
								c6.7-2.1,12.3-4.4,18.4-6.4c-7,2.4-10.4,1.5-6.3,0.4c8.3-1.3,7.9-3.7,13.9-5.6c-3.4,1-7.8,2.4-5.2,0.7
								c12.4-2.3,15.3-4.4,26.6-6.1c-2.1-1.9,13.4-4.5,14.5-6.8l-5.1,1.3c3.4-1.6,6.8-3.1,10.3-4.6c10.4-1-8.2,4.5,7.2,1.4
								c7-1.9,10.2-3.4,13-4.8c2.8-1.4,5.3-2.8,10.7-4.4c-3.2,2.4-11.6,5.8-20.4,8.3l5.5-0.8c-2.6,1.6-14.8,4.9-20.8,6.7
								c9.5-4.6-4.8,0.9-9.7,1.1c-0.4,1.6,5.9-0.6-1.3,2.8c7.1-2.2,8.1-2.7,17.2-4.9c-9.8,2.6-13.9,5.2-17.6,7.5
								c-3.7,2.4-7.1,4.6-15.8,6.8c7.6-3.1-3.3-1-4.5-1.4c-3.6,1.4-11,4.2-13.9,5.6l3.4,1c-9.5,4.2-14.4,1.3-25,7.3
								c-1.1,1.7,10.1-3.1,8.1-2.2c-15.1,6.6-21.7,5.6-36,9.3c-0.6,0.9,0,2-4.4,4.8c1.1-1.7-2.7-1,2.4-3.8
								c-4.8,1.2-9.9,4.1-13.7,6.1c9.8-2.9-3.3,3.1-4.8,4.5c-5,1.7,1.1-1.7,4-3.2c-4.1,1.2-9.4,1.3-11,3.9
								c-0.6-1.1,9.8-7.4,17.1-10.5l-5,1.7c3.2-1.9,3.9-2,8.9-3.6c-5.2,0.9-5.1-0.3-4.3-1.6c0.7-0.1-0.2,0.4,0.4,0.4
								c4.1-1.2,7-2.7,5.8-2.9c3-2.9-5.9,1.1-8.9,1.3c-2,0.9-4,1.8-5.9,2.6c-6.2,4.3-12.4,8.7-18.6,13.1c-8.5,4-12.9,4.4-19.8,6.2
								l-0.6,1l-0.3,0.5l-0.2,0.3c-0.1,0.1-0.2,0.2-0.3,0.3c-6.7,2.6-13.3,5.2-17,6.3c-3.7,1.2-4.5,0.8-0.4-1.9
								c0.4,0.4,2.1-0.5,4.9-1.5c0.3-0.4,1-0.8,1.8-1.2c0.3-0.2,0.4-0.3,0.6-0.5c-13.4,6-22.2,10.1-23,10.5
								c6.1-3.2,9.1-4.9,10.4-5.9c1.3-1,0.9-1.2-0.1-1.2c-1.9,0-5.8,0.8-3.6-1.5l-21.4,10c6-2.1,6-1.8,3.6-0.5
								c-2.4,1.3-7,3.5-9.5,4.8c0-0.2-0.3-0.3-0.8-0.1c0-0.1,0-0.2-0.1-0.4c0-0.2,0-0.4,0.1-0.6c0-0.4,0.1-0.8,0.1-1.2
								c0-0.9,0.1-1.8,0.1-2.9c0-2,0-4.3-0.1-6.7c-0.1-4.8-0.3-9.9-0.1-13.6l0.3,0.4c0.6-8,0.7-20.9,0.4-30.4
								c-0.1,0.1-0.4-0.5-0.7-1.7c-0.1-0.3-0.2-0.6-0.2-1c-0.1-0.2-0.2-0.5-0.3-0.7c-0.2-0.5-0.4-1.1-0.6-1.7
								c-0.8-2.4-1.7-5.3-2.4-7.2c-0.7,10.5-1.2,4.3-2.1,5.1c0.1-1.1,0.1-3,0-3.3c-0.4-1.5-0.6,2-1.1,2.3c0.1,1.4,0.1,2.8,0.2,4.2
								l0,1l0,1.8c0,1.3,0,2.5,0.1,3.8c0.1,5,0.2,9.7,0.3,14c0.3,8.6,0.7,15.4,1.7,18.5c0.5-3.4,0.3-5.7,0.1-8.1
								c-0.2-2.4-0.5-5-0.1-8.5c0.6,4.5,0.8,9.7,0.8,15.8c0,6.1-0.2,13.1-0.3,21.1l-1.3,7c0,0.1,0,0.3,0,0.4l0.1,0.3l14.8-7.1
								c-6.1,3.3-4.4,3.7-16.3,9.3c0-0.1,0-0.2-0.1-0.4c0-0.2,0-0.3,0-0.5c0-0.3,0-0.7,0-1.1c0-0.7,0-1.6,0-2.4
								c-0.2,0.5-0.3,1.3-0.4,2.2c0,0.4-0.1,0.9-0.1,1.5c0,0.5-0.1,1.1,0,1.6c2.7-1.1,6.6-3,10.7-4.9c4.1-1.9,8.4-3.8,12-5.2
								l5.9-4.3c-1.2,1,3.5-0.7,6.7-1.7c3.1-1,4.7-1.3-3.3,2.8l-26.8,12.9l6.5-1.6l-14.9,6.6l0-8.6l0.8,4.6c-0.1-9.3,0-15,0.3-18.8
								c0.3-3.7,0.7-5.5,1.1-7.3c0.4-1.7,0.7-3.4,0.9-6.9c0.2-3.5,0.2-8.7-0.2-18c-0.5-2.8-0.8-5.8-1-9c-0.1-1.6-0.2-3.3-0.3-5.1
								c-0.1-1.6-0.1-3.3-0.2-5c-0.2-4.1,0-8.9,0.3-15.1c0.3,9,1.4,0.9,2.5,4.4c1-9.2-0.6-12.3-1.3-17.1c1.1-2.3,2-4,1.7,4.2
								c2.2,1.1-0.2-10.8,2-11.5c0.3-27.2-7-21.9-3.7-53.7l0.9,1.2c-0.8-20.2,0.4-31.9,0-50.6l2.5-14.7c0.3,3.3,1.9,12.2,3.1,8.1
								c-2.4,7.1-1.7,14.7-3.1,22.4c0.6,0.8,1.1-2.3,1.5-3.7c-0.1,4.7-1.2,7-0.9,13.1c0.5-0.3,1.2-7,1.4-1.9l-1.6,8.3
								c0.5,11.2,3.4,5.6,2.5,18.7c-1.2-2.5-3-7.5-3.3-12.6c-0.4,6-0.7-8-1.5-2.5c1.8,8.7,0.2,12.8,1.2,24.4
								c-0.2-1.4-0.6-1.7-0.7-4.6l-1,16.7c1.2-4.1,1,13.8,2.7,12.3c0.9-17.8-0.1-12.6,1.1-32.8c0.3,5.7,1.9,13.2,3.4,16.7
								c-0.1,0.2-0.1,0.5-0.2,1.1c1.6,3.1,2.1,0,4.9,0.1c-1.9-9.3-0.1-15.5-1.1-26.4c-1.5-2.1-2.1,6.3-1.8,11.7l-0.9-9.6l0.7,1.9
								l0.9-24.4c0,4.6,0.9,6.2,1.5,8.6c0.1-3.1,0.6-6.3,1.1-9.6c-1.5,0.7-2.6,0.2-2.5-2.9c0.6-15.7,2.1-24.4,3.9-30.2
								c0-0.6-0.1-1.3-0.1-1.8c-1.6,2.6-2.6-11.2-4.1-16.1c0.8,0.1,1.1-1.9,1.2-4.5c0-0.7,0.1-1.3,0.1-2.1c0-1,0.1-2,0.1-3
								c0.1-2.1,0.3-4.1,0.5-5.8c-0.9-2-2-2.1-3-0.5c-0.5,0.8-1.1,2.1-1.6,3.8c-0.2,0.8-0.5,1.8-0.7,2.8c-0.1,0.5-0.2,1-0.3,1.6
								c-0.1,0.3-0.1,0.6-0.2,0.8c0,0.2-0.1,0.3-0.1,0.5c1.5,10.6,1.6,6,3.9,11l1.3,17.1l-1.4-3.8c-0.8,8.5,1,16.7-0.8,16
								c-1.2-4.5-0.3-11.9-1.5-16.4l-0.8,5.6c-1.7-10,1.9-5.1,0.7-17.1c-1.7,4.4-0.1-1.1-1.1-6.3c-1.2,4.1,0.1,21.2-2.5,17.5
								c-0.5-3.1,0.3-8.4,1-13.9c0.3-2.8,0.6-5.6,0.7-8.2c0-0.7,0-1.3,0-1.9c0-0.5,0-1,0-1.5c0-0.5,0-1.1-0.1-1.6
								c-0.1-2.1-0.3-4.1-0.6-6l0.3,0.8c0.3-10.7,0.1-18-0.2-23.9c-0.4-6-0.9-10.6-1.3-15.3c0-0.3,0.1-0.5,0.1-0.8l0-0.4l0-0.2
								c0,0,0.1,0,0.2,0c0.6,0.1,1.3,0.2,2,0.3c1.3,0.2,2.7,0.3,4,0.4c2.7,0.2,5.5,0.4,8.3,0.5c5.6,0.3,11.4,0.4,16.6,0.9l0,0.8
								l14.5,1c-3.5,0.4-7.6,0-12.6-0.6c-4.9-0.6-10.7-1.4-16.9-1.9l2.4,1.7c-3.7-0.8-7.1-1.2-10.1-1.5c-1.5-0.1-2.9-0.2-4.3-0.2
								c-0.7,0-1.3,0-2,0l-0.5,0l-0.2,0l-0.1,0c0,0,0,0.1,0,0.1c0,0.4,0.1,0.8,0.1,1.1c0.5,6.1,1.4,11.8,1.9,17.4
								c-0.2-4-0.3-8.6-0.3-13.5c0-0.6,0-1.2,0-1.8l0-0.9l0-0.5c0,0,0,0,0-0.1l0.1,0l0.1,0l0.2,0c1.2,0.1,2.4,0.2,3.6,0.3
								c2.4,0.2,4.8,0.4,7.1,0.6c9.1,0.7,16.8,1,18.3-0.3l9.9,2.4l4.6-0.1c0.4,0.1,0.8,0.2,1.2,0.3c0.2,0.1,0.3,0.1,0.4,0.2
								c0.1,0.1,0.2,0.1,0.2,0.1c0.2,0.2,0.4,0.4,0.4,0.5c0,0.2-0.1,0.3-0.3,0.5c-0.1,0.1-0.2,0.1-0.4,0.2C0.6-14,0.3-13.9,0-13.9
								c-2.6,0.4-7.5,0.4-13.9,0c-2.3-0.6-3.5-0.9-3-1.1c-2.9,0.1-5.6,0.3-9.3,0.3c-3.7,0-8.4-0.2-15.6-1l6.9-0.2
								c-2.3-0.2-4.5-0.4-6.7-0.6l-0.8-0.1l-0.2,0l-0.1,0c0,0,0,0.1,0,0.1l0,0.4c0,0.5,0,1.1,0,1.6c0,1.1,0,2.1,0,3.2
								c0,4.2,0,8.2,0.1,11.9c0.2,7.3,0.6,13,1.3,16.2c0.2-6.1,0.4-12.2,0.7-18.3c0.1-3,0.2-6,0.3-9l0.1-2.2l0-1.1c0,0,0-0.1,0-0.1
								l0.1,0l0.3,0l0.6,0.1c1.5,0.1,3,0.3,4.5,0.4c11.9,1.1,23.6,2.2,35,3.2c4.8-2.9,10.2-4.2,12.8-7.1c10.1,0.4,23.9,1.4,32.5,3.4
								l-0.9,0.5c4.2,0.8,8.2,1,11.5,1c4.4,1.3-3.3,1.3-0.2,2.1l14.5,0.5c-1,1.3-13.2,0-19-0.5c1.1,0,3.3,0,2.6-0.3
								c-6.6-1.3-19.4-0.2-22.1-2.5c-3.3,0,6.8-0.8-4.3-2c-7.3-1.5-9.9,0.1-10.8,0.6c-0.2,0.8,11.5,2.2,7.3,2.8
								c5.8,0.5,8.2-0.3,15.5,1.2c-5.7-0.5-13.6,0.3-16.6-1.2C12-11.3,13.2-7.4,18.5-6.7C17.4-8,39.3-6,24.6-9
								c6.8-0.8,19,0.4,27.8,0.4l-0.4,0.3l10.8,0.8c-1.6,0.2-4.9,0.2-5.1,1l15.2-0.5c-8.6,0.5,5.1,1.6,8.9,2.6
								c1.7-1,7.7-1.2,2.2-2.6c-6.2-1.6-3.7,0.2-9.5-0.3l8.3-1l0.7,0.3l5.1-1c11,1.4-5.2,3.1,9.1,3.2L96-8.2
								C112.4-6,133.2-1,144.9-0.5c-3.4,0.8-5,2.5-0.8,4.3c-4.9-1-15-2.2-22.2-2.9c-1.3-0.5,9.3-1.4,17,0.1c-3.3-4-19.8-0.4-20.3-4
								c-9.8-1.8-13.6-1.4-17.1-1.1c-3.4,0.4-6.4,0.6-14.7-1.3c-0.4,1.5-4.9,0.2-5.9,1.5c4.7,3.1,22.5,2.5,33.3,4.7
								c-1.1,0-3.3,0-3.7,0.2c7.7,1.4,11,1.4,16.5,1.5l-0.7-0.3c9.7-0.3,5.7,1.9,11.3,3.3c2.2,0,9.9,1.5,8.8,0.2l9.9,2.8l-0.3-1.8
								c5.7,0.7,6.8,2,12.2,1.7l0.5-1.5l-14.1-2.5c7.3,0.5,2.2-1.2,10.2-0.5c-9.1,0.5,6.1,1.7,6.8,3.3l5.9-0.1L176,7.4
								c4.5,1.5,5.5,0.2,10.8,1.2c-6.2-1.8-10.1-3.5-18.3-3.5c6-0.1,17.7,0.6,20.5,1c6.2,0.3,10.3,2.1,16.1,3.2
								c-11.1-1.1,3.1,5.3-18.8,0.9c0.5-0.2,2.2,0.1,2.9,0.4C186.6,8,176,8.6,171.1,8.8c1.1,1.3-4,0.9,4.4,2.7
								c-2.7-1.1,7.5-1.5,15.4,0.6l-1.8,2.2l11.7,2.1l-1.1-0.1c2.1,1.1,5.2,1.5,8.8,2c3.6,0.4,7.7,0.8,11.6,2c6,0,28.2,4.8,19,0.5
								c7,2.9,13.7,2.1,21.7,3.5c-3.2-1-6.5-2.1-9.7-3c6,0.3,8.1,0.6,10,0.7c1.9,0.1,3.4,0,8.5-0.3c0.8,0.9,2.8,1.9,0.7,2.2
								c7.9,1.8,17.4,4.4,26.4,7.1c2.2,0.7,4.4,1.4,6.5,2c2,0.6,3.9,1.2,5.7,1.7c3.6,1.1,6.7,1.8,9.1,2.2
								c10.6,4.1,11.2,7.5,26.1,12.1c3.2,0.9-1.5-3.1,7.8,1.3c0.6,0.4-9.8-1.9,0.8,2.1c8.2,1.1,17.3,7.8,27.4,9.4
								c2.4,1.2,5.9,2.3,8.4,3.3c2.5,0.9,4.2,1.7,3.1,2.2c-2-0.6-4.2-1.3-6.4-2c-2.2-0.7-4.5-1.4-6.5-2c-4.1-1.3-7.5-2.2-8.5-2.2
								c1.4-0.5-5.5-2.9,0.7-1.4c-5.9-2.7-8-3.3-9.9-3.7c-1.9-0.4-3.7-0.8-9.2-3.3c-1,0.3,5.1,3.8,7.7,4.2c-0.3,1-5.9-0.9-10.3-2.3
								c-4.4-1.4-7.6-2.3-3,0.8c11.9,4.8,16.9,2.2,26.4,7.8c-4.5-0.2-10.6-3.6-16.6-3.6l8.2,4l6.7,0.8l-0.5,0.2
								c3.6,1.7,6.3,2.8,8.5,3.4c2.2,0.6,4,0.8,5.8,0.9c1.8,0.1,3.5,0,5.6,0.1c1.1,0,2.2,0.1,3.5,0.3c1.3,0.1,2.8,0.3,4.5,0.6
								c-3.7-1.7-3-2.4-2.1-3c0.9-0.6,1.9-1.1-0.8-2.3c4.4,1,8.1,1.8,10.7,2.6c2.6,0.8,4.1,1.7,4,2.7c-2.1-0.2-3.6-0.3-4.9-0.3
								c-1.2-0.1-2-0.1-2.6-0.1c-1.2,0.1-1.3,0.3-1.4,0.6c-0.2,0.5-0.2,1.3-8.2,0.3c2.4,1.4-4.5,2,4.8,4.6c5.4,0.5,4.7-0.2,4-0.6
								c-0.7-0.5-1.4-0.8,3.8-0.1c0.6,0.3,1.2,0.6,0.8,0.8c1.2,0,2.2,0,3.1,0.2c0.8,0.1,1.6,0.2,2.3,0.4c1.5,0.3,3.2,0.7,6.1,0.4
								l-1.4,0.3c1.8,0.5,3.1,0.7,4.3,0.8c1.2,0,2.1-0.1,3.1-0.2c0.9-0.1,1.8-0.2,2.9-0.2c1,0,2.2,0.1,3.8,0.5
								c-1.2-0.8-0.2-1.1,1.6-1.3c1.8-0.3,4.4-0.4,6.3-1c-1.5-0.1-2.9-0.4-4.3-0.6c-0.7-0.1-1.4-0.3-2.1-0.4
								c-0.7-0.2-1.4-0.3-2.2-0.5c-1.5-0.4-3.2-0.6-5.3-1c-1-0.2-2.2-0.3-3.4-0.5c-1.2-0.2-2.6-0.4-4.1-0.5c-1.6,1-0.8,1.9-5.9,1.7
								l4,0.5l3.9,0.4c-1.7,0-3.1,0.2-4.7,0.2c-2.5-0.6-5-1.2-7.5-1.9c1.2,0.1,2.2,0.2,3,0.2c0.8,0,1.5,0,2-0.1
								c1-0.1,1.6-0.3,1.9-0.6c0.7-0.5,0.7-1.1,2.8-1.5c2.1,0.4,3.6,0.6,4.8,0.7c1.2,0.1,1.9,0.1,2.6,0.1c1.4,0,2.4,0,5,0.2
								c-0.2,0.4,0.8,0.9,2.5,1.3c1.7,0.4,4.1,0.7,6.9,1c5.6,0.5,12.5,0.3,17.7,0.1c-1.6,0.2-3.6,0.5-4.7,0.6
								c-7.3,2.1,5.3,0.8,5.7,1.2l5.2-1.9c-1,0.3-2.3,1,0,0.8c3.6-1,5.2-1.9,6.8-2.8c1.6-1,3.1-1.9,6.6-3.1c0.8,0.8-4.9,3.9-0.2,3.2
								c1.7,0.3,7.5,1.2,16.8-3.3c0.5-0.6,2.9-1.8,5.7-3c-0.4,0.2-0.9,0.4-1,0.6c2.2-0.5,4.5-1.1,6.8-1.7c-2.4,1.9-5.2,2.9-8,3.8
								c-1.4,0.4-2.8,0.9-4.2,1.5c-1.4,0.6-2.7,1.2-3.9,2.1l0.1,1.7c-1.1,0.4-2.2,0.8-3.4,1.3c-1.2,0.5-2.4,0.9-3.5,1.4
								c-1.1,0.5-2.2,1-3.2,1.5c-1,0.5-1.8,0.9-2.4,1.3c0.9-0.2,1.6-0.4,2.3-0.6c0.7-0.2,1.3-0.4,1.9-0.6c1.2-0.4,2.2-0.7,3.3-1.1
								c2.1-0.7,4.2-1.7,7.9-3.2c1.4,0.6-3.6,3.1-4.3,3.5l0.8-1.2c-2.3,0.5-4.3,1-6.1,1.6c-1.8,0.6-3.5,1.4-5.3,2.1
								c-1.8,0.7-3.6,1.6-5.7,2.3c-1.1,0.3-2.2,0.7-3.4,1c-1.2,0.3-2.5,0.7-4,0.9c-1.8,0.3-0.7-0.1-0.4-0.4
								c-2.3,0.8-4.5,1.4-6.9,1.8c-2.3,0.4-4.6,0.7-7,0.8c-2.3,0.2-4.6,0.4-7,0.6c-1.2,0.1-2.3,0.3-3.5,0.5
								c-1.2,0.2-2.3,0.4-3.5,0.6l3-0.9c-1.6,0.2-3.5,0.4-5.8,0.7c-2.2,0.2-4.8,0.5-7.5,0.6c-5.5,0.4-11.8,0.3-18.1,0l-0.2,0.6
								c1.3,0.6-3.3-0.2-5.8-1l0,0c-6.3-0.5-12.4-1.5-17.3-2.3c1.4,0.8,3.3,1.7,5.5,2.4c1.1-0.1,4.4,0.7,7.3,1.3
								c2.9,0.5,5.4,0.8,4.8-0.2c1.3,0.5,2.8,0.9,4.4,1.2c1.6,0.3,3.3,0.5,5,0.7c3.3,0.4,6.5,0.5,8.4,1c-3.5-0.9-2.2-1.2,0.1-1.3
								c2.3-0.1,5.7-0.3,6.3-0.7c1.2,0.6,3.8,0.6,6,0.8c2.2,0.1,4,0.1,3.6,0.8c0.7,0.2-0.2,0-1.6-0.2c-1.4-0.1-3.4-0.4-5,0
								c-3.8,0.5-0.4,0.9,2.9,1.3c3.2,0.3,6.3,0.5,1.5,1.2c6.1-0.5,13-0.9,20-1.9c6.9-1,13.8-2.6,19.6-4.7l-6.8,1
								c2.7-0.5,7.2-1.5,11-2.5c3.9-1,7.2-2,7.8-1.8c-3.8,1.4-8.4,2.7-13.4,4.1c0.2,1.7,12.1-3.2,12.9-2.5l3.4-1.7
								c1.1-0.6,2.2-1.2,3.3-1.8c2.2-1.2,4.4-2.5,6.6-3.8c-2,0.8-4.1,1.5-6.2,2.2c0.9-0.6,2.4-1.2,4.3-1.9c1.9-0.8,4.1-1.6,6.6-2.4
								c4.8-1.8,10.4-3.8,15-5.6c-2.2,2.1-5.7,3.6-9.8,5.2c-2.1,0.8-4.2,1.6-6.6,2.5c-1.2,0.4-2.3,0.9-3.5,1.4
								c-1.2,0.5-2.4,1-3.6,1.6c-7.1,3.4,5.3,0.4-1.6,3.3c1-0.1,2.6-0.5,4.3-1.1c1.6-0.7,3.3-1.5,4.3-2.1l2.9-0.7
								c-1.4,1.1-3.3,2.2-5.5,3.3c-2.2,1.2-4.9,2.2-7.5,3.4c-2.7,1.1-5.6,2.1-8.3,3.2c-2.8,1-5.5,2-7.8,3.1c0.8-0.4,1.5-0.8,1.7-1.1
								c-7.7,1.2-15.5,2.7-23,4.2c4.1,0,5.6-0.5,7.9-1.2c0.1,0.1-0.3,0.3-0.9,0.5c-0.7,0.2-1.6,0.4-2.6,0.6c-2.1,0.5-4.5,1-5.9,1.4
								c1.8,0,2.8,0,3.3,0c0.5,0.1,0.6,0.2,0.7,0.3c0,0.3-0.3,0.5,2,0.4c-2.3,0.6-4.4,1-6.7,1.1c-2.3,0.2-4.7,0.4-7.6,0.4
								c-3-0.6,2.4-1.2,1.7-2.1c-1.5,0.2-2.7,0.3-3.9,0.2c-0.6,0-1.2-0.1-1.8-0.1c-0.6-0.1-1.2-0.2-1.8-0.3
								c-1.2-0.2-2.6-0.3-4.1-0.4c-1.5,0-3.3-0.1-5.5,0.1c5.7,0.4,4.9,0.9,2.2,1.4c-1.3,0.2-3.2,0.5-4.9,0.6
								c-1.8,0.1-3.4,0.3-4.4,0.3l1.9,0.2c-3.8,0.9-6.9,0.5-9.3-0.8c2.4,0,4.7,0.3,6.3,0.3c1.6,0,2.4-0.2,1.8-0.8
								c-1.6-0.1-3.1-0.2-4.7-0.3c-1.6-0.1-3.3-0.2-5-0.3c1.1-0.1,2.2-0.3,3.3-0.4c-1.3-0.1-2.5-0.3-3.8-0.4l-3.8-0.5
								c-2.5-0.4-5-0.8-7.5-1.3c-2.6,0.5-6.8,1-9.3,1.9c-1.7-0.9-3.8-1.5-5.9-2c-2.1-0.5-4.3-0.8-6-1.1l1.7,0.1
								c-1.5-0.7-3.6-1.4-5.8-2.2c-2.2-0.8-4.6-1.5-6.8-2.2c-4.5-1.3-8.3-2.3-9-2.1c-2.1-1.2,6.2,0.3,11.1,0.6c2.5,0.2,4,0.1,3-0.6
								c-1-0.7-4.6-2-12.4-4.6c-11.6-4.3-8.2,0-15.2-1.6c0,0,0.5-0.1-0.1-0.6c-4.9-2.1-5.8-1.3-10.1-2.5c2.8,1.6,7.2,3.3,8.7,3.4
								c-2,0.5-10.4-4.2-14.5-4.8c5.6,0.2-9.3-4.4-5.1-3.8C314,68,303,65.5,297.5,65c-1.5-1.1-2.9-1.9-4.4-2.6c-1.5-0.6-3-1-4.7-1.4
								c-0.8-0.2-1.7-0.4-2.6-0.6c-0.9-0.2-1.9-0.4-2.9-0.7c-2.1-0.5-4.3-1.2-7-2.2c1.7,0.5,4.7,1,6.9,1.9c6.5,0.3-10.8-3.8-1.1-2.5
								c-2.1-0.3-0.4,0.7,1.8,1.1c0.9,0.2,1.8,0.4,2.6,0.5c0.8,0.2,1.5,0.3,2.2,0.3c1.2,0.1,1.9,0,1.6-0.5c-1.4-0.6-2.7-1.3-4.1-2
								l-4.2-1.9l3.2,0.5l-6.5-2.7l-6.6-2.6c-0.4,0.2,0.8,0.9,1.4,1.2c-15.7-4.7-34.5-7.2-48.8-10c-1.7,1.8-10.6,0.7-20.6-0.6
								c-10-1.4-21.1-2.9-27.1-2.5c3.3-0.7,5.3-2.6,3.5-3.7c2.6,0.2,8.2-0.7,14,0.6c0.8,0.8,8,2.7,3.2,2.7c16.3,2.1-1.9-2.2,3.1-3
								c-18.1-2.4-29.1-1.4-40.6-2.1l-0.2-0.5l-8.7-0.2c7,1.2,6.3,3.5-2.6,1.5l1.1,0c-5-1.7-16-1.9-24.1-3.1l-5.7,0.7
								c-8.1-1.1-8.1-3.7-10.6-5.6c-12.7-1.7-20.3-0.5-29.5-0.3c-4-1.6-23-3.9-12.8-4.2c-11.6-0.3-9.9,5.9-29.3,0.6l5.2-0.5
								c-9.5-0.9-21-1.4-31.2-2c-2.6-0.2-5-0.3-7.4-0.4c-2.3-0.2-4.5-0.3-6.5-0.5c-1.6-0.1-2.8-0.3-3.8-0.7c0.4-0.9,0.1-1.7-1.1-2.4
								c-1.2-0.7-3.1-1.4-5.4-2.1c-1.2-0.4-2.5-0.7-3.8-1.1c-0.3-0.1-0.7-0.2-1-0.3l-0.1,0c0,0-0.1,0-0.1,0l-0.1,0.1l-0.1,0.3
								c-0.1,0.4-0.3,0.8-0.4,1.1c-0.6,1.4-1.4,2.6-2.3,2.6c0.4,0,0.7,1.2,0.9,2.6c0.2,1.3,0.4,2.8,0.6,3.2
								c-0.5,0.8-0.9,2.6-0.2,4.5c0.4-2.4,1.4-1.2,2.1-0.9c0.3,0.2,0.6,0.2,0.7-0.2c0.1-0.5,0-1.5-0.3-3.6c0.5,1.1,1.1,2.3,1.8,3.6
								c0.3,0.6,0.5,1.1,0.8,1.7c0.1,0.3,0.2,0.5,0.3,0.8c0.1,0.5,0.2,1.2,0.3,1.9c0.7,5.2,1.1,11.4,0.9,19.3l-1.6-0.3l0.7-12.4
								c-1.2,1.2-1-5.2-1.5-7.8c-1.2,23.1-3.7-3.1-3.8,20.6c1,2.3,0.6,0.8,0.9,7c0-2.9-1.1-3.4-1.2,1.2l1.2,4.5
								c-2.8,8.2-1.5-13.7-3.5-6.7c-1.1-9.2-1.5-25-3.6-22.1c-1,14.9,3.6,13.5,2.4,29.1l-0.9,1.6c0.5,5.5,1.9,6.4,2.7,9.4
								c-0.5,0.3-0.9,1.7-1.1,5.2c1.9,9.3,2.2,15.5,4.3,24c-1.3-22.8,1.8-19.4,0.7-42.9c0.6,3.7,0.8,20.2,3,21.3l-1.6-0.2
								c0.7,7.6,1.4,15.3,0.7,24.9l-0.8-5.9c0.9,12.7-2.7,21.1-0.2,31.2c0.2-3.5,0.2-6.4,0-8.6c0.6,6.6,0.3,14.8,0,21.9l2.4,14.8
								c-0.8-0.1-1,9.2-2.2,4.7c-1.4,10.6,0.9,15.6,1.2,21.7c-1.8,10.8-0.6-9.4-2.8-10.5c-0.5,7.5-0.6,15.2-0.5,22.1
								c0,1.7,0.1,3.4,0.2,5c0,0.4,0,0.8,0.1,1.2l0,0.6l0,0.3c0.1,0.3,0.1,0.7,0.2,1c0.2,1.3,0.5,2.4,0.9,3.1c0.3-1.4,0.6-2,1-2.1
								c-0.5,0.3-0.4,2.7-0.4,4c0.3,0.1,0.7,0.1,1,0.2c-0.7,2.5-1.3,3.1-2.1,1.5c-0.1,1.3,0.3,2.2,0.6,3.1c0.3,0.9,0.4,1.8-0.4,4.1
								c-0.6-1.1-0.6-3.5-0.6-5.6c0.1-2.1,0.2-4-0.2-4.9c0.3,3,0,5.1-0.5,7.5c-0.3,1.3-0.5,2.5-0.8,3.8c-0.1,0.7-0.3,1.4-0.4,2.1
								c-0.1,0.4-0.1,0.7-0.2,1.1c0,0.2-0.1,0.4-0.1,0.6l0,0.3c0,0,0,0.1,0,0.1l0.1,0c1.6-0.4,4.2-1.4,7.8-3.3c0,0.3-0.7,0.9-1,1.4
								c-0.4,0.5-0.4,0.8,0.9,0.2c3.1-1.5,3.5-2.2,3.5-2.9c0-0.7-0.4-1.3,0.5-2.3c-1.8,1.1-3.3,1.7-4.3,1.9c-1,0.2-1.6-0.1-2-0.6
								c0.5-0.5,1-1,1.4-1.5c-0.2,0.5,1.7-0.2,2.1,0.1c0.4-0.8,0.8-1.6,1.2-2.3c-0.5,1.2-0.2,2,0.9,2.1c1,0.1,2.7-0.4,4-1.3
								c-1.5-0.1-1.9-0.3-2.1-0.7c-0.2-0.4-0.2-0.9-0.3-2c0.7-0.8,1.2-1.2,1.6-1.3c0.4-0.1,0.8,0,1.3,0.1c0.2,0,0.5,0.1,0.7,0.1
								l0.2,0c0,0,0.1,0,0.1,0l0.3-0.1c0.4-0.1,0.8-0.3,1.2-0.4c1.6-0.6,3.4-1.5,5.7-3c-0.5,0.8-8.8,4.7-1.3,2.2
								c6.1-2.3,4.7-3.4,8.6-5.4c-4,3.3-2.4,3.9-6.6,7.6c-5.2,2.2-6.7,2.8-6.8,2.9c-0.5,0.3-0.9,0.5-3.5,2c0.7-0.1,1.5-0.1,2.4-0.2
								l1.3-0.2l0.7-0.1l0.3,0c0.1,0,0.4-0.1,0.5-0.1c-0.1,0.1-0.3,0.1-0.4,0.2l-0.2,0.1c-0.1,0.1-0.3,0.1-0.4,0.2
								c-0.3,0.1-0.5,0.3-0.7,0.4c-0.4,0.2-0.8,0.5-1.1,0.7c-0.6,0.4-0.9,0.8-1,1.1c-0.3,0.7,0,1.1-0.2,1.5c1.3-0.3,2.4-0.6,3.3-1
								c0.5-0.2,0.9-0.3,1.3-0.5c0.6-0.2,1.1-0.5,1.6-0.7c1.9-0.9,3.1-1.8,4.1-2.5c1.9-1.6,3.2-3,8.2-4.8c4.4-2.9-9.4,3.5-2.3-0.5
								c9.4-3.5,1.7-1.8,12-6.6l-1.5,1.4c3.5-0.4,6.3-2.7,10-4.3c3.9-2-6.6-3.3,10.2-9.9c-0.7,0.7-0.9,1.1-0.8,1.3
								c-3.9,6.2-7.8,12.4-11.7,18.6c17-6.6,36.7-13.7,56.9-19.9c5.5,0.7-13.4,7.1-11.8,7.7l-9.2,2.8c0.1-1.2,18.8-7.2,10-6.1
								c-15.7,6.5-23.3,8.1-37.5,15.9c5.6,0.6,19.6-8,30.1-9.7c-4.2,1.4-7.6,2.9-10.8,4.5c9.3-3.1,19.3-6.4,29.9-9.8l2.2-1.4
								c-7.2,2.2-12.2,3.8-12.8,4c9.5-3.2,16.9-7.3,16.9-9.3l-1.7,0.5l3.2-1.8C97.8,187,100,186.3,102.3,185.6z M593.1,115.2
								c0.2,0.6,0.4,1.1,0.7,1.4C593.5,116.2,593.4,116.6,593.1,115.2z M-33.9,188c-0.3,7-0.6,14-0.8,20.9
								c-0.3,7.8-0.6,15.7-0.8,23.4c1-7.8,2-14.4,2.9-19.2c0.9-4.8,1.6-7.9,2.2-9c0.6-1.1,1-0.2,1.3,3.1c0.3,3.3,0.3,9,0.2,17.9
								l0.2,2.1c0.5-5.1,0.7-12.8,0.5-20.1c-0.6-2.7-2.1-9.9-3.4-16c-1.3-6.2-2.6-11.4-2.8-11.3c-1.1,2.3,0,5.8-0.4,10L-33.9,188z
								 M-27.5,178.7c0.5-7.5-0.3-5.8-1.1-7c0.1,2.7,0.1,5.3,0.2,7.9C-28.1,178.6-27.9,178.1-27.5,178.7z M-29.3,172.1
								c0,0.8-0.1,1.6-0.2,1.9L-29.3,172.1z M42.4,210.6c-0.3,0.1-0.4,0.2-0.7,0.3c1.7-0.6,3.4-1.2,5.1-1.8
								C46.1,209.3,44.8,209.7,42.4,210.6z M27.5,214.4l-1.2,1.9c1.6-0.6,3.2-1.1,4.8-1.7C30.4,214.3,29.6,214,27.5,214.4z
								 M-14.7,226.6c-2.9,3-11,6.5-13.5,9.6c-1.1,1,0.6,0.5,2.6-0.2c2.3-0.9,4.8-1.9,7.5-3c0.2-0.4,0.9-1,1.9-1.6
								c-2.5,0.8-3.8,0.8-2.1-1.1c1.1,0.2,2.2,0,3.2-0.5c0.9-0.4,1.8-1.1,2.6-1.8c1.7-1.4,3.2-3.1,6.3-4c1-1.1-0.7-0.8-2.7-0.1
								C-11.1,224.7-13.7,225.9-14.7,226.6z M363.8,73.8c0.2,0.2,0.8,0.9,1.7,1.8l-6-1.2c-9.9-4.1-16.9-9.8-26.7-11.2
								c-4-2.2-5.8-4.2-7.6-6c2,0.9,3.9,1.7,5.5,2.5c13.2,3.3,16.1,5.5,18.4,7.5C351.5,69.1,353.1,71.1,363.8,73.8z M247.8,32.9
								c1.1,0.1,1.6-0.1,1.6-0.1c-24.2-1.2-43.7-3.2-56.4-5.3c1.1,0.9,4.5,2,8.3,3.1c3.7,1.1,7.9,2.2,10.5,2.9l-5,0.8l-2.8-1.7
								l-8.5,0.1c2.2,1.4,8.9,2.2,13.2,3.8c0.4-0.3,15.1,0.3,19.2,0.1l-11.3-3c1.5,0.5,6.1,1.3,11,2c4.9,0.8,10.3,1.6,13.3,2
								c0.3-0.8-9.9-3.8-11.5-2.4c-1-1.4,10.9,0.8,3.6-1.8c4.6,0.2,10.4,1.2,15.9,2.5c5.5,1.3,10.6,2.8,13.8,3.8l0.7,2.2
								c7,2.4,5.4-1.3,13.6,2c-10.5-2.2,1.2,2.5-7.1,0.6c2.5,1.3-0.4,2,7.8,3.9c3.8-0.4,5.8,0.7,7.8,1.6c2,1,3.8,2.1,7.3,2
								c3.9,2.1-5,0,3.1,3c10,2,9.8,1,11-0.6c-8.8-3.7-10.9-1.3-18-4c2.6,0.3,5.1,0.5,7.7,0.8l7.8,1c-2.5-1.4-4.5-2.1-6.2-2.6
								c3,0.9,5.7,1.3,8,1.4c1.3,0.1,2.6,0.2,3.7,0.3c-4.1-1.5-8.1-2.9-11.1-4.1c-3-1.2-5.2-2-5.7-2.6l1.4-0.5
								c-1.4-0.9-3.3-1.6-5.3-2c-1.9-0.4-3.8-0.6-5.1-0.6c-7.7-2-15.7-2.5-17.1-4l3.1-0.1C260.9,35.5,259.9,35.3,247.8,32.9z
								 M-32.3,40.9c1.7-2.9,3.3-6,4.5-11.7c0.6-2.9,1.1-6.3,1.4-10.5c0.3-4.2,0.5-9.3,0.4-15.9l0.2,2.3c0.1-0.7,0.3-1.4,0.3-2.1
								l0-0.3c0,0,0-0.1,0-0.1l0.2,0l0.6,0.1l1.2,0.2c1.6,0.2,3.2,0.3,4.7,0.4c3,0.1,6,0.1,9.3,0c6.4-0.1,14.2,0,22.4,2
								C8.9,5.6,7,5.7,4.9,6c-1,0.1-2.1,0.3-3.5,0.6C0.7,6.7-0.1,6.9-1,7.1c-0.8,0.2-1.6,0.4-2.5,0.7l1.7-0.1l0.5,0l0.5,0l1.1,0
								l4.4-0.1C2.2,9.2,11,9.1,17.3,9.8l-5.8,1.6c-1.9-0.5-5.3-1-8.2-1.4C0.4,9.7-2.1,9.5-1.8,9.8c0.8,0-1.4-1-5.1-1.9
								c-3.6-0.9-8.8-1.9-11.8-1.8c0.9,0.8,4.6,1.4,7.4,2c1.4,0.3,2.5,0.6,3,1c0.5,0.4,0.3,0.7-0.8,1.3c2.1-0.3,3.6-0.1,4.9,0.2
								c0.7,0.2,1.3,0.3,2.1,0.4c0.1,0,0.2,0,0.3,0c0.1,0,0.3,0,0.4,0c0.3,0,0.7,0.1,1,0.1c0.7,0.1,1.5,0.1,2.4,0.1
								c-1.8,0.1-2.7,0.2-3.3,0.4c-0.6,0.2-0.6,0.5-0.7,0.7c-0.2,0.5-0.2,1-1.6,1.4l1.6,0L0.9,14l5.9,0.3c0.1,0.3-4.2,0.1-7.4,0.2
								c-0.4,0-0.8,0-1.1,0.1c-0.1,0-0.2,0-0.3,0c-0.1,0-0.1,0-0.1,0c-0.1,0-0.2,0.1-0.2,0.1c-0.3,0.1-0.5,0.2-0.6,0.4
								c-0.1,0.2,0,0.3,0.2,0.5c0.3,0.2,0.3,0.4,1.7,0.8c4.8-0.3,17.3,1.9,17.7,0.3l0.2,0.5c8.8,1.2,4.1-1.8,14.9,0.2
								c0.2-0.8-1.8-1.5-5.7-1.8c-3.3,0-3.9,1-10.7,0.6c-2.9-1.5,8.2,1,3.7-1.6c-2.2-1.3-18-0.9-12.8-2.7l8.8,1.2
								c0.4-1.6,6.8-0.8,6.7-2.1c5.5,0,10.4,2.3,16.1,1.5c2.4-0.8-1.4-3.1,7.6-1.3c6.9,3.1,28,4.9,35.9,5.5l7-0.2
								c-0.5-1-13.2-1.4-8.6-2.1l10.8,0.8l-0.9,0.5c3.5,0.5,7.3,0.3,10.5,0.4c-3.5,0.7-11.2-0.6-9.8,1.2c5,0.9,5.7,1.6,10.4,1.8
								c-1,0-1.9,0.1-1.8,0.3c10.1,1.9,10.1-0.7,12.7-0.9c10.5-0.9-10.1-3.2-8.6-4.7c10,0.9,20.1,1.8,30.1,2.8
								c-2.6,0.2-5.3,0.4-4.4,1.2c7.2,1.7,0,1.3,10.3,2.5c-0.4-2.3,13.2,0.3,20.6,0c3.3,1.4,3.9,1.7-3.5,0.7
								c0.7,1.6,10.7,2.4,14.2,3c2.1-0.1,5.6,0.2,7.9,0.2c-2.9-1.2-1.5-1.9,5.1-1.6l0.4-0.2c-10.5-2-26.7-5.8-33.6-5.2l2-0.5
								c-12.1-2.9-27-0.8-32.3-4.3c0.7-1-2.4-0.5-2-2.1l-9.2,0.1l2-0.5L95.2,8.5l0.4-0.2c-7.5,0.6-13.3,1.1-18,1.5
								c-0.1,0.7,0.4,0.9-2.1,1.2c-2.5,0.1-4.3-0.1-6-0.4c0,0,0,0,0,0l0,0c-3.7-0.6-6.2-1.9-10.8-2.8l14.3,1.4c1.3-1,0.2-2.4-6.7-4
								c2.9,0.3,4.2-0.5,0.6-1c-0.4,0.3-9.5-0.3-6.1,1c-13.6-1-35.3-6.4-56.2-6.2c15,0.1-11.7-2.7,4.8-1.6C6.6-3.2,4.6-3.5,2.9-3.6
								c-0.8,0-1.6,0-2.2,0c-0.8,0.1-1.5,0.2-2.2,0.2c-3.2,0.4-6.1,1-13,0.2c-0.7-0.4,1.2-0.2,3.7,0C-8.4-3-5.5-2.9-3.8-3.4
								c-6.1-0.8-11.7-1.2-16.8-1.4C-23.2-4.9-25.7-5-28-5c-1.2,0-2.3,0-3.5,0l-0.4,0l-0.2,0c0,0-0.1,0-0.1,0l0,0.1l0.1,1l0.1,2
								c0.3,5.3,0.6,10.3,0.8,15.3c0.1,2.5,0.2,5,0.2,7.5c0,1.3,0,2.5,0,3.8c0,0.7,0,1.3,0,2c0,0.6,0,1.2-0.1,1.8l-1.5,0.8
								C-32.6,32.8-32.4,36.8-32.3,40.9z M-31,78.4c0.1,3.6,0.2,7.3,0.3,11.1c0-0.4,0-0.7,0.1-1.1l1,11c0.7-6.7,2.3-11.1,3-1.7
								c-0.6-0.8-1.4,1.9-1.7-1.3c-1,6.3-2,20.1,0.2,16.5c-1.9-12.1,2.9-2.8,1.4-12.3c1.4,5.1,0.6,10.2,1.2,15
								c-1.1-5-2.7,1.1-3.4,8.7c0.3,3.3-0.2,12.2,0.3,17.6c1.4-1.9,2.1,2.8,2.6-6.1c0.3,3.3,0.5,8.3-0.3,14
								c-0.2-2.2-0.3-6.2-0.8-5.9c-1.3,3.6-1.3,7.9-1.9,10.3c0,1.9,0.1,3.8,0.1,5.6c0.1-0.5,0.3-1,0.5-1.4l1.1,6.3
								c-0.5-8.3,0.7-3.8,1.5-3.7c-1.6-0.2-0.3,5.4-0.3,8.2l1.8-6.2c0.8,3-1.4,10.5,0.3,9c0.9-13.1,0.6-18.2,0.3-30.1l-1.4,4.8
								c-0.7-13.4,2.3-8.2,2.5-23.3c-1.1-6.3,0.3-22.6-2.1-23c0.7,1.9,2.2-9.3,1.3-14.5c-2.1-5.7-2.1-23-3.2-17.8
								c-0.1,4.7,1,10.9-0.5,14.7l-0.3-9l-1.3,5.9C-28.1,76.7-29.3,77-31,78.4z M12.5,239c0.1,0,0.2-0.1,0.3-0.1
								C12.7,239,12.6,239,12.5,239L12.5,239z"/>
							<path class="st1" d="M493.1,71.5c2.2-1.4,8.1-3.7,6.5-4.3C500.2,68.4,489.2,71.5,493.1,71.5z"/>
							<path class="st1" d="M500.6,69.9c0.3-0.5-0.2-0.8,2.4-1.9l-3.6,1.7l-3.6,1.6C497.4,70.8,499,70.4,500.6,69.9z"/>
							<path class="st1" d="M511.4,74.8c3.4-2.5,5.6-3.9,11.5-6.5c1.7,0.9-0.6,2.2-3.5,3.7c-3,1.5-6.6,3.2-7.4,5.1
								c2.8-1.1,5-2.1,6.9-3.2c1.9-1.1,3.5-2.1,5-3.2c1.5-1,3-2.1,4.6-3.1c0.8-0.5,1.7-1,2.6-1.6c0.9-0.5,1.9-1.1,3-1.6
								c-2.4,0.5-8.3,2.5-13.4,4.7c-2.6,1.1-5,2.3-6.7,3.2C512.3,73.4,511.2,74.2,511.4,74.8z"/>
							<polygon class="st1" points="508,80.5 513.9,77.3 513.2,77.4 507.3,80.6 							"/>
							<path class="st1" d="M372.2,57.5c-0.2-1.1-4.2-1.5-6.3-2.1C367.4,56.2,369.6,57.2,372.2,57.5z"/>
							<path class="st1" d="M582,221.9l5.1,4l5.7,4.5l5.7,4.5c0.5,0.2,0.8,0.3,1.2,0.5l1.1,0.4l2.2,0.8l0.6,0.2
								c0.2,0.1,0.3,0.1,0.4,0.1l0.8,0.1l1.6,0.3l0.4,0.1c0.1,0,0.2,0,0.3,0l0.5,0l1.1-0.1c0.2,0,0.3,0,0.4-0.1l0.3-0.1l0.7-0.2
								l0.7-0.3c0.1,0,0.3-0.1,0.3-0.1l0,0l-0.1,0.1c0,0-0.2,0.2-0.3,0.3c-0.3,0.3-0.7,0.6-1.2,1.1l-0.9,0.7l-0.5,0.4l0,0l0,0
								c-0.7-1.3,1.5,2.9-1.5-2.9l0,0l0,0l0-0.1l0.1-0.2l0.2-0.4c0.9-2.3,2-4.7,3.2-7.4c-1.1,2.3-2,4.4-2.8,6.4
								c-0.2,0.5-0.4,1-0.6,1.5l-0.1,0.2l0,0c0.7,1.3-1.5-2.9,1.5,2.9l0,0l0,0l0,0l0.1,0l0.2-0.2l0.4-0.4c0.6-0.5,1-0.9,1.4-1.2
								c0.2-0.2,0.3-0.3,0.5-0.5c0.1-0.1,0.3-0.3,0.3-0.3c0.2-0.2,0-0.2-0.3,0l-0.4,0.1l-0.2,0.1l-0.4,0.1c-0.3,0.1-0.5,0.1-0.8,0.2
								c-0.4,0-0.8,0-1.3,0.1l-0.7,0l-0.2,0l-0.2,0l-0.5-0.1c-0.7-0.1-1.3-0.2-2-0.3c-0.2,0-0.3,0-0.5-0.1l-0.7-0.3
								c-0.5-0.2-1-0.4-1.4-0.5c-0.5-0.2-1-0.4-1.5-0.5c-0.5-0.2-0.9-0.3-1.6-0.6c-1.5-1.2-5.2-4.1-11.3-8.9
								C586.5,225.4,584.3,223.7,582,221.9z"/>
							<path class="st1" d="M209.4,17.6c13.5,1.2,19.7,0.6,33.4,2.7c-8.8-2.6-14.8-2.9-20.5-3.1c-5.7-0.2-11-0.3-18.3-2.5
								L209.4,17.6z"/>
							<path class="st1" d="M215.4,10.7c1.9,2.2-10.7,0.5-8.9,2.1c9.1,1,4.5-1.1,12.6,0.4L215.4,10.7z"/>
							<polygon class="st1" points="269.2,52 265.1,52.1 268.3,52.4 							"/>
							<polygon class="st1" points="154.2,3.4 155.7,3.1 149.1,1.7 							"/>
							<path class="st1" d="M157.2,2.9l-1.5,0.2L157.2,2.9z"/>
							<path class="st1" d="M263.4,54.7c1.9,0.6,3.8,1.1,5.6,1.7l3-0.1c-1.4-0.3-2.8-0.6-4.3-0.8L263.4,54.7z"/>
							<path class="st1" d="M213.6,35.2l5.4,0.3C217.9,35.4,210.8,33.5,213.6,35.2z"/>
							<polygon class="st1" points="113.3,-2.6 106.7,-2.7 107.3,-2.4 114,-2.3 							"/>
							<path class="st1" d="M171.2,33.8c3.5,1.9-10.7-1.1-3.3,1.2C174.7,35.7,172,34.6,171.2,33.8z"/>
							<path class="st1" d="M93.9,14.3c-0.9-0.1-1.8-0.2-2.7-0.1C92.2,14.3,93.1,14.3,93.9,14.3z"/>
							<path class="st1" d="M93.9,14.3c2.8,0.3,5.6,1.2,7.6,1C98,14.3,96.7,14.4,93.9,14.3z"/>
							<path class="st1" d="M61.3,11l2.6,0.4c-2.7,0.4-1.5,0.4,1,0.1c2.7,0.2,2.6-0.2,3-0.5c0.6-0.1,1.1-0.2,1.7-0.4
								c-0.9,0.1-1.6,0.2-2.3,0.3C63,10.4,60.4,10.2,61.3,11z"/>
							<path class="st1" d="M-49.8,32.6c0.2-2.4,0.3-4.3,0.4-5.9c0.1-1.4,0.2-2.7,0.2-3.8c0.1-1.1,0.2-2.1,0.2-2.9
								c0.3-3.2,0.7-4,1.2-3.4C-47.1,0.3-49,1.9-49.2-8.8c-0.1,9.8-0.2,15.6-0.4,21.9c-0.1,3.2-0.1,6.5-0.2,10.4c0,1,0,2,0,3.1
								c0,0.6,0,1.2,0,1.8C-49.8,29.7-49.8,31.1-49.8,32.6z"/>
							<path class="st1" d="M-49.2-8.8c0-2.2,0-4.3,0-6.9C-49.3-12.9-49.3-10.7-49.2-8.8z"/>
							<polygon class="st1" points="98,27.2 91.9,28.1 94.1,28.2 							"/>
							<path class="st1" d="M-50.5,46.8c0.1-1.8,0.1-4.6,0.5-6C-51.2,40.3-50.6,48.6-50.5,46.8z"/>
							<path class="st1" d="M-28.5,9.5c0.7-0.5,0.4-7.1,0.7-9.4c-0.1,1.7-0.7,2.9-1,4.3C-29.2,5.7-29.3,7.3-28.5,9.5z"/>
							<path class="st1" d="M-46.4,74.4c0.1-1.8,0.9-4.5,1.8-3.3C-45.2,68.5-47.1,65-46.4,74.4z"/>
							<polygon class="st1" points="-29,27.7 -28.6,26.3 -29.2,19.3 							"/>
							<path class="st1" d="M-12.7,18.3c-0.6-2.1-1.4-1.8-2.2-1.3c-0.8,0.4-1.5,0.9-2-3.2c-0.4,2-0.4,3.2-0.3,3.7
								c0.1,0.6,0.4,0.6,0.7,0.5c0.6-0.1,1.4-0.2,1.2,2.8c0.2-1.7,0.8-2.5,1.3-2.8C-13.5,17.7-12.9,17.9-12.7,18.3z"/>
							<path class="st1" d="M-15.3,20.8c-0.1,0.5-0.1,1-0.1,1.6C-15.4,21.7-15.3,21.2-15.3,20.8z"/>
							<path class="st1" d="M-25,118.1c-0.1-1.1-0.3-1.8-0.4-2.5C-25.3,116.4-25.2,117.2-25,118.1z"/>
							<path class="st1" d="M-14.7,53l-1.8-11.1c1.2,7.4,0.8,26,2.8,24.9c0.5-6,0.1-13.3-0.7-16.2L-14.7,53z"/>
							<path class="st1" d="M-52,179.4l-0.7-4.8l-0.3,6C-52.7,178.9-51.3,182-52,179.4z"/>
							<path class="st1" d="M-53.1,181.7l0.1-1.2C-53.1,180.8-53.1,181.2-53.1,181.7z"/>
							<path class="st1" d="M-25.7,97.1c0.2-3.6,0.2-6.4-0.1-9.7C-26.2,88.8-26.7,97.7-25.7,97.1z"/>
							<polygon class="st1" points="-49.8,221.6 -49.9,207.6 -50,222.9 							"/>
							<polygon class="st1" points="-36,266.5 -33.8,266 -21.8,260.1 -24.1,260.7 							"/>
							<path class="st1" d="M-14.4,202.3c0.3-5.3-1.4-9.5-1.8-8.2l-0.1,9.3c0.4-0.3,0.6-0.5,0.7-0.7c0,0,0,0,0-0.1l0-0.2
								c0-0.1,0-0.2,0-0.4c0-0.2,0-0.5-0.1-0.8c-0.1-1.1-0.4-2.7-0.2-5.7L-14.4,202.3z"/>
							<path class="st1" d="M241.1,169.2c-1,0.7-4.2,1.4-7.2,1.9c-3,0.5-5.9,0.7-6.3,0.3c1.3-0.7,7.1-2.4,3.3-2.2
								c-2.7,1.4-5.3,2.9-7.9,4.3c-5.8,0.5-3.9-0.8,0.2-2.5c4.1-1.7,10.3-3.7,13.1-4.7c-5.8,1-9.5,2.2-13.2,3.4
								c-3.8,1.2-7.6,2.5-13.7,4.1c3.7-0.7,6.1-0.6,8.1-0.5c0.8,1.6-10.7,3.6-18.9,5.9c5.4-0.6,2.5,0.8-1,2.5
								c-0.7,0.2-1.1,0.5-1.4,0.6c-0.4,0.2-0.8,0.4-1.2,0.6l1-0.3c0,0.2,0.3,0.4,1,0.5c6.7-2.3,12.2-2.2,16.6-3.2
								c-2.5-0.9,1.2-2,6.2-3c5-1.1,11.2-2.1,13.9-3.1c2.1-0.6,4.2-1,6.3-1.6l2.4-0.5c0.5,0.2-0.1,0.7-3.6,2
								c2.9-1.2,13-2.8,11.9-3.5c7.6-1.3,15.2-2.4,22.6-3.1c0.7,0.1,1.4,0.1,1.9,0.3c0.8-0.2,0.9-0.4,0.8-0.5
								c8-0.7,15.8-0.9,22.9-0.3c3.4,0.3,6.7,0.8,9.4,1.5c0.6,0.2,1.2,0.4,1.8,0.6l0.2,0.1l0.3,0.1l0.7,0.3l1.4,0.5
								c1.8,0.7,3.7,1.3,5.5,2.1c14.8,5.8,29.1,13.8,43.9,22.8c-4.3-2.9-7.7-5.7-12-8.5c7.7,2.2-7.2-4.5-4.3-4.9
								c1.7,0.5,3.6,1.5,5.4,2.6c1.8,1,3.5,2.2,4.7,3.2c1.5-0.2-1.9-3.1-0.9-3.8c-2.7-1.9-4.9-3.1-6.9-3.9c-2-0.8-3.8-1.4-5.6-1.8
								c-1.8-0.4-3.6-0.9-5.6-1.6c-2-0.7-4.2-1.6-6.9-3c0.4-0.4,1.6-0.4,1.8-0.7c0.2-0.3-0.7-1-4.4-2.5l1.9,0.6
								c-3-1-5.1-1.9-6.5-2.6c-1.5-0.7-2.4-1.4-3.2-1.9c-1.6-1.1-2.8-1.6-7-1.6l0.7-1.4c-0.8-0.2-1.4-0.1-2-0.2
								c-0.7-0.1-1.3-0.2-2.2-0.3c-0.8-0.1-1.6-0.2-2.5-0.3c-0.9-0.1-1.8-0.2-2.7-0.3c-0.9-0.1-1.9-0.1-2.9-0.2
								c-0.5,0-0.9-0.1-1.4-0.1c-0.5,0-1,0-1.4-0.1c-0.9,0-1.8-0.1-2.7-0.1c-0.9,0-1.7,0-2.5,0l0.4-0.3c-2.1,0.1-3.9,0.4-5.3,0.5
								c-1.5,0.1-2.7,0.3-3.7,0.4c-1,0.1-1.8,0.2-2.6,0.2c-0.8,0.1-1.4,0.1-2.1,0.1c-1.4,0.1-2.8,0.1-5.2,0.3
								c-2.4,0.2-5.6,0.6-10.7,1.4c1.5-0.5,3-1,4.5-1.5c1.5-0.5,3-1,4.6-1.4c-3.5-0.1-5.6,0.5-7.5,1.1c-1.9,0.6-3.4,1.3-6,1.5
								c0.3-0.4-1-1.3,3.7-2.3c-8.1,2-16.2,4.3-24.3,6.9C233,170.1,240.1,168.7,241.1,169.2z"/>
							<path class="st1" d="M209.3,173.9c-1.3,0.2-2.8,0.6-4.6,1.1C206.4,174.6,207.9,174.2,209.3,173.9z"/>
							<path class="st1" d="M368.3,198.3l-6.3-3.8C363.9,195.7,365.9,197,368.3,198.3z"/>
							<path class="st1" d="M174.7,186.9c4.5-0.5-2.9,2-3.4,2.8c5.1-1.5,10.2-3,15.3-4.4c-0.2-0.6,1.1-1.7,0.6-2.1
								C183,184.4,178.8,185.6,174.7,186.9z"/>
							<path class="st1" d="M191.3,185.1c0.4-0.5,1.9-1.4,3.6-2.2l-8.4,2.3C186.7,185.7,187.8,185.8,191.3,185.1z"/>
							<polygon class="st1" points="181,154.2 183.8,153.4 187.9,151.8 							"/>
							<path class="st1" d="M225.8,145.9c-3.6-0.2-9.9,1.9-12,2.7C221.2,146.9,218,147.9,225.8,145.9z"/>
							<polygon class="st1" points="214.4,138.3 221.5,136.2 220.8,136.1 							"/>
							<path class="st1" d="M422,221.1c1.2,0.5,2.4,1,3.7,1.4C424,221.9,423,221.4,422,221.1z"/>
							<path class="st1" d="M365,190.7c6.8,5.2,4.2,4.1,0.4,2.2c-3.8-1.8-8.9-4.3-7.2-2l8.2,4.1l-1,0.1l9.8,5.8
								c-1.5-2.1-2.9-3.1-1.9-3.8c6.4,4.2,7.3,5.2,7.7,5.9c0.4,0.8,0.2,1.3,4.8,4.9c5.1,3,10.3,6,15.8,8.9l-1.5-0.4
								c1.4,0.7,2,0.9,2.6,1c9.2,4.8,19.2,9.3,29.9,12.7c10.7,3.4,22.2,5.6,33.9,5.9c6.4-0.3,4.6-0.9,2.4-1.5
								c-2.1-0.6-4.6-1.3,0-2.1c-0.9,0-1.8,0-2.7-0.1c-0.9,0-1.9-0.1-2.9-0.2c-1.9-0.2-3.9-0.3-5.9-0.6c-2-0.3-3.9-0.6-5.9-1
								c-1.9-0.4-3.7-0.8-5.5-1.2c-1.8-0.3-3.4-0.8-4.8-1.1c-1.5-0.4-2.8-0.6-4-0.9c-2.3-0.5-3.8-0.7-4.2-0.2c0.5-0.1,1.6-0.4-1-1.5
								c-2.7-0.3-5.4-0.7-8.1-1.1c2.3,1.1,4.6,2.2,7,3.2c-1.1-0.1-2.3-0.4-3.8-0.8c-1.4-0.4-3.1-0.8-4.8-1.5
								c-1.7-0.6-3.5-1.3-5.3-2.1c-1.8-0.8-3.6-1.6-5.4-2.5c-7.1-3.5-13.2-7.3-14.8-8.9c3,1.6,5.1,2.4,6.6,2.9
								c1.5,0.5,2.6,0.8,3.8,1.1c2.4,0.7,5.1,2,14.2,6.5c-0.6-0.9-3.6-3.2,0.7-1.7c-10.9-4.3-20.3-9.6-29.4-14.8
								C383.6,201,374.7,195.6,365,190.7z"/>
							<path class="st1" d="M575.3,214.8l-0.3,0c0.1,0.1,0.3,0.2,0.3,0.2C575.7,215.2,575.8,215.2,575.3,214.8
								C575.4,214.9,575.3,214.9,575.3,214.8z"/>
							<path class="st1" d="M566.5,210.8c-1.3,0.3-2.5,0.6-3.8,1l-1.9,0.6c-0.7,0.2-1.3,0.5-2,0.7l1.6-0.2c0.5-0.1,1,0,1.5-0.1
								l1.5-0.1l0.7,0l0.7,0l1.4,0c0.5,0,0.9,0,1.4,0.1l0.7,0.1l0.4,0c0.3,0,0.7,0.1,1,0.1c0.6,0.1,1.2,0.2,1.7,0.4
								c0.1,0,0.1,0,0.2,0.1l0.2,0.2l0.4,0.4l0.9,0.7c0.7,0,1.4,0,2,0c-0.6-0.4-1.7-1.1-3-2c-0.2-0.1-0.3-0.2-0.5-0.4
								c-0.2-0.1-0.3-0.1-0.5-0.1c-0.3-0.1-0.7-0.1-1.1-0.1c-0.4,0-0.7-0.1-1.2-0.1l-0.2,0l-0.1,0l-0.1,0l-0.2,0
								c-1.2,0-2.7,0.1-3.4-0.3L566.5,210.8z"/>
							<path class="st1" d="M549.3,216c3.4-1.1,4.8-1.8,5-2.5c0.2-0.6-0.9-1.2-2.9-1.2c6.2-1.8,3.6,1.3,7.6-1
								c-0.1-0.3-0.6-0.5-1.3-0.5c-0.4,0-0.8,0-1.3,0c-0.5,0.1-1,0.1-1.6,0.2c-1.1,0.2-2.2,0.4-3.2,0.7c-1,0.3-1.8,0.6-2.3,0.7
								L549.3,216z"/>
							<path class="st1" d="M489.3,233.1l2.6-1.2c-1.1,0.2-2.2,0.4-3.3,0.5l-3.4,0.3C486.6,232.8,488,232.9,489.3,233.1z"/>
							<path class="st1" d="M491.9,231.8l3.3-0.5c1.1-0.2,2.2-0.3,3.3-0.6c-0.6-0.4-1.1-0.8-2.2-1L491.9,231.8z"/>
							<path class="st1" d="M515.1,226.4c1.3-0.4,2.7-0.9,4.1-1.4c0.7-0.3,1.5-0.5,2.3-0.8c0.7-0.3,1.5-0.5,2.3-0.8L515.1,226.4z"/>
							<path class="st1" d="M507.8,228.3l0.3,0.2c2.3-0.7,4.7-1.3,6.9-2C512.5,227.2,510.2,227.7,507.8,228.3z"/>
							<path class="st1" d="M498.4,230.7c0.7,0.5,1.4,1,3.1,1c1.7,0,4.5-0.3,8.9-2l-2.3-1.3l-2.4,0.7c-0.8,0.2-1.6,0.4-2.4,0.6
								L498.4,230.7z"/>
							<path class="st1" d="M268.5,130.8c2.3-0.4,4.5-0.9,6.9-1.3l-0.8-0.1c-2.3,0.4-4.6,0.9-6.9,1.3L268.5,130.8z"/>
							<path class="st1" d="M309.8,132.3c1,0,1.8,0.1,2.6,0.1c0.8,0,1.5,0.1,2.2,0.1C312.4,132.2,310.8,132.2,309.8,132.3z"/>
							<path class="st1" d="M342.9,134.5c7.2,4.6-11.2-3.2,2.7,3.6c0.4,0.8-1.2,0.8-3.7,0.2c-1.3-0.3-2.7-0.8-4.3-1.4
								c-1.6-0.6-3.3-1.3-4.9-2.1c0.9-0.8,6.9,2,3.1-0.7c-2.5-0.3-4.1-0.9-4.9-1c-0.9-0.2-1,0-0.5,1.1c-2-0.5-3.6-0.8-4.9-0.9
								c-0.7-0.1-1.3-0.2-1.8-0.2c-0.3,0-0.5,0-0.8-0.1c-0.3,0-0.6,0-0.8-0.1c-2.4-0.1-4.4-0.2-7.5-0.3c1.4,0.2,2.9,0.5,4.6,1
								c0.9,0.3,1.8,0.5,2.7,0.8c0.8,0.3,1.6,0.6,2.4,0.9c1.6,0.6,3.3,1.3,5.1,1.9c1.7,0.7,3.5,1.5,5.3,2.2
								c7.2,3.1,14.5,6.4,20.3,8.3c3.4,0.6,4.6,0,5-1.3c0.5-1.2,0.2-2.9,0.9-4.2c-0.2-0.3-1.2-1-2.8-1.9c-1.6-0.9-3.6-2.1-5.8-3
								c-2.1-1-4.3-1.9-6-2.5C344.5,134.4,343.2,134.2,342.9,134.5z"/>
							<path class="st1" d="M331.5,126.8c-1.9-0.8-3.1-1.2-4.2-1.6c-0.5-0.2-1-0.3-1.5-0.5c-0.3-0.1-0.5-0.1-0.8-0.2
								c-0.4-0.1-0.7-0.2-1.1-0.3c0.1,0.3,0.5,0.5,1.1,0.8c0.5,0.2,1.1,0.4,1.8,0.5C328.2,125.9,330,126.2,331.5,126.8z"/>
							<path class="st1" d="M396.3,186.2c0.8,0,6.5,2.9,5.7,1.6c-2.9-1.5-5.7-3-8.6-4.6C395.4,184.4,395.8,185.2,396.3,186.2z"/>
							<path class="st1" d="M389.7,181.1l3.8,2.1C392.6,182.6,391.4,181.9,389.7,181.1z"/>
							<path class="st1" d="M396.6,186.6c-0.1-0.2-0.2-0.3-0.3-0.5C396.1,186.2,396.1,186.3,396.6,186.6z"/>
							<path class="st1" d="M537,219c0.1,0.8,3.7-0.8,5.4-1.6C540.9,217.8,538.7,218.3,537,219z"/>
							<path class="st1" d="M612.9,144.7l0.4-3.9C613,142.2,612.8,142.9,612.9,144.7z"/>
							<path class="st1" d="M588.5,86.5c-0.2-0.1-0.3-0.4-0.4-0.8C588.2,86.1,588.4,86.4,588.5,86.5z"/>
							<path class="st1" d="M588.1,85.8c-0.8-2.6-0.2-10.8-1.3-13.6l0.3,0.4l-0.9-5.4C586.6,72.2,587,82.9,588.1,85.8z"/>
						</g>
					</g>
				</g>
			</g>
		</g>
	</g>
</g>
<g id="Layer_8">
</g>
</svg>
