<?xml version="1.0" encoding="utf-8"?>
<!-- Generator: Adobe Illustrator 27.0.1, SVG Export Plug-In . SVG Version: 6.00 Build 0)  -->
<svg version="1.1" xmlns="http://www.w3.org/2000/svg" xmlns:xlink="http://www.w3.org/1999/xlink" x="0px" y="0px"
	 viewBox="0 0 318.4 301.6" style="enable-background:new 0 0 318.4 301.6;" xml:space="preserve">
<style type="text/css">
	.st0{fill:#EBA304;stroke:#EBA304;stroke-miterlimit:10;}
	.st1{fill:#D81E5C;stroke:#D81E5C;stroke-miterlimit:10;}
</style>
<g id="Layer_2">
	<path class="st0" d="M14,118.6c51.5,82.3,211.9,48.7,106,24.4"/>
	<path class="st0" d="M159.5,13.2c-56.6,78.9,35.4,214.6,17.7,107.3"/>
	<path class="st0" d="M310.3,120.3c-89.5-37.6-201.3,82.3-100.7,41.1"/>
	<path class="st0" d="M248.7,288.8c12.4-96.3-133-172.1-66.5-86"/>
	<path class="st0" d="M64.9,279.5c95.3-18.6,121.3-180.5,60.7-90.2"/>
	<ellipse class="st0" cx="158.5" cy="168.1" rx="66.6" ry="55.2"/>
</g>
<g id="Layer_1">
	<path class="st1" d="M159.1,157.3c0,0-53.4-50.1-53-95c-0.4-51.7,54-61,54-61"/>
	<g>
		<path class="st1" d="M150.4,162.1c0,0-64.2,35.3-106.7,21c-49.3-15.6-41.3-70.2-41.3-70.2"/>
		<path class="st1" d="M151,160.2c0,0-31.1-66.3-74-79.8C27.9,64,2.3,112.9,2.3,112.9"/>
	</g>
	<g>
		<path class="st1" d="M157.1,169.7c0,0,12.8,72.1-14.5,107.8C112,319.2,62.9,294,62.9,294"/>
		<path class="st1" d="M155.5,168.5c0,0-72.8,8.1-99.3,44.3C24.9,254,62.9,294,62.9,294"/>
	</g>
	<g>
		<path class="st1" d="M161.1,157.3c0,0,53.4-50.1,53-95c0.4-51.7-54-61-54-61"/>
		<g>
			<path class="st1" d="M169.9,162.1c0,0,64.2,35.3,106.7,21c49.3-15.6,41.3-70.2,41.3-70.2"/>
			<path class="st1" d="M169.3,160.2c0,0,31.1-66.3,74-79.8c49.1-16.4,74.7,32.5,74.7,32.5"/>
		</g>
		<g>
			<path class="st1" d="M163.1,169.7c0,0-12.8,72.1,14.5,107.8c30.7,41.7,79.8,16.5,79.8,16.5"/>
			<path class="st1" d="M164.7,168.5c0,0,72.8,8.1,99.3,44.3c31.3,41.2-6.7,81.2-6.7,81.2"/>
		</g>
	</g>
</g>
</svg>
